<svg id="Layer_1" data-name="Layer 1" xmlns="http://www.w3.org/2000/svg" viewBox="0 0 22.78 21.77"><defs><style>.cls-1{fill:#fff;}</style></defs><title>certify</title><path id="star5" class="cls-1" d="M14.25,6.43A1.53,1.53,0,0,0,15.7,7.49h6a1.07,1.07,0,0,1,.63,1.94L17.47,13a1.53,1.53,0,0,0-.55,1.71l1.85,5.7a1.07,1.07,0,0,1-1.65,1.2L12.27,18a1.53,1.53,0,0,0-1.8,0L5.63,21.56A1.08,1.08,0,0,1,4,20.36l1.85-5.7A1.53,1.53,0,0,0,5.27,13L.43,9.44a1.07,1.07,0,0,1,.63-1.94H7A1.53,1.53,0,0,0,8.5,6.44L10.35.74a1.08,1.08,0,0,1,2,0Z" transform="translate(0.02 0)"/></svg>