<svg id="Page_17" data-name="Page 17" xmlns="http://www.w3.org/2000/svg" viewBox="0 0 105.32 94.74"><defs><style>.cls-1{fill:#fff;}</style></defs><title>sign</title><path class="cls-1" d="M22,36.91h0c-1.65,1.56-4.42,4.89-5.49,6.2h0C6.56,55.1.87,66.91.06,79.07a28.09,28.09,0,0,0,0,4,24.1,24.1,0,0,0,3.6,11.33c.16.24.26.38.26.38s-.13-.79-.21-2.16c-.39-7,.56-29.16,26.51-41.7a70.56,70.56,0,0,1,7.92-3.23q3.31-1.13,7.06-2.06c1.46-.36,3-.7,4.52-1L52,44.14c-4.64-1-9.88-4.26-10.64-6.34,15.94,6.71,31.45,2.53,40.09-2.41a24.09,24.09,0,0,0,5.49-4.1,11.8,11.8,0,0,1-3.53.12c-5.32-.4-14.05-2.63-16.23-6.33,0,0,13,6.42,24.37-1.15a25.59,25.59,0,0,0,6.52-6.36,11.61,11.61,0,0,1-4.32,1.72c-4.15,1-10,1.46-13.22-.22,0,0,12.71-1,19.83-9a21.49,21.49,0,0,0,3.74-5.82A15.51,15.51,0,0,0,105.32,0S56.21,1.21,22,36.91Z"/></svg>