<?xml version="1.0" standalone="no"?>
<!DOCTYPE svg PUBLIC "-//W3C//DTD SVG 1.1//EN" "http://www.w3.org/Graphics/SVG/1.1/DTD/svg11.dtd" >
<svg xmlns="http://www.w3.org/2000/svg">
<metadata></metadata>
<defs>
<font id="roble_alt_boldbold" horiz-adv-x="588" >
<font-face units-per-em="1000" ascent="750" descent="-250" />
<missing-glyph horiz-adv-x="212" />
<glyph unicode="&#xfb01;" horiz-adv-x="694" d="M608 467v-363l58 -10v-94h-249v94l64 10v259l-64 10v94h191zM628 642q0 -37 -26 -63t-63 -26q-36 0 -62 26t-26 63t26 63t62 26q37 0 63 -26t26 -63zM330 0h-293v94l63 10v265h-64v98h64v92q0 196 188 196q26 0 50.5 -4.5t35.5 -9.5l12 -5v-106q-23 14 -73 14 q-86 0 -86 -86v-91h152v-98h-152v-270l103 -5v-94z" />
<glyph unicode="&#xfb02;" horiz-adv-x="694" d="M607 746v-642l58 -10v-94h-248v94l63 10v538l-63 10v94h190zM330 0h-293v94l63 10v265h-64v98h64v92q0 196 188 196q26 0 50.5 -4.5t35.5 -9.5l12 -5v-106q-23 14 -73 14q-86 0 -86 -86v-91h152v-98h-152v-270l103 -5v-94z" />
<glyph horiz-adv-x="0" />
<glyph unicode="&#xd;" horiz-adv-x="1000" />
<glyph unicode=" "  horiz-adv-x="212" />
<glyph unicode="&#x09;" horiz-adv-x="212" />
<glyph unicode="&#xa0;" horiz-adv-x="212" />
<glyph unicode="!" horiz-adv-x="275" d="M187 200h-99l-18 546h136zM211 67q0 -31 -21.5 -52.5t-52.5 -21.5t-52 21.5t-21 52.5t21 52.5t52 21.5t52.5 -21.5t21.5 -52.5z" />
<glyph unicode="&#x22;" horiz-adv-x="356" d="M143 547h-86l-9 206h104zM302 547h-85l-9 206h104z" />
<glyph unicode="#" horiz-adv-x="653" d="M565 171h-118l-43 -171h-106l43 171h-123l-43 -171h-105l43 171h-82v94h105l36 140h-84v94h107l50 195h105l-50 -195h123l50 195h106l-50 -195h92v-94h-115l-36 -140h95v-94zM277 405l-36 -140h123l36 140h-123z" />
<glyph unicode="$" d="M42 171q0 12 2 23t4 16l3 5l129 10q-5 -12 -5 -26q0 -44 32 -69.5t88 -25.5q126 0 126 75q0 33 -28.5 55.5t-71 33t-92.5 27t-92.5 36.5t-71 63t-28.5 104q0 75 56 131.5t165 64.5v79h61v-79q109 -7 162.5 -56.5t53.5 -123.5q0 -12 -2.5 -23.5t-4.5 -16.5l-3 -5l-122 -11 q5 12 5 28q0 44 -29.5 70.5t-89.5 26.5q-55 0 -87 -22t-32 -60q0 -34 28.5 -57t71 -33t92 -26t92 -34.5t71 -60t28.5 -101.5q0 -83 -58.5 -137t-175.5 -58v-84h-61v85q-111 8 -163.5 57.5t-52.5 118.5z" />
<glyph unicode="%" horiz-adv-x="819" d="M237 -44l-72 44l427 747l72 -43zM349 517q0 -85 -42.5 -132t-117.5 -47t-117.5 47t-42.5 132t42.5 131t117.5 46t117.5 -46t42.5 -131zM120 517q0 -98 69 -98t69 98q0 97 -69 97t-69 -97zM789 172q0 -85 -42.5 -132t-117.5 -47q-74 0 -116.5 47t-42.5 132t42.5 131 t116.5 46q75 0 117.5 -46t42.5 -131zM561 172q0 -98 68 -98q70 0 70 98q0 50 -19 73.5t-51 23.5q-31 0 -49.5 -23.5t-18.5 -73.5z" />
<glyph unicode="&#x26;" horiz-adv-x="676" d="M471 270v79h178v-94l-63 -13q-10 -65 -47 -121l107 -121h-146l-38 44q-76 -51 -181 -51q-115 0 -182.5 56t-67.5 144q0 44 17 79t43.5 55.5t46.5 30.5t39 16q-67 85 -67 152q0 76 51.5 122.5t135.5 46.5t136.5 -44.5t52.5 -122.5q0 -41 -18.5 -73.5t-47.5 -52t-50.5 -29 t-41.5 -14.5l132 -149q11 30 11 60zM284 95q62 0 108 30l-157 181q-29 -10 -54 -35.5t-25 -70.5q0 -46 35.5 -75.5t92.5 -29.5zM229 521q0 -10 2.5 -21t5.5 -18.5t10 -19t9.5 -15.5t11.5 -16t9 -13q13 3 26 8t30 15.5t27.5 30.5t10.5 47q0 31 -18 52.5t-49 21.5 q-35 0 -55 -20t-20 -52z" />
<glyph unicode="'" horiz-adv-x="196" d="M143 547h-86l-9 206h104z" />
<glyph unicode="(" horiz-adv-x="363" d="M360 679q-207 -173 -207 -442q0 -268 207 -441l-55 -76q-29 17 -58 38.5t-70.5 67t-72 99t-52.5 136t-22 176.5t22 176.5t52.5 136.5t72 99.5t70.5 67t58 38.5z" />
<glyph unicode=")" horiz-adv-x="363" d="M8 679l55 76q29 -17 58 -38.5t70.5 -67t72 -99.5t52.5 -136.5t22 -176.5t-22 -176.5t-52.5 -136t-72 -99t-70.5 -67t-58 -38.5l-55 76q206 172 206 441q0 270 -206 442z" />
<glyph unicode="*" horiz-adv-x="418" d="M169 742h78l4 -105l88 47l39 -65l-100 -63l68 -88l-58 -49l-79 88l-79 -88l-58 49l68 88l-101 63l39 65l88 -47z" />
<glyph unicode="+" horiz-adv-x="543" d="M329 75h-107v198h-186v94h186v197h107v-197h178v-94h-178v-198z" />
<glyph unicode="," horiz-adv-x="236" d="M86 -116l-15 40q15 4 35 21.5t20 42.5l-2 8q-5 -3 -16 -3q-28 0 -45.5 18.5t-17.5 46.5t20 47t49 19q33 0 54.5 -24t21.5 -65q0 -67 -31 -102.5t-73 -48.5z" />
<glyph unicode="-" horiz-adv-x="463" d="M410 232h-357v120h357v-120z" />
<glyph unicode="." horiz-adv-x="224" d="M182 63q0 -29 -20.5 -49.5t-49.5 -20.5t-49 20.5t-20 49.5t20.5 49.5t48.5 20.5q29 0 49.5 -20.5t20.5 -49.5z" />
<glyph unicode="/" horiz-adv-x="411" d="M132 -107l-111 32l258 883l111 -33z" />
<glyph unicode="0" horiz-adv-x="663" d="M623 341q0 -174 -76 -261t-215 -87t-215.5 87t-76.5 261q0 176 76.5 264.5t215.5 88.5q138 0 214.5 -88.5t76.5 -264.5zM173 341q0 -237 159 -237q158 0 158 237q0 242 -158 242q-159 0 -159 -242z" />
<glyph unicode="1" horiz-adv-x="514" d="M504 0h-454v95l170 11v429l-142 -69l-54 78l223 144h103v-582l154 -11v-95z" />
<glyph unicode="2" horiz-adv-x="604" d="M569 0h-519v96q15 7 40 19t88 51.5t111.5 79.5t88.5 98t40 113q0 59 -34 92.5t-92 33.5q-62 0 -93.5 -33.5t-31.5 -86.5q0 -10 1.5 -19t3.5 -13l1 -4l-129 11q-9 18 -9 46q0 89 66 149.5t187 60.5q131 0 197 -62t66 -162q0 -65 -30.5 -125.5t-69 -99.5t-88 -73.5t-72 -46 t-37.5 -17.5h314z" />
<glyph unicode="3" horiz-adv-x="598" d="M440 356v-4q5 -1 13 -3t28 -13t35.5 -26t28.5 -44.5t13 -66.5q0 -92 -73 -149t-196 -57q-159 0 -262 115l66 88q16 -18 37.5 -35.5t66.5 -37t91 -19.5q68 0 103 27t35 74q0 36 -28 59.5t-81 23.5h-86v112h70q42 0 75.5 21t33.5 71q0 41 -30.5 66t-91.5 25 q-56 0 -84.5 -28t-28.5 -70l2 -19l-120 12q-6 20 -6 40q0 77 64.5 126.5t179.5 49.5q125 0 186 -57t61 -136q0 -32 -10.5 -58.5t-25.5 -41.5t-30 -26t-26 -15z" />
<glyph unicode="4" horiz-adv-x="591" d="M480 0h-130v153h-331v99l294 436h167v-427h80v-108h-80v-153zM350 256v295l-198 -295h198z" />
<glyph unicode="5" d="M286 -7q-164 0 -268 112l76 92q81 -92 191 -92q64 0 100.5 32t36.5 92q0 48 -37 80t-110 32q-29 0 -57 -5t-44.5 -10t-32.5 -11.5t-19 -7.5l-51 18l34 363h421v-108h-310l-15 -158q36 23 101 23q117 0 184 -57t67 -159q0 -107 -68 -171.5t-199 -64.5z" />
<glyph unicode="6" horiz-adv-x="613" d="M326 -7q-132 0 -209 83.5t-77 265.5q0 180 81 266t226 87q73 0 125.5 -22t74.5 -43l-62 -97q-59 50 -139 50q-79 0 -122 -48t-50 -155q65 50 173 50q118 0 178 -58t60 -155t-68 -160.5t-191 -63.5zM322 327q-87 0 -146 -49q10 -86 48.5 -130t101.5 -44q62 0 95 32.5 t33 82.5q0 46 -33 77t-99 31z" />
<glyph unicode="7" horiz-adv-x="544" d="M294 0h-139l222 543q5 12 11 21.5t10 12.5l3 3h-259l-16 -115h-101l5 223h507v-84z" />
<glyph unicode="8" horiz-adv-x="607" d="M417 359v-2q30 -12 45.5 -20t46 -29t46 -51.5t15.5 -68.5q0 -87 -73.5 -141t-192.5 -54q-116 0 -191 52t-75 143q0 124 136 172q-114 53 -114 155q0 76 63 127.5t185 51.5q117 0 177.5 -51t60.5 -124q0 -63 -36 -103t-93 -57zM438 203q0 30 -22 52t-47 33t-72 26 q-127 -29 -127 -111q0 -43 36 -71t97 -28q63 0 99 26.5t36 72.5zM186 505q0 -79 122 -105q109 31 109 101q0 38 -29.5 63t-86.5 25q-56 -1 -85.5 -24.5t-29.5 -59.5z" />
<glyph unicode="9" horiz-adv-x="615" d="M288 695q132 0 209 -83.5t77 -265.5q0 -180 -81 -266t-226 -87q-73 0 -126 22t-73 42l61 98q55 -51 139 -51q78 0 120.5 46t50.5 149q-66 -49 -172 -49q-118 0 -178 60t-60 160q0 97 68 161t191 64zM292 353q86 0 146 49q-9 89 -48 135t-102 46q-62 0 -95 -32t-33 -82 q0 -49 33 -82.5t99 -33.5z" />
<glyph unicode=":" horiz-adv-x="238" d="M189 63q0 -29 -20.5 -49.5t-49.5 -20.5t-49.5 20.5t-20.5 49.5t20.5 49.5t49.5 20.5t49.5 -20.5t20.5 -49.5zM189 404q0 -29 -20.5 -49.5t-49.5 -20.5t-49.5 20.5t-20.5 49.5t20.5 49.5t49.5 20.5t49.5 -20.5t20.5 -49.5z" />
<glyph unicode=";" horiz-adv-x="248" d="M92 -116l-15 40q15 4 35 21.5t20 42.5l-2 8q-5 -3 -16 -3q-28 0 -45.5 18.5t-17.5 46.5t20 47t49 19q33 0 54.5 -24t21.5 -65q0 -67 -31 -102.5t-73 -48.5zM193 404q0 -29 -20.5 -49.5t-49.5 -20.5t-49.5 20.5t-20.5 49.5t20.5 49.5t49.5 20.5t49.5 -20.5t20.5 -49.5z " />
<glyph unicode="&#x3c;" horiz-adv-x="371" d="M331 534l-162 -163l162 -162l-66 -68l-222 203v56l222 203z" />
<glyph unicode="=" horiz-adv-x="526" d="M456 302h-386v119h386v-119zM456 68h-386v120h386v-120z" />
<glyph unicode="&#x3e;" horiz-adv-x="372" d="M203 371l-162 163l66 69l222 -203v-56l-222 -203l-66 68z" />
<glyph unicode="?" horiz-adv-x="532" d="M309 211h-114l-9 159q71 0 126 42.5t55 123.5q0 50 -27 78t-76 28q-53 0 -79 -30.5t-26 -82.5l4 -26l-127 11q-8 17 -8 42q0 84 60.5 140.5t172.5 56.5q118 0 178.5 -61.5t60.5 -159.5q0 -44 -17 -84t-41 -65.5t-51.5 -45t-46.5 -28t-28 -10.5zM325 67q0 -31 -21.5 -52.5 t-52.5 -21.5t-52 21.5t-21 52.5t21 52.5t52 21.5t52.5 -21.5t21.5 -52.5z" />
<glyph unicode="@" horiz-adv-x="1063" d="M630 68v5h-3l-1 -3l-5 -7.5t-7.5 -11t-11 -13t-15 -13t-20 -12.5t-24.5 -10.5t-30 -7t-36 -2.5q-92 0 -150.5 62.5t-58.5 178.5q0 119 58 179.5t152 60.5q30 0 56.5 -8t42.5 -19t27.5 -22.5t16.5 -19.5l5 -8h4l16 70h94v-332q0 -42 33 -42q128 0 128 193q0 156 -94.5 260 t-276.5 104q-178 0 -282 -111t-104 -285q0 -57 12.5 -107t29.5 -85t47 -66.5t52.5 -49.5t59 -37t53 -26t48.5 -19l-62 -87q-24 10 -38 16t-45 21.5t-52 30t-51 38.5t-51 48.5t-44 59.5t-37 73t-23.5 87t-9.5 103q0 79 19 151.5t59.5 136t98 110.5t140 74t180.5 27 q100 0 183 -28t137 -73.5t91.5 -105t54 -121t16.5 -123.5q0 -150 -79 -229.5t-192 -79.5q-35 0 -59.5 9.5t-34.5 24t-13.5 24.5t-3.5 17zM515 96q61 0 97 38v189q-11 20 -37 34t-58 14q-57 0 -90 -36t-33 -102t34 -101.5t87 -35.5z" />
<glyph unicode="A" horiz-adv-x="749" d="M450 688l228 -584l72 -10v-94h-280v94l79 10q-19 49 -44 112h-258l-43 -112l79 -10v-94h-276v94l73 10l186 480l-86 8v96h270zM355 497l-69 -178h180l-68 178l-19 51h-7q-13 -40 -17 -51z" />
<glyph unicode="B" horiz-adv-x="680" d="M379 0h-340v94l84 10v480l-84 10v94h296q135 0 201 -44.5t66 -137.5q0 -39 -11 -68t-31 -45t-32.5 -22.5t-29.5 -12.5v-6q22 -3 43.5 -10.5t48 -24t43 -49.5t16.5 -78q0 -190 -270 -190zM253 108h132q67 0 99 23t32 73q0 44 -33.5 69t-89.5 25h-140v-190zM253 398h119 q41 0 69 24.5t28 65.5q0 48 -31 70t-77 22h-108v-182z" />
<glyph unicode="C" horiz-adv-x="657" d="M616 425l-125 -17q3 18 3 40q0 58 -38.5 96.5t-105.5 38.5q-178 0 -178 -242q0 -237 179 -237q141 0 141 125v19l128 -27v-14q0 -91 -68 -152.5t-211 -61.5t-222.5 87t-79.5 263t81 263.5t224 87.5q139 0 208 -66t69 -160z" />
<glyph unicode="D" horiz-adv-x="735" d="M253 108h87q114 0 169 56.5t55 181.5q0 234 -237 234h-74v-472zM368 0h-329v94l84 10v480l-84 10v94h314q154 0 248.5 -84t94.5 -258q0 -94 -25.5 -162.5t-72 -107.5t-103.5 -57.5t-127 -18.5z" />
<glyph unicode="E" horiz-adv-x="636" d="M585 0h-546v94l83 10v480l-83 10v94h550l4 -211h-100l-12 103h-229v-181h196v-106h-196v-185h228l12 103h99z" />
<glyph unicode="F" horiz-adv-x="613" d="M406 0h-367v94l83 10v480l-83 10v94h550l4 -211h-100l-12 103h-229v-181h196v-106h-196v-189l154 -10v-94z" />
<glyph unicode="G" horiz-adv-x="664" d="M616 441l-125 -13q3 17 3 36q0 52 -38.5 85.5t-105.5 33.5q-178 0 -178 -242q0 -237 182 -237q140 0 140 131v7l-140 5v95h267v-105q0 -104 -67.5 -174t-209.5 -70q-144 0 -224.5 87t-80.5 263t81 263.5t224 87.5q139 0 208 -60.5t69 -147.5z" />
<glyph unicode="H" horiz-adv-x="815" d="M776 0h-298v94l83 10v181h-308v-181l84 -10v-94h-298v94l84 10v479l-84 11v94h298v-94l-84 -11v-198h308v198l-83 11v94h298v-94l-85 -11v-479l85 -10v-94z" />
<glyph unicode="I" horiz-adv-x="376" d="M337 0h-298v94l84 10v479l-84 11v94h298v-94l-84 -11v-479l84 -10v-94z" />
<glyph unicode="J" horiz-adv-x="367" d="M123 51v532l-87 11v94h302v-94l-84 -11v-556q0 -111 -65.5 -180.5t-165.5 -83.5l-39 115q77 24 108 64t31 109z" />
<glyph unicode="K" horiz-adv-x="745" d="M253 580v-209h103l151 209l-77 14v94h299v-94l-80 -14l-188 -257v-10q21 -10 43.5 -36.5t41.5 -55.5t40.5 -57.5t50.5 -47t61 -18.5l24 3v-102q-19 -6 -58 -6q-52 0 -97 28.5t-76.5 69.5t-59 82t-54 69.5t-51.5 28.5h-73v-164l101 -13v-94h-315v94l84 13v473l-84 14v94 h282v-94z" />
<glyph unicode="L" horiz-adv-x="591" d="M570 0h-531v94l84 10v479l-84 11v94h297v-94l-83 -11v-475h212l12 116h99z" />
<glyph unicode="M" horiz-adv-x="960" d="M433 54l-159 419h-6l-26 -369l64 -10v-94h-277v94l83 10l30 479l-85 11v94h245l132 -326l41 -125h13q30 96 41 125l132 326h244v-94l-85 -11l27 -479l83 -10v-94h-277v94l64 10l-26 369h-5l-159 -419h-94z" />
<glyph unicode="N" horiz-adv-x="827" d="M714 0h-139l-317 453h-5v-349l84 -10v-94h-298v94l84 10v479l-84 9v96h204l335 -484h6v379l-84 11v94h297v-94l-83 -11v-583z" />
<glyph unicode="O" horiz-adv-x="704" d="M665 341q0 -174 -82 -261t-231 -87t-231 87t-82 261q0 176 82 264.5t231 88.5t231 -88.5t82 -264.5zM172 341q0 -237 180 -237t180 237q0 242 -180 242t-180 -242z" />
<glyph unicode="P" horiz-adv-x="633" d="M356 0h-317v94l84 10v479l-84 11v94h335q105 0 170 -58.5t65 -161.5q0 -109 -66 -166.5t-182 -57.5h-108v-140l103 -10v-94zM253 353h91q133 0 133 115q0 57 -36.5 84.5t-95.5 27.5h-92v-227z" />
<glyph unicode="Q" horiz-adv-x="704" d="M665 341q0 -154 -65 -240t-183 -103q10 -37 46.5 -60t109.5 -40l-40 -113q-100 13 -165.5 73t-67.5 138q-125 15 -193 101t-68 244q0 176 82 264.5t231 88.5t231 -88.5t82 -264.5zM172 341q0 -237 180 -237t180 237q0 242 -180 242t-180 -242z" />
<glyph unicode="R" horiz-adv-x="683" d="M628 460q0 -178 -172 -207v-2q18 -8 40 -34.5t39.5 -53t44 -48t54.5 -21.5l28 3v-98q-21 -6 -62 -6q-42 0 -80 24t-65.5 58.5t-51.5 68.5t-49 58t-48 24h-53v-122l99 -10v-94h-313v94l84 10v479l-84 11v94h353q105 0 170.5 -60.5t65.5 -167.5zM253 330h113q129 0 129 123 q0 63 -36.5 95t-97.5 32h-108v-250z" />
<glyph unicode="S" horiz-adv-x="591" d="M45 171q0 12 2.5 23t4.5 16l2 5l129 10q-5 -12 -5 -26q0 -44 32 -69.5t88 -25.5q126 0 126 75q0 33 -28.5 55.5t-71 33t-92.5 27t-92.5 36.5t-71 63t-28.5 104q0 80 64 138.5t187 58.5q125 0 186 -50.5t61 -130.5q0 -12 -2.5 -23.5t-5.5 -16.5l-2 -5l-122 -11q5 12 5 28 q0 44 -29.5 70.5t-89.5 26.5q-55 0 -87 -22t-32 -60q0 -34 28.5 -57t71 -33t92 -26t92 -34.5t71 -60t28.5 -101.5q0 -86 -63.5 -141t-190.5 -55q-132 0 -194.5 51t-62.5 127z" />
<glyph unicode="T" horiz-adv-x="668" d="M483 0h-298v94l84 10v476h-143l-12 -103h-99l4 211h629l4 -211h-98l-13 103h-142v-476l84 -10v-94z" />
<glyph unicode="U" horiz-adv-x="762" d="M534 257v326l-84 11v94h292v-94l-84 -11v-328q0 -130 -71 -196t-205 -66q-135 0 -206.5 66t-71.5 196v328l-84 11v94h298v-94l-84 -11v-321q0 -158 148 -158q74 0 113 42.5t39 110.5z" />
<glyph unicode="V" horiz-adv-x="761" d="M448 0h-135l-237 583l-74 11v94h298v-94l-78 -11q139 -367 142 -377l12 -43h13l12 43l144 377l-79 11v94h293v-94l-73 -11z" />
<glyph unicode="W" horiz-adv-x="1042" d="M410 0h-153l-177 583l-75 11v94h297v-94l-77 -11q92 -366 94 -377l8 -43h13l8 43l119 482h115q113 -471 115 -482l7 -43h13l9 43l94 377l-76 11v94h293v-94l-74 -11l-180 -583h-155l-97 440q-5 20 -5 36h-10q0 -16 -5 -36z" />
<glyph unicode="X" horiz-adv-x="759" d="M319 0h-302v94l81 10l198 235l-197 244l-82 11v94h301v-94l-76 -11l138 -172l135 172l-75 11v94h302v-94l-82 -11l-198 -244l198 -235l82 -10v-94h-300v94l75 10l-138 163l-137 -163l77 -10v-94z" />
<glyph unicode="Y" horiz-adv-x="720" d="M425 252v-148l87 -10v-94h-303v94l85 10v148l-213 331l-77 11v94h302v-94l-74 -11l124 -219h11l129 219l-75 11v94h296v-94l-78 -11z" />
<glyph unicode="Z" horiz-adv-x="642" d="M594 0h-552v104l387 476h-273l-14 -103h-97l2 211h552v-103l-387 -477h277l12 103h98z" />
<glyph unicode="[" horiz-adv-x="371" d="M353 -290h-278v1055h278v-109h-150v-836h150v-110z" />
<glyph unicode="\" horiz-adv-x="411" d="M390 -75l-111 -32l-258 882l111 33z" />
<glyph unicode="]" horiz-adv-x="371" d="M300 -290h-277v110h150v836h-150v109h277v-1055z" />
<glyph unicode="^" horiz-adv-x="416" d="M269 562l-61 112l-61 -112h-107l98 193h139l99 -193h-107z" />
<glyph unicode="_" horiz-adv-x="532" d="M481 -119h-430v99h430v-99z" />
<glyph unicode="`" horiz-adv-x="304" d="M172 536l-137 183h157l86 -183h-106z" />
<glyph unicode="a" d="M250 474q45 0 80.5 -17t47.5 -33l13 -17h3l17 60h93v-340q0 -34 30 -34l23 3v-91q-15 -12 -72 -12q-44 0 -67 23t-23 53v4h-3l-2 -3q-1 -3 -4 -7.5t-7.5 -11t-11 -13t-15 -13t-20 -12.5t-24.5 -10.5t-30 -7t-36 -2.5q-92 0 -150.5 62.5t-58.5 178.5q0 113 62 176.5 t155 63.5zM280 96q61 0 97 38v189q-11 19 -37.5 33.5t-57.5 14.5q-58 0 -90.5 -35.5t-32.5 -102.5q0 -66 34 -101.5t87 -35.5z" />
<glyph unicode="b" horiz-adv-x="571" d="M179 73h-3l-17 -73h-93v642l-64 10v94h191v-285l-6 -44h4q1 2 5 7t15 14t25.5 16.5t39 13.5t52.5 6q92 0 150.5 -62.5t58.5 -178.5q0 -120 -56.5 -180t-149.5 -60q-31 0 -58 8t-43.5 20t-28.5 24t-17 20zM290 372q-63 0 -97 -39v-189q11 -20 37 -34.5t58 -14.5 q58 0 90.5 36t32.5 103q0 66 -34 102t-87 36z" />
<glyph unicode="c" horiz-adv-x="509" d="M470 263l-109 -6q4 9 4 30q0 84 -93 84q-58 0 -86 -31.5t-28 -105.5q0 -67 37 -102.5t98 -35.5q44 0 79.5 12.5t48.5 24.5l13 12l44 -94q-7 -6 -20.5 -15.5t-64.5 -26t-113 -16.5q-116 0 -181.5 61.5t-65.5 179.5q0 120 63 180t179 60q106 0 154.5 -49.5t48.5 -117.5 q0 -11 -2 -22t-4 -17z" />
<glyph unicode="d" horiz-adv-x="593" d="M243 474q29 0 53.5 -6t39 -13.5t25.5 -17t14.5 -14t4.5 -6.5h4q-6 42 -6 44v181l-70 10v94h197v-642l63 -10v-94h-157l-16 73h-4q-2 -3 -5 -8.5t-16 -19.5t-29 -24.5t-43 -19t-58 -8.5q-93 0 -149.5 60t-56.5 180q0 116 58.5 178.5t150.5 62.5zM283 96q31 0 57.5 14.5 t36.5 33.5v188q-32 39 -96 39q-54 0 -88 -35.5t-34 -101.5q0 -67 33 -102.5t91 -35.5z" />
<glyph unicode="e" horiz-adv-x="516" d="M476 206h-317q7 -55 43.5 -82.5t93.5 -27.5q43 0 77.5 12.5t46.5 24.5l13 12l45 -94q-7 -6 -21 -16t-66 -26t-115 -16q-112 0 -178 62t-66 179t65.5 178.5t175.5 61.5q101 0 156 -64t55 -144q0 -18 -2 -33t-4 -21zM274 379q-48 0 -78.5 -27t-36.5 -72h209q-1 48 -28 73.5 t-66 25.5z" />
<glyph unicode="f" horiz-adv-x="394" d="M330 0h-293v94l63 10v265h-64v98h64v92q0 196 188 196q26 0 50.5 -4.5t35.5 -9.5l12 -5v-106q-23 14 -73 14q-86 0 -86 -86v-91h152v-98h-152v-270l103 -5v-94z" />
<glyph unicode="g" horiz-adv-x="593" d="M383 -31v39l3 42h-6q-1 -2 -5 -7t-15 -14t-25.5 -16.5t-39 -13.5t-52.5 -6q-92 0 -150.5 62.5t-58.5 178.5q0 120 56.5 180t149.5 60q31 0 58 -8.5t43.5 -20t28.5 -23.5t17 -20l5 -9h3l17 74h157v-94l-64 -10v-394q0 -125 -72.5 -188.5t-187.5 -63.5q-39 0 -75 8 t-59.5 19.5t-41 23t-25.5 19.5l-7 8l53 89q2 -2 5 -6.5t16 -14.5t28.5 -18t42.5 -14.5t58 -6.5q143 0 143 145zM281 96q61 0 97 38v189q-11 19 -37.5 33.5t-57.5 14.5q-58 0 -90.5 -35.5t-32.5 -102.5q0 -66 34 -101.5t87 -35.5z" />
<glyph unicode="h" horiz-adv-x="612" d="M216 474l-6 -67h3q1 3 3.5 7.5t13 16t25 20.5t41.5 16t61 7q87 0 130.5 -49t43.5 -130v-191l64 -10v-94h-191v271q0 94 -92 94q-32 0 -55 -13.5t-30 -24.5t-11 -22v-201l58 -10v-94h-248v94l63 10v538l-64 10v94h191v-272z" />
<glyph unicode="i" horiz-adv-x="315" d="M229 467v-363l58 -10v-94h-249v94l64 10v259l-64 10v94h191zM249 642q0 -37 -26 -63t-63 -26q-36 0 -62 26t-26 63t26 63t62 26q37 0 63 -26t26 -63z" />
<glyph unicode="j" horiz-adv-x="285" d="M219 467v-532q0 -81 -56.5 -140t-136.5 -75l-40 114q57 21 81.5 51t24.5 78v400l-63 10v94h190zM240 642q0 -37 -26 -63t-63 -26q-36 0 -62 26t-26 63t26 63t62 26q37 0 63 -26t26 -63z" />
<glyph unicode="k" horiz-adv-x="599" d="M217 746l-1 -341q2 3 5.5 7.5t16.5 16.5t29 21t43 16.5t58 7.5q88 0 131.5 -40.5t43.5 -101.5q0 -57 -32.5 -94t-81.5 -55l72 -79l82 -10v-94h-130l-153 171h-83v-67l57 -10v-94h-249v94l64 10v538l-64 10v94h192zM217 240h79q55 0 88 18.5t33 49.5q0 32 -22.5 48 t-58.5 16t-65.5 -15.5t-41.5 -29.5t-12 -17v-70z" />
<glyph unicode="l" horiz-adv-x="304" d="M217 746v-642l58 -10v-94h-248v94l63 10v538l-63 10v94h190z" />
<glyph unicode="m" horiz-adv-x="930" d="M194 467l14 -82h4q1 4 3.5 10t14.5 21t27.5 27t45 21.5t65.5 9.5q113 0 154 -85q4 10 11 20t24.5 27t48.5 27.5t72 10.5q87 0 130.5 -49t43.5 -130v-191l63 -10v-94h-190v271q0 100 -93 100q-66 0 -91 -55q0 -4 0.5 -11t0.5 -10v-191l64 -10v-94h-191v271q0 100 -92 100 q-24 0 -43.5 -8t-30 -20t-15.5 -21t-7 -17v-201l58 -10v-94h-249v94l64 10v259l-64 10v94h158z" />
<glyph unicode="n" horiz-adv-x="621" d="M194 467l14 -82h4q1 4 3.5 10t14.5 21t27.5 27t45 21.5t65.5 9.5q87 0 130.5 -49t43.5 -130v-191l64 -10v-94h-191v271q0 100 -92 100q-24 0 -43.5 -8t-30 -20t-15.5 -21t-7 -17v-201l58 -9v-95h-249v94l64 10v259l-64 10v94h158z" />
<glyph unicode="o" horiz-adv-x="550" d="M518 234q0 -118 -64.5 -179.5t-178.5 -61.5t-178.5 61.5t-64.5 179.5t65.5 179t177.5 61q113 0 178 -61t65 -179zM275 96q53 0 85.5 35.5t32.5 102.5q0 66 -33.5 101.5t-84.5 35.5t-84 -35.5t-33 -101.5q0 -67 32.5 -102.5t84.5 -35.5z" />
<glyph unicode="p" horiz-adv-x="593" d="M88 -175v538l-64 10v94h157l17 -74h3q2 3 5.5 8.5t16.5 19.5t28.5 24.5t43 19.5t58.5 9q93 0 149.5 -60t56.5 -180q0 -116 -58.5 -178.5t-149.5 -62.5q-45 0 -79.5 15t-45 26t-13.5 16h-3q5 -42 5 -44v-190l92 -1v-94h-283v94zM311 371q-32 0 -58 -14t-37 -33v-190 q31 -38 97 -38q53 0 87 35.5t34 101.5t-33 102t-90 36z" />
<glyph unicode="q" horiz-adv-x="571" d="M392 394h3l17 73h93v-642l64 -10v-94h-286v94l95 10v181l6 44h-4q-1 -2 -5 -7t-15 -14t-25.5 -16.5t-39 -13.5t-52.5 -6q-92 0 -150.5 62.5t-58.5 178.5q0 120 56.5 180t149.5 60q31 0 58 -8t43.5 -20t28.5 -24t17 -20zM281 96q61 0 97 38v189q-11 19 -37.5 33.5 t-57.5 14.5q-58 0 -90.5 -35.5t-32.5 -102.5q0 -66 34 -101.5t87 -35.5z" />
<glyph unicode="r" horiz-adv-x="432" d="M420 470v-120q-20 8 -54 8q-35 0 -63 -12.5t-43.5 -31.5t-22.5 -31.5t-10 -22.5v-154l81 -5v-101h-272v94l64 10v259l-64 10v94h158l14 -117h4q1 5 3.5 13.5t14.5 30t28 37.5t45.5 29.5t66.5 13.5q14 0 32 -2z" />
<glyph unicode="s" horiz-adv-x="485" d="M244 -7q-111 0 -161 37t-50 93q0 8 1.5 15.5t3.5 11.5l1 4l113 8q-2 -8 -2 -16q0 -29 23 -45.5t68 -16.5q87 0 87 53q0 11 -8 19.5t-26 14.5t-32.5 9t-42.5 8q-27 5 -42 8.5t-39.5 11t-39 17.5t-29.5 24.5t-22 36t-7 48.5q0 59 51 100t146 41q108 0 156 -37t48 -96 q0 -10 -1.5 -18.5t-3.5 -11.5l-2 -4l-112 -7q3 8 3 22q0 61 -82 61q-33 0 -55 -14t-22 -40q0 -9 3 -16.5t11 -13t14.5 -9t21 -7t22.5 -5t27 -5t27 -4.5q78 -15 120 -45t42 -95q0 -62 -51 -99.5t-159 -37.5z" />
<glyph unicode="t" horiz-adv-x="386" d="M98 599h108v-132h151v-98h-151v-182q0 -83 73 -83q26 0 47.5 3.5t29.5 6.5l8 4v-106q-46 -19 -112 -19q-173 0 -173 186v190h-65v98h65z" />
<glyph unicode="u" horiz-adv-x="609" d="M412 85h-3q-1 -4 -3.5 -10t-14.5 -22t-27.5 -28t-45 -22t-65.5 -10q-87 0 -130.5 49t-43.5 130v191l-64 10v94h191v-271q0 -100 92 -100q71 0 96 65v202l-58 10v94h185v-363l64 -10v-94h-158z" />
<glyph unicode="v" horiz-adv-x="596" d="M383 0h-170l-140 363l-66 10v94h245v-94l-47 -10l90 -249h9l91 249l-50 10v94h244v-94l-67 -10z" />
<glyph unicode="w" horiz-adv-x="846" d="M346 0h-162l-110 363l-67 10v94h245v-94l-47 -10l62 -249h10l89 353h117l90 -353h9l62 249l-50 10v94h244v-94l-67 -10l-110 -363h-162l-73 293h-7z" />
<glyph unicode="x" horiz-adv-x="578" d="M244 0h-217v94l53 10l120 129l-115 130l-58 10v94h242v-94l-35 -10l71 -82l73 82l-43 10v94h217v-94l-57 -10l-117 -128l120 -131l54 -10v-94h-243v94l38 10l-75 84l-74 -84l46 -10v-94z" />
<glyph unicode="y" horiz-adv-x="589" d="M403 -38v95h-4q-42 -64 -143 -64q-87 0 -130.5 49t-43.5 130v191l-65 10v94h192v-271q0 -100 91 -100q72 0 97 65v202l-58 10v94h185v-505q0 -123 -71.5 -185.5t-185.5 -62.5q-61 0 -112 19.5t-71 38.5l-21 20l54 89q2 -2 5 -6.5t15.5 -14.5t27.5 -18t41 -14.5t56 -6.5 q141 0 141 141z" />
<glyph unicode="z" horiz-adv-x="540" d="M499 0h-456v100l297 269h-196l-7 -73h-94v171h456v-91l-298 -278h200l6 70h92v-168z" />
<glyph unicode="{" horiz-adv-x="356" d="M335 -178v-109h-16q-221 0 -221 185v190q0 50 -23.5 78.5t-46.5 28.5h-15v79h15q23 0 46.5 28t23.5 78v199q0 186 221 186h16v-109h-16q-49 0 -71 -17t-22 -63v-195q0 -40 -15.5 -69.5t-30.5 -39.5l-16 -10v-55q3 -1 7 -4t14.5 -13t19 -22.5t15 -34t6.5 -46.5v-186 q0 -45 21.5 -62t71.5 -17h16z" />
<glyph unicode="|" horiz-adv-x="254" d="M180 -286h-107v1046h107v-1046z" />
<glyph unicode="}" horiz-adv-x="356" d="M25 -287v109h15q50 0 72 16.5t22 62.5v186q0 25 6.5 46.5t15.5 34.5t18 22.5t16 13.5l6 3v55q-3 1 -7 3.5t-14.5 12.5t-19 22.5t-15 34t-6.5 46.5v195q0 46 -22 63t-72 17h-15v109h15q222 0 222 -186v-199q0 -51 23.5 -78.5t46.5 -27.5h15v-79h-15q-23 0 -46.5 -28.5 t-23.5 -78.5v-190q0 -185 -222 -185h-15z" />
<glyph unicode="~" horiz-adv-x="496" d="M384 564l66 -40q-33 -92 -117 -92q-35 0 -87 22.5t-73 22.5q-30 0 -61 -38l-65 40q31 92 114 92q36 0 86.5 -22.5t75.5 -22.5q30 0 61 38z" />
<glyph unicode="&#xa1;" horiz-adv-x="255" d="M76 261h102l10 -562h-122zM201 401q0 -33 -21 -52.5t-53 -19.5t-53.5 19.5t-21.5 52.5q0 31 21 52t54 21t53.5 -21t20.5 -52z" />
<glyph unicode="&#xa2;" horiz-adv-x="541" d="M491 353l-109 -6q5 8 5 29q0 86 -100 86q-62 0 -91.5 -32t-29.5 -107q0 -66 39 -102.5t102 -36.5q47 0 84 13t51 25l13 13l45 -94q-6 -6 -19 -14.5t-59 -24.5t-100 -19v-83h-69v84q-100 10 -156.5 71t-56.5 168q0 110 55.5 169.5t157.5 68.5v75h69v-75q92 -8 134.5 -55.5 t42.5 -109.5q0 -11 -2 -22t-4 -16z" />
<glyph unicode="&#xa3;" horiz-adv-x="635" d="M486 204h-185q-6 -31 -26.5 -61t-48.5 -46h368v-97h-553v86q1 0 9.5 3.5t15 6.5t18.5 9t21 12t20 15.5t19.5 19.5t15.5 23.5t10 28.5h-122v69h114q-9 17 -36.5 51t-45.5 69.5t-18 77.5q0 96 71 159.5t199 63.5q118 0 188.5 -60.5t70.5 -151.5q0 -12 -1.5 -21t-2.5 -13 l-1 -3l-133 -12q4 11 4 28q0 55 -36 88.5t-96 33.5q-57 0 -93 -32t-36 -94q0 -41 45 -102.5t53 -81.5h192v-69z" />
<glyph unicode="&#xa4;" horiz-adv-x="643" d="M583 83l-35 -30l-73 82q-61 -42 -153 -42q-91 0 -155 43l-74 -83l-35 30l74 83q-67 69 -67 181t69 181l-76 85l35 30l77 -86q64 42 153 42q86 0 150 -41l75 85l35 -30l-73 -84q71 -69 71 -182q0 -112 -70 -184zM322 200q57 0 93.5 40.5t36.5 107.5q0 65 -37 104t-92 39 q-56 0 -92.5 -39t-36.5 -104q0 -67 36 -107.5t92 -40.5z" />
<glyph unicode="&#xa5;" horiz-adv-x="765" d="M166 252h151l-49 76h-130v69h85l-119 186l-77 11v94h302v-94l-74 -11l124 -219h11l129 219l-75 11v94h296v-94l-78 -11l-121 -186h78v-69h-122l-49 -76h142v-69h-142v-79l87 -10v-94h-303v94l85 10v79h-151v69z" />
<glyph unicode="&#xa6;" horiz-adv-x="257" d="M182 307h-107v453h107v-453zM144 -67h-31v15h31v-15z" />
<glyph unicode="&#xa7;" horiz-adv-x="580" d="M539 189q0 -91 -59 -143q59 -49 59 -136t-60 -142t-180 -55q-130 0 -190.5 51.5t-60.5 127.5q0 12 2 23t4 16l3 5l129 10q-5 -12 -5 -27q0 -44 30 -69t84 -25q113 0 113 75q0 29 -20 48.5t-52.5 31.5t-71 22.5t-77.5 26t-71.5 37t-52.5 60.5t-20 92q0 82 61 136 q-61 53 -61 144q0 80 62 138.5t182 58.5q119 0 176.5 -50.5t57.5 -130.5q0 -12 -2.5 -23.5t-4.5 -16.5l-3 -5l-122 -11q5 12 5 28q0 44 -26 70.5t-80 26.5q-52 0 -82 -22t-30 -60q0 -34 27 -57t67 -33t87.5 -26t87.5 -34.5t67 -60t27 -101.5zM408 179q0 14 -4.5 26t-15.5 22 t-20 16.5t-29 14t-31 11.5t-37 12t-37 11q-58 -20 -58 -70q0 -12 2.5 -22t9.5 -18.5t13 -15t18.5 -13t21 -10.5t25 -10t25.5 -8.5t29 -8t29 -8.5q59 15 59 71z" />
<glyph unicode="&#xa8;" horiz-adv-x="344" d="M137 597q0 -28 -19.5 -46.5t-47.5 -18.5q-27 0 -46 18.5t-19 46.5t19 47t46 19q28 0 47.5 -19t19.5 -47zM338 597q0 -28 -19.5 -46.5t-47.5 -18.5q-27 0 -46 18.5t-19 46.5t19 47t46 19q28 0 47.5 -19t19.5 -47z" />
<glyph unicode="&#xa9;" horiz-adv-x="674" d="M634 348q0 -121 -88 -209t-209 -88t-209 88t-88 209t88 209t209 88t209 -88t88 -209zM599 348q0 109 -76.5 185.5t-185.5 76.5t-185.5 -76.5t-76.5 -185.5t76.5 -185.5t185.5 -76.5t185.5 76.5t76.5 185.5zM423 297l56 -38q-44 -84 -142 -84q-71 0 -120 48t-49 128 t49 128t120 48q33 0 60.5 -10t43.5 -25t24.5 -26.5t13.5 -22.5l-58 -42q-25 48 -84 48q-36 0 -62 -26t-26 -71q0 -47 26.5 -73t65.5 -26q26 0 45 9.5t24 15.5t13 19z" />
<glyph unicode="&#xaa;" horiz-adv-x="390" d="M165 725q27 0 48 -11t29 -22l7 -11h1l12 34h56v-199q0 -21 18 -21l14 3v-60q-9 -8 -44 -8q-27 0 -41 14.5t-14 33.5v3h-2l-1 -2l-2.5 -5t-4 -7t-6.5 -8t-9 -8t-11.5 -8t-14 -7t-18 -4.5t-21.5 -1.5q-55 0 -90.5 38t-35.5 107t37.5 109.5t92.5 40.5zM183 500q36 0 57 23 v104q-15 27 -56 27q-28 0 -45 -21t-17 -59q0 -35 17.5 -54.5t43.5 -19.5z" />
<glyph unicode="&#xab;" horiz-adv-x="517" d="M143 239l112 -128l-79 -66l-138 161v67l138 161l79 -66zM372 239l112 -128l-79 -66l-138 161v67l138 161l79 -66z" />
<glyph unicode="&#xac;" horiz-adv-x="623" d="M566 142h-107v168h-412v94h519v-262z" />
<glyph unicode="&#xad;" horiz-adv-x="463" d="M410 232h-357v120h357v-120z" />
<glyph unicode="&#xae;" horiz-adv-x="674" d="M634 348q0 -121 -88 -209t-209 -88t-209 88t-88 209t88 209t209 88t209 -88t88 -209zM337 86q109 0 185.5 76.5t76.5 185.5t-76.5 185.5t-185.5 76.5t-185.5 -76.5t-76.5 -185.5t76.5 -185.5t185.5 -76.5zM478 189h-76l-65 127h-39v-70l36 -9v-48h-130v48l31 9v213l-31 9 v48h132q58 0 92.5 -26.5t34.5 -75.5q0 -73 -64 -92l13 -21l29 -55l37 -8v-49zM298 360h41q55 0 55 47q0 21 -14 34.5t-41 13.5h-41v-95z" />
<glyph unicode="&#xaf;" horiz-adv-x="404" d="M374 538h-340v95h340v-95z" />
<glyph unicode="&#xb0;" horiz-adv-x="237" d="M119 414q-32 0 -54 21.5t-22 60.5q0 34 22 57t54 23t54.5 -23t22.5 -57q0 -39 -22 -60.5t-55 -21.5zM119 460q14 0 23 9.5t9 26.5q0 15 -9 24.5t-23 9.5q-13 0 -22 -9.5t-9 -24.5q0 -17 9.5 -26.5t21.5 -9.5z" />
<glyph unicode="&#xb1;" horiz-adv-x="581" d="M526 43h-471v94h471v-94zM347 176h-107v161h-185v94h185v164h107v-164h179v-94h-179v-161z" />
<glyph unicode="&#xb2;" horiz-adv-x="389" d="M340 345h-283v62q8 3 20 8.5t44 22.5t56.5 34.5t44.5 42.5t20 48q0 24 -14.5 37.5t-40.5 13.5q-28 0 -42 -12.5t-14 -30.5l3 -17l-82 8q-5 10 -5 26q0 46 36 76t103 30q72 0 109 -31.5t37 -81.5q0 -32 -13.5 -60t-32 -46t-37.5 -31.5t-33 -19.5l-13 -5h137v-74z" />
<glyph unicode="&#xb3;" horiz-adv-x="370" d="M273 517v-2q7 -1 17 -4.5t26.5 -21.5t16.5 -44q0 -47 -41.5 -77t-109.5 -30q-93 0 -146 64l43 58q41 -44 103 -44q61 0 61 38q0 32 -44 32h-48v58h38q44 0 44 37q0 14 -13 25t-38 11q-55 0 -55 -39l2 -11l-77 9q-4 12 -4 24q0 40 36.5 67t101.5 27q69 0 103.5 -30.5 t34.5 -72.5q0 -25 -13 -43.5t-25 -24.5z" />
<glyph unicode="&#xb4;" horiz-adv-x="324" d="M289 719l-136 -183h-107l87 183h156z" />
<glyph unicode="&#xb5;" horiz-adv-x="636" d="M221 -242h-127v605l-64 10v94h191v-271q0 -100 92 -100q71 0 96 65v202l-58 10v94h185v-363l64 -10v-94h-158l-15 85h-3q-1 -4 -3.5 -10t-14.5 -22t-27.5 -28t-45 -22t-65.5 -10q-24 0 -47 5v-240z" />
<glyph unicode="&#xb6;" horiz-adv-x="673" d="M472 -78v658h-59v-658h-78l-1 322h-60q-116 0 -182 57.5t-66 166.5q0 103 65 161.5t170 58.5h379v-95l-84 -10v-661h-84z" />
<glyph unicode="&#xb7;" horiz-adv-x="229" d="M183 305q0 -28 -20.5 -48t-48.5 -20t-48 20t-20 48q0 29 19.5 49t48.5 20t49 -20t20 -49z" />
<glyph unicode="&#xb8;" horiz-adv-x="245" d="M118 -193q-29 0 -56 9.5t-39 19.5l-12 10l37 53l3 -3q3 -2 6.5 -4.5t9.5 -6t12.5 -6t15 -4.5t17.5 -2q40 0 40 29q0 12 -9 20.5t-24 8.5l-26 -5l-22 18l28 65h70l-17 -42q9 0 19 -2.5t24.5 -9t23.5 -23.5t9 -42q0 -38 -30.5 -60.5t-79.5 -22.5z" />
<glyph unicode="&#xb9;" horiz-adv-x="348" d="M313 345h-254v68l91 10v163l-75 -38l-35 60l127 80h69v-265l77 -10v-68z" />
<glyph unicode="&#xba;" horiz-adv-x="362" d="M329 577q0 -71 -39 -109t-108 -38q-68 0 -107 38t-39 109q0 72 39.5 109.5t106.5 37.5q68 0 107.5 -37.5t39.5 -109.5zM182 501q28 0 45.5 20t17.5 56q0 37 -18 56.5t-45 19.5t-44.5 -19.5t-17.5 -56.5q0 -36 17.5 -56t44.5 -20z" />
<glyph unicode="&#xbb;" horiz-adv-x="517" d="M263 111l113 128l-113 129l80 66l137 -161v-67l-137 -161zM34 111l113 128l-113 129l79 66l138 -161v-67l-138 -161z" />
<glyph unicode="&#xbc;" horiz-adv-x="771" d="M227 -44l-71 44l427 747l72 -43zM306 345h-255v68l89 10v161l-73 -38l-36 62l128 80h70v-265l77 -10v-68zM698 0h-88v80h-167v61l147 202h108v-191h41v-72h-41v-80zM610 148v109l-78 -109h78z" />
<glyph unicode="&#xbd;" horiz-adv-x="809" d="M227 -44l-71 44l427 747l72 -43zM306 345h-255v68l89 10v161l-73 -38l-36 62l128 80h70v-265l77 -10v-68zM774 0h-283v62q8 3 20 8.5t44 22.5t56.5 34.5t44.5 42.5t20 48q0 24 -14.5 37.5t-40.5 13.5q-28 0 -42 -12.5t-14 -30.5l4 -17l-83 8q-5 10 -5 26q0 45 36 75.5 t103 30.5q73 0 110 -31.5t37 -81.5q0 -32 -13.5 -60t-32.5 -46t-38 -31.5t-33 -18.5l-13 -6h137v-74z" />
<glyph unicode="&#xbe;" horiz-adv-x="766" d="M229 -44l-72 44l427 747l72 -43zM693 0h-88v80h-166v61l146 202h108v-191h42v-72h-42v-80zM605 148v109l-77 -109h77zM267 517v-2q7 -1 17 -4.5t26.5 -21.5t16.5 -44q0 -47 -41.5 -77t-109.5 -30q-93 0 -146 64l44 58q13 -15 39.5 -29.5t62.5 -14.5q61 0 61 38 q0 32 -44 32h-48v58h38q45 0 45 37q0 14 -13.5 25t-38.5 11q-55 0 -55 -39l2 -11l-77 9q-4 12 -4 24q0 40 36.5 67t101.5 27q70 0 104 -30.5t34 -72.5q0 -25 -13 -43.5t-25 -24.5z" />
<glyph unicode="&#xbf;" horiz-adv-x="523" d="M218 256h114l9 -159q-71 0 -126 -42.5t-55 -123.5q0 -50 27 -78t76 -28q53 0 79 30.5t26 82.5l-4 26l127 -11q8 -17 8 -42q0 -84 -60.5 -140.5t-172.5 -56.5q-118 0 -178.5 61.5t-60.5 159.5q0 44 17 84t41 65.5t51.5 45t46.5 28t28 10.5zM202 400q0 32 21 53t53 21 q31 0 52 -21.5t21 -52.5t-21 -52.5t-52 -21.5t-52.5 21.5t-21.5 52.5z" />
<glyph unicode="&#xc0;" horiz-adv-x="749" d="M450 688l228 -584l72 -10v-94h-280v94l79 10q-19 49 -44 112h-258l-43 -112l79 -10v-94h-276v94l73 10l186 480l-86 8v96h270zM355 497l-69 -178h180l-68 178l-19 51h-7q-13 -40 -17 -51zM339 749l-137 183h157l86 -183h-106z" />
<glyph unicode="&#xc1;" horiz-adv-x="749" d="M450 688l228 -584l72 -10v-94h-280v94l79 10q-19 49 -44 112h-258l-43 -112l79 -10v-94h-276v94l73 10l186 480l-86 8v96h270zM355 497l-69 -178h180l-68 178l-19 51h-7q-13 -40 -17 -51zM524 928l-136 -183h-107l87 183h156z" />
<glyph unicode="&#xc2;" horiz-adv-x="749" d="M450 688l228 -584l72 -10v-94h-280v94l79 10q-19 49 -44 112h-258l-43 -112l79 -10v-94h-276v94l73 10l186 480l-86 8v96h270zM355 497l-69 -178h180l-68 178l-19 51h-7q-13 -40 -17 -51zM420 749l-61 104l-61 -104h-106l98 183h138l98 -183h-106z" />
<glyph unicode="&#xc3;" horiz-adv-x="749" d="M450 688l228 -584l72 -10v-94h-280v94l79 10q-19 49 -44 112h-258l-43 -112l79 -10v-94h-276v94l73 10l186 480l-86 8v96h270zM355 497l-69 -178h180l-68 178l-19 51h-7q-13 -40 -17 -51zM509 873l65 -40q-30 -91 -116 -91q-35 0 -87 22.5t-73 22.5q-17 0 -30 -8t-31 -30 l-66 39q33 92 114 92q36 0 87 -22.5t76 -22.5q30 0 61 38z" />
<glyph unicode="&#xc4;" horiz-adv-x="749" d="M450 688l228 -584l72 -10v-94h-280v94l79 10q-19 49 -44 112h-258l-43 -112l79 -10v-94h-276v94l73 10l186 480l-86 8v96h270zM355 497l-69 -178h180l-68 178l-19 51h-7q-13 -40 -17 -51zM339 810q0 -28 -19.5 -46.5t-47.5 -18.5q-27 0 -46 18.5t-19 46.5t19 47t46 19 q28 0 47.5 -19t19.5 -47zM540 810q0 -28 -19.5 -46.5t-47.5 -18.5q-27 0 -46 18.5t-19 46.5t19 47t46 19q28 0 47.5 -19t19.5 -47z" />
<glyph unicode="&#xc5;" horiz-adv-x="749" d="M450 688l228 -584l72 -10v-94h-280v94l79 10q-19 49 -44 112h-258l-43 -112l79 -10v-94h-276v94l73 10l186 480l-86 8v96h270zM355 497l-69 -178h180l-68 178l-19 51h-7q-13 -40 -17 -51zM477 841q0 -44 -30 -74t-73 -30t-73 30t-30 74q0 43 29.5 73t73.5 30t73.5 -30 t29.5 -73zM413 841q0 17 -11.5 28t-27.5 11q-17 0 -28 -11t-11 -28t11 -28t28 -11t28 11t11 28z" />
<glyph unicode="&#xc6;" horiz-adv-x="991" d="M940 0h-546v94l83 10v115h-223l-53 -115l79 -10v-94h-278v94l72 10l212 478l-79 12v94h737l4 -211h-100l-12 103h-229v-181h196v-106h-196v-185h228l12 103h99zM410 581l-110 -259h177v259h-67z" />
<glyph unicode="&#xc7;" horiz-adv-x="653" d="M338 -193q-29 0 -56 9.5t-39 19.5l-12 10l37 53l3 -3q3 -2 6.5 -4.5t9.5 -6t12.5 -6t15 -4.5t17.5 -2q40 0 40 29q0 12 -9 20.5t-24 8.5l-26 -5l-22 18l21 50q-131 8 -203.5 94.5t-72.5 254.5q0 176 81 263.5t224 87.5q139 0 208 -66t69 -160l-5 -43l-125 -17q3 18 3 40 q0 58 -38.5 96.5t-105.5 38.5q-178 0 -178 -242q0 -237 179 -237q141 0 141 125v19l128 -27v-14q0 -83 -57 -142.5t-177 -69.5l-11 -28q9 0 19 -2.5t24.5 -9t23.5 -23.5t9 -42q0 -38 -30.5 -60.5t-79.5 -22.5z" />
<glyph unicode="&#xc8;" horiz-adv-x="636" d="M585 0h-546v94l83 10v480l-83 10v94h550l4 -211h-100l-12 103h-229v-181h196v-106h-196v-185h228l12 103h99zM320 748l-137 183h157l86 -183h-106z" />
<glyph unicode="&#xc9;" horiz-adv-x="636" d="M486 928l-136 -183h-107l87 183h156zM585 0h-546v94l83 10v480l-83 10v94h550l4 -211h-100l-12 103h-229v-181h196v-106h-196v-185h228l12 103h99z" />
<glyph unicode="&#xca;" horiz-adv-x="636" d="M378 748l-61 104l-61 -104h-106l98 183h138l98 -183h-106zM585 0h-546v94l83 10v480l-83 10v94h550l4 -211h-100l-12 103h-229v-181h196v-106h-196v-185h228l12 103h99z" />
<glyph unicode="&#xcb;" horiz-adv-x="636" d="M322 810q0 -28 -19.5 -46.5t-47.5 -18.5q-27 0 -46 18.5t-19 46.5t19 47t46 19q28 0 47.5 -19t19.5 -47zM523 810q0 -28 -19.5 -46.5t-47.5 -18.5q-27 0 -46 18.5t-19 46.5t19 47t46 19q28 0 47.5 -19t19.5 -47zM585 0h-546v94l83 10v480l-83 10v94h550l4 -211h-100 l-12 103h-229v-181h196v-106h-196v-185h228l12 103h99z" />
<glyph unicode="&#xcc;" horiz-adv-x="376" d="M337 0h-298v94l84 10v479l-84 11v94h298v-94l-84 -11v-479l84 -10v-94zM147 749l-137 183h157l86 -183h-106z" />
<glyph unicode="&#xcd;" horiz-adv-x="376" d="M337 0h-298v94l84 10v479l-84 11v94h298v-94l-84 -11v-479l84 -10v-94zM327 928l-136 -183h-107l87 183h156z" />
<glyph unicode="&#xce;" horiz-adv-x="376" d="M337 0h-298v94l84 10v479l-84 11v94h298v-94l-84 -11v-479l84 -10v-94zM242 749l-61 104l-61 -104h-106l98 183h138l98 -183h-106z" />
<glyph unicode="&#xcf;" horiz-adv-x="376" d="M337 0h-298v94l84 10v479l-84 11v94h298v-94l-84 -11v-479l84 -10v-94zM161 810q0 -28 -19.5 -46.5t-47.5 -18.5q-27 0 -46 18.5t-19 46.5t19 47t46 19q28 0 47.5 -19t19.5 -47zM362 810q0 -28 -19.5 -46.5t-47.5 -18.5q-27 0 -46 18.5t-19 46.5t19 47t46 19 q28 0 47.5 -19t19.5 -47z" />
<glyph unicode="&#xd0;" horiz-adv-x="735" d="M41 307v69h82v208l-84 10v94h314q154 0 248.5 -84t94.5 -258q0 -94 -25.5 -162.5t-72 -107.5t-103.5 -57.5t-127 -18.5h-329v94l84 10v203h-82zM253 108h87q114 0 169 56.5t55 181.5q0 234 -237 234h-74v-204h133v-69h-133v-199z" />
<glyph unicode="&#xd1;" horiz-adv-x="827" d="M714 0h-139l-317 453h-5v-349l84 -10v-94h-298v94l84 10v479l-84 9v96h204l335 -484h6v379l-84 11v94h297v-94l-83 -11v-583zM547 875l65 -40q-30 -91 -116 -91q-35 0 -87 22.5t-73 22.5q-17 0 -30 -8t-31 -30l-66 39q33 92 114 92q36 0 87 -22.5t76 -22.5q30 0 61 38z " />
<glyph unicode="&#xd2;" horiz-adv-x="704" d="M665 341q0 -174 -82 -261t-231 -87t-231 87t-82 261q0 176 82 264.5t231 88.5t231 -88.5t82 -264.5zM172 341q0 -237 180 -237t180 237q0 242 -180 242t-180 -242zM346 745l-137 183h157l86 -183h-106z" />
<glyph unicode="&#xd3;" horiz-adv-x="704" d="M485 928l-136 -183h-107l87 183h156zM665 341q0 -174 -82 -261t-231 -87t-231 87t-82 261q0 176 82 264.5t231 88.5t231 -88.5t82 -264.5zM172 341q0 -237 180 -237t180 237q0 242 -180 242t-180 -242z" />
<glyph unicode="&#xd4;" horiz-adv-x="704" d="M412 745l-61 104l-61 -104h-106l98 183h138l98 -183h-106zM665 341q0 -174 -82 -261t-231 -87t-231 87t-82 261q0 176 82 264.5t231 88.5t231 -88.5t82 -264.5zM172 341q0 -237 180 -237t180 237q0 242 -180 242t-180 -242z" />
<glyph unicode="&#xd5;" horiz-adv-x="704" d="M665 341q0 -174 -82 -261t-231 -87t-231 87t-82 261q0 176 82 264.5t231 88.5t231 -88.5t82 -264.5zM172 341q0 -237 180 -237t180 237q0 242 -180 242t-180 -242zM486 872l65 -40q-30 -91 -116 -91q-35 0 -87 22.5t-73 22.5q-17 0 -30 -8t-31 -30l-66 39q33 92 114 92 q36 0 87 -22.5t76 -22.5q30 0 61 38z" />
<glyph unicode="&#xd6;" horiz-adv-x="704" d="M313 807q0 -28 -19.5 -46.5t-47.5 -18.5q-27 0 -46 18.5t-19 46.5t19 47t46 19q28 0 47.5 -19t19.5 -47zM514 807q0 -28 -19.5 -46.5t-47.5 -18.5q-27 0 -46 18.5t-19 46.5t19 47t46 19q28 0 47.5 -19t19.5 -47zM665 341q0 -174 -82 -261t-231 -87t-231 87t-82 261 q0 176 82 264.5t231 88.5t231 -88.5t82 -264.5zM172 341q0 -237 180 -237t180 237q0 242 -180 242t-180 -242z" />
<glyph unicode="&#xd7;" horiz-adv-x="522" d="M103 19l-65 66l157 158l-157 159l65 66l158 -159l158 159l66 -66l-158 -159l158 -158l-66 -66l-158 158z" />
<glyph unicode="&#xd8;" horiz-adv-x="704" d="M665 341q0 -174 -82 -261t-231 -87q-65 0 -119 17l-29 -59l-75 36l29 60q-119 85 -119 294q0 176 82 264.5t231 88.5q60 0 114 -16l28 56l75 -36l-28 -57q124 -86 124 -300zM532 341q0 122 -48 183l-200 -410q29 -10 68 -10q180 0 180 237zM172 341q0 -118 43 -177 l200 409q-27 10 -63 10q-180 0 -180 -242z" />
<glyph unicode="&#xd9;" horiz-adv-x="762" d="M534 257v326l-84 11v94h292v-94l-84 -11v-328q0 -130 -71 -196t-205 -66q-135 0 -206.5 66t-71.5 196v328l-84 11v94h298v-94l-84 -11v-321q0 -158 148 -158q74 0 113 42.5t39 110.5zM389 748l-137 183h157l86 -183h-106z" />
<glyph unicode="&#xda;" horiz-adv-x="762" d="M508 941l-136 -183h-107l87 183h156zM534 257v326l-84 11v94h292v-94l-84 -11v-328q0 -130 -71 -196t-205 -66q-135 0 -206.5 66t-71.5 196v328l-84 11v94h298v-94l-84 -11v-321q0 -158 148 -158q74 0 113 42.5t39 110.5z" />
<glyph unicode="&#xdb;" horiz-adv-x="762" d="M427 762l-61 104l-61 -104h-106l98 183h138l98 -183h-106zM534 257v326l-84 11v94h292v-94l-84 -11v-328q0 -130 -71 -196t-205 -66q-135 0 -206.5 66t-71.5 196v328l-84 11v94h298v-94l-84 -11v-321q0 -158 148 -158q74 0 113 42.5t39 110.5z" />
<glyph unicode="&#xdc;" horiz-adv-x="762" d="M344 811q0 -28 -19.5 -46.5t-47.5 -18.5q-27 0 -46 18.5t-19 46.5t19 47t46 19q28 0 47.5 -19t19.5 -47zM545 811q0 -28 -19.5 -46.5t-47.5 -18.5q-27 0 -46 18.5t-19 46.5t19 47t46 19q28 0 47.5 -19t19.5 -47zM534 257v326l-84 11v94h292v-94l-84 -11v-328 q0 -130 -71 -196t-205 -66q-135 0 -206.5 66t-71.5 196v328l-84 11v94h298v-94l-84 -11v-321q0 -158 148 -158q74 0 113 42.5t39 110.5z" />
<glyph unicode="&#xdd;" horiz-adv-x="720" d="M425 252v-148l87 -10v-94h-303v94l85 10v148l-213 331l-77 11v94h302v-94l-74 -11l124 -219h11l129 219l-75 11v94h296v-94l-78 -11zM518 945l-136 -183h-107l87 183h156z" />
<glyph unicode="&#xde;" horiz-adv-x="632" d="M253 688v-75h121q105 0 170 -59t65 -161q0 -110 -66 -167t-182 -57h-108v-65l103 -9v-95h-317v95l84 9v479l-84 10v95h214zM345 503h-92v-226h91q134 0 134 115q0 57 -36.5 84t-96.5 27z" />
<glyph unicode="&#xdf;" horiz-adv-x="636" d="M314 20l16 97q27 -21 75 -21q37 0 58 18.5t21 48.5t-15 51t-37 34t-44 25.5t-37 35t-15 54.5q0 27 14 49t30 35.5t30 38t14 56.5q0 46 -25 74.5t-75 28.5q-51 0 -80 -34.5t-29 -93.5v-413l48 -9v-95h-239v95l64 9v424q0 99 60.5 162.5t175.5 63.5q99 0 162 -53t63 -135 q0 -40 -14 -71t-30.5 -46t-30.5 -35.5t-14 -42.5q0 -20 15.5 -36t38 -30t44.5 -32t37.5 -52.5t15.5 -81.5q0 -70 -51.5 -108t-131.5 -38q-31 0 -59.5 6.5t-41.5 13.5z" />
<glyph unicode="&#xe0;" d="M250 474q45 0 80.5 -17t47.5 -33l13 -17h3l17 60h93v-340q0 -34 30 -34l23 3v-91q-15 -12 -72 -12q-44 0 -67 23t-23 53v4h-3l-2 -3q-1 -3 -4 -7.5t-7.5 -11t-11 -13t-15 -13t-20 -12.5t-24.5 -10.5t-30 -7t-36 -2.5q-92 0 -150.5 62.5t-58.5 178.5q0 113 62 176.5 t155 63.5zM280 96q61 0 97 38v189q-11 19 -37.5 33.5t-57.5 14.5q-58 0 -90.5 -35.5t-32.5 -102.5q0 -66 34 -101.5t87 -35.5zM284 536l-137 183h157l86 -183h-106z" />
<glyph unicode="&#xe1;" d="M250 474q45 0 80.5 -17t47.5 -33l13 -17h3l17 60h93v-340q0 -34 30 -34l23 3v-91q-15 -12 -72 -12q-44 0 -67 23t-23 53v4h-3l-2 -3q-1 -3 -4 -7.5t-7.5 -11t-11 -13t-15 -13t-20 -12.5t-24.5 -10.5t-30 -7t-36 -2.5q-92 0 -150.5 62.5t-58.5 178.5q0 113 62 176.5 t155 63.5zM280 96q61 0 97 38v189q-11 19 -37.5 33.5t-57.5 14.5q-58 0 -90.5 -35.5t-32.5 -102.5q0 -66 34 -101.5t87 -35.5zM476 719l-136 -183h-107l87 183h156z" />
<glyph unicode="&#xe2;" d="M250 474q45 0 80.5 -17t47.5 -33l13 -17h3l17 60h93v-340q0 -34 30 -34l23 3v-91q-15 -12 -72 -12q-44 0 -67 23t-23 53v4h-3l-2 -3q-1 -3 -4 -7.5t-7.5 -11t-11 -13t-15 -13t-20 -12.5t-24.5 -10.5t-30 -7t-36 -2.5q-92 0 -150.5 62.5t-58.5 178.5q0 113 62 176.5 t155 63.5zM280 96q61 0 97 38v189q-11 19 -37.5 33.5t-57.5 14.5q-58 0 -90.5 -35.5t-32.5 -102.5q0 -66 34 -101.5t87 -35.5zM367 536l-61 104l-61 -104h-106l98 183h138l98 -183h-106z" />
<glyph unicode="&#xe3;" d="M250 474q45 0 80.5 -17t47.5 -33l13 -17h3l17 60h93v-340q0 -34 30 -34l23 3v-91q-15 -12 -72 -12q-44 0 -67 23t-23 53v4h-3l-2 -3q-1 -3 -4 -7.5t-7.5 -11t-11 -13t-15 -13t-20 -12.5t-24.5 -10.5t-30 -7t-36 -2.5q-92 0 -150.5 62.5t-58.5 178.5q0 113 62 176.5 t155 63.5zM280 96q61 0 97 38v189q-11 19 -37.5 33.5t-57.5 14.5q-58 0 -90.5 -35.5t-32.5 -102.5q0 -66 34 -101.5t87 -35.5zM443 657l65 -40q-30 -91 -116 -91q-35 0 -87 22.5t-73 22.5q-17 0 -30 -8t-31 -30l-66 39q33 92 114 92q36 0 87 -22.5t76 -22.5q30 0 61 38z" />
<glyph unicode="&#xe4;" d="M250 474q45 0 80.5 -17t47.5 -33l13 -17h3l17 60h93v-340q0 -34 30 -34l23 3v-91q-15 -12 -72 -12q-44 0 -67 23t-23 53v4h-3l-2 -3q-1 -3 -4 -7.5t-7.5 -11t-11 -13t-15 -13t-20 -12.5t-24.5 -10.5t-30 -7t-36 -2.5q-92 0 -150.5 62.5t-58.5 178.5q0 113 62 176.5 t155 63.5zM280 96q61 0 97 38v189q-11 19 -37.5 33.5t-57.5 14.5q-58 0 -90.5 -35.5t-32.5 -102.5q0 -66 34 -101.5t87 -35.5zM275 597q0 -28 -19.5 -46.5t-47.5 -18.5q-27 0 -46 18.5t-19 46.5t19 47t46 19q28 0 47.5 -19t19.5 -47zM476 597q0 -28 -19.5 -46.5t-47.5 -18.5 q-27 0 -46 18.5t-19 46.5t19 47t46 19q28 0 47.5 -19t19.5 -47z" />
<glyph unicode="&#xe5;" d="M250 474q45 0 80.5 -17t47.5 -33l13 -17h3l17 60h93v-340q0 -34 30 -34l23 3v-91q-15 -12 -72 -12q-44 0 -67 23t-23 53v4h-3l-2 -3q-1 -3 -4 -7.5t-7.5 -11t-11 -13t-15 -13t-20 -12.5t-24.5 -10.5t-30 -7t-36 -2.5q-92 0 -150.5 62.5t-58.5 178.5q0 113 62 176.5 t155 63.5zM280 96q61 0 97 38v189q-11 19 -37.5 33.5t-57.5 14.5q-58 0 -90.5 -35.5t-32.5 -102.5q0 -66 34 -101.5t87 -35.5zM408 628q0 -44 -30 -74t-73 -30t-73 30t-30 74t30 73.5t73 29.5t73 -29.5t30 -73.5zM344 628q0 16 -11 27.5t-28 11.5t-28 -11t-11 -28t11 -28 t28 -11t28 11t11 28z" />
<glyph unicode="&#xe6;" horiz-adv-x="829" d="M790 211h-314q6 -58 41.5 -87t92.5 -29q43 0 77.5 12.5t46.5 24.5l13 13l44 -94q-7 -6 -21 -16t-66 -26t-114 -16q-136 0 -198 86q-51 -86 -151 -86q-92 0 -150 62.5t-58 178.5q0 113 62 176.5t155 63.5q111 0 168 -57q62 57 168 57q101 0 156 -63t55 -141 q0 -18 -1.5 -32.5t-3.5 -20.5zM280 95q51 0 82 47q-13 39 -13 92q0 67 21 115q-33 23 -88 23q-58 0 -91 -36.5t-33 -102.5t34 -102t88 -36zM588 383q-46 0 -75.5 -28t-36.5 -75h206v1q0 49 -27 75.5t-67 26.5z" />
<glyph unicode="&#xe7;" horiz-adv-x="509" d="M268 -193q-29 0 -56 9.5t-39 19.5l-12 10l37 53l3 -3q3 -2 6.5 -4.5t9.5 -6t12.5 -6t15 -4.5t17.5 -2q40 0 40 29q0 12 -9 20.5t-24 8.5l-26 -5l-22 18l22 51q-100 9 -155 69.5t-55 169.5q0 120 63 180t179 60q106 0 154.5 -49.5t48.5 -117.5q0 -11 -2 -22t-4 -17l-2 -5 l-109 -6q4 9 4 30q0 84 -93 84q-58 0 -86 -31.5t-28 -105.5q0 -67 37 -102.5t98 -35.5q44 0 79.5 12.5t48.5 24.5l13 12l44 -94q-6 -5 -17.5 -13.5t-54 -23.5t-93.5 -19l-11 -28q9 0 19 -2.5t24.5 -9t23.5 -23.5t9 -42q0 -38 -30.5 -60.5t-79.5 -22.5z" />
<glyph unicode="&#xe8;" horiz-adv-x="516" d="M476 206h-317q7 -55 43.5 -82.5t93.5 -27.5q43 0 77.5 12.5t46.5 24.5l13 12l45 -94q-7 -6 -21 -16t-66 -26t-115 -16q-112 0 -178 62t-66 179t65.5 178.5t175.5 61.5q101 0 156 -64t55 -144q0 -18 -2 -33t-4 -21zM274 379q-48 0 -78.5 -27t-36.5 -72h209q-1 48 -28 73.5 t-66 25.5zM247 536l-137 183h157l86 -183h-106z" />
<glyph unicode="&#xe9;" horiz-adv-x="516" d="M419 719l-136 -183h-107l87 183h156zM476 206h-317q7 -55 43.5 -82.5t93.5 -27.5q43 0 77.5 12.5t46.5 24.5l13 12l45 -94q-7 -6 -21 -16t-66 -26t-115 -16q-112 0 -178 62t-66 179t65.5 178.5t175.5 61.5q101 0 156 -64t55 -144q0 -18 -2 -33t-4 -21zM274 379 q-48 0 -78.5 -27t-36.5 -72h209q-1 48 -28 73.5t-66 25.5z" />
<glyph unicode="&#xea;" horiz-adv-x="516" d="M330 536l-61 104l-61 -104h-106l98 183h138l98 -183h-106zM476 206h-317q7 -55 43.5 -82.5t93.5 -27.5q43 0 77.5 12.5t46.5 24.5l13 12l45 -94q-7 -6 -21 -16t-66 -26t-115 -16q-112 0 -178 62t-66 179t65.5 178.5t175.5 61.5q101 0 156 -64t55 -144q0 -18 -2 -33 t-4 -21zM274 379q-48 0 -78.5 -27t-36.5 -72h209q-1 48 -28 73.5t-66 25.5z" />
<glyph unicode="&#xeb;" horiz-adv-x="516" d="M247 597q0 -28 -19.5 -46.5t-47.5 -18.5q-27 0 -46 18.5t-19 46.5t19 47t46 19q28 0 47.5 -19t19.5 -47zM448 597q0 -28 -19.5 -46.5t-47.5 -18.5q-27 0 -46 18.5t-19 46.5t19 47t46 19q28 0 47.5 -19t19.5 -47zM476 206h-317q7 -55 43.5 -82.5t93.5 -27.5 q43 0 77.5 12.5t46.5 24.5l13 12l45 -94q-7 -6 -21 -16t-66 -26t-115 -16q-112 0 -178 62t-66 179t65.5 178.5t175.5 61.5q101 0 156 -64t55 -144q0 -18 -2 -33t-4 -21zM274 379q-48 0 -78.5 -27t-36.5 -72h209q-1 48 -28 73.5t-66 25.5z" />
<glyph unicode="&#xec;" horiz-adv-x="316" d="M229 467v-361l58 -12v-94h-249v94l64 12v255l-64 12v94h191zM89 534l-137 183h157l86 -183h-106z" />
<glyph unicode="&#xed;" horiz-adv-x="316" d="M348 719l-136 -183h-107l87 183h156zM229 467v-361l58 -12v-94h-249v94l64 12v255l-64 12v94h191z" />
<glyph unicode="&#xee;" horiz-adv-x="316" d="M215 536l-61 104l-61 -104h-106l98 183h138l98 -183h-106zM229 467v-361l58 -12v-94h-249v94l64 12v255l-64 12v94h191z" />
<glyph unicode="&#xef;" horiz-adv-x="316" d="M121 597q0 -28 -19.5 -46.5t-47.5 -18.5q-27 0 -46 18.5t-19 46.5t19 47t46 19q28 0 47.5 -19t19.5 -47zM322 597q0 -28 -19.5 -46.5t-47.5 -18.5q-27 0 -46 18.5t-19 46.5t19 47t46 19q28 0 47.5 -19t19.5 -47zM229 467v-361l58 -12v-94h-249v94l64 12v255l-64 12v94 h191z" />
<glyph unicode="&#xf0;" horiz-adv-x="622" d="M466 662l-42 -36q71 -53 113 -133t42 -180q0 -166 -77.5 -243.5t-208.5 -77.5q-123 0 -191 64t-68 161q0 96 60 154t178 58q105 0 173 -52q-20 114 -116 170l-74 -63l-42 49l49 42q-66 20 -152 20l69 113q97 0 187 -46l58 49zM293 104q72 0 109.5 41t45.5 126 q-60 56 -151 56q-68 0 -102 -31.5t-34 -77.5q0 -50 33.5 -82t98.5 -32z" />
<glyph unicode="&#xf1;" horiz-adv-x="621" d="M194 467l14 -82h4q1 4 3.5 10t14.5 21t27.5 27t45 21.5t65.5 9.5q87 0 130.5 -49t43.5 -130v-191l64 -10v-94h-191v271q0 100 -92 100q-24 0 -43.5 -8t-30 -20t-15.5 -21t-7 -17v-201l58 -9v-95h-249v94l64 10v259l-64 10v94h158zM443 657l65 -40q-30 -91 -116 -91 q-35 0 -87 22.5t-73 22.5q-17 0 -30 -8t-31 -30l-66 39q33 92 114 92q36 0 87 -22.5t76 -22.5q30 0 61 38z" />
<glyph unicode="&#xf2;" horiz-adv-x="550" d="M518 234q0 -118 -64.5 -179.5t-178.5 -61.5t-178.5 61.5t-64.5 179.5t65.5 179t177.5 61q113 0 178 -61t65 -179zM275 96q53 0 85.5 35.5t32.5 102.5q0 66 -33.5 101.5t-84.5 35.5t-84 -35.5t-33 -101.5q0 -67 32.5 -102.5t84.5 -35.5zM254 536l-137 183h157l86 -183 h-106z" />
<glyph unicode="&#xf3;" horiz-adv-x="550" d="M433 719l-136 -183h-107l87 183h156zM518 234q0 -118 -64.5 -179.5t-178.5 -61.5t-178.5 61.5t-64.5 179.5t65.5 179t177.5 61q113 0 178 -61t65 -179zM275 96q53 0 85.5 35.5t32.5 102.5q0 66 -33.5 101.5t-84.5 35.5t-84 -35.5t-33 -101.5q0 -67 32.5 -102.5 t84.5 -35.5z" />
<glyph unicode="&#xf4;" horiz-adv-x="550" d="M330 536l-61 104l-61 -104h-106l98 183h138l98 -183h-106zM518 234q0 -118 -64.5 -179.5t-178.5 -61.5t-178.5 61.5t-64.5 179.5t65.5 179t177.5 61q113 0 178 -61t65 -179zM275 96q53 0 85.5 35.5t32.5 102.5q0 66 -33.5 101.5t-84.5 35.5t-84 -35.5t-33 -101.5 q0 -67 32.5 -102.5t84.5 -35.5z" />
<glyph unicode="&#xf5;" horiz-adv-x="550" d="M518 234q0 -118 -64.5 -179.5t-178.5 -61.5t-178.5 61.5t-64.5 179.5t65.5 179t177.5 61q113 0 178 -61t65 -179zM275 96q53 0 85.5 35.5t32.5 102.5q0 66 -33.5 101.5t-84.5 35.5t-84 -35.5t-33 -101.5q0 -67 32.5 -102.5t84.5 -35.5zM407 657l65 -40q-30 -91 -116 -91 q-35 0 -87 22.5t-73 22.5q-17 0 -30 -8t-31 -30l-66 39q33 92 114 92q36 0 87 -22.5t76 -22.5q30 0 61 38z" />
<glyph unicode="&#xf6;" horiz-adv-x="550" d="M232 597q0 -28 -19.5 -46.5t-47.5 -18.5q-27 0 -46 18.5t-19 46.5t19 47t46 19q28 0 47.5 -19t19.5 -47zM433 597q0 -28 -19.5 -46.5t-47.5 -18.5q-27 0 -46 18.5t-19 46.5t19 47t46 19q28 0 47.5 -19t19.5 -47zM518 234q0 -118 -64.5 -179.5t-178.5 -61.5t-178.5 61.5 t-64.5 179.5t65.5 179t177.5 61q113 0 178 -61t65 -179zM275 96q53 0 85.5 35.5t32.5 102.5q0 66 -33.5 101.5t-84.5 35.5t-84 -35.5t-33 -101.5q0 -67 32.5 -102.5t84.5 -35.5z" />
<glyph unicode="&#xf7;" horiz-adv-x="553" d="M346 90q0 -28 -20 -48t-49 -20t-48.5 20t-19.5 48q0 29 20 49t48 20q29 0 49 -20.5t20 -48.5zM346 453q0 -29 -20 -49t-49 -20t-48.5 20t-19.5 49q0 28 20 48t48 20t48.5 -20t20.5 -48zM509 229h-466v95h466v-95z" />
<glyph unicode="&#xf8;" horiz-adv-x="550" d="M168 -46l-60 32l21 43q-97 59 -97 205q0 118 65.5 179t177.5 61q38 0 73 -8l25 49l61 -33l-21 -40q105 -59 105 -208q0 -118 -64.5 -179.5t-178.5 -61.5q-45 0 -83 9zM275 96q53 0 85.5 35.5t32.5 102.5q0 63 -33 101l-119 -235q15 -4 34 -4zM158 234q0 -59 26 -95 l115 229q-12 3 -24 3q-51 0 -84 -35.5t-33 -101.5z" />
<glyph unicode="&#xf9;" horiz-adv-x="609" d="M412 85h-3q-1 -4 -3.5 -10t-14.5 -22t-27.5 -28t-45 -22t-65.5 -10q-87 0 -130.5 49t-43.5 130v191l-64 10v94h191v-271q0 -100 92 -100q71 0 96 65v202l-58 10v94h185v-363l64 -10v-94h-158zM239 536l-137 183h157l86 -183h-106z" />
<glyph unicode="&#xfa;" horiz-adv-x="609" d="M417 719l-136 -183h-107l87 183h156zM412 85h-3q-1 -4 -3.5 -10t-14.5 -22t-27.5 -28t-45 -22t-65.5 -10q-87 0 -130.5 49t-43.5 130v191l-64 10v94h191v-271q0 -100 92 -100q71 0 96 65v202l-58 10v94h185v-363l64 -10v-94h-158z" />
<glyph unicode="&#xfb;" horiz-adv-x="609" d="M323 536l-61 104l-61 -104h-106l98 183h138l98 -183h-106zM412 85h-3q-1 -4 -3.5 -10t-14.5 -22t-27.5 -28t-45 -22t-65.5 -10q-87 0 -130.5 49t-43.5 130v191l-64 10v94h191v-271q0 -100 92 -100q71 0 96 65v202l-58 10v94h185v-363l64 -10v-94h-158z" />
<glyph unicode="&#xfc;" horiz-adv-x="609" d="M241 597q0 -28 -19.5 -46.5t-47.5 -18.5q-27 0 -46 18.5t-19 46.5t19 47t46 19q28 0 47.5 -19t19.5 -47zM442 597q0 -28 -19.5 -46.5t-47.5 -18.5q-27 0 -46 18.5t-19 46.5t19 47t46 19q28 0 47.5 -19t19.5 -47zM412 85h-3q-1 -4 -3.5 -10t-14.5 -22t-27.5 -28t-45 -22 t-65.5 -10q-87 0 -130.5 49t-43.5 130v191l-64 10v94h191v-271q0 -100 92 -100q71 0 96 65v202l-58 10v94h185v-363l64 -10v-94h-158z" />
<glyph unicode="&#xfd;" horiz-adv-x="589" d="M403 -38v95h-4q-42 -64 -143 -64q-87 0 -130.5 49t-43.5 130v191l-65 10v94h192v-271q0 -100 91 -100q72 0 97 65v202l-58 10v94h185v-505q0 -123 -71.5 -185.5t-185.5 -62.5q-61 0 -112 19.5t-71 38.5l-21 20l54 89q2 -2 5 -6.5t15.5 -14.5t27.5 -18t41 -14.5t56 -6.5 q141 0 141 141zM422 719l-136 -183h-107l87 183h156z" />
<glyph unicode="&#xfe;" horiz-adv-x="571" d="M66 -175v817l-64 10v94h191v-296l-4 -39h3q50 63 139 63q93 0 149.5 -60t56.5 -180q0 -116 -58.5 -178.5t-150.5 -62.5q-28 0 -52.5 6t-39 13.5t-25.5 16.5t-15 14t-5 7h-4q6 -42 6 -44v-183l92 -8v-94h-283v94zM288 367q-32 0 -58.5 -13t-36.5 -32v-186q31 -36 97 -36 q53 0 87 34.5t34 98.5t-32.5 99t-90.5 35z" />
<glyph unicode="&#xff;" horiz-adv-x="589" d="M403 -38v95h-4q-42 -64 -143 -64q-87 0 -130.5 49t-43.5 130v191l-65 10v94h192v-271q0 -100 91 -100q72 0 97 65v202l-58 10v94h185v-505q0 -123 -71.5 -185.5t-185.5 -62.5q-61 0 -112 19.5t-71 38.5l-21 20l54 89q2 -2 5 -6.5t15.5 -14.5t27.5 -18t41 -14.5t56 -6.5 q141 0 141 141zM243 597q0 -28 -19.5 -46.5t-47.5 -18.5q-27 0 -46 18.5t-19 46.5t19 47t46 19q28 0 47.5 -19t19.5 -47zM444 597q0 -28 -19.5 -46.5t-47.5 -18.5q-27 0 -46 18.5t-19 46.5t19 47t46 19q28 0 47.5 -19t19.5 -47z" />
<glyph unicode="&#x152;" horiz-adv-x="883" d="M832 0h-463q-149 0 -231 84.5t-82 256.5q0 174 82 260.5t231 86.5h466l3 -211h-98l-13 103h-229v-182h196v-105h-196v-185h228l12 103h99zM189 341q0 -232 179 -232v470q-179 -2 -179 -238z" />
<glyph unicode="&#x153;" horiz-adv-x="879" d="M839 206h-317q7 -55 43.5 -82.5t93.5 -27.5q43 0 77.5 12.5t47.5 24.5l12 12l45 -94q-7 -6 -21 -16t-66 -26t-115 -16q-117 0 -182 65q-63 -65 -182 -65q-114 0 -178.5 61.5t-64.5 179.5t65.5 179t177.5 61q117 0 182 -65q63 65 179 65q101 0 156 -64t55 -144 q0 -18 -2 -33t-4 -21zM275 96q53 0 85.5 35.5t32.5 102.5q0 66 -33.5 101.5t-84.5 35.5t-84 -35.5t-33 -101.5q0 -67 32.5 -102.5t84.5 -35.5zM637 379q-48 0 -78.5 -27t-36.5 -72h209q-1 48 -28 73.5t-66 25.5z" />
<glyph unicode="&#x178;" horiz-adv-x="720" d="M425 252v-148l87 -10v-94h-303v94l85 10v148l-213 331l-77 11v94h302v-94l-74 -11l124 -219h11l129 219l-75 11v94h296v-94l-78 -11zM327 811q0 -28 -19.5 -46.5t-47.5 -18.5q-27 0 -46 18.5t-19 46.5t19 47t46 19q28 0 47.5 -19t19.5 -47zM528 811q0 -28 -19.5 -46.5 t-47.5 -18.5q-27 0 -46 18.5t-19 46.5t19 47t46 19q28 0 47.5 -19t19.5 -47z" />
<glyph unicode="&#x2c6;" horiz-adv-x="427" d="M264 536l-61 104l-61 -104h-106l98 183h138l98 -183h-106z" />
<glyph unicode="&#x2dc;" horiz-adv-x="417" d="M349 657l65 -40q-30 -91 -116 -91q-35 0 -87 22.5t-73 22.5q-17 0 -30 -8t-31 -30l-66 39q33 92 114 92q36 0 87 -22.5t76 -22.5q30 0 61 38z" />
<glyph unicode="&#x2000;" horiz-adv-x="472" />
<glyph unicode="&#x2001;" horiz-adv-x="945" />
<glyph unicode="&#x2002;" horiz-adv-x="472" />
<glyph unicode="&#x2003;" horiz-adv-x="945" />
<glyph unicode="&#x2004;" horiz-adv-x="315" />
<glyph unicode="&#x2005;" horiz-adv-x="236" />
<glyph unicode="&#x2006;" horiz-adv-x="157" />
<glyph unicode="&#x2007;" horiz-adv-x="157" />
<glyph unicode="&#x2008;" horiz-adv-x="118" />
<glyph unicode="&#x2009;" horiz-adv-x="189" />
<glyph unicode="&#x200a;" horiz-adv-x="52" />
<glyph unicode="&#x2010;" horiz-adv-x="463" d="M410 232h-357v120h357v-120z" />
<glyph unicode="&#x2011;" horiz-adv-x="463" d="M410 232h-357v120h357v-120z" />
<glyph unicode="&#x2012;" horiz-adv-x="463" d="M410 232h-357v120h357v-120z" />
<glyph unicode="&#x2013;" horiz-adv-x="562" d="M509 232h-456v120h456v-120z" />
<glyph unicode="&#x2014;" horiz-adv-x="844" d="M803 232h-763v120h763v-120z" />
<glyph unicode="&#x2018;" horiz-adv-x="207" d="M135 832l15 -40q-15 -4 -35 -21.5t-20 -42.5l2 -8q5 3 16 3q28 0 45.5 -18.5t17.5 -46.5t-20 -47t-49 -19q-33 0 -54.5 24t-21.5 65q0 67 31 102.5t73 48.5z" />
<glyph unicode="&#x2019;" horiz-adv-x="210" d="M75 510l-15 40q15 4 35 21.5t20 42.5l-2 8q-5 -3 -16 -3q-28 0 -45.5 18.5t-17.5 46.5t20 47t49 19q33 0 54.5 -24t21.5 -65q0 -67 -31 -102.5t-73 -48.5z" />
<glyph unicode="&#x201a;" horiz-adv-x="236" d="M86 -116l-15 40q15 4 35 21.5t20 42.5l-2 8q-5 -3 -16 -3q-28 0 -45.5 18.5t-17.5 46.5t20 47t49 19q33 0 54.5 -24t21.5 -65q0 -67 -31 -102.5t-73 -48.5z" />
<glyph unicode="&#x201c;" horiz-adv-x="390" d="M135 832l15 -40q-15 -4 -35 -21.5t-20 -42.5l2 -8q5 3 16 3q28 0 45.5 -18.5t17.5 -46.5t-20 -47t-49 -19q-33 0 -54.5 24t-21.5 65q0 67 31 102.5t73 48.5zM318 832l15 -40q-15 -4 -35 -21.5t-20 -42.5l2 -8q5 3 16 3q28 0 45.5 -18.5t17.5 -46.5t-20 -47t-49 -19 q-33 0 -54.5 24t-21.5 65q0 67 31 102.5t73 48.5z" />
<glyph unicode="&#x201d;" horiz-adv-x="388" d="M75 510l-15 40q15 4 35 21.5t20 42.5l-2 8q-5 -3 -16 -3q-28 0 -45.5 18.5t-17.5 46.5t20 47t49 19q33 0 54.5 -24t21.5 -65q0 -67 -31 -102.5t-73 -48.5zM253 510l-15 40q15 4 35 21.5t20 42.5l-2 8q-5 -3 -16 -3q-28 0 -45.5 18.5t-17.5 46.5t20 47t49 19 q33 0 54.5 -24t21.5 -65q0 -67 -31 -102.5t-73 -48.5z" />
<glyph unicode="&#x201e;" horiz-adv-x="413" d="M86 -116l-15 40q15 4 35 21.5t20 42.5l-2 8q-5 -3 -16 -3q-28 0 -45.5 18.5t-17.5 46.5t20 47t49 19q33 0 54.5 -24t21.5 -65q0 -67 -31 -102.5t-73 -48.5zM264 -116l-15 40q15 4 35 21.5t20 42.5l-2 8q-5 -3 -16 -3q-28 0 -45.5 18.5t-17.5 46.5t20 47t49 19 q33 0 54.5 -24t21.5 -65q0 -67 -31 -102.5t-73 -48.5z" />
<glyph unicode="&#x2022;" horiz-adv-x="344" d="M171 226q-50 0 -77.5 29t-27.5 80q0 50 27.5 80t77.5 30q49 0 78.5 -30.5t29.5 -79.5q0 -50 -29.5 -79.5t-78.5 -29.5z" />
<glyph unicode="&#x2026;" horiz-adv-x="580" d="M181 61q0 -28 -20 -48t-49 -20q-28 0 -48 19.5t-20 48.5t20 49t48 20t48.5 -20t20.5 -49zM359 61q0 -28 -20 -48t-49 -20q-28 0 -48 19.5t-20 48.5t20 49t48 20t48.5 -20t20.5 -49zM536 61q0 -29 -20 -48.5t-48 -19.5q-29 0 -48.5 19.5t-19.5 48.5t19.5 49t48.5 20 q28 0 48 -20t20 -49z" />
<glyph unicode="&#x202f;" horiz-adv-x="189" />
<glyph unicode="&#x2039;" horiz-adv-x="288" d="M143 239l112 -128l-79 -66l-138 161v67l138 161l79 -66z" />
<glyph unicode="&#x203a;" horiz-adv-x="288" d="M35 111l112 128l-112 129l79 66l138 -161v-67l-138 -161z" />
<glyph unicode="&#x205f;" horiz-adv-x="236" />
<glyph unicode="&#x20ac;" horiz-adv-x="694" d="M28 303h80q-1 13 -1 40v17h-79v69h85q20 133 103 199t216 66q29 0 56 -3t48.5 -8.5t39 -11.5t32 -13.5t22.5 -12t16 -10.5l9 -6l-61 -95q-10 8 -27.5 17.5t-54 20.5t-73.5 11q-159 0 -192 -154h254v-69h-262v-19q0 -26 1 -38h220v-69h-207q39 -130 190 -130q37 0 74 10.5 t54 19.5t27 16l60 -95q-90 -62 -226 -62q-127 0 -208.5 60t-106.5 181h-89v69z" />
<glyph unicode="&#x2122;" horiz-adv-x="1088" d="M353 289h-192v68l50 9v274h-78l-8 -70h-70v148h401v-148h-70l-8 70h-76v-274l51 -9v-68zM1037 289h-177v69l38 8l-13 210h-2l-95 -251h-52l-95 251h-1l-14 -210l37 -8v-69h-177v69l50 8l14 274l-49 9v69h156l78 -195l26 -73h2q13 39 27 73l79 195h155v-69l-49 -9l13 -274 l49 -8v-69z" />
</font>
</defs>
</svg>
