<?xml version="1.0" encoding="utf-8"?>
<!-- Generator: Adobe Illustrator 20.1.0, SVG Export Plug-In . SVG Version: 6.00 Build 0)  -->
<svg version="1.1" id="Layer_1" xmlns="http://www.w3.org/2000/svg" xmlns:xlink="http://www.w3.org/1999/xlink" x="0px" y="0px"
   viewBox="0 0 24 24" style="enable-background:new 0 0 24 24;" xml:space="preserve">
<style type="text/css">
  .st0{fill:#3893D0;}
  .st1{fill:none;}
</style>
<g id="Filled_Icons_1_">
  <g id="Filled_Icons">
    <g>
      <path class="st0" d="M13.3,7.2l-9.4,9.4c-0.2,0.2-0.2,0.5,0,0.7l0.4,0.4l-1.8,1.8c-0.2,0.2-0.2,0.5,0,0.7l0.4,0.4L1,22.3
        c-0.2,0.2-0.2,0.5,0,0.7c0.2,0.2,0.5,0.2,0.7,0l1.8-1.8l0.4,0.4c0.2,0.2,0.5,0.2,0.7,0l1.8-1.8l0.4,0.4c0.2,0.2,0.5,0.2,0.7,0
        l9.4-9.4L13.3,7.2z"/>
      <path class="st0" d="M23,3.9L20.1,1c-0.2-0.2-0.5-0.2-0.7,0L19,1.4C18.6,1.2,18.2,1,17.7,1c-0.7,0-1.3,0.3-1.8,0.7l-5.7,5.7
        c-0.2,0.2-0.2,0.5,0,0.7c0.2,0.2,0.5,0.2,0.7,0l5.7-5.7C17,2,17.7,1.9,18.3,2.2L14,6.5l3.5,3.5L23,4.6C23.2,4.4,23.2,4.1,23,3.9z
        "/>
    </g>
  </g>
  <g id="New_icons">
  </g>
</g>
<g id="Frames-24px">
  <rect y="0" class="st1" width="24" height="24"/>
</g>
</svg>
