<svg xmlns="http://www.w3.org/2000/svg" width="14" height="14" viewBox="0 0 14 14">
  <defs>
    <style>
      .cls-1 {
        fill: #3893D0;
        fill-rule: evenodd;
        opacity: 0.8;
      }
    </style>
  </defs>
  <path id="upload" class="cls-1" d="M444.413,2812.17a0.579,0.579,0,0,0-.825,0l-4.084,4.08a0.589,0.589,0,0,0,0,.83,0.579,0.579,0,0,0,.825,0l3.088-3.09v8.29a0.583,0.583,0,0,0,1.166,0v-8.29l3.088,3.09a0.579,0.579,0,0,0,.825,0,0.589,0.589,0,0,0,0-.83Zm6,9.59a0.582,0.582,0,0,0-.584.58v1.12a1.4,1.4,0,0,1-1.09,1.38h-9.486a1.394,1.394,0,0,1-1.09-1.38v-1.12a0.584,0.584,0,0,0-1.167,0v1.12a2.523,2.523,0,0,0,2.257,2.55h9.486a2.523,2.523,0,0,0,2.257-2.55v-1.12A0.582,0.582,0,0,0,450.417,2821.76Z" transform="translate(-437 -2812)"/>
</svg>
