<?xml version="1.0" standalone="no"?>
<!DOCTYPE svg PUBLIC "-//W3C//DTD SVG 1.1//EN" "http://www.w3.org/Graphics/SVG/1.1/DTD/svg11.dtd" >
<svg xmlns="http://www.w3.org/2000/svg">
<metadata></metadata>
<defs>
<font id="roble_alt_lightlight" horiz-adv-x="707" >
<font-face units-per-em="1000" ascent="750" descent="-250" />
<missing-glyph horiz-adv-x="242" />
<glyph unicode="&#xfb01;" horiz-adv-x="609" d="M509 467v-412l68 -10v-45h-205v46l70 9v357l-70 9v46h137zM528 655q0 -23 -16 -38.5t-39 -15.5t-38.5 15.5t-15.5 38.5t15.5 39t38.5 16t39 -16t16 -39zM278 0h-240v46l70 9v358h-72v54h72v125q0 80 39.5 121.5t111.5 41.5q22 0 41.5 -3.5t27.5 -7.5l9 -4v-57 q-27 15 -69 15q-93 0 -93 -108v-123h148v-54h-148v-358l103 -9v-46z" />
<glyph unicode="&#xfb02;" horiz-adv-x="607" d="M508 746v-691l68 -9v-46h-205v46l70 9v636l-70 9v46h137zM278 0h-240v46l70 9v358h-72v54h72v125q0 80 39.5 121.5t111.5 41.5q22 0 41.5 -3.5t27.5 -7.5l9 -4v-57q-27 15 -69 15q-93 0 -93 -108v-123h148v-54h-148v-358l103 -9v-46z" />
<glyph horiz-adv-x="0" />
<glyph unicode="&#xd;" horiz-adv-x="1000" />
<glyph unicode=" "  horiz-adv-x="242" />
<glyph unicode="&#x09;" horiz-adv-x="242" />
<glyph unicode="&#xa0;" horiz-adv-x="242" />
<glyph unicode="!" horiz-adv-x="252" d="M154 165h-55l-10 581h75zM172 39q0 -19 -13.5 -32.5t-32.5 -13.5t-32.5 13.5t-13.5 32.5t13.5 32.5t32.5 13.5t32.5 -13.5t13.5 -32.5z" />
<glyph unicode="&#x22;" horiz-adv-x="300" d="M117 572h-51l-4 182h59zM238 572h-50l-5 182h59z" />
<glyph unicode="#" horiz-adv-x="623" d="M519 186h-112l-47 -186h-64l47 186h-141l-47 -186h-64l47 186h-102v57h116l47 185h-95v57h109l53 209h64l-53 -209h141l53 209h64l-53 -209h105v-57h-119l-47 -185h98v-57zM263 428l-47 -185h141l47 185h-141z" />
<glyph unicode="$" horiz-adv-x="576" d="M52 166q0 11 2 21t4 15l1 5l69 3q-6 -15 -6 -31q0 -56 44.5 -90t116.5 -34q177 0 177 116q0 39 -22.5 67t-59 44t-80.5 28.5t-88 27.5t-80.5 35t-59 56t-22.5 86q0 69 54.5 120t151.5 58v80h48v-80q99 -4 153.5 -51t54.5 -122q0 -10 -2 -19.5t-4 -14.5l-1 -4l-66 -7 q5 21 5 33q0 53 -39 88.5t-122 35.5q-73 0 -117 -32.5t-44 -83.5q0 -36 22.5 -61.5t59 -40t80.5 -27t88 -28t80.5 -36t59 -58t22.5 -88.5q0 -78 -57.5 -129t-171.5 -55v-81h-48v82q-99 6 -151 55t-52 117z" />
<glyph unicode="%" horiz-adv-x="773" d="M206 -27l-47 27l428 747l47 -27zM322 515q0 -87 -38.5 -132t-105.5 -45q-66 0 -104.5 45t-38.5 132t38.5 133t104.5 46q67 0 105.5 -46t38.5 -133zM95 515q0 -122 83 -122q84 0 84 122q0 63 -22.5 94t-61.5 31q-83 0 -83 -125zM736 170q0 -87 -38.5 -132t-105.5 -45 q-66 0 -104.5 45t-38.5 132t38.5 133t104.5 46q67 0 105.5 -46t38.5 -133zM509 170q0 -122 83 -122q84 0 84 122q0 63 -22.5 94t-61.5 31q-83 0 -83 -125z" />
<glyph unicode="&#x26;" horiz-adv-x="661" d="M493 267v77h130v-47l-66 -11v-11q0 -91 -45 -162l103 -113h-90l-56 62q-77 -69 -187 -69q-117 0 -177 57t-60 132q0 44 15.5 79t41.5 57t47.5 34t43.5 20q-73 89 -73 161q0 75 50.5 118t122.5 43q67 0 118.5 -38.5t51.5 -116.5q0 -46 -19 -82t-50 -56.5t-54 -30.5 t-46 -15l173 -192q26 46 26 104zM283 56q84 0 143 54l-193 217q-18 -6 -34.5 -15.5t-37 -26t-33 -42.5t-12.5 -58q0 -58 48.5 -93.5t118.5 -35.5zM190 533q0 -57 66 -135q18 3 36.5 9t43.5 20.5t41 42.5t16 66q0 39 -26 67.5t-71 28.5q-48 0 -77 -26.5t-29 -72.5z" />
<glyph unicode="'" horiz-adv-x="178" d="M117 572h-51l-4 182h59z" />
<glyph unicode="(" horiz-adv-x="340" d="M333 710q-19 -14 -40.5 -34t-56.5 -64t-61 -94t-46 -125t-20 -155t20 -155t46 -124.5t61 -94t56.5 -64t40.5 -34.5l-29 -41q-24 14 -51 35t-67 66t-70 98.5t-52 137t-22 176.5t22 176.5t52 137t70 98.5t67 66t51 35z" />
<glyph unicode=")" horiz-adv-x="340" d="M13 710l29 41q24 -14 51 -35t67 -66t70.5 -98.5t52.5 -137t22 -176.5t-22 -176.5t-52.5 -137t-70.5 -98.5t-67 -66t-51 -35l-29 41q19 15 40.5 34.5t56.5 64t61 94t46 124.5t20 155t-20 155t-46 125t-61 94t-56.5 64t-40.5 34z" />
<glyph unicode="*" horiz-adv-x="398" d="M177 726h41l4 -118l98 53l20 -35l-102 -63l74 -94l-32 -27l-82 92l-81 -92l-31 27l73 93l-102 64l20 35l97 -53z" />
<glyph unicode="+" horiz-adv-x="542" d="M309 74h-64v215h-198v57h198v217h64v-217h187v-57h-187v-215z" />
<glyph unicode="," horiz-adv-x="229" d="M91 -103l-9 26q14 5 28 21.5t14 44.5l-2 9q-5 -5 -18 -5q-17 0 -28.5 12t-11.5 31t13 31t33 12q24 0 38.5 -17.5t14.5 -48.5q0 -88 -72 -116z" />
<glyph unicode="-" horiz-adv-x="463" d="M397 261h-331v62h331v-62z" />
<glyph unicode="." horiz-adv-x="216" d="M155 40q0 -20 -13.5 -33.5t-33.5 -13.5q-19 0 -33 14t-14 33t14 33t33 14t33 -14t14 -33z" />
<glyph unicode="/" horiz-adv-x="380" d="M89 -99l-61 19l263 880l61 -18z" />
<glyph unicode="0" horiz-adv-x="662" d="M608 339q0 -172 -73.5 -259t-203.5 -87t-203.5 87t-73.5 259q0 176 73.5 265.5t203.5 89.5t203.5 -89.5t73.5 -265.5zM126 339q0 -284 205 -284t205 284q0 150 -54.5 221.5t-150.5 71.5t-150.5 -71.5t-54.5 -221.5z" />
<glyph unicode="1" horiz-adv-x="476" d="M459 0h-405v47l177 11v539l-158 -87l-31 44l201 134h57v-630l159 -11v-47z" />
<glyph unicode="2" horiz-adv-x="585" d="M536 0h-474v50q8 4 22 10.5t55 29.5t77.5 48t82 63.5t78 78t54.5 90t22 100.5q0 73 -44.5 117.5t-123.5 44.5q-82 0 -124 -42.5t-42 -107.5l4 -25l-71 7q-5 13 -5 32q0 80 59.5 139t177.5 59t179.5 -60t61.5 -160q0 -74 -35.5 -144t-85.5 -117t-100.5 -83.5t-85.5 -53.5 l-36 -17h353z" />
<glyph unicode="3" horiz-adv-x="593" d="M410 359v-5q5 -1 14 -3t31.5 -13t39.5 -26.5t31 -46t14 -69.5q0 -93 -69 -148t-190 -55q-34 0 -64.5 6t-54 16t-42.5 21.5t-33.5 25t-23.5 23t-15.5 18t-7.5 9.5l39 45l5 -6q6 -6 12 -13t17 -16.5t22.5 -18t28 -18t34 -16t39 -10.5t44.5 -4q90 0 139.5 39t49.5 105 q0 55 -41 88t-123 33h-72v61h67q22 0 45 5.5t48 18t40.5 39t15.5 62.5q0 55 -40.5 90.5t-123.5 35.5q-74 0 -109.5 -36.5t-35.5 -83.5l3 -27l-66 8q-4 13 -4 33q0 74 60 121t154 47q117 0 174.5 -53.5t57.5 -131.5q0 -34 -11.5 -61.5t-27.5 -43.5t-32 -26.5t-27 -14.5z" />
<glyph unicode="4" horiz-adv-x="566" d="M442 0h-69v187h-344v57l326 444h87v-443h89v-58h-89v-187zM373 245v365l-270 -365h270z" />
<glyph unicode="5" horiz-adv-x="584" d="M284 -7q-30 0 -58.5 4.5t-50 11.5t-41.5 17.5t-34 19.5t-26.5 20t-19 18.5t-12.5 14.5l-7 7l43 46q82 -96 206 -96q87 0 136.5 42t49.5 123q0 69 -49.5 110.5t-137.5 41.5q-75 0 -159 -45l-39 17l31 343h395v-59h-335l-21 -232q52 38 137 38q114 0 180 -58.5t66 -156.5 q0 -107 -68 -167t-186 -60z" />
<glyph unicode="6" horiz-adv-x="610" d="M329 -7q-128 0 -202 86t-74 260q0 177 77 266t212 89q49 0 95.5 -15.5t62.5 -26t26 -18.5l-38 -52q-6 6 -20 15.5t-50.5 22t-75.5 12.5q-210 0 -217 -273q77 65 214 65q110 0 170.5 -57.5t60.5 -153.5q0 -97 -66 -158.5t-175 -61.5zM330 362q-52 0 -99.5 -15.5 t-68.5 -29.5t-35 -27q17 -235 202 -235q81 0 127 44t46 115q0 63 -47.5 105.5t-124.5 42.5z" />
<glyph unicode="7" horiz-adv-x="528" d="M253 -1h-72l245 604q3 8 7 14.5t7 8.5l2 3h-342l-9 -113h-57l3 172h477v-42z" />
<glyph unicode="8" horiz-adv-x="599" d="M381 362v-2q28 -9 38.5 -13t41 -20t45 -32t28.5 -46t14 -66q0 -86 -68 -138t-180 -52q-111 0 -180 51t-69 139q0 36 11.5 66t28 48.5t39.5 33t40 21t35 11.5q-61 24 -95 61.5t-34 100.5q0 69 56.5 118.5t168.5 50.5q110 0 165.5 -49.5t55.5 -118.5q0 -66 -46 -111.5 t-95 -52.5zM478 188q0 27 -11 48.5t-25 35t-42 27t-47 19.5t-55 17q-177 -28 -177 -147q0 -60 47.5 -96.5t130.5 -36.5t131 36t48 97zM147 523q0 -109 159 -138q60 12 103 47.5t43 89.5q0 46 -39.5 78t-113.5 32q-75 -1 -113.5 -32t-38.5 -77z" />
<glyph unicode="9" horiz-adv-x="611" d="M282 694q128 0 202 -86t74 -260q0 -177 -77.5 -266t-211.5 -89q-49 0 -95.5 15.5t-62.5 26t-26 18.5l38 52q6 -6 19.5 -15.5t50 -22t76.5 -12.5q208 0 216 270q-79 -66 -213 -66q-110 0 -170.5 59t-60.5 156t66 158.5t175 61.5zM281 322q52 0 99.5 15.5t68 29t35.5 26.5 q-8 123 -61 181t-141 58q-81 0 -127 -44t-46 -115q0 -65 47.5 -108t124.5 -43z" />
<glyph unicode=":" horiz-adv-x="220" d="M157 40q0 -20 -13.5 -33.5t-33.5 -13.5t-33.5 13.5t-13.5 33.5q0 19 14 33t33 14t33 -14t14 -33zM157 447q0 -19 -13.5 -33t-33.5 -14t-33.5 14t-13.5 33t13.5 33t33.5 14t33.5 -14t13.5 -33z" />
<glyph unicode=";" horiz-adv-x="234" d="M96 -103l-9 26q14 5 28 21.5t14 44.5l-2 9q-5 -5 -18 -5q-17 0 -28.5 12t-11.5 31t13 31t33 12q24 0 38.5 -17.5t14.5 -48.5q0 -88 -72 -116zM161 427q0 -19 -13.5 -33t-33.5 -14t-33.5 14t-13.5 33t13.5 33t33.5 14t33.5 -14t13.5 -33z" />
<glyph unicode="&#x3c;" horiz-adv-x="379" d="M321 552l-184 -180l184 -180l-44 -46l-220 206v40l220 206z" />
<glyph unicode="=" horiz-adv-x="511" d="M438 333h-365v63h365v-63zM438 99h-365v63h365v-63z" />
<glyph unicode="&#x3e;" horiz-adv-x="379" d="M242 372l-184 180l44 46l220 -206v-40l-220 -206l-44 46z" />
<glyph unicode="?" horiz-adv-x="509" d="M269 192h-60l-8 145q66 0 131.5 56t65.5 149q0 68 -38.5 108.5t-107.5 40.5q-73 0 -109.5 -41t-36.5 -106l3 -23l-70 8q-5 13 -5 31q0 77 55 135t161 58q105 0 162.5 -58.5t57.5 -153.5q0 -44 -15 -83.5t-37.5 -66t-50.5 -47.5t-51 -31.5t-42 -14.5zM286 40 q0 -20 -13.5 -33.5t-33.5 -13.5t-33 13.5t-13 33.5t13.5 33.5t32.5 13.5t33 -13.5t14 -33.5z" />
<glyph unicode="@" horiz-adv-x="1051" d="M651 64v8h-2l-1 -1q-34 -56 -111 -73q-24 -5 -51 -5q-91 0 -154 64.5t-63 175.5q0 112 62.5 176.5t157.5 64.5q49 0 88 -18.5t54 -37.5l15 -18h3l12 67h50v-374q0 -46 40 -46q79 0 123 61t44 185q0 80 -24.5 149t-72 123t-125.5 85t-177 31q-93 0 -171.5 -34t-130 -92 t-80 -134.5t-28.5 -161.5q0 -83 24.5 -151.5t56.5 -109.5t80 -75.5t78 -48t68 -27.5l-35 -52q-26 11 -34.5 14t-41.5 19t-50 28t-49 36t-50.5 47t-43 58t-37.5 72t-22.5 86.5t-9.5 103.5q0 94 32.5 180.5t91.5 153.5t150.5 106.5t201.5 39.5q93 0 170.5 -24t131.5 -65.5 t91 -98t54.5 -120.5t17.5 -133q0 -153 -70.5 -229t-177.5 -76q-43 0 -64 21.5t-21 49.5zM498 50q101 0 146 70v217q-21 38 -61 59t-85 21q-69 0 -116 -47.5t-47 -136.5q0 -88 49.5 -135.5t113.5 -47.5z" />
<glyph unicode="A" horiz-adv-x="727" d="M-3 46l77 10l227 577l-82 9v46h186l252 -632l77 -10v-46h-233v46l83 10q-33 81 -71 180h-299l-70 -180l83 -10v-46h-230v46zM348 576l-111 -281h253l-110 281l-14 37h-6q-9 -30 -12 -37z" />
<glyph unicode="B" horiz-adv-x="668" d="M367 0h-323v46l91 9v578l-91 9v46h309q112 0 168 -47t56 -130q0 -107 -106 -149v-4q15 -2 30.5 -6.5t38.5 -16.5t40 -28.5t29.5 -46t12.5 -66.5q0 -92 -64 -143t-191 -51zM204 59h165q88 0 135 34.5t47 102.5q0 63 -47.5 96t-130.5 33h-169v-266zM204 382h169 q52 1 92.5 33t40.5 89q0 69 -42 97t-103 28h-157v-247z" />
<glyph unicode="C" horiz-adv-x="662" d="M611 440l-70 -12q3 20 3 38q0 79 -54 122.5t-134 43.5q-108 0 -170 -71.5t-62 -221.5q0 -284 232 -284q184 0 184 154v17l70 -16v-8q0 -100 -67.5 -154.5t-189.5 -54.5q-140 0 -220.5 87t-80.5 259q0 176 81 265.5t222 89.5q114 0 186.5 -60t72.5 -162z" />
<glyph unicode="D" horiz-adv-x="728" d="M204 59h124q145 0 211.5 72t66.5 210q0 142 -69 215t-222 73h-111v-570zM337 0h-293v46l91 9v578l-91 9v46h279q354 0 354 -347q0 -172 -88 -256.5t-252 -84.5z" />
<glyph unicode="E" horiz-adv-x="624" d="M567 0h-523v46l90 9v578l-90 9v46h525l2 -167h-56l-8 108h-304v-252h263v-58h-263v-260h303l9 107h56z" />
<glyph unicode="F" horiz-adv-x="602" d="M364 0h-320v46l90 9v578l-90 9v46h525l2 -167h-56l-8 108h-304v-252h263v-58h-263v-264l161 -9v-46z" />
<glyph unicode="G" horiz-adv-x="671" d="M611 452l-70 -10q3 18 3 36q0 73 -54 113.5t-134 40.5q-108 0 -170 -71.5t-62 -221.5q0 -284 234 -284q186 0 186 176v37h-202v59h272v-95q0 -116 -68 -177.5t-191 -61.5q-141 0 -222 87t-81 259q0 176 81 265.5t222 89.5q114 0 186.5 -56.5t72.5 -152.5z" />
<glyph unicode="H" horiz-adv-x="807" d="M764 0h-252v46l91 9v253h-399v-253l91 -9v-46h-251v46l91 9v577l-91 10v46h251v-46l-91 -10v-265h399v265l-91 10v46h252v-46l-92 -10v-577l92 -9v-46z" />
<glyph unicode="I" horiz-adv-x="339" d="M295 0h-251v46l91 9v577l-91 10v46h251v-46l-91 -10v-577l91 -9v-46z" />
<glyph unicode="J" horiz-adv-x="332" d="M135 14v618l-91 10v46h252v-46l-91 -10v-620q0 -112 -47.5 -173.5t-123.5 -75.5l-20 63q61 20 91 62.5t30 125.5z" />
<glyph unicode="K" horiz-adv-x="720" d="M204 631v-273h145l189 273l-86 11v46h251v-46l-86 -11l-211 -300v-8q30 -12 64.5 -58.5t61.5 -93t65 -84.5t75 -38l24 2v-54q-12 -4 -38 -4q-45 0 -86 31.5t-72 77t-59 90.5t-59 76.5t-62 31.5h-116v-243l97 -11v-46h-257v46l91 11v574l-91 11v46h246v-46z" />
<glyph unicode="L" horiz-adv-x="579" d="M552 0h-508v46l91 9v577l-91 10v46h250v-46l-90 -10v-573h287l9 119h56z" />
<glyph unicode="M" horiz-adv-x="940" d="M439 54l-212 528h-3l-32 -527l85 -9v-46h-244v46l90 9l34 577l-92 10v46h188l169 -414l46 -127h6q33 95 46 127l170 414h184v-46l-91 -10l34 -577l90 -9v-46h-244v46l85 9l-33 527h-2l-212 -528h-62z" />
<glyph unicode="N" horiz-adv-x="816" d="M689 0h-83l-399 580h-3v-525l91 -9v-46h-251v46l91 9v577l-91 10v46h168l405 -590h3v534l-90 10v46h251v-46l-92 -10v-632z" />
<glyph unicode="O" d="M654 339q0 -172 -80 -259t-221 -87t-221 87t-80 259q0 176 80 265.5t221 89.5t221 -89.5t80 -265.5zM124 339q0 -284 229 -284t229 284q0 151 -61 222t-168 71t-168 -71.5t-61 -221.5z" />
<glyph unicode="P" horiz-adv-x="621" d="M317 0h-273v46l91 9v577l-91 10v46h305q104 0 169.5 -55t65.5 -157q0 -105 -64 -160.5t-182 -55.5h-134v-205l113 -9v-46zM204 319h132q177 0 177 157q0 78 -49.5 115.5t-126.5 37.5h-133v-310z" />
<glyph unicode="Q" d="M654 339q0 -162 -71 -248.5t-198 -95.5q6 -56 50.5 -87t122.5 -45l-23 -62q-96 11 -153 67.5t-59 125.5q-128 9 -199.5 95.5t-71.5 249.5q0 176 80 265.5t221 89.5t221 -89.5t80 -265.5zM124 339q0 -284 229 -284t229 284q0 151 -61 222t-168 71t-168 -71.5t-61 -221.5z " />
<glyph unicode="R" horiz-adv-x="665" d="M601 474q0 -100 -51 -150t-155 -60v-1q23 -8 51.5 -43.5t51.5 -72.5t54 -67.5t59 -30.5l25 2v-54q-12 -4 -39 -4q-37 0 -72.5 27t-63.5 65.5t-54 77t-54.5 65.5t-54.5 27h-94v-200l111 -9v-46h-271v46l91 9v577l-91 10v46h321q104 0 170 -55.5t66 -158.5zM204 314h160 q166 0 166 157q0 80 -50.5 119t-127.5 39h-148v-315z" />
<glyph unicode="S" horiz-adv-x="581" d="M56 166q0 11 2 21t4 15l1 5l69 3q-6 -15 -6 -31q0 -56 44.5 -90t116.5 -34q177 0 177 116q0 39 -22.5 67t-59 44t-80.5 28.5t-88 27.5t-80.5 35t-59 56t-22.5 86q0 75 62 127t171 52q108 0 168.5 -47.5t60.5 -126.5q0 -10 -1.5 -19.5t-3.5 -14.5l-2 -4l-66 -7q5 21 5 33 q0 53 -39 88.5t-122 35.5q-73 0 -117 -32.5t-44 -83.5q0 -36 22.5 -61.5t59 -40t80.5 -27t88 -28t80.5 -36t59 -58t22.5 -88.5q0 -81 -62 -132.5t-186 -51.5q-113 0 -172.5 50t-59.5 123z" />
<glyph unicode="T" horiz-adv-x="650" d="M452 0h-252v46l91 9v574h-203l-8 -108h-57l3 167h597l3 -167h-56l-9 108h-201v-574l92 -9v-46z" />
<glyph unicode="U" horiz-adv-x="757" d="M569 253v379l-91 10v46h250v-46l-91 -10v-373q0 -132 -65.5 -199t-192.5 -67t-193 67t-66 199v373l-90 10v46h251v-46l-92 -10v-374q0 -203 190 -203t190 198z" />
<glyph unicode="V" horiz-adv-x="730" d="M405 0h-80l-252 632l-76 10v46h235v-46l-83 -10l202 -517l13 -40h6q11 37 12 40l202 517l-83 10v46h232v-46l-76 -10z" />
<glyph unicode="W" horiz-adv-x="1012" d="M363 0h-85l-202 632l-77 10v46h235v-46l-83 -10l156 -517l12 -40h6q7 36 8 40l147 573h56l144 -573l8 -40h6q11 37 12 40l157 517l-83 10v46h233v-46l-77 -10l-204 -632h-85l-134 544q-4 16 -4 24h-5q0 -10 -4 -24z" />
<glyph unicode="X" horiz-adv-x="736" d="M271 0h-251v46l88 9l215 285l-216 292l-87 10v46h253v-46l-88 -10l184 -251l183 251l-88 10v46h252v-46l-87 -10l-217 -292l216 -285l88 -9v-46h-252v46l86 9l-183 242l-182 -242l86 -9v-46z" />
<glyph unicode="Y" horiz-adv-x="669" d="M369 268v-213l93 -9v-46h-254v46l91 9v213l-223 364l-77 10v46h237v-46l-83 -10l179 -300h7l181 300l-84 10v46h235v-46l-78 -10z" />
<glyph unicode="Z" horiz-adv-x="628" d="M576 0h-526v50l438 579h-374l-9 -108h-55l2 167h527v-50l-439 -579h375l8 108h56z" />
<glyph unicode="[" horiz-adv-x="317" d="M299 -290h-210v1055h210v-60h-142v-934h142v-61z" />
<glyph unicode="\" horiz-adv-x="380" d="M352 -80l-61 -19l-263 881l61 18z" />
<glyph unicode="]" horiz-adv-x="316" d="M233 -290h-210v61h142v934h-142v60h210v-1055z" />
<glyph unicode="^" horiz-adv-x="409" d="M302 569l-98 130l-96 -130h-52l104 186h89l104 -186h-51z" />
<glyph unicode="_" horiz-adv-x="545" d="M480 -83h-414v63h414v-63z" />
<glyph unicode="`" horiz-adv-x="232" d="M161 536l-136 183h91l96 -183h-51z" />
<glyph unicode="a" horiz-adv-x="581" d="M265 474q49 0 88 -18.5t54 -37.5l15 -18h3l12 67h50v-377q0 -43 32 -43l24 4v-50q-12 -8 -46 -8q-32 0 -51 19t-19 54v6h-2l-1 -1q-34 -56 -110 -73q-25 -5 -53 -5q-91 0 -153.5 64.5t-62.5 175.5q0 112 62.5 176.5t157.5 64.5zM274 50q101 0 146 70v217q-21 38 -61 59 t-85 21q-69 0 -116 -47.5t-47 -136.5q0 -88 49.5 -135.5t113.5 -47.5z" />
<glyph unicode="b" horiz-adv-x="570" d="M148 70h-3l-12 -70h-50v691l-70 9v46h137v-304l-3 -35h2v1q37 49 114 62l46 4q91 0 153.5 -64.5t62.5 -175.5q0 -114 -60 -177.5t-156 -63.5q-51 0 -91 19.5t-55 38.5zM296 417q-101 0 -146 -71v-217q20 -38 60.5 -58.5t85.5 -20.5q69 0 116 47.5t47 136.5 q0 88 -49.5 135.5t-113.5 47.5z" />
<glyph unicode="c" horiz-adv-x="514" d="M469 273l-60 -5q3 12 3 31q0 56 -33.5 87t-102.5 31q-164 0 -164 -183q0 -89 50 -136.5t123 -47.5q49 0 87.5 13t52.5 26l14 13l24 -48q-6 -7 -18 -17t-59 -27t-105 -17q-105 0 -170.5 64t-65.5 177q0 118 61.5 179t169.5 61q101 0 149.5 -47t48.5 -120z" />
<glyph unicode="d" horiz-adv-x="584" d="M262 474q34 0 63 -7t45.5 -16.5t29 -19.5t17 -16.5t4.5 -7.5h2q-3 30 -3 35v249l-72 9v46h139v-691l70 -9v-46h-120l-11 70h-4q-2 -3 -6 -8.5t-18 -18.5t-31 -23t-45.5 -18.5t-60.5 -8.5q-96 0 -156 63.5t-60 177.5q0 111 62.5 175.5t154.5 64.5zM275 50q44 0 84 20.5 t61 57.5v218q-44 71 -146 71q-64 0 -113.5 -47.5t-49.5 -135.5q0 -89 47.5 -136.5t116.5 -47.5z" />
<glyph unicode="e" horiz-adv-x="523" d="M478 216h-367q6 -82 55 -124t119 -42q49 0 87 13t52 26l14 13l25 -48l-6.5 -6.5t-20.5 -15t-35 -18.5t-51.5 -14.5t-69.5 -6.5q-105 0 -170.5 64t-65.5 177q0 112 65.5 176t168.5 64q88 0 146.5 -60.5t58.5 -152.5zM279 417q-66 0 -114 -40t-54 -111h308q-1 75 -43 113 t-97 38z" />
<glyph unicode="f" horiz-adv-x="344" d="M278 0h-240v46l70 9v358h-72v54h72v125q0 80 39.5 121.5t111.5 41.5q22 0 41.5 -3.5t27.5 -7.5l9 -4v-57q-27 15 -69 15q-93 0 -93 -108v-123h148v-54h-148v-358l103 -9v-46z" />
<glyph unicode="g" horiz-adv-x="585" d="M422 -46v70l2 35h-3q-6 -9 -18 -20.5t-51.5 -28.5t-89.5 -17q-91 0 -153.5 64.5t-62.5 175.5q0 114 60 177.5t156 63.5q32 0 60.5 -8t46 -19.5t30.5 -23t19 -19.5l5 -8h3l12 71h120v-46l-70 -9v-458q0 -121 -66 -179t-174 -58q-62 0 -111 18.5t-67 36.5l-18 18l30 45 q5 -7 15.5 -17t52.5 -27t96 -17q78 0 127 42.5t49 137.5zM275 50q101 0 146 70v217q-21 38 -61 59t-85 21q-69 0 -116 -47.5t-47 -136.5q0 -88 49.5 -135.5t113.5 -47.5z" />
<glyph unicode="h" horiz-adv-x="591" d="M163 381q1 4 3.5 10t14 22t27.5 28.5t46.5 22.5t68.5 10q89 0 133.5 -50t44.5 -133v-236l69 -9v-46h-136v282q0 134 -125 134q-32 0 -58.5 -10.5t-41.5 -24t-25.5 -31t-14 -26.5t-4.5 -15v-254l68 -9v-46h-205v46l70 9v636l-70 9v46h137v-272l-5 -93h3z" />
<glyph unicode="i" horiz-adv-x="277" d="M177 467v-412l68 -10v-45h-205v46l70 9v357l-70 9v46h137zM196 655q0 -23 -16 -38.5t-39 -15.5t-38.5 15.5t-15.5 38.5t15.5 39t38.5 16t39 -16t16 -39z" />
<glyph unicode="j" horiz-adv-x="251" d="M169 467v-569q0 -71 -43 -115.5t-108 -64.5l-22 62q50 19 78 48.5t28 80.5v503l-70 9v46h137zM188 655q0 -23 -16 -38.5t-39 -15.5t-38.5 15.5t-15.5 38.5t15.5 39t38.5 16t39 -16t16 -39z" />
<glyph unicode="k" horiz-adv-x="573" d="M165 746v-366q2 4 6 10t19 22.5t33 29t50 22.5t68 10q83 0 125 -40t42 -104q0 -56 -38 -95t-93 -56l105 -124l72 -9v-46h-100l-144 171h-145v-116l68 -9v-46h-205v46l70 9v636l-70 9v46h137zM165 222h132q57 0 101 27t44 73q0 44 -30.5 69.5t-80.5 25.5q-32 0 -61 -11 t-46.5 -25t-32 -31t-19.5 -26t-7 -13v-89z" />
<glyph unicode="l" horiz-adv-x="268" d="M168 746v-691l68 -9v-46h-205v46l70 9v636l-70 9v46h137z" />
<glyph unicode="m" horiz-adv-x="917" d="M174 308v-253l68 -9v-46h-205v46l70 9v357l-70 9v46h122l6 -93h2q1 4 3.5 11t14.5 24t28.5 30t48.5 24t71 11q116 0 157 -89q5 12 14 24.5t27 28.5t49.5 26t71.5 10q87 0 131.5 -50t44.5 -133v-236l70 -9v-46h-137v282q0 134 -124 134q-93 0 -132 -77q4 -20 4 -48v-236 l70 -9v-46h-137v282q0 134 -124 134q-34 0 -61 -11t-42 -27t-25 -32t-13 -27z" />
<glyph unicode="n" horiz-adv-x="598" d="M174 308v-253l68 -8v-47h-205v46l70 9v357l-70 9v46h122l6 -93h2q1 4 3.5 11t14.5 24t28.5 30t48.5 24t71 11q87 0 131.5 -50t44.5 -133v-236l70 -9v-46h-137v282q0 134 -124 134q-34 0 -61 -11t-42 -27t-25 -32t-13 -27z" />
<glyph unicode="o" horiz-adv-x="551" d="M507 234q0 -113 -64 -177t-167 -64t-167.5 64t-64.5 177q0 112 66 176t166 64q99 0 165 -64t66 -176zM276 50q69 0 117 47.5t48 136.5q0 88 -50 135.5t-115 47.5t-115 -47.5t-50 -135.5q0 -89 47.5 -136.5t117.5 -47.5z" />
<glyph unicode="p" horiz-adv-x="585" d="M97 -223v635l-70 9v46h120l12 -71h3q2 3 6 8.5t18 19t31 23.5t45.5 18.5t60.5 8.5q95 0 156 -63.5t61 -177.5q0 -111 -63.5 -175.5t-154.5 -64.5q-49 0 -88.5 16.5t-52 29t-18.5 20.5v1h-2q3 -30 3 -35v-257h79v-46h-216v46zM310 417q-46 0 -86 -21t-60 -59v-217 q43 -70 146 -70q64 0 113.5 47.5t49.5 135.5q0 89 -47 136.5t-116 47.5z" />
<glyph unicode="q" horiz-adv-x="571" d="M423 397h3l12 70h50v-690l70 -9v-46h-216v46l79 9v248l3 35h-2v-1q-37 -49 -114 -62q-22 -4 -46 -4q-91 0 -153.5 64.5t-62.5 175.5q0 114 60 177.5t156 63.5q32 0 60.5 -8t46 -19t30.5 -22.5t19 -19.5zM275 50q101 0 146 70v217q-21 38 -61 59t-85 21q-69 0 -116 -47.5 t-47 -136.5q0 -88 49.5 -135.5t113.5 -47.5z" />
<glyph unicode="r" horiz-adv-x="380" d="M367 469v-64q-21 7 -52 7q-33 0 -59.5 -14.5t-41 -35.5t-24.5 -42.5t-13 -35.5l-3 -15v-214l75 -9v-46h-212v46l70 9v357l-70 9v46h122l6 -121h2q1 5 3.5 13.5t13 31t25.5 39t43.5 30.5t63.5 14q18 0 51 -5z" />
<glyph unicode="s" horiz-adv-x="475" d="M237 -7q-99 0 -146.5 37.5t-47.5 92.5l3 28l62 6q-3 -8 -3 -16q0 -41 33 -67t98 -26q128 0 128 79q0 36 -34.5 53.5t-96.5 27.5q-30 5 -51.5 10t-47 15.5t-41.5 24t-27 36t-11 51.5q0 59 50 94t128 35q96 0 141 -35t45 -93l-5 -34l-61 -4q3 12 3 27q0 84 -121 84 q-46 0 -80 -19.5t-34 -55.5q0 -16 8.5 -29t18.5 -20.5t32 -14.5t35.5 -10t41.5 -8q38 -7 65 -15t54 -23t41 -39.5t14 -57.5q0 -60 -47.5 -97t-146.5 -37z" />
<glyph unicode="t" horiz-adv-x="338" d="M106 591h55v-124h147v-54h-147v-263q0 -100 79 -100q22 0 43 3.5t31 7.5l9 4v-57q-36 -15 -93 -15q-65 0 -100.5 39t-35.5 114v267h-72v54h72z" />
<glyph unicode="u" horiz-adv-x="590" d="M434 96h-2q-1 -4 -3.5 -11t-14.5 -25t-28.5 -31.5t-48 -24.5t-70.5 -11q-88 0 -132.5 50t-44.5 133v236l-70 9v46h137v-282q0 -134 124 -134q38 0 67 13t44.5 33.5t22.5 33t10 24.5v257l-68 9v46h135v-412l70 -9v-46h-121z" />
<glyph unicode="v" horiz-adv-x="566" d="M319 0h-72l-172 412l-68 9v46h196v-46l-58 -9l136 -333h5l137 333l-59 9v46h195v-46l-68 -9z" />
<glyph unicode="w" horiz-adv-x="778" d="M286 0h-72l-138 412l-68 9v46h195v-46l-58 -9l104 -333h5l104 388h63l106 -388h4l103 333l-58 9v46h194v-46l-68 -9l-138 -412h-72l-101 373h-5z" />
<glyph unicode="x" horiz-adv-x="551" d="M220 0h-198v46l59 9l153 179l-148 178l-64 9v46h201v-46l-58 -9l112 -136l113 136l-58 9v46h198v-46l-65 -9l-148 -176l154 -181l59 -9v-46h-202v46l64 9l-118 140l-118 -140l64 -9v-46z" />
<glyph unicode="y" horiz-adv-x="577" d="M429 -60v138h-2q-4 -11 -13 -22.5t-26.5 -27t-48.5 -25.5t-71 -10q-88 0 -132 50t-44 133v236l-71 9v46h138v-282q0 -134 123 -134q32 0 59 10.5t41 23.5t25.5 31.5t14.5 26t5 15.5v254l-69 9v46h136v-527q0 -116 -62 -171t-170 -55q-37 0 -69.5 7.5t-52.5 18.5t-35 21.5 t-21 18.5l-6 7l29 45q5 -7 14.5 -17t49 -27t89.5 -17q169 0 169 169z" />
<glyph unicode="z" horiz-adv-x="522" d="M473 0h-423v61l339 352h-280l-7 -90h-52v144h423v-51l-345 -362h288l6 93h51v-147z" />
<glyph unicode="{" horiz-adv-x="296" d="M270 -227v-60h-13q-66 0 -107.5 34t-41.5 112v234q0 52 -24.5 86t-46.5 34h-11v50h11q22 0 46.5 33.5t24.5 85.5v235q0 78 41.5 113t107.5 35h13v-60h-13q-42 0 -61.5 -21.5t-19.5 -67.5v-233q0 -25 -7 -48t-16.5 -38t-19 -26.5t-16.5 -16.5l-7 -5v-23q7 -5 18 -15 t29.5 -44.5t18.5 -74.5v-233q0 -45 19.5 -65.5t61.5 -20.5h13z" />
<glyph unicode="|" horiz-adv-x="239" d="M151 -286h-65v1046h65v-1046z" />
<glyph unicode="}" horiz-adv-x="296" d="M30 -287v60h13q43 0 62 20t19 66v233q0 25 7 48t16.5 38t19 26.5t16.5 16.5l7 5v23q-7 5 -18 15t-29.5 44.5t-18.5 74.5v233q0 47 -19 68t-62 21h-13v60h13q66 0 107.5 -35t41.5 -113v-235q0 -52 24.5 -85.5t47.5 -33.5h10v-50h-10q-23 0 -47.5 -34t-24.5 -86v-234 q0 -78 -41.5 -112t-107.5 -34h-13z" />
<glyph unicode="~" horiz-adv-x="500" d="M395 536l35 -22q-28 -75 -97 -75q-34 0 -86 24.5t-75 24.5q-32 0 -67 -41l-34 22q27 74 97 74q34 0 85 -24t76 -24q33 0 66 41z" />
<glyph unicode="&#xa1;" horiz-adv-x="232" d="M88 300h56l7 -586h-70zM161 428q0 -20 -13.5 -33t-32.5 -13t-32.5 13.5t-13.5 32.5t13.5 32.5t32.5 13.5t32.5 -13.5t13.5 -32.5z" />
<glyph unicode="&#xa2;" horiz-adv-x="537" d="M480 363l-60 -5q4 12 4 30q0 57 -34.5 89t-104.5 32q-166 0 -166 -185q0 -90 51 -138t125 -48q50 0 89 13.5t53 26.5l14 14l24 -48q-5 -6 -16 -15t-52 -25.5t-91 -19.5v-85h-57v85q-94 10 -150.5 73t-56.5 167q0 110 54.5 170.5t152.5 68.5v73h57v-74q86 -7 128 -53 t42 -112z" />
<glyph unicode="&#xa3;" horiz-adv-x="602" d="M445 198h-192q-8 -43 -37.5 -83t-65.5 -60h399v-55h-497v52q19 9 43 25t52.5 50t35.5 71h-125v56h124q-6 23 -24.5 52t-35.5 51.5t-31 56.5t-14 69q0 99 65 155t173 56q104 0 166.5 -50t62.5 -136l-4 -26l-69 -7q4 11 4 24q0 59 -44 96t-118 37q-72 0 -119 -37t-47 -116 q0 -39 22 -77.5t48.5 -77.5t34.5 -70h193v-56z" />
<glyph unicode="&#xa4;" horiz-adv-x="653" d="M582 79l-32 -27l-77 88q-61 -47 -147 -47q-85 0 -149 45l-76 -86l-32 27l76 88q-65 70 -65 181q0 109 65 177l-76 88l32 28l76 -87q65 45 149 45t148 -46l76 88l32 -28l-76 -88q65 -70 65 -177q0 -110 -66 -181zM326 150q74 0 126 54t52 143q0 88 -53 141.5t-125 53.5 q-73 0 -126 -53.5t-53 -141.5q0 -89 52 -143t127 -54z" />
<glyph unicode="&#xa5;" horiz-adv-x="728" d="M186 247h143v21l-39 64h-136v56h101l-149 244l-77 10v46h237v-46l-83 -10l179 -300h7l181 300l-84 10v46h235v-46l-78 -10l-150 -244h100v-56h-135l-39 -64v-21h140v-55h-140v-137l93 -9v-46h-254v46l91 9v137h-143v55z" />
<glyph unicode="&#xa6;" horiz-adv-x="242" d="M153 308h-65v452h65v-452zM103 4h35v-126h-35v126z" />
<glyph unicode="&#xa7;" horiz-adv-x="559" d="M506 177q0 -90 -69 -137q69 -50 69 -142q0 -81 -57 -132.5t-172 -51.5q-106 0 -161.5 50t-55.5 123q0 10 2 20.5t4 15.5l2 5l68 3q-5 -15 -5 -31q0 -57 39.5 -90.5t105.5 -33.5q78 0 119 30t41 86q0 39 -21 67t-54.5 44t-73.5 28.5t-80.5 27.5t-74 35t-54.5 56t-21 86 q0 88 75 137q-75 49 -75 142q0 75 57 127t159 52q100 0 156 -47.5t56 -126.5q0 -10 -2 -19.5t-4 -14.5l-2 -4l-64 -7q4 23 4 33q0 53 -35.5 88.5t-108.5 35.5q-65 0 -105.5 -32.5t-40.5 -83.5q0 -42 28 -70t70 -41.5t91.5 -31t91.5 -36.5t70 -60t28 -100zM436 171 q0 27 -10.5 48.5t-25 35t-41 26.5t-47 20t-54.5 18.5t-53 18.5q-37 -14 -57.5 -40.5t-20.5 -60.5q0 -31 14 -53.5t42 -38t55 -25.5t68.5 -23t66.5 -23q63 28 63 97z" />
<glyph unicode="&#xa8;" horiz-adv-x="302" d="M114 575q0 -19 -12.5 -31.5t-31.5 -12.5q-18 0 -31 12.5t-13 31.5t13 31.5t31 12.5q19 0 31.5 -12.5t12.5 -31.5zM275 575q0 -19 -13 -31.5t-31 -12.5q-19 0 -31.5 12.5t-12.5 31.5t12.5 31.5t31.5 12.5q18 0 31 -12.5t13 -31.5z" />
<glyph unicode="&#xa9;" horiz-adv-x="701" d="M648 348q0 -121 -88 -209t-209 -88t-209 88t-88 209t88 209t209 88t209 -88t88 -209zM613 348q0 109 -76.5 185.5t-185.5 76.5t-185.5 -76.5t-76.5 -185.5t76.5 -185.5t185.5 -76.5t185.5 76.5t76.5 185.5zM460 279l35 -23q-45 -81 -143 -81q-71 0 -120 48t-49 128 t49 128t120 48q98 0 143 -81l-36 -25q-34 58 -107 58q-49 0 -83 -32.5t-34 -94.5q0 -63 34 -96t85 -33q33 0 57 11.5t31.5 20t17.5 24.5z" />
<glyph unicode="&#xaa;" horiz-adv-x="398" d="M179 724q28 0 51 -12.5t32 -25.5l9 -12h1l10 42h31v-222q0 -26 19 -26l14 3v-35q-7 -5 -28 -5q-44 0 -44 46v5h-2l-1 -2q-1 -2 -3 -5t-5.5 -7t-7.5 -8t-9.5 -8t-13 -8t-15.5 -7t-18.5 -4.5t-21.5 -1.5q-55 0 -92.5 38.5t-37.5 105.5q0 68 37.5 108.5t94.5 40.5zM184 469 q58 0 85 42v122q-12 24 -35.5 38t-48.5 14q-39 0 -65.5 -28.5t-26.5 -81.5q0 -50 28 -78t63 -28z" />
<glyph unicode="&#xab;" horiz-adv-x="467" d="M110 240l128 -153l-46 -37l-142 165v50l142 165l46 -37zM294 240l128 -153l-46 -37l-142 165v50l142 165l46 -37z" />
<glyph unicode="&#xac;" horiz-adv-x="613" d="M545 141h-65v188h-414v57h479v-245z" />
<glyph unicode="&#xad;" horiz-adv-x="463" d="M397 261h-331v62h331v-62z" />
<glyph unicode="&#xae;" horiz-adv-x="701" d="M648 348q0 -121 -88 -209t-209 -88t-209 88t-88 209t88 209t209 88t209 -88t88 -209zM351 86q109 0 185.5 76.5t76.5 185.5t-76.5 185.5t-185.5 76.5t-185.5 -76.5t-76.5 -185.5t76.5 -185.5t185.5 -76.5zM493 189h-61l-72 135h-66v-97l45 -8v-30h-126v30l40 8v251l-40 8 v30h138q53 0 85.5 -25t32.5 -74q0 -72 -69 -87q3 -3 6 -8t7 -12.5t7 -12.5l38 -70l35 -7v-31zM294 358h56q75 0 75 56q0 31 -20 47.5t-55 16.5h-56v-120z" />
<glyph unicode="&#xaf;" horiz-adv-x="388" d="M351 543h-313v57h313v-57z" />
<glyph unicode="&#xb0;" horiz-adv-x="264" d="M133 414q-32 0 -54 21.5t-22 60.5q0 34 22 57t54 23t54.5 -23t22.5 -57q0 -39 -22 -60.5t-55 -21.5zM133 448q17 0 30 12.5t13 35.5q0 21 -12.5 33.5t-30.5 12.5t-30 -12.5t-12 -33.5q0 -23 12.5 -35.5t29.5 -12.5z" />
<glyph unicode="&#xb1;" horiz-adv-x="596" d="M523 69h-450v57h450v-57zM335 176h-64v175h-198v57h198v180h64v-180h188v-57h-188v-175z" />
<glyph unicode="&#xb2;" horiz-adv-x="382" d="M315 345h-244v43q8 3 20.5 9.5t44.5 26.5t57 40t45 49.5t20 57.5q0 31 -19 50t-54 19q-34 0 -52 -16t-18 -38l2 -13l-55 5q-2 7 -2 17q0 40 31.5 69.5t93.5 29.5q65 0 99 -32t34 -85q0 -32 -15 -62t-34.5 -49.5t-44 -36.5t-36 -23t-18.5 -9h145v-52z" />
<glyph unicode="&#xb3;" horiz-adv-x="362" d="M245 521v-3q3 0 7 -1.5t15.5 -6.5t20 -12.5t15.5 -22.5t7 -34q0 -47 -36 -75t-98 -28q-38 0 -69.5 15t-41 25t-15.5 19l32 39l2 -4l6.5 -6.5t9 -8t13 -9t16.5 -8.5t21.5 -6t25.5 -2q35 0 55 14.5t20 37.5t-16 36.5t-46 13.5h-46v46h43q11 0 22 3t21.5 16t10.5 35 q0 18 -16 32t-45 14q-32 0 -47 -12t-15 -29l2 -14l-53 5q-2 8 -2 18q0 38 32.5 62t83.5 24q61 0 90.5 -27.5t29.5 -67.5q0 -28 -14 -47.5t-28 -25.5z" />
<glyph unicode="&#xb4;" horiz-adv-x="279" d="M238 719l-135 -183h-52l97 183h90z" />
<glyph unicode="&#xb5;" horiz-adv-x="616" d="M171 -267h-67v679l-70 9v46h137v-282q0 -134 124 -134q38 0 67 13t44.5 33.5t22.5 33t10 24.5v257l-68 9v46h135v-412l70 -9v-46h-121l-7 96h-2q-1 -4 -3.5 -11t-14.5 -25t-28.5 -31.5t-48 -24.5t-70.5 -11q-67 0 -110 30v-290z" />
<glyph unicode="&#xb6;" horiz-adv-x="623" d="M445 -79v708h-69v-708h-53v339h-47q-118 0 -182 55.5t-64 160.5q0 102 65.5 157t169.5 55h326v-47l-91 -9v-711h-55z" />
<glyph unicode="&#xb7;" horiz-adv-x="217" d="M153 286q0 -19 -12.5 -32t-31.5 -13t-32 13t-13 32t13 32t32 13t31.5 -13t12.5 -32z" />
<glyph unicode="&#xb8;" horiz-adv-x="233" d="M111 -168q-23 0 -43.5 7t-29.5 15l-9 7l27 34q1 -2 7 -7t19.5 -10.5t27.5 -5.5q47 0 47 34q0 16 -11 26t-31 10q-7 0 -13 -1.5t-8 -2.5l-3 -2l-18 12l30 61h44l-18 -38q26 0 50 -15.5t24 -53.5q0 -33 -24.5 -51.5t-67.5 -18.5z" />
<glyph unicode="&#xb9;" horiz-adv-x="336" d="M293 344h-223v40l90 10v226l-81 -44l-22 39l111 72h45v-293l80 -10v-40z" />
<glyph unicode="&#xba;" horiz-adv-x="372" d="M327 576q0 -68 -39 -106.5t-101 -38.5q-61 0 -100 38.5t-39 106.5q0 69 40 108.5t99 39.5q60 0 100 -39.5t40 -108.5zM187 471q39 0 66.5 27t27.5 78q0 52 -28.5 79.5t-65.5 27.5t-65.5 -27.5t-28.5 -79.5q0 -51 27.5 -78t66.5 -27z" />
<glyph unicode="&#xbb;" horiz-adv-x="467" d="M230 87l129 153l-129 153l47 37l142 -165v-50l-142 -165zM46 87l129 153l-129 153l47 37l142 -165v-50l-142 -165z" />
<glyph unicode="&#xbc;" horiz-adv-x="721" d="M199 -27l-47 27l427 747l48 -27zM279 344h-224v40l89 10v223l-79 -44l-23 42l112 72h46v-293l79 -10v-40zM640 0h-56v84h-172v39l163 220h65v-208h43v-51h-43v-84zM584 134v142l-106 -142h106z" />
<glyph unicode="&#xbd;" horiz-adv-x="764" d="M199 -27l-47 27l427 747l48 -27zM719 0h-244v43q8 3 20.5 9.5t44.5 26.5t56.5 40t44.5 49.5t20 57.5q0 31 -19 50t-53 19t-52 -16t-18 -38l1 -13l-54 5q-3 7 -3 17q0 40 31.5 69.5t94.5 29.5q64 0 98 -32t34 -85q0 -32 -15 -62t-34 -49.5t-43.5 -36.5t-36 -23t-18.5 -9 h145v-52zM279 344h-224v40l89 10v223l-79 -44l-23 42l112 72h46v-293l79 -10v-40z" />
<glyph unicode="&#xbe;" horiz-adv-x="724" d="M202 -27l-47 27l427 747l48 -27zM643 0h-56v84h-172v39l163 220h65v-208h43v-51h-43v-84zM587 134v142l-106 -142h106zM234 521v-3q3 0 7.5 -1.5t15.5 -6.5t20 -12.5t16 -22.5t7 -34q0 -47 -36 -75t-99 -28q-77 0 -126 59l32 39l2 -2q2 -3 4.5 -6t7.5 -7l10 -8t13 -8 t16 -6.5t18.5 -4.5t22.5 -2q35 0 55 14.5t20 37.5q0 50 -62 50h-45v46h42q12 0 23 3t21.5 16t10.5 35q0 18 -16 32t-46 14q-32 0 -47 -12t-15 -29l2 -14l-52 5q-3 8 -3 18q0 38 32.5 62t83.5 24q61 0 90.5 -27.5t29.5 -67.5q0 -17 -5.5 -31.5t-13.5 -23t-16.5 -14 t-13.5 -7.5z" />
<glyph unicode="&#xbf;" horiz-adv-x="498" d="M235 275h60l8 -145q-66 0 -131.5 -56t-65.5 -149q0 -68 38.5 -108.5t107.5 -40.5q73 0 109.5 41t36.5 106l-3 23l70 -8q4 -13 4 -31q0 -77 -54.5 -135t-161.5 -58q-105 0 -162.5 58.5t-57.5 153.5q0 54 22.5 101t55.5 75.5t64 45t55 21.5zM218 427q0 20 13.5 33.5 t33.5 13.5t33 -13.5t13 -33.5t-13.5 -33.5t-32.5 -13.5t-33 14t-14 33z" />
<glyph unicode="&#xc0;" horiz-adv-x="727" d="M-3 46l77 10l227 577l-82 9v46h186l252 -632l77 -10v-46h-233v46l83 10q-33 81 -71 180h-299l-70 -180l83 -10v-46h-230v46zM348 576l-111 -281h253l-110 281l-14 37h-6q-9 -30 -12 -37zM355 730l-136 183h91l96 -183h-51z" />
<glyph unicode="&#xc1;" horiz-adv-x="727" d="M-3 46l77 10l227 577l-82 9v46h186l252 -632l77 -10v-46h-233v46l83 10q-33 81 -71 180h-299l-70 -180l83 -10v-46h-230v46zM348 576l-111 -281h253l-110 281l-14 37h-6q-9 -30 -12 -37zM511 912l-135 -183h-52l97 183h90z" />
<glyph unicode="&#xc2;" horiz-adv-x="727" d="M-3 46l77 10l227 577l-82 9v46h186l252 -632l77 -10v-46h-233v46l83 10q-33 81 -71 180h-299l-70 -180l83 -10v-46h-230v46zM348 576l-111 -281h253l-110 281l-14 37h-6q-9 -30 -12 -37zM459 730l-97 130l-97 -130h-51l104 183h88l104 -183h-51z" />
<glyph unicode="&#xc3;" horiz-adv-x="727" d="M-3 46l77 10l227 577l-82 9v46h186l252 -632l77 -10v-46h-233v46l83 10q-33 81 -71 180h-299l-70 -180l83 -10v-46h-230v46zM348 576l-111 -281h253l-110 281l-14 37h-6q-9 -30 -12 -37zM514 823l35 -23q-27 -74 -97 -74q-34 0 -86 24t-76 24q-33 0 -66 -41l-34 22 q28 75 97 75q34 0 85 -24t76 -24q34 0 66 41z" />
<glyph unicode="&#xc4;" horiz-adv-x="727" d="M-3 46l77 10l227 577l-82 9v46h186l252 -632l77 -10v-46h-233v46l83 10q-33 81 -71 180h-299l-70 -180l83 -10v-46h-230v46zM348 576l-111 -281h253l-110 281l-14 37h-6q-9 -30 -12 -37zM330 770q0 -19 -12.5 -31.5t-31.5 -12.5q-18 0 -31 12.5t-13 31.5t13 31.5t31 12.5 q19 0 31.5 -12.5t12.5 -31.5zM491 770q0 -19 -13 -31.5t-31 -12.5q-19 0 -31.5 12.5t-12.5 31.5t12.5 31.5t31.5 12.5q18 0 31 -12.5t13 -31.5z" />
<glyph unicode="&#xc5;" horiz-adv-x="727" d="M-3 46l77 10l227 577l-82 9v46h186l252 -632l77 -10v-46h-233v46l83 10q-33 81 -71 180h-299l-70 -180l83 -10v-46h-230v46zM348 576l-111 -281h253l-110 281l-14 37h-6q-9 -30 -12 -37zM446 808q0 -35 -25 -60.5t-61 -25.5q-35 0 -60 25.5t-25 60.5t25 60.5t60 25.5 q36 0 61 -25.5t25 -60.5zM401 808q0 17 -12 28.5t-29 11.5t-28.5 -11.5t-11.5 -28.5t11.5 -28.5t28.5 -11.5t29 11.5t12 28.5z" />
<glyph unicode="&#xc6;" horiz-adv-x="992" d="M935 0h-523v46l90 9v181h-272l-91 -180l83 -10v-46h-229v46l76 10l281 577l-77 9v46h664l2 -167h-56l-8 108h-304v-252h263v-58h-263v-260h303l9 107h56zM422 631l-162 -336h242v336h-80z" />
<glyph unicode="&#xc7;" horiz-adv-x="658" d="M336 -168q-23 0 -43.5 7t-29.5 15l-9 7l27 34q1 -2 7 -7t19.5 -10.5t27.5 -5.5q47 0 47 34q0 16 -11 26t-31 10q-7 0 -13 -1.5t-9 -2.5l-2 -2l-18 12l22 46q-127 9 -199 95.5t-72 249.5q0 176 81 265.5t222 89.5q114 0 186.5 -60t72.5 -162l-3 -32l-70 -12q3 20 3 38 q0 79 -54 122.5t-134 43.5q-108 0 -170 -71.5t-62 -221.5q0 -284 232 -284q184 0 184 154v17l70 -16v-8q0 -97 -63.5 -151t-179.5 -58l-10 -22q26 0 50 -15.5t24 -53.5q0 -33 -24.5 -51.5t-67.5 -18.5z" />
<glyph unicode="&#xc8;" horiz-adv-x="624" d="M567 0h-523v46l90 9v578l-90 9v46h525l2 -167h-56l-8 108h-304v-252h263v-58h-263v-260h303l9 107h56zM343 729l-136 183h91l96 -183h-51z" />
<glyph unicode="&#xc9;" horiz-adv-x="624" d="M452 912l-135 -183h-52l97 183h90zM567 0h-523v46l90 9v578l-90 9v46h525l2 -167h-56l-8 108h-304v-252h263v-58h-263v-260h303l9 107h56z" />
<glyph unicode="&#xca;" horiz-adv-x="624" d="M429 729l-97 130l-97 -130h-51l104 183h88l104 -183h-51zM567 0h-523v46l90 9v578l-90 9v46h525l2 -167h-56l-8 108h-304v-252h263v-58h-263v-260h303l9 107h56z" />
<glyph unicode="&#xcb;" horiz-adv-x="624" d="M300 770q0 -19 -12.5 -31.5t-31.5 -12.5q-18 0 -31 12.5t-13 31.5t13 31.5t31 12.5q19 0 31.5 -12.5t12.5 -31.5zM461 770q0 -19 -13 -31.5t-31 -12.5q-19 0 -31.5 12.5t-12.5 31.5t12.5 31.5t31.5 12.5q18 0 31 -12.5t13 -31.5zM567 0h-523v46l90 9v578l-90 9v46h525 l2 -167h-56l-8 108h-304v-252h263v-58h-263v-260h303l9 107h56z" />
<glyph unicode="&#xcc;" horiz-adv-x="339" d="M295 0h-251v46l91 9v577l-91 10v46h251v-46l-91 -10v-577l91 -9v-46zM152 730l-136 183h91l96 -183h-51z" />
<glyph unicode="&#xcd;" horiz-adv-x="339" d="M295 0h-251v46l91 9v577l-91 10v46h251v-46l-91 -10v-577l91 -9v-46zM306 912l-135 -183h-52l97 183h90z" />
<glyph unicode="&#xce;" horiz-adv-x="339" d="M295 0h-251v46l91 9v577l-91 10v46h251v-46l-91 -10v-577l91 -9v-46zM265 730l-97 130l-97 -130h-51l104 183h88l104 -183h-51z" />
<glyph unicode="&#xcf;" horiz-adv-x="339" d="M295 0h-251v46l91 9v577l-91 10v46h251v-46l-91 -10v-577l91 -9v-46zM135 770q0 -19 -12.5 -31.5t-31.5 -12.5q-18 0 -31 12.5t-13 31.5t13 31.5t31 12.5q19 0 31.5 -12.5t12.5 -31.5zM296 770q0 -19 -13 -31.5t-31 -12.5q-19 0 -31.5 12.5t-12.5 31.5t12.5 31.5 t31.5 12.5q18 0 31 -12.5t13 -31.5z" />
<glyph unicode="&#xd0;" horiz-adv-x="729" d="M53 322v56h83v255l-91 9v46h279q354 0 354 -347q0 -172 -88 -256.5t-252 -84.5h-293v46l91 9v267h-83zM205 59h124q145 0 211.5 72t66.5 210q0 142 -69 215t-222 73h-111v-251h175v-56h-175v-263z" />
<glyph unicode="&#xd1;" horiz-adv-x="816" d="M689 0h-83l-399 580h-3v-525l91 -9v-46h-251v46l91 9v577l-91 10v46h168l405 -590h3v534l-90 10v46h251v-46l-92 -10v-632zM561 828l35 -23q-27 -74 -97 -74q-34 0 -86 24t-76 24q-33 0 -66 -41l-34 22q28 75 97 75q34 0 85 -24t76 -24q34 0 66 41z" />
<glyph unicode="&#xd2;" d="M654 339q0 -172 -80 -259t-221 -87t-221 87t-80 259q0 176 80 265.5t221 89.5t221 -89.5t80 -265.5zM124 339q0 -284 229 -284t229 284q0 151 -61 222t-168 71t-168 -71.5t-61 -221.5zM356 729l-136 183h91l96 -183h-51z" />
<glyph unicode="&#xd3;" d="M483 912l-135 -183h-52l97 183h90zM654 339q0 -172 -80 -259t-221 -87t-221 87t-80 259q0 176 80 265.5t221 89.5t221 -89.5t80 -265.5zM124 339q0 -284 229 -284t229 284q0 151 -61 222t-168 71t-168 -71.5t-61 -221.5z" />
<glyph unicode="&#xd4;" d="M454 729l-97 130l-97 -130h-51l104 183h88l104 -183h-51zM654 339q0 -172 -80 -259t-221 -87t-221 87t-80 259q0 176 80 265.5t221 89.5t221 -89.5t80 -265.5zM124 339q0 -284 229 -284t229 284q0 151 -61 222t-168 71t-168 -71.5t-61 -221.5z" />
<glyph unicode="&#xd5;" d="M654 339q0 -172 -80 -259t-221 -87t-221 87t-80 259q0 176 80 265.5t221 89.5t221 -89.5t80 -265.5zM124 339q0 -284 229 -284t229 284q0 151 -61 222t-168 71t-168 -71.5t-61 -221.5zM493 829l35 -23q-27 -74 -97 -74q-34 0 -86 24t-76 24q-33 0 -66 -41l-34 22 q28 75 97 75q34 0 85 -24t76 -24q34 0 66 41z" />
<glyph unicode="&#xd6;" d="M315 770q0 -19 -12.5 -31.5t-31.5 -12.5q-18 0 -31 12.5t-13 31.5t13 31.5t31 12.5q19 0 31.5 -12.5t12.5 -31.5zM476 770q0 -19 -13 -31.5t-31 -12.5q-19 0 -31.5 12.5t-12.5 31.5t12.5 31.5t31.5 12.5q18 0 31 -12.5t13 -31.5zM654 339q0 -172 -80 -259t-221 -87 t-221 87t-80 259q0 176 80 265.5t221 89.5t221 -89.5t80 -265.5zM124 339q0 -284 229 -284t229 284q0 151 -61 222t-168 71t-168 -71.5t-61 -221.5z" />
<glyph unicode="&#xd7;" horiz-adv-x="526" d="M92 33l-39 39l171 172l-171 173l39 39l171 -172l171 172l39 -39l-171 -173l171 -172l-39 -39l-171 172z" />
<glyph unicode="&#xd8;" d="M654 339q0 -172 -80 -259t-221 -87q-70 0 -124 21l-31 -63l-58 28l32 65q-120 85 -120 295q0 176 80 265.5t221 89.5q71 0 125 -22l27 54l58 -28l-28 -58q119 -87 119 -301zM124 339q0 -165 77 -234l249 509q-43 18 -97 18q-107 0 -168 -71.5t-61 -221.5zM582 339 q0 166 -78 239l-247 -507q41 -16 96 -16q229 0 229 284z" />
<glyph unicode="&#xd9;" horiz-adv-x="757" d="M569 253v379l-91 10v46h250v-46l-91 -10v-373q0 -132 -65.5 -199t-192.5 -67t-193 67t-66 199v373l-90 10v46h251v-46l-92 -10v-374q0 -203 190 -203t190 198zM392 729l-136 183h91l96 -183h-51z" />
<glyph unicode="&#xda;" horiz-adv-x="757" d="M493 944l-135 -183h-52l97 183h90zM569 253v379l-91 10v46h250v-46l-91 -10v-373q0 -132 -65.5 -199t-192.5 -67t-193 67t-66 199v373l-90 10v46h251v-46l-92 -10v-374q0 -203 190 -203t190 198z" />
<glyph unicode="&#xdb;" horiz-adv-x="757" d="M468 762l-97 130l-97 -130h-51l104 183h88l104 -183h-51zM569 253v379l-91 10v46h250v-46l-91 -10v-373q0 -132 -65.5 -199t-192.5 -67t-193 67t-66 199v373l-90 10v46h251v-46l-92 -10v-374q0 -203 190 -203t190 198z" />
<glyph unicode="&#xdc;" horiz-adv-x="757" d="M347 772q0 -19 -12.5 -31.5t-31.5 -12.5q-18 0 -31 12.5t-13 31.5t13 31.5t31 12.5q19 0 31.5 -12.5t12.5 -31.5zM508 772q0 -19 -13 -31.5t-31 -12.5q-19 0 -31.5 12.5t-12.5 31.5t12.5 31.5t31.5 12.5q18 0 31 -12.5t13 -31.5zM569 253v379l-91 10v46h250v-46l-91 -10 v-373q0 -132 -65.5 -199t-192.5 -67t-193 67t-66 199v373l-90 10v46h251v-46l-92 -10v-374q0 -203 190 -203t190 198z" />
<glyph unicode="&#xdd;" horiz-adv-x="669" d="M369 268v-213l93 -9v-46h-254v46l91 9v213l-223 364l-77 10v46h237v-46l-83 -10l179 -300h7l181 300l-84 10v46h235v-46l-78 -10zM441 945l-135 -183h-52l97 183h90z" />
<glyph unicode="&#xde;" horiz-adv-x="620" d="M204 688v-98h145q104 0 169.5 -55.5t65.5 -156.5q0 -106 -63.5 -161t-182.5 -55h-134v-107l113 -8v-47h-273v47l91 8v577l-91 9v47h160zM337 530h-133v-309h132q179 0 179 156q0 79 -50.5 116t-127.5 37z" />
<glyph unicode="&#xdf;" horiz-adv-x="622" d="M287 29l10 54q37 -33 106 -33q54 0 85 25.5t31 62.5q0 36 -17.5 62t-43 41.5l-51 31t-43 40t-17.5 58.5q0 30 15.5 55t33.5 41.5t33.5 44.5t15.5 62q0 51 -32 87.5t-101 36.5q-68 0 -108 -44.5t-40 -132.5v-466l66 -8v-47h-203v47l70 8v469q0 115 58.5 173t155.5 58 q92 0 146 -48t54 -126q0 -42 -15 -74.5t-33.5 -49t-33.5 -38.5t-15 -46q0 -20 12.5 -36.5t31.5 -27.5t41.5 -26.5t41.5 -32.5t31.5 -47.5t12.5 -69.5q0 -66 -48.5 -103t-126.5 -37q-32 0 -63 9t-45 18z" />
<glyph unicode="&#xe0;" horiz-adv-x="581" d="M265 474q49 0 88 -18.5t54 -37.5l15 -18h3l12 67h50v-377q0 -43 32 -43l24 4v-50q-12 -8 -46 -8q-32 0 -51 19t-19 54v6h-2l-1 -1q-34 -56 -110 -73q-25 -5 -53 -5q-91 0 -153.5 64.5t-62.5 175.5q0 112 62.5 176.5t157.5 64.5zM274 50q101 0 146 70v217q-21 38 -61 59 t-85 21q-69 0 -116 -47.5t-47 -136.5q0 -88 49.5 -135.5t113.5 -47.5zM311 536l-136 183h91l96 -183h-51z" />
<glyph unicode="&#xe1;" horiz-adv-x="581" d="M265 474q49 0 88 -18.5t54 -37.5l15 -18h3l12 67h50v-377q0 -43 32 -43l24 4v-50q-12 -8 -46 -8q-32 0 -51 19t-19 54v6h-2l-1 -1q-34 -56 -110 -73q-25 -5 -53 -5q-91 0 -153.5 64.5t-62.5 175.5q0 112 62.5 176.5t157.5 64.5zM274 50q101 0 146 70v217q-21 38 -61 59 t-85 21q-69 0 -116 -47.5t-47 -136.5q0 -88 49.5 -135.5t113.5 -47.5zM437 719l-135 -183h-52l97 183h90z" />
<glyph unicode="&#xe2;" horiz-adv-x="581" d="M265 474q49 0 88 -18.5t54 -37.5l15 -18h3l12 67h50v-377q0 -43 32 -43l24 4v-50q-12 -8 -46 -8q-32 0 -51 19t-19 54v6h-2l-1 -1q-34 -56 -110 -73q-25 -5 -53 -5q-91 0 -153.5 64.5t-62.5 175.5q0 112 62.5 176.5t157.5 64.5zM274 50q101 0 146 70v217q-21 38 -61 59 t-85 21q-69 0 -116 -47.5t-47 -136.5q0 -88 49.5 -135.5t113.5 -47.5zM401 536l-97 130l-97 -130h-51l104 183h88l104 -183h-51z" />
<glyph unicode="&#xe3;" horiz-adv-x="581" d="M265 474q49 0 88 -18.5t54 -37.5l15 -18h3l12 67h50v-377q0 -43 32 -43l24 4v-50q-12 -8 -46 -8q-32 0 -51 19t-19 54v6h-2l-1 -1q-34 -56 -110 -73q-25 -5 -53 -5q-91 0 -153.5 64.5t-62.5 175.5q0 112 62.5 176.5t157.5 64.5zM274 50q101 0 146 70v217q-21 38 -61 59 t-85 21q-69 0 -116 -47.5t-47 -136.5q0 -88 49.5 -135.5t113.5 -47.5zM448 622l35 -23q-27 -74 -97 -74q-34 0 -86 24t-76 24q-33 0 -66 -41l-34 22q28 75 97 75q34 0 85 -24t76 -24q34 0 66 41z" />
<glyph unicode="&#xe4;" horiz-adv-x="581" d="M265 474q49 0 88 -18.5t54 -37.5l15 -18h3l12 67h50v-377q0 -43 32 -43l24 4v-50q-12 -8 -46 -8q-32 0 -51 19t-19 54v6h-2l-1 -1q-34 -56 -110 -73q-25 -5 -53 -5q-91 0 -153.5 64.5t-62.5 175.5q0 112 62.5 176.5t157.5 64.5zM274 50q101 0 146 70v217q-21 38 -61 59 t-85 21q-69 0 -116 -47.5t-47 -136.5q0 -88 49.5 -135.5t113.5 -47.5zM263 575q0 -19 -12.5 -31.5t-31.5 -12.5q-18 0 -31 12.5t-13 31.5t13 31.5t31 12.5q19 0 31.5 -12.5t12.5 -31.5zM424 575q0 -19 -13 -31.5t-31 -12.5q-19 0 -31.5 12.5t-12.5 31.5t12.5 31.5t31.5 12.5 q18 0 31 -12.5t13 -31.5z" />
<glyph unicode="&#xe5;" horiz-adv-x="581" d="M265 474q49 0 88 -18.5t54 -37.5l15 -18h3l12 67h50v-377q0 -43 32 -43l24 4v-50q-12 -8 -46 -8q-32 0 -51 19t-19 54v6h-2l-1 -1q-34 -56 -110 -73q-25 -5 -53 -5q-91 0 -153.5 64.5t-62.5 175.5q0 112 62.5 176.5t157.5 64.5zM274 50q101 0 146 70v217q-21 38 -61 59 t-85 21q-69 0 -116 -47.5t-47 -136.5q0 -88 49.5 -135.5t113.5 -47.5zM384 613q0 -35 -25 -60.5t-61 -25.5q-35 0 -60 25.5t-25 60.5t25 60.5t60 25.5q36 0 61 -25.5t25 -60.5zM339 613q0 17 -12 28.5t-29 11.5t-28.5 -11.5t-11.5 -28.5t11.5 -28.5t28.5 -11.5t29 11.5 t12 28.5z" />
<glyph unicode="&#xe6;" horiz-adv-x="844" d="M800 222h-359q4 -85 51 -129.5t115 -44.5q49 0 87 13.5t52 26.5l14 14l24 -48l-6.5 -6.5t-20.5 -15t-35 -18.5t-51.5 -14.5t-69.5 -6.5q-122 0 -184 88q-52 -89 -155 -89q-91 0 -154 64.5t-63 176.5q0 111 62.5 175.5t157.5 64.5q114 0 175 -61q60 62 160 62 q88 0 146 -59t58 -149zM275 47q78 0 122 72q-22 50 -22 115q0 82 34 139q-47 45 -134 45q-68 0 -115.5 -48.5t-47.5 -137.5q0 -88 49 -136.5t114 -48.5zM600 422q-61 0 -105.5 -41t-52.5 -115h299v3q0 77 -42 115t-99 38z" />
<glyph unicode="&#xe7;" horiz-adv-x="513" d="M260 -168q-23 0 -43.5 7t-29.5 15l-9 7l27 34q1 -2 7 -7t19.5 -10.5t27.5 -5.5q47 0 47 34q0 16 -11 26t-31 10q-7 0 -13 -1.5t-9 -2.5l-2 -2l-18 12l23 47q-91 10 -146 72.5t-55 166.5q0 118 61.5 179t169.5 61q101 0 149.5 -47t48.5 -120l-5 -34l-60 -5q3 12 3 31 q0 56 -33.5 87t-102.5 31q-164 0 -164 -183q0 -89 50 -136.5t123 -47.5q49 0 87.5 13t52.5 26l14 13l24 -48q-6 -6 -17.5 -16t-56 -27t-100.5 -18l-10 -22q26 0 50 -15.5t24 -53.5q0 -33 -24.5 -51.5t-67.5 -18.5z" />
<glyph unicode="&#xe8;" horiz-adv-x="523" d="M478 216h-367q6 -82 55 -124t119 -42q49 0 87 13t52 26l14 13l25 -48l-6.5 -6.5t-20.5 -15t-35 -18.5t-51.5 -14.5t-69.5 -6.5q-105 0 -170.5 64t-65.5 177q0 112 65.5 176t168.5 64q88 0 146.5 -60.5t58.5 -152.5zM279 417q-66 0 -114 -40t-54 -111h308q-1 75 -43 113 t-97 38zM273 536l-136 183h91l96 -183h-51z" />
<glyph unicode="&#xe9;" horiz-adv-x="523" d="M391 719l-135 -183h-52l97 183h90zM478 216h-367q6 -82 55 -124t119 -42q49 0 87 13t52 26l14 13l25 -48l-6.5 -6.5t-20.5 -15t-35 -18.5t-51.5 -14.5t-69.5 -6.5q-105 0 -170.5 64t-65.5 177q0 112 65.5 176t168.5 64q88 0 146.5 -60.5t58.5 -152.5zM279 417 q-66 0 -114 -40t-54 -111h308q-1 75 -43 113t-97 38z" />
<glyph unicode="&#xea;" horiz-adv-x="523" d="M363 536l-97 130l-97 -130h-51l104 183h88l104 -183h-51zM478 216h-367q6 -82 55 -124t119 -42q49 0 87 13t52 26l14 13l25 -48l-6.5 -6.5t-20.5 -15t-35 -18.5t-51.5 -14.5t-69.5 -6.5q-105 0 -170.5 64t-65.5 177q0 112 65.5 176t168.5 64q88 0 146.5 -60.5 t58.5 -152.5zM279 417q-66 0 -114 -40t-54 -111h308q-1 75 -43 113t-97 38z" />
<glyph unicode="&#xeb;" horiz-adv-x="523" d="M228 575q0 -19 -12.5 -31.5t-31.5 -12.5q-18 0 -31 12.5t-13 31.5t13 31.5t31 12.5q19 0 31.5 -12.5t12.5 -31.5zM389 575q0 -19 -13 -31.5t-31 -12.5q-19 0 -31.5 12.5t-12.5 31.5t12.5 31.5t31.5 12.5q18 0 31 -12.5t13 -31.5zM478 216h-367q6 -82 55 -124t119 -42 q49 0 87 13t52 26l14 13l25 -48l-6.5 -6.5t-20.5 -15t-35 -18.5t-51.5 -14.5t-69.5 -6.5q-105 0 -170.5 64t-65.5 177q0 112 65.5 176t168.5 64q88 0 146.5 -60.5t58.5 -152.5zM279 417q-66 0 -114 -40t-54 -111h308q-1 75 -43 113t-97 38z" />
<glyph unicode="&#xec;" horiz-adv-x="278" d="M178 467v-412l68 -10v-45h-205v46l70 9v357l-70 9v46h137zM89 530l-136 183h91l96 -183h-51z" />
<glyph unicode="&#xed;" horiz-adv-x="278" d="M292 719l-135 -183h-52l97 183h90zM178 467v-412l68 -10v-45h-205v46l70 9v357l-70 9v46h137z" />
<glyph unicode="&#xee;" horiz-adv-x="278" d="M239 536l-97 130l-97 -130h-51l104 183h88l104 -183h-51zM178 467v-412l68 -10v-45h-205v46l70 9v357l-70 9v46h137z" />
<glyph unicode="&#xef;" horiz-adv-x="278" d="M110 575q0 -19 -12.5 -31.5t-31.5 -12.5q-18 0 -31 12.5t-13 31.5t13 31.5t31 12.5q19 0 31.5 -12.5t12.5 -31.5zM271 575q0 -19 -13 -31.5t-31 -12.5q-19 0 -31.5 12.5t-12.5 31.5t12.5 31.5t31.5 12.5q18 0 31 -12.5t13 -31.5zM178 467v-412l68 -10v-45h-205v46l70 9 v357l-70 9v46h137z" />
<glyph unicode="&#xf0;" horiz-adv-x="621" d="M453 673l-48 -40q73 -54 115.5 -136t42.5 -178q0 -164 -74 -245t-202 -81q-109 0 -175 61.5t-66 158.5q0 96 60.5 153.5t170.5 57.5q129 0 212 -63q-18 148 -138 226l-77 -65l-33 38l62 53q-72 32 -155 32l38 62q91 0 175 -46l59 51zM287 55q91 0 144.5 57.5t58.5 178.5 q-12 12 -32 25.5t-69 30.5t-103 17q-76 0 -124 -43t-48 -107q0 -71 46 -115t127 -44z" />
<glyph unicode="&#xf1;" horiz-adv-x="598" d="M174 308v-253l68 -8v-47h-205v46l70 9v357l-70 9v46h122l6 -93h2q1 4 3.5 11t14.5 24t28.5 30t48.5 24t71 11q87 0 131.5 -50t44.5 -133v-236l70 -9v-46h-137v282q0 134 -124 134q-34 0 -61 -11t-42 -27t-25 -32t-13 -27zM457 622l35 -23q-27 -74 -97 -74q-34 0 -86 24 t-76 24q-33 0 -66 -41l-34 22q28 75 97 75q34 0 85 -24t76 -24q34 0 66 41z" />
<glyph unicode="&#xf2;" horiz-adv-x="551" d="M507 234q0 -113 -64 -177t-167 -64t-167.5 64t-64.5 177q0 112 66 176t166 64q99 0 165 -64t66 -176zM276 50q69 0 117 47.5t48 136.5q0 88 -50 135.5t-115 47.5t-115 -47.5t-50 -135.5q0 -89 47.5 -136.5t117.5 -47.5zM278 536l-136 183h91l96 -183h-51z" />
<glyph unicode="&#xf3;" horiz-adv-x="551" d="M398 719l-135 -183h-52l97 183h90zM507 234q0 -113 -64 -177t-167 -64t-167.5 64t-64.5 177q0 112 66 176t166 64q99 0 165 -64t66 -176zM276 50q69 0 117 47.5t48 136.5q0 88 -50 135.5t-115 47.5t-115 -47.5t-50 -135.5q0 -89 47.5 -136.5t117.5 -47.5z" />
<glyph unicode="&#xf4;" horiz-adv-x="551" d="M371 536l-97 130l-97 -130h-51l104 183h88l104 -183h-51zM507 234q0 -113 -64 -177t-167 -64t-167.5 64t-64.5 177q0 112 66 176t166 64q99 0 165 -64t66 -176zM276 50q69 0 117 47.5t48 136.5q0 88 -50 135.5t-115 47.5t-115 -47.5t-50 -135.5q0 -89 47.5 -136.5 t117.5 -47.5z" />
<glyph unicode="&#xf5;" horiz-adv-x="551" d="M507 234q0 -113 -64 -177t-167 -64t-167.5 64t-64.5 177q0 112 66 176t166 64q99 0 165 -64t66 -176zM276 50q69 0 117 47.5t48 136.5q0 88 -50 135.5t-115 47.5t-115 -47.5t-50 -135.5q0 -89 47.5 -136.5t117.5 -47.5zM418 622l35 -23q-27 -74 -97 -74q-34 0 -86 24 t-76 24q-33 0 -66 -41l-34 22q28 75 97 75q34 0 85 -24t76 -24q34 0 66 41z" />
<glyph unicode="&#xf6;" horiz-adv-x="551" d="M232 575q0 -19 -12.5 -31.5t-31.5 -12.5q-18 0 -31 12.5t-13 31.5t13 31.5t31 12.5q19 0 31.5 -12.5t12.5 -31.5zM393 575q0 -19 -13 -31.5t-31 -12.5q-19 0 -31.5 12.5t-12.5 31.5t12.5 31.5t31.5 12.5q18 0 31 -12.5t13 -31.5zM507 234q0 -113 -64 -177t-167 -64 t-167.5 64t-64.5 177q0 112 66 176t166 64q99 0 165 -64t66 -176zM276 50q69 0 117 47.5t48 136.5q0 88 -50 135.5t-115 47.5t-115 -47.5t-50 -135.5q0 -89 47.5 -136.5t117.5 -47.5z" />
<glyph unicode="&#xf7;" horiz-adv-x="565" d="M331 109q0 -19 -13 -32t-32 -13t-32 13t-13 32t13 32t32 13t32 -13t13 -32zM331 450q0 -19 -13 -32t-32 -13t-32 13t-13 32t13 32t32 13t32 -13t13 -32zM501 259h-437v57h437v-57z" />
<glyph unicode="&#xf8;" horiz-adv-x="551" d="M167 -46l-50 27l24 49q-97 63 -97 204q0 112 66 176t166 64q40 0 82 -13l21 42l50 -27l-20 -40q98 -65 98 -202q0 -113 -64 -177t-167 -64q-46 0 -83 12zM276 50q69 0 117 47.5t48 136.5q0 93 -61 145l-160 -320q27 -9 56 -9zM111 234q0 -99 59 -148l161 321 q-30 10 -55 10q-65 0 -115 -47.5t-50 -135.5z" />
<glyph unicode="&#xf9;" horiz-adv-x="590" d="M434 96h-2q-1 -4 -3.5 -11t-14.5 -25t-28.5 -31.5t-48 -24.5t-70.5 -11q-88 0 -132.5 50t-44.5 133v236l-70 9v46h137v-282q0 -134 124 -134q38 0 67 13t44.5 33.5t22.5 33t10 24.5v257l-68 9v46h135v-412l70 -9v-46h-121zM257 536l-136 183h91l96 -183h-51z" />
<glyph unicode="&#xfa;" horiz-adv-x="590" d="M372 719l-135 -183h-52l97 183h90zM434 96h-2q-1 -4 -3.5 -11t-14.5 -25t-28.5 -31.5t-48 -24.5t-70.5 -11q-88 0 -132.5 50t-44.5 133v236l-70 9v46h137v-282q0 -134 124 -134q38 0 67 13t44.5 33.5t22.5 33t10 24.5v257l-68 9v46h135v-412l70 -9v-46h-121z" />
<glyph unicode="&#xfb;" horiz-adv-x="590" d="M367 536l-97 130l-97 -130h-51l104 183h88l104 -183h-51zM434 96h-2q-1 -4 -3.5 -11t-14.5 -25t-28.5 -31.5t-48 -24.5t-70.5 -11q-88 0 -132.5 50t-44.5 133v236l-70 9v46h137v-282q0 -134 124 -134q38 0 67 13t44.5 33.5t22.5 33t10 24.5v257l-68 9v46h135v-412l70 -9 v-46h-121z" />
<glyph unicode="&#xfc;" horiz-adv-x="590" d="M232 575q0 -19 -12.5 -31.5t-31.5 -12.5q-18 0 -31 12.5t-13 31.5t13 31.5t31 12.5q19 0 31.5 -12.5t12.5 -31.5zM393 575q0 -19 -13 -31.5t-31 -12.5q-19 0 -31.5 12.5t-12.5 31.5t12.5 31.5t31.5 12.5q18 0 31 -12.5t13 -31.5zM434 96h-2q-1 -4 -3.5 -11t-14.5 -25 t-28.5 -31.5t-48 -24.5t-70.5 -11q-88 0 -132.5 50t-44.5 133v236l-70 9v46h137v-282q0 -134 124 -134q38 0 67 13t44.5 33.5t22.5 33t10 24.5v257l-68 9v46h135v-412l70 -9v-46h-121z" />
<glyph unicode="&#xfd;" horiz-adv-x="577" d="M429 -60v138h-2q-4 -11 -13 -22.5t-26.5 -27t-48.5 -25.5t-71 -10q-88 0 -132 50t-44 133v236l-71 9v46h138v-282q0 -134 123 -134q32 0 59 10.5t41 23.5t25.5 31.5t14.5 26t5 15.5v254l-69 9v46h136v-527q0 -116 -62 -171t-170 -55q-37 0 -69.5 7.5t-52.5 18.5t-35 21.5 t-21 18.5l-6 7l29 45q5 -7 14.5 -17t49 -27t89.5 -17q169 0 169 169zM387 719l-135 -183h-52l97 183h90z" />
<glyph unicode="&#xfe;" horiz-adv-x="571" d="M83 -223v914l-70 9v46h137v-333l-1 -13h2q9 13 23 27t52 30.5t83 16.5q96 0 156 -63.5t60 -177.5q0 -111 -62.5 -175.5t-153.5 -64.5q-50 0 -89 16.5t-52 29t-19 20.5v1h-2q3 -30 3 -35v-254l79 -3v-46h-216v46zM296 417q-45 0 -85.5 -21t-60.5 -59v-217q43 -70 146 -70 q64 0 113.5 48t49.5 135q0 88 -47.5 136t-115.5 48z" />
<glyph unicode="&#xff;" horiz-adv-x="577" d="M429 -60v138h-2q-4 -11 -13 -22.5t-26.5 -27t-48.5 -25.5t-71 -10q-88 0 -132 50t-44 133v236l-71 9v46h138v-282q0 -134 123 -134q32 0 59 10.5t41 23.5t25.5 31.5t14.5 26t5 15.5v254l-69 9v46h136v-527q0 -116 -62 -171t-170 -55q-37 0 -69.5 7.5t-52.5 18.5t-35 21.5 t-21 18.5l-6 7l29 45q5 -7 14.5 -17t49 -27t89.5 -17q169 0 169 169zM246 575q0 -19 -12.5 -31.5t-31.5 -12.5q-18 0 -31 12.5t-13 31.5t13 31.5t31 12.5q19 0 31.5 -12.5t12.5 -31.5zM407 575q0 -19 -13 -31.5t-31 -12.5q-19 0 -31.5 12.5t-12.5 31.5t12.5 31.5t31.5 12.5 q18 0 31 -12.5t13 -31.5z" />
<glyph unicode="&#x152;" horiz-adv-x="883" d="M827 0h-432q-142 0 -221.5 84t-79.5 255q0 173 77.5 261t214.5 88h441l3 -167h-56l-9 108h-302v-253h262v-57h-262v-260h302l8 107h56zM166 339q0 -279 228 -279v568q-107 -1 -167.5 -70.5t-60.5 -218.5z" />
<glyph unicode="&#x153;" horiz-adv-x="921" d="M876 216h-367q6 -82 55 -124t119 -42q49 0 87 13t52 26l14 13l25 -48l-6.5 -6.5t-20.5 -15t-35 -18.5t-51.5 -14.5t-69.5 -6.5q-67 0 -120 28t-83 79q-29 -52 -81 -79.5t-118 -27.5q-103 0 -167.5 64t-64.5 177q0 112 66 176t166 64q63 0 115.5 -28t82.5 -79q30 51 83 79 t119 28q88 0 146.5 -60.5t58.5 -152.5zM276 50q69 0 117 47.5t48 136.5q0 88 -50 135.5t-115 47.5t-115 -47.5t-50 -135.5q0 -89 47.5 -136.5t117.5 -47.5zM677 417q-66 0 -114 -40t-54 -111h308q-1 75 -43 113t-97 38z" />
<glyph unicode="&#x178;" horiz-adv-x="669" d="M369 268v-213l93 -9v-46h-254v46l91 9v213l-223 364l-77 10v46h237v-46l-83 -10l179 -300h7l181 300l-84 10v46h235v-46l-78 -10zM300 773q0 -19 -12.5 -31.5t-31.5 -12.5q-18 0 -31 12.5t-13 31.5t13 31.5t31 12.5q19 0 31.5 -12.5t12.5 -31.5zM461 773q0 -19 -13 -31.5 t-31 -12.5q-19 0 -31.5 12.5t-12.5 31.5t12.5 31.5t31.5 12.5q18 0 31 -12.5t13 -31.5z" />
<glyph unicode="&#x2c6;" horiz-adv-x="404" d="M300 536l-97 130l-97 -130h-51l104 183h88l104 -183h-51z" />
<glyph unicode="&#x2dc;" horiz-adv-x="372" d="M336 622l35 -23q-27 -74 -97 -74q-34 0 -86 24t-76 24q-33 0 -66 -41l-34 22q28 75 97 75q34 0 85 -24t76 -24q34 0 66 41z" />
<glyph unicode="&#x2000;" horiz-adv-x="472" />
<glyph unicode="&#x2001;" horiz-adv-x="945" />
<glyph unicode="&#x2002;" horiz-adv-x="472" />
<glyph unicode="&#x2003;" horiz-adv-x="945" />
<glyph unicode="&#x2004;" horiz-adv-x="315" />
<glyph unicode="&#x2005;" horiz-adv-x="236" />
<glyph unicode="&#x2006;" horiz-adv-x="157" />
<glyph unicode="&#x2007;" horiz-adv-x="157" />
<glyph unicode="&#x2008;" horiz-adv-x="118" />
<glyph unicode="&#x2009;" horiz-adv-x="189" />
<glyph unicode="&#x200a;" horiz-adv-x="52" />
<glyph unicode="&#x2010;" horiz-adv-x="463" d="M397 261h-331v62h331v-62z" />
<glyph unicode="&#x2011;" horiz-adv-x="463" d="M397 261h-331v62h331v-62z" />
<glyph unicode="&#x2012;" horiz-adv-x="463" d="M397 261h-331v62h331v-62z" />
<glyph unicode="&#x2013;" horiz-adv-x="566" d="M499 261h-433v62h433v-62z" />
<glyph unicode="&#x2014;" horiz-adv-x="870" d="M812 261h-746v62h746v-62z" />
<glyph unicode="&#x2018;" horiz-adv-x="190" d="M117 776l9 -26q-14 -5 -28 -21.5t-14 -44.5l2 -9q5 5 18 5q17 0 28.5 -12t11.5 -31t-13 -31t-33 -12q-24 0 -38.5 17.5t-14.5 48.5q0 88 72 116z" />
<glyph unicode="&#x2019;" horiz-adv-x="190" d="M75 562l-9 26q14 5 28 21.5t14 44.5l-2 9q-5 -5 -18 -5q-17 0 -28.5 12t-11.5 31t13 31t33 12q24 0 38.5 -17.5t14.5 -48.5q0 -88 -72 -116z" />
<glyph unicode="&#x201a;" horiz-adv-x="229" d="M91 -103l-9 26q14 5 28 21.5t14 44.5l-2 9q-5 -5 -18 -5q-17 0 -28.5 12t-11.5 31t13 31t33 12q24 0 38.5 -17.5t14.5 -48.5q0 -88 -72 -116z" />
<glyph unicode="&#x201c;" horiz-adv-x="348" d="M117 776l9 -26q-14 -5 -28 -21.5t-14 -44.5l2 -9q5 5 18 5q17 0 28.5 -12t11.5 -31t-13 -31t-33 -12q-24 0 -38.5 17.5t-14.5 48.5q0 88 72 116zM275 776l9 -26q-14 -5 -28 -21.5t-14 -44.5l2 -9q5 5 18 5q17 0 28.5 -12t11.5 -31t-13 -31t-33 -12q-24 0 -38.5 17.5 t-14.5 48.5q0 88 72 116z" />
<glyph unicode="&#x201d;" horiz-adv-x="335" d="M75 562l-9 26q14 5 28 21.5t14 44.5l-2 9q-5 -5 -18 -5q-17 0 -28.5 12t-11.5 31t13 31t33 12q24 0 38.5 -17.5t14.5 -48.5q0 -88 -72 -116zM220 562l-9 26q14 5 28 21.5t14 44.5l-2 9q-5 -5 -18 -5q-17 0 -28.5 12t-11.5 31t13 31t33 12q24 0 38.5 -17.5t14.5 -48.5 q0 -88 -72 -116z" />
<glyph unicode="&#x201e;" horiz-adv-x="374" d="M91 -103l-9 26q14 5 28 21.5t14 44.5l-2 9q-5 -5 -18 -5q-17 0 -28.5 12t-11.5 31t13 31t33 12q24 0 38.5 -17.5t14.5 -48.5q0 -88 -72 -116zM236 -103l-9 26q14 5 28 21.5t14 44.5l-2 9q-5 -5 -18 -5q-17 0 -28.5 12t-11.5 31t13 31t33 12q24 0 38.5 -17.5t14.5 -48.5 q0 -88 -72 -116z" />
<glyph unicode="&#x2022;" horiz-adv-x="359" d="M179 235q-46 0 -71.5 26.5t-25.5 73.5q0 46 25.5 73.5t71.5 27.5q45 0 72 -28t27 -73q0 -46 -27 -73t-72 -27z" />
<glyph unicode="&#x2026;" horiz-adv-x="463" d="M153 38q0 -19 -13 -32t-32 -13t-32 13t-13 32t13 32t32 13t32 -13t13 -32zM277 38q0 -19 -13 -32t-32 -13t-32 13t-13 32t13 32t32 13t32 -13t13 -32zM400 38q0 -19 -13 -32t-32 -13t-32 13t-13 32t13 32t32 13t32 -13t13 -32z" />
<glyph unicode="&#x202f;" horiz-adv-x="189" />
<glyph unicode="&#x2039;" horiz-adv-x="283" d="M110 240l128 -153l-46 -37l-142 165v50l142 165l46 -37z" />
<glyph unicode="&#x203a;" horiz-adv-x="283" d="M47 87l128 153l-128 153l46 37l143 -165v-50l-143 -165z" />
<glyph unicode="&#x205f;" horiz-adv-x="236" />
<glyph unicode="&#x20ac;" horiz-adv-x="679" d="M36 290h91q-2 15 -2 49q0 23 1 34h-90v56h95q21 131 100.5 198t202.5 67q103 0 194 -57l-37 -52q-62 47 -155 47t-153.5 -49.5t-78.5 -153.5h290v-56h-297v-34q0 -34 2 -49h249v-56h-241q40 -179 231 -179q89 0 155 46l35 -52q-83 -56 -194 -56q-119 0 -197.5 60.5 t-102.5 180.5h-98v56z" />
<glyph unicode="&#x2122;" horiz-adv-x="1096" d="M341 289h-165v38l56 7v339h-122l-6 -69h-41v114h390v-114h-40l-6 69h-120v-339l54 -7v-38zM1036 289h-153v38l49 7l-18 314h-1l-130 -317h-32l-128 317h-1l-18 -314l48 -7v-38h-151v38l53 7l18 339l-53 7v38h123l101 -248l24 -72h1q15 46 26 72l102 248h122v-38l-53 -7 l18 -339l53 -7v-38z" />
</font>
</defs>
</svg>
