<?xml version="1.0" encoding="utf-8"?>
<!-- Generator: Adobe Illustrator 18.1.0, SVG Export Plug-In . SVG Version: 6.00 Build 0)  -->
<svg version="1.1" id="Layer_1" xmlns="http://www.w3.org/2000/svg" xmlns:xlink="http://www.w3.org/1999/xlink" x="0px" y="0px"
   viewBox="0 0 2189.6 658.7" enable-background="new 0 0 2189.6 658.7" xml:space="preserve">
<g>
  <g>
    <path fill="#FFFFFF" d="M2180,465.3c-29.7,12.4-51.5,17.8-67.5,18.5c1.1-5.4,2-11,2.6-16.8c4-37.4-3.8-66.9-23.4-88.7
      c-19.6-21.7-46.6-32.6-81.1-32.6c-34.8,0-64.3,10.9-88.3,32.6c-24,21.7-38.1,51.3-42,88.7c-2.4,22.7-0.6,42.4,5.4,59.1l-0.1,0.1
      c-9.5,7.8-18.5,11.7-27.1,11.7c-11.5,0-16.6-6.1-15.3-18.2l30.2-283.2H1813l-11.8,110.7c-8.2-0.6-14.8-1-19.5-1
      c-38,0-69.8,12.9-95.2,38.8c-25.4,25.9-40.2,58.1-44.3,96.8c-1.5,13.8-1.1,26.3,1,37.7c-2.3,2.2-4.8,4.4-7.4,6.6
      c-9.5,7.8-18.5,11.7-27.1,11.7c-6.1,0-10.3-1.4-12.7-4.1c-2.4-2.7-3.3-7.4-2.6-14.1l10.5-98.2c2.5-23.6-1.6-41.9-12.4-54.9
      c-10.8-12.9-28.6-19.4-53.5-19.4c-29.1,0-51.2,11.3-66.4,34l3.1-29.2h-60.9l-24.5,230h60.9l13.1-122.7c1.6-14.7,7.7-29,18.5-42.9
      c10.7-13.9,23.5-20.8,38.2-20.8c7.3,0,13.2,2.6,17.6,7.7c4.4,5.1,6,12.9,4.9,23.5l-10.5,98.7c-2.1,19.5,1.2,34.7,9.8,45.5
      c8.6,10.9,22.6,16.3,42.1,16.3c8.9,0,17.7-1.4,26.3-4.1c8.6-2.7,15.6-5.8,21.1-9.1c5.5-3.4,10.6-7.2,15.4-11.5
      c4.8-4.3,7.9-7.3,9.4-9.1c0.2-0.2,0.3-0.3,0.4-0.5c1.2,1.8,2.4,3.6,3.7,5.3c15.2,19.3,38,29,68.3,29c25.2,0,45.1-8,59.6-24
      c8.2,16,23.5,24,45.9,24c8.9,0,17.7-1.4,26.3-4.1c8.6-2.7,15.6-5.8,21.1-9.1c5.5-3.4,10.6-7.2,15.4-11.5c3.1-2.8,5.4-5,7.1-6.7
      c19.1,20.9,46.3,31.4,81.4,31.4c35.5,0,65-10.6,88.7-31.9c11.9-10.6,21.2-23.4,28.2-38.1c30.1-3.8,62.8-17.6,87.8-33.3L2180,465.3
      z M1786.4,486.7c-1.2,16.9-6.4,30.4-15.6,40.5c-9.2,10.1-21,15.1-35.4,15.1c-26.5,0-37.6-20.1-33.3-60.4
      c3.1-28.8,11.7-50.2,25.8-64.5c14.1-14.2,30.9-21.3,50.4-21.3c6.1,0,11.9,0.5,17.6,1.4L1786.4,486.7z M2042,505.3
      c0.8,0.6,1.7,1.2,2.5,1.8c-10.9,19.9-28.9,29.9-54.2,29.9c-38.7,0-55.5-23.3-50.5-70c5-47.3,26.9-70.9,65.5-70.9
      c31.7,0,48.7,16,51,47.8c-8.9,0.6-17.5,4.7-23.1,12C2023.5,468.4,2022.1,489.8,2042,505.3z"/>
    <path fill="#FFFFFF" d="M1270,345.8c-34.8,0-64.3,10.9-88.3,32.6c-24,21.7-38.1,51.3-42,88.7c-2,18.4-1.1,34.9,2.4,49.4
      c-3.2,3.3-6.7,6.6-10.7,9.8c-9.5,7.8-18.5,11.7-27.1,11.7c-6.1,0-10.3-1.4-12.7-4.1c-2.4-2.7-3.3-7.4-2.6-14.1l10.7-100.2
      c5.1-48.2-16.1-72.4-63.7-72.4c-26.5,0-48.7,12.1-66.7,36.4c-6.4-24.3-25.7-36.4-57.9-36.4c-26.5,0-47.9,12.1-64.3,36.4l3.4-31.6
      h-60.9l-13.6,127.5c-3.3,3.8-7.9,8.3-13.9,13.5c-6.9,5.9-14.6,11.9-23.1,17.8c-8.5,5.9-18.6,11-30.5,15.1
      c-11.8,4.2-23.7,6.3-35.5,6.3c-23.4,0-39.2-6.3-47.5-18.8c15.3-2.6,29.7-6.3,43-11.3c13.3-5,26-11.4,37.9-19.2
      c11.9-7.9,21.7-17.7,29.3-29.6c7.7-11.9,12.3-25.2,13.9-39.9c2.2-20.2-2.5-36.6-14-49.3c-11.5-12.7-29.1-19-52.8-19
      c-33,0-60.9,11.8-83.8,35.3c-22.9,23.6-36.2,53-39.9,88.2c-3.8,35.6,3.1,64.3,20.6,86.1c17.5,21.8,44,32.7,79.2,32.7
      c12.5,0,25.2-1.7,38-5c12.9-3.4,23.6-7.1,32.2-11.1c8.6-4,16.9-8.7,24.8-13.9c7.3-4.9,12.1-8.3,14.8-10.4l-3.7,35H826l13.4-125.6
      c0.9-8.3,3-16.8,6.3-25.4c3.3-8.6,9-16.7,17-24.2c8-7.5,17.4-11.3,28.3-11.3c7,0,12.2,2.2,15.6,6.5c3.4,4.3,4.5,12.1,3.3,23.2
      l-16.7,156.7H954l13.2-124.1c0.9-8.3,3.1-16.9,6.6-25.9c3.5-8.9,9.3-17.3,17.5-24.9c8.2-7.7,17.7-11.5,28.5-11.5
      c14.4,0,20.5,9.9,18.4,29.7l-10.7,100.2c-2.1,19.5,1.2,34.7,9.8,45.5c8.6,10.9,22.6,16.3,42.1,16.3c8.9,0,17.7-1.4,26.3-4.1
      c8.6-2.7,15.6-5.8,21.1-9.1c5.5-3.4,10.6-7.2,15.4-11.5c4.8-4.3,7.9-7.3,9.4-9.1c1.5-1.8,2.6-3.1,3.3-4.1l0.3-3.2
      c2.2,3.2,4.6,6.3,7.2,9.2c19.1,21.2,46.5,31.9,81.9,31.9c35.5,0,65-10.6,88.7-31.9c23.7-21.2,37.5-50.7,41.5-88.4
      c4-37.4-3.8-66.9-23.4-88.7C1331.6,356.7,1304.5,345.8,1270,345.8z M618.9,460.7c2.7-25,9.3-36.3,20.2-49.9
      c10.9-13.6,23.4-20.4,37.5-20.4c7.1,0,12.5,2.1,16.4,6.3c3.9,4.2,6.6,10.6,4.5,18.8c-4.7,17.5-13.1,25.8-21,31
      c-14.6,9.8-35.6,15.1-58.1,18.7L618.9,460.7z M1315.1,467.1c-5,46.6-26.8,70-65.4,70c-38.7,0-55.5-23.3-50.5-70
      c5-47.3,26.9-70.9,65.5-70.9C1303.3,396.1,1320.2,419.8,1315.1,467.1z"/>
  </g>
  <g>
    <path fill="#FFFFFF" d="M457.9,410.8c0,115.8-94.2,209.9-209.9,209.9C132.2,620.7,38,526.5,38,410.8C38,295,132.2,200.8,248,200.8
      c28.6,0,55.8,5.8,80.6,16.1c9.1-10.2,18.4-19.9,27.9-29.1c-32.8-16-69.6-25.1-108.6-25.1C111.2,162.8,0,274,0,410.8
      s111.2,248,248,248s248-111.2,248-248c0-61.2-22.3-117.3-59.2-160.6c-13.9,4.2-26.8,8.8-38.8,13.9
      C435,301.9,457.9,353.7,457.9,410.8z"/>
  </g>
  <g>
    <path fill="#FFFFFF" d="M564.6,123.3c0,0,91.9,45.6,151.9-37c-9.7,8.8-62.9,19.7-86.2,7.4c0,0,62.5-5.1,97.5-44.3
      C750,24.5,752.2,0,752.2,0S496.6,6.3,328,197c-56.7,64.1-89.1,126.9-93.4,191.8c-3.2,48.1,19.1,77.1,19.1,77.1
      s-33.2-200.6,236.2-248.8c-22.8-4.7-48.6-21-52.3-31.2c100.3,42.2,197.2-3.3,224.1-32C645.9,158.3,578.4,146.8,564.6,123.3z"/>
  </g>
</g>
</svg>
