<svg xmlns="http://www.w3.org/2000/svg" viewBox="0 0 512.104 176.2312"><title>Emondo-Logo-White-tagline</title><path d="M509.856,108.8327c-6.95,2.896-12.0555,4.1581-15.7762,4.3216,0.2537-1.2668.4721-2.5634,0.6168-3.9213q1.3968-13.1147-5.47-20.737-6.8648-7.6215-18.9707-7.6212-12.2179,0-20.6511,7.6212t-9.8306,20.737a31.1281,31.1281,0,0,0,1.2567,13.8281l-0.0165.0142q-3.32,2.7457-6.345,2.7463-4.0356,0-3.5819-4.26l7.0547-66.243H424.02L421.2624,81.211q-2.8912-.2238-4.5721-0.2242a29.9474,29.9474,0,0,0-22.2632,9.079,36.8415,36.8415,0,0,0-10.3694,22.6414,31.178,31.178,0,0,0,.23,8.8213c-0.5448.5169-1.1181,1.0331-1.74,1.547a10.1515,10.1515,0,0,1-6.3452,2.7463,3.8626,3.8626,0,0,1-2.9807-.9534q-0.8519-.9517-0.6-3.3064l2.4468-22.9775q0.8834-8.2949-2.8929-12.8344t-12.5186-4.539q-10.2,0-15.53,7.9583l0.7279-6.8376H330.6193l-5.73,53.8014H339.125l3.056-28.6939A19.7709,19.7709,0,0,1,346.5,97.4077q3.7693-4.8761,8.9254-4.8761a5.1764,5.1764,0,0,1,4.125,1.7927q1.5462,1.794,1.1519,5.4924l-2.4591,23.09q-0.7283,6.8376,2.2844,10.6487t9.8509,3.81a20.305,20.305,0,0,0,6.1543-.9522,22.5141,22.5141,0,0,0,4.9344-2.13,24.4073,24.4073,0,0,0,3.5928-2.6894,26.6669,26.6669,0,0,0,2.1883-2.13c0.0361-.0432.0609-0.0741,0.0951-0.1154,0.2781,0.4183.5519,0.84,0.8632,1.2361q5.3314,6.7813,15.9794,6.7807,8.8536,0,13.9348-5.604,2.8781,5.604,10.7237,5.604a20.305,20.305,0,0,0,6.1543-.9522,22.489,22.489,0,0,0,4.9344-2.13,24.3451,24.3451,0,0,0,3.5928-2.6894c0.7244-.6545,1.2685-1.17,1.6671-1.5725q6.7084,7.3375,19.0472,7.3441,12.4416,0,20.745-7.4536a27.5526,27.5526,0,0,0,6.5888-8.919c7.0465-.8908,14.68-4.1068,20.53-7.7827Zm-92.0671,4.9951a15.0871,15.0871,0,0,1-3.6433,9.4708,10.7219,10.7219,0,0,1-8.2772,3.5311q-9.3047,0-7.8-14.1227,1.0742-10.0871,6.0327-15.0761a16.0654,16.0654,0,0,1,11.7963-4.9877,24.5413,24.5413,0,0,1,4.1113.3371Zm59.78,4.3429c0.1914,0.1494.3906,0.2861,0.59,0.4235q-3.8153,6.9874-12.6659,7.003-13.5622,0-11.8194-16.3641,1.7664-16.59,15.3289-16.59,11.1288,0,11.9292,11.1779a7.444,7.444,0,0,0-5.4072,2.8086C473.2477,109.5491,472.9338,114.5527,477.5693,118.1707Z" style="fill:#fff"/><path d="M297.0347,80.8748q-12.2175,0-20.6511,7.6212t-9.8306,20.737a33.4653,33.4653,0,0,0,.5681,11.5442,32.2941,32.2941,0,0,1-2.4921,2.2981q-3.32,2.7457-6.3452,2.7463a3.8626,3.8626,0,0,1-2.9807-.9534q-0.8519-.9517-0.601-3.3064l2.4945-23.4262Q259,81.211,242.2991,81.211q-9.3029,0-15.5913,8.5187-2.23-8.5187-13.5515-8.5187-9.3029,0-15.03,8.5187l0.7877-7.3979H184.6789l-3.175,29.8132a31.1886,31.1886,0,0,1-3.26,3.1679,67.4223,67.4223,0,0,1-5.3914,4.16,29.4249,29.4249,0,0,1-7.123,3.5415,24.863,24.863,0,0,1-8.3072,1.4623q-8.2081,0-11.1146-4.3854a54.6519,54.6519,0,0,0,10.0635-2.6422,43.6887,43.6887,0,0,0,8.8557-4.4982,23.5016,23.5016,0,0,0,6.8643-6.9148,21.0291,21.0291,0,0,0,3.2434-9.3325Q176.09,89.62,172.063,85.179q-4.0242-4.4427-12.3437-4.4423a26.2712,26.2712,0,0,0-19.6021,8.2654,33.8469,33.8469,0,0,0-9.3368,20.6327q-1.3284,12.48,4.8277,20.1259t18.5253,7.647a35.0358,35.0358,0,0,0,8.8956-1.1809,45.0572,45.0572,0,0,0,7.5278-2.5872,43.9532,43.9532,0,0,0,5.8016-3.2592c1.7-1.1346,2.8372-1.9379,3.4634-2.4418l-0.8726,8.1946h14.2353l3.1275-29.3661a23.482,23.482,0,0,1,1.4731-5.9411,15.3928,15.3928,0,0,1,3.9652-5.66,9.3376,9.3376,0,0,1,6.6136-2.6344,4.35,4.35,0,0,1,3.65,1.5128q1.1833,1.5136.7662,5.4365l-3.9036,36.6522H223.111l3.0916-29.03a23.3886,23.3886,0,0,1,1.542-6.0528A16.0678,16.0678,0,0,1,231.84,95.222a9.4452,9.4452,0,0,1,6.6752-2.69q5.0453,0,4.3049,6.9492l-2.4952,23.426q-0.7283,6.8376,2.2844,10.6487t9.85,3.81a20.3073,20.3073,0,0,0,6.1543-.9522,22.4666,22.4666,0,0,0,4.9342-2.13,24.2976,24.2976,0,0,0,3.593-2.6894,26.2929,26.2929,0,0,0,2.1881-2.13q0.5152-.6168.7749-0.9534l0.08-.7459a20.0163,20.0163,0,0,0,1.6778,2.147q6.7169,7.454,19.1584,7.4536t20.7448-7.4536q8.3041-7.4529,9.7118-20.6789,1.3964-13.1147-5.47-20.737Q309.1409,80.8746,297.0347,80.8748ZM144.7513,107.7559c0.6227-5.8467,2.1809-8.4854,4.7306-11.6705q3.8277-4.7794,8.7743-4.78a4.9807,4.9807,0,0,1,3.8347,1.4623,4.5352,4.5352,0,0,1,1.052,4.3854,11.5646,11.5646,0,0,1-4.9036,7.2491c-3.4163,2.2822-8.335,3.54-13.5954,4.3657Zm162.8257,1.4771q-1.7427,16.3642-15.3048,16.3641t-11.82-16.3641q1.7671-16.59,15.3291-16.59T307.5769,109.2331Z" style="fill:#fff"/><path d="M107.0882,96.0693A49.1131,49.1131,0,1,1,76.8517,50.7457q3.1816-3.5878,6.528-6.8035A58.1839,58.1839,0,1,0,102.1338,58.52a88.32,88.32,0,0,0-9.0679,3.2414A48.9244,48.9244,0,0,1,107.0882,96.0693Z" style="fill:#fff"/><path d="M132.0371,28.8469S153.5329,39.5,167.5621,20.204c-2.2786,2.0647-14.71,4.6019-20.1673,1.73,0,0,14.6137-1.1941,22.8006-10.357C175.4109,5.7406,175.9128,0,175.9128,0s-59.767,1.4637-99.1986,46.0823c-13.2556,15-20.84,29.6888-21.8529,44.8491-0.7513,11.2525,4.4676,18.0264,4.4676,18.0264S51.5708,62.04,114.5778,50.7651c-5.3393-1.0976-11.3618-4.9029-12.235-7.297,23.4665,9.8755,46.1193-.7653,52.42-7.4777C151.0589,37.0137,135.272,34.343,132.0371,28.8469Z" style="fill:#fff"/><path d="M211.2506,159.1394a3.0927,3.0927,0,0,0,.125-0.9668c0-2.09-1.1855-3.3691-3.8984-3.3691-2.8389,0-4.71,1.373-4.71,5.3027,0,3.6484,2.3711,5.334,5.084,5.334,3.3682,0,4.71-1.5605,4.71-1.5605l0.9043,1.8711s-1.6533,1.873-5.8018,1.873c-4.3975,0-7.4541-2.6523-7.4541-7.5176,0-5.0527,2.8076-7.4844,7.2988-7.4844,4.585,0,6.2061,2.5254,6.2061,5.207a4.155,4.155,0,0,1-.1865,1.1543Z" style="fill:#fff"/><path d="M226.7789,155.21a5.7841,5.7841,0,0,0-1.6523-.2187c-3.4316,0-4.3047,3.7422-4.3672,4.1172v6.1758l2.4014,0.3125v1.8086h-7.11v-1.8086l2.12-.3125V154.96l-2.12-.3105v-1.8105h4.0859l0.249,3.6816h0.0938a4.8514,4.8514,0,0,1,4.709-3.8984,8.723,8.723,0,0,1,1.5908.1543V155.21Z" style="fill:#fff"/><path d="M241.6237,160.8855h-11.041a4.7638,4.7638,0,0,0,5.1152,4.5547c3.3369,0,4.6475-1.5605,4.6475-1.5605l0.9355,1.8711s-1.7158,1.873-5.8633,1.873c-4.3047,0-7.4238-2.6523-7.4238-7.5176s3.1191-7.4844,7.3613-7.4844a6.4016,6.4016,0,0,1,6.4248,6.7051A7.0492,7.0492,0,0,1,241.6237,160.8855Zm-11.0723-1.9023h8.8271a3.9349,3.9349,0,0,0-3.9922-4.18A4.5058,4.5058,0,0,0,230.5514,158.9832Z" style="fill:#fff"/><path d="M258.7433,167.3425a3.198,3.198,0,0,1-1.6523.2813c-1.6226,0-2.3091-1.0918-2.3091-2.5586v-0.0625h-0.0625s-1.2158,2.6211-5.4893,2.6211c-2.9941,0-5.0215-1.8105-5.0215-4.2422,0-2.9629,2.5576-4.4922,6.7061-4.4922a8.266,8.266,0,0,1,3.5244.75v-1.5605c0-2.34-1.3721-3.3379-3.9609-3.3379-2.4014,0-3.6807,1.1543-3.6807,2.6836a2.9359,2.9359,0,0,0,.0625.7168l-2.2451-.1562a3.7089,3.7089,0,0,1-.125-0.998c0-2.09,1.8086-4.3652,6.082-4.3652,3.9609,0,6.4565,1.7461,6.4565,5.582v6.207a0.9778,0.9778,0,0,0,.9668,1.1543,1.8093,1.8093,0,0,0,.748-0.125v1.9023Zm-4.3042-5.8945a8.1225,8.1225,0,0,0-3.3057-.7187c-2.4951,0-4.3672.8438-4.3672,2.6523,0,1.3711,1.2793,2.2148,3.0879,2.2148a5.495,5.495,0,0,0,4.585-2.3711V161.448Z" style="fill:#fff"/><path d="M265.0089,148.909v3.93h4.6152v2.0586h-4.6152v7.5176c0,1.9961.873,2.9941,2.4,2.9941a6.4909,6.4909,0,0,0,2.6211-.4687v2.1836a8.7671,8.7671,0,0,1-3.0566.5c-2.9316,0-4.5547-1.6855-4.5547-5.0527v-7.6738h-2.1816v-2.0586h2.1816l0.4375-3.93h2.1523Z" style="fill:#fff"/><path d="M285.4659,160.8855h-11.041A4.7643,4.7643,0,0,0,279.54,165.44c3.3379,0,4.6484-1.5605,4.6484-1.5605l0.9355,1.8711s-1.7168,1.873-5.8633,1.873c-4.3047,0-7.4238-2.6523-7.4238-7.5176s3.1191-7.4844,7.3613-7.4844a6.4009,6.4009,0,0,1,6.4238,6.7051A7.0492,7.0492,0,0,1,285.4659,160.8855Zm-11.0723-1.9023h8.8281a3.9349,3.9349,0,0,0-3.9922-4.18A4.5061,4.5061,0,0,0,274.3937,158.9832Z" style="fill:#fff"/><path d="M290.2042,167.6238a1.6981,1.6981,0,0,1-1.6836-1.6855,1.7174,1.7174,0,0,1,1.6836-1.6836,1.6981,1.6981,0,0,1,1.6855,1.6836A1.68,1.68,0,0,1,290.2042,167.6238Z" style="fill:#fff"/><path d="M302.1456,163.5691a3.1249,3.1249,0,0,1,.125-0.9043l2.34-.1875a2.3351,2.3351,0,0,0-.0625.498c0,1.4355,1.1855,2.5273,3.7422,2.5273,2.59,0,3.6816-.8125,3.6816-2.1523,0-1.4043-1.8711-1.8711-3.93-2.2461-2.59-.4668-5.5527-1.1543-5.5527-4.3672,0-2.4629,2.3086-4.1152,5.707-4.1152,4.3672,0,5.957,1.8086,5.957,4.0234a3.0147,3.0147,0,0,1-.1543,1.0586l-2.34.1563a3.38,3.38,0,0,0,.0938-0.8105c0-1.4961-.998-2.34-3.4629-2.34-1.6211,0-3.2422.625-3.2422,2.09,0,1.6543,2.0273,1.9336,4.1465,2.34,2.7461,0.5313,5.334,1.373,5.334,4.2734,0,2.3379-1.7461,4.2109-6.1758,4.2109C303.8,167.6238,302.1456,165.6277,302.1456,163.5691Z" style="fill:#fff"/><path d="M321.7628,165.284l2.0273,0.3125v1.8086h-6.7383v-1.8086l2.1211-.3125V154.96l-2.1211-.3105v-1.8105h4.7109V165.284Zm-1.4043-16.2187a1.9805,1.9805,0,1,1,1.9961-1.9961A1.99,1.99,0,0,1,320.3585,149.0652Z" style="fill:#fff"/><path d="M337.6046,165.6882h-0.0312c-0.0312.0313-1.3105,1.9355-4.8027,1.9355-3.6191,0-6.6758-2.6523-6.6758-7.4863,0-4.99,2.8711-7.5156,6.6445-7.5156a5.774,5.774,0,0,1,4.959,2.4h0.0938l0.4043-2.1836h4.0547v1.8105l-2.1211.3105v13.7539c0,5.334-3.3984,7.5176-7.6719,7.5176-4.3672,0-6.207-2.3086-6.207-2.3086l1.123-1.7773s1.3105,1.9023,5.0215,1.9023c2.8691,0,5.209-1.4023,5.209-5.334v-3.0254Zm-0.0625-2.15V157.05a4.63,4.63,0,0,0-4.1484-2.2461c-2.5566,0-4.74,1.7168-4.74,5.334,0,3.6484,2.4,5.3027,4.709,5.3027A4.91,4.91,0,0,0,337.5421,163.5379Z" style="fill:#fff"/><path d="M348.921,165.284l2.0273,0.25v1.8711H344.212v-1.8086l2.1211-.3125V154.96l-2.1211-.3105v-1.8105h4.0859l0.25,2.7461h0.0938s0.8105-2.9629,5.084-2.9629c3.7735,0,5.4883,2.4,5.4883,5.6758v6.9863l2.1211,0.3125v1.8086h-4.709v-8.7031c0-2.2754-.9668-3.8984-3.6191-3.8984a4.0545,4.0545,0,0,0-4.0859,3.0566v7.4238Z" style="fill:#fff"/><path d="M365.2921,167.6238a1.6981,1.6981,0,0,1-1.6836-1.6855,1.7174,1.7174,0,0,1,1.6836-1.6836,1.6981,1.6981,0,0,1,1.6855,1.6836A1.68,1.68,0,0,1,365.2921,167.6238Z" style="fill:#fff"/><path d="M377.2355,163.5691a3.1249,3.1249,0,0,1,.125-0.9043l2.34-.1875a2.3351,2.3351,0,0,0-.0625.498c0,1.4355,1.1836,2.5273,3.7422,2.5273,2.5879,0,3.68-.8125,3.68-2.1523,0-1.4043-1.8711-1.8711-3.93-2.2461-2.5879-.4668-5.5508-1.1543-5.5508-4.3672,0-2.4629,2.3066-4.1152,5.707-4.1152,4.3672,0,5.957,1.8086,5.957,4.0234a2.981,2.981,0,0,1-.1562,1.0586l-2.34.1563a3.38,3.38,0,0,0,.0938-0.8105c0-1.4961-.998-2.34-3.4609-2.34-1.623,0-3.2441.625-3.2441,2.09,0,1.6543,2.0273,1.9336,4.1484,2.34,2.7441,0.5313,5.334,1.373,5.334,4.2734,0,2.3379-1.748,4.2109-6.1758,4.2109C378.8878,167.6238,377.2355,165.6277,377.2355,163.5691Z" style="fill:#fff"/><path d="M405.8019,160.8855h-11.041a4.7633,4.7633,0,0,0,5.1152,4.5547c3.3359,0,4.6465-1.5605,4.6465-1.5605l0.9355,1.8711s-1.7148,1.873-5.8633,1.873c-4.3047,0-7.4238-2.6523-7.4238-7.5176s3.1191-7.4844,7.3613-7.4844a6.4024,6.4024,0,0,1,6.4258,6.7051A7.0492,7.0492,0,0,1,405.8019,160.8855ZM394.73,158.9832h8.8262a3.9349,3.9349,0,0,0-3.9922-4.18A4.5055,4.5055,0,0,0,394.73,158.9832Z" style="fill:#fff"/><path d="M413.0031,165.284l2.0273,0.25v1.8711h-6.7363v-1.8086l2.1191-.3125V154.96l-2.1191-.3105v-1.8105h4.084l0.25,2.7461h0.0938s0.8105-2.9629,5.084-2.9629c3.7734,0,5.49,2.4,5.49,5.6758v6.9863l2.1191,0.3125v1.8086h-4.709v-8.7031c0-2.2754-.9668-3.8984-3.6172-3.8984a4.0522,4.0522,0,0,0-4.0859,3.0566v7.4238Z" style="fill:#fff"/><path d="M438.7609,154.5554h0.0938s-0.125-.9668-0.125-1.0918v-7.2051l-2.2129-.3125v-1.8086h4.8027V165.284l2.1211,0.3125v1.8086h-4.0547l-0.375-2.1523h-0.125a5.6959,5.6959,0,0,1-4.9277,2.3711c-3.8047,0-6.6738-2.5273-6.6738-7.5176,0-4.834,3.0566-7.4844,6.7051-7.4844C437.7,152.6218,438.7609,154.5242,438.7609,154.5554Zm-0.0312,8.67v-6.4883a4.7372,4.7372,0,0,0-4.1465-1.9336c-2.3086,0-4.7422,1.6543-4.7422,5.3027,0,3.6172,2.1836,5.334,4.7734,5.334A4.582,4.582,0,0,0,438.73,163.2254Z" style="fill:#fff"/><path d="M447.6476,167.6238a1.6981,1.6981,0,0,1-1.6836-1.6855,1.7174,1.7174,0,0,1,1.6836-1.6836,1.6964,1.6964,0,0,1,1.6836,1.6836A1.678,1.678,0,0,1,447.6476,167.6238Z" style="fill:#fff"/></svg>