<?xml version="1.0" encoding="utf-8"?>
<!-- Generator: Adobe Illustrator 19.1.0, SVG Export Plug-In . SVG Version: 6.00 Build 0)  -->
<svg version="1.1" id="Layer_1" xmlns="http://www.w3.org/2000/svg" xmlns:xlink="http://www.w3.org/1999/xlink" x="0px" y="0px"
	 viewBox="206 37.8 512.1 176.2" style="enable-background:new 206 37.8 512.1 176.2;" xml:space="preserve">
<style type="text/css">
	.st0{fill:#7B7B7B;}
</style>
<title>Emondo-Logo-White-tagline</title>
<path class="st0" d="M715.9,146.6c-6.9,2.9-12.1,4.2-15.8,4.3c0.3-1.3,0.5-2.6,0.6-3.9c0.9-8.7-0.9-15.7-5.5-20.7
	c-4.6-5.1-10.9-7.6-19-7.6c-8.1,0-15,2.5-20.7,7.6c-5.6,5.1-8.9,12-9.8,20.7c-0.6,4.6-0.2,9.4,1.3,13.8l0,0
	c-2.2,1.8-4.3,2.7-6.3,2.7c-2.7,0-3.9-1.4-3.6-4.3l7.1-66.2H630l-2.8,25.9c-1.9-0.1-3.5-0.2-4.6-0.2c-8.4-0.2-16.4,3.1-22.3,9.1
	c-6,6.1-9.6,14.1-10.4,22.6c-0.3,2.9-0.3,5.9,0.2,8.8c-0.5,0.5-1.1,1-1.7,1.5c-1.7,1.6-4,2.6-6.3,2.7c-1.1,0.1-2.2-0.2-3-1
	c-0.6-0.6-0.8-1.7-0.6-3.3l2.4-23c0.6-5.5-0.4-9.8-2.9-12.8s-6.7-4.5-12.5-4.5c-6.8,0-12,2.7-15.5,8l0.7-6.8h-14.2l-5.7,53.8h14.2
	l3.1-28.7c0.5-3.7,2-7.2,4.3-10c2.5-3.3,5.5-4.9,8.9-4.9c1.6-0.1,3.1,0.6,4.1,1.8c1,1.2,1.4,3,1.2,5.5l-2.5,23.1
	c-0.5,4.6,0.3,8.1,2.3,10.6c2,2.5,5.3,3.8,9.9,3.8c2.1,0,4.2-0.3,6.2-1c1.7-0.5,3.4-1.2,4.9-2.1c1.3-0.8,2.5-1.7,3.6-2.7
	c0.8-0.7,1.5-1.4,2.2-2.1c0,0,0.1-0.1,0.1-0.1c0.3,0.4,0.6,0.8,0.9,1.2c3.6,4.5,8.9,6.8,16,6.8c5.9,0,10.5-1.9,13.9-5.6
	c1.9,3.7,5.5,5.6,10.7,5.6c2.1,0,4.2-0.3,6.2-1c1.7-0.5,3.4-1.2,4.9-2.1c1.3-0.8,2.5-1.7,3.6-2.7c0.7-0.7,1.3-1.2,1.7-1.6
	c4.5,4.9,10.8,7.3,19,7.3c8.3,0,15.2-2.5,20.7-7.5c2.8-2.5,5-5.5,6.6-8.9c7-0.9,14.7-4.1,20.5-7.8L715.9,146.6z M623.8,151.6
	c-0.1,3.5-1.4,6.8-3.6,9.5c-2.1,2.3-5.1,3.6-8.3,3.5c-6.2,0-8.8-4.7-7.8-14.1c0.7-6.7,2.7-11.8,6-15.1c3.1-3.2,7.3-5,11.8-5
	c1.4,0,2.8,0.1,4.1,0.3L623.8,151.6z M683.6,155.9c0.2,0.1,0.4,0.3,0.6,0.4c-2.5,4.7-6.8,7-12.7,7c-9,0-13-5.5-11.8-16.4
	c1.2-11.1,6.3-16.6,15.3-16.6c7.4,0,11.4,3.7,11.9,11.2c-2.1,0.1-4.1,1.1-5.4,2.8C679.2,147.3,678.9,152.3,683.6,155.9L683.6,155.9z
	"/>
<path class="st0" d="M503,118.6c-8.1,0-15,2.5-20.7,7.6c-5.6,5.1-8.9,12-9.8,20.7c-0.5,3.9-0.3,7.8,0.6,11.5
	c-0.8,0.8-1.6,1.6-2.5,2.3c-2.2,1.8-4.3,2.7-6.3,2.7c-1.1,0.1-2.2-0.2-3-1c-0.6-0.6-0.8-1.7-0.6-3.3l2.5-23.4
	c1.2-11.3-3.8-16.9-14.9-16.9c-6.2,0-11.4,2.8-15.6,8.5c-1.5-5.7-6-8.5-13.6-8.5c-6.2,0-11.2,2.8-15,8.5l0.8-7.4h-14.2l-3.2,29.8
	c-1,1.1-2.1,2.2-3.3,3.2c-1.7,1.5-3.5,2.9-5.4,4.2c-2.2,1.5-4.6,2.7-7.1,3.5c-2.7,1-5.5,1.5-8.3,1.5c-5.5,0-9.2-1.5-11.1-4.4
	c3.4-0.6,6.8-1.4,10.1-2.6c3.1-1.2,6.1-2.7,8.9-4.5c2.7-1.8,5.1-4.2,6.9-6.9c1.8-2.8,2.9-6,3.2-9.3c0.5-4.7-0.6-8.6-3.3-11.5
	c-2.7-3-6.8-4.4-12.3-4.4c-7.4-0.1-14.5,2.9-19.6,8.3c-5.4,5.6-8.7,12.9-9.3,20.6c-0.9,8.3,0.7,15,4.8,20.1
	c4.1,5.1,10.3,7.6,18.5,7.6c3,0,6-0.4,8.9-1.2c2.6-0.6,5.1-1.5,7.5-2.6c2-0.9,4-2,5.8-3.3c1.7-1.1,2.8-1.9,3.5-2.4l-0.9,8.2h14.2
	l3.1-29.4c0.2-2,0.7-4,1.5-5.9c0.9-2.2,2.2-4.1,4-5.7c1.8-1.7,4.1-2.7,6.6-2.6c1.4-0.1,2.7,0.5,3.6,1.5c0.8,1,1,2.8,0.8,5.4
	l-3.9,36.7h14.2l3.1-29c0.2-2.1,0.8-4.1,1.5-6.1c0.9-2.2,2.3-4.2,4.1-5.8c1.8-1.7,4.2-2.7,6.7-2.7c3.4,0,4.8,2.3,4.3,6.9l-2.5,23.4
	c-0.5,4.6,0.3,8.1,2.3,10.6c2,2.5,5.3,3.8,9.8,3.8c2.1,0,4.2-0.3,6.2-1c1.7-0.5,3.4-1.2,4.9-2.1c1.3-0.8,2.5-1.7,3.6-2.7
	c0.8-0.7,1.5-1.4,2.2-2.1c0.3-0.4,0.6-0.7,0.8-1l0.1-0.7c0.5,0.8,1.1,1.5,1.7,2.1c4.5,5,10.9,7.5,19.2,7.5c8.3,0,15.2-2.5,20.7-7.5
	c5.5-5,8.8-11.9,9.7-20.7c0.9-8.7-0.9-15.7-5.5-20.7C517.4,121.2,511.1,118.6,503,118.6z M350.8,145.5c0.6-5.8,2.2-8.5,4.7-11.7
	c2.6-3.2,5.5-4.8,8.8-4.8c1.4-0.1,2.8,0.4,3.8,1.5c1.1,1.2,1.5,2.8,1.1,4.4c-0.6,3-2.4,5.6-4.9,7.2c-3.4,2.3-8.3,3.5-13.6,4.4
	L350.8,145.5z M513.6,147c-1.2,10.9-6.3,16.4-15.3,16.4c-9,0-13-5.5-11.8-16.4c1.2-11.1,6.3-16.6,15.3-16.6
	C510.8,130.4,514.8,135.9,513.6,147L513.6,147z"/>
<path class="st0" d="M313.1,133.8c0,27.1-22,49.1-49.1,49.1c-27.1,0-49.1-22-49.1-49.1s22-49.1,49.1-49.1c6.5,0,12.9,1.3,18.9,3.8
	c2.1-2.4,4.3-4.7,6.5-6.8c-28.9-14.1-63.7-2.2-77.8,26.7c-14.1,28.9-2.2,63.7,26.7,77.8c28.9,14.1,63.7,2.2,77.8-26.7
	c10.2-20.8,7.1-45.6-7.9-63.3c-3.1,0.9-6.1,2-9.1,3.2C308.1,108.7,313.1,121,313.1,133.8z"/>
<path class="st0" d="M338,66.6c0,0,21.5,10.7,35.5-8.6c-2.3,2.1-14.7,4.6-20.2,1.7c0,0,14.6-1.2,22.8-10.4
	c5.2-5.8,5.7-11.6,5.7-11.6s-59.8,1.5-99.2,46.1c-13.3,15-20.8,29.7-21.9,44.8c-0.8,11.3,4.5,18,4.5,18s-7.8-46.9,55.2-58.2
	c-5.3-1.1-11.4-4.9-12.2-7.3c23.5,9.9,46.1-0.8,52.4-7.5C357.1,74.8,341.3,72.1,338,66.6z"/>
<path class="st0" d="M417.3,196.9c0.1-0.3,0.1-0.6,0.1-1c0-2.1-1.2-3.4-3.9-3.4c-2.8,0-4.7,1.4-4.7,5.3c0,3.6,2.4,5.3,5.1,5.3
	c3.4,0,4.7-1.6,4.7-1.6l0.9,1.9c0,0-1.7,1.9-5.8,1.9c-4.4,0-7.5-2.7-7.5-7.5c0-5.1,2.8-7.5,7.3-7.5c4.6,0,6.2,2.5,6.2,5.2
	c0,0.4-0.1,0.8-0.2,1.2L417.3,196.9z"/>
<path class="st0" d="M432.8,193c-0.5-0.2-1.1-0.2-1.7-0.2c-3.4,0-4.3,3.7-4.4,4.1v6.2l2.4,0.3v1.8h-7.1v-1.8l2.1-0.3v-10.3l-2.1-0.3
	v-1.8h4.1l0.2,3.7h0.1c0.5-2.2,2.4-3.9,4.7-3.9c0.5,0,1.1,0.1,1.6,0.2L432.8,193L432.8,193z"/>
<path class="st0" d="M447.6,198.7h-11c0.1,2.6,2.3,4.7,5,4.6c0.1,0,0.1,0,0.2,0c3.3,0,4.6-1.6,4.6-1.6l0.9,1.9c0,0-1.7,1.9-5.9,1.9
	c-4.3,0-7.4-2.7-7.4-7.5s3.1-7.5,7.4-7.5c3.5,0,6.4,2.8,6.4,6.4c0,0.1,0,0.2,0,0.3C447.8,197.6,447.7,198.1,447.6,198.7z
	 M436.6,196.8h8.8c0.1-2.2-1.5-4-3.7-4.2c-0.1,0-0.2,0-0.3,0C438.9,192.4,436.7,194.2,436.6,196.8
	C436.6,196.7,436.6,196.7,436.6,196.8z"/>
<path class="st0" d="M464.7,205.1c-0.5,0.2-1.1,0.3-1.7,0.3c-1.6,0-2.3-1.1-2.3-2.6v-0.1h-0.1c0,0-1.2,2.6-5.5,2.6c-3,0-5-1.8-5-4.2
	c0-3,2.6-4.5,6.7-4.5c1.2,0,2.4,0.2,3.5,0.8v-1.6c0-2.3-1.4-3.3-4-3.3c-2.4,0-3.7,1.2-3.7,2.7c0,0.2,0,0.5,0.1,0.7l-2.2-0.2
	c-0.1-0.3-0.1-0.7-0.1-1c0-2.1,1.8-4.4,6.1-4.4c4,0,6.5,1.7,6.5,5.6v6.2c-0.1,0.5,0.3,1,0.8,1.1c0.1,0,0.1,0,0.2,0
	c0.3,0,0.5,0,0.7-0.1L464.7,205.1L464.7,205.1z M460.4,199.2c-1-0.5-2.2-0.7-3.3-0.7c-2.5,0-4.4,0.8-4.4,2.7c0,1.4,1.3,2.2,3.1,2.2
	c1.8,0,3.5-0.9,4.6-2.4V199.2L460.4,199.2z"/>
<path class="st0" d="M471,186.7v3.9h4.6v2.1H471v7.5c0,2,0.9,3,2.4,3c0.9,0,1.8-0.1,2.6-0.5v2.2c-1,0.3-2,0.5-3.1,0.5
	c-2.9,0-4.6-1.7-4.6-5.1v-7.7h-2.2v-2.1h2.2l0.4-3.9L471,186.7L471,186.7z"/>
<path class="st0" d="M491.5,198.7h-11c0.1,2.6,2.3,4.7,5,4.6c0.1,0,0.1,0,0.2,0c3.3,0,4.6-1.6,4.6-1.6l0.9,1.9c0,0-1.7,1.9-5.9,1.9
	c-4.3,0-7.4-2.7-7.4-7.5s3.1-7.5,7.4-7.5c3.5,0,6.4,2.8,6.4,6.4c0,0.1,0,0.2,0,0.3C491.6,197.6,491.6,198.1,491.5,198.7z
	 M480.4,196.8h8.8c0.1-2.2-1.5-4-3.7-4.2c-0.1,0-0.2,0-0.3,0C482.7,192.4,480.6,194.2,480.4,196.8
	C480.4,196.7,480.4,196.7,480.4,196.8L480.4,196.8z"/>
<path class="st0" d="M496.2,205.4c-0.9,0-1.7-0.8-1.7-1.7c0-0.9,0.8-1.7,1.7-1.7c0.9,0,1.7,0.8,1.7,1.7
	C497.9,204.6,497.1,205.4,496.2,205.4C496.2,205.4,496.2,205.4,496.2,205.4z"/>
<path class="st0" d="M508.1,201.3c0-0.3,0-0.6,0.1-0.9l2.3-0.2c0,0.2-0.1,0.3-0.1,0.5c0,1.4,1.2,2.5,3.7,2.5c2.6,0,3.7-0.8,3.7-2.2
	c0-1.4-1.9-1.9-3.9-2.2c-2.6-0.5-5.6-1.2-5.6-4.4c0-2.5,2.3-4.1,5.7-4.1c4.4,0,6,1.8,6,4c0,0.4,0,0.7-0.2,1.1l-2.3,0.2
	c0.1-0.3,0.1-0.5,0.1-0.8c0-1.5-1-2.3-3.5-2.3c-1.6,0-3.2,0.6-3.2,2.1c0,1.7,2,1.9,4.1,2.3c2.7,0.5,5.3,1.4,5.3,4.3
	c0,2.3-1.7,4.2-6.2,4.2C509.8,205.4,508.1,203.4,508.1,201.3z"/>
<path class="st0" d="M527.8,203.1l2,0.3v1.8h-6.7v-1.8l2.1-0.3v-10.3l-2.1-0.3v-1.8h4.7L527.8,203.1L527.8,203.1z M526.4,186.8
	c-1.1,0-2-0.9-2-2c0-1.1,0.9-2,2-2c1.1,0,2,0.9,2,2C528.4,185.9,527.5,186.8,526.4,186.8C526.4,186.8,526.4,186.8,526.4,186.8
	L526.4,186.8z"/>
<path class="st0" d="M543.6,203.5L543.6,203.5c-0.1,0-1.3,1.9-4.8,1.9c-3.6,0-6.7-2.7-6.7-7.5c0-5,2.9-7.5,6.6-7.5
	c2-0.1,3.8,0.8,5,2.4h0.1l0.4-2.2h4.1v1.8l-2.1,0.3v13.8c0,5.3-3.4,7.5-7.7,7.5c-4.4,0-6.2-2.3-6.2-2.3l1.1-1.8c0,0,1.3,1.9,5,1.9
	c2.9,0,5.2-1.4,5.2-5.3L543.6,203.5L543.6,203.5z M543.5,201.3v-6.5c-0.9-1.4-2.5-2.3-4.1-2.2c-2.6,0-4.7,1.7-4.7,5.3
	c0,3.6,2.4,5.3,4.7,5.3C541,203.3,542.5,202.6,543.5,201.3L543.5,201.3z"/>
<path class="st0" d="M554.9,203.1l2,0.2v1.9h-6.7v-1.8l2.1-0.3v-10.3l-2.1-0.3v-1.8h4.1l0.2,2.7h0.1c0,0,0.8-3,5.1-3
	c3.8,0,5.5,2.4,5.5,5.7v7l2.1,0.3v1.8h-4.7v-8.7c0-2.3-1-3.9-3.6-3.9c-1.9-0.1-3.6,1.2-4.1,3.1L554.9,203.1L554.9,203.1z"/>
<path class="st0" d="M571.3,205.4c-0.9,0-1.7-0.8-1.7-1.7c0-0.9,0.8-1.7,1.7-1.7c0.9,0,1.7,0.8,1.7,1.7
	C573,204.6,572.2,205.4,571.3,205.4C571.3,205.4,571.3,205.4,571.3,205.4z"/>
<path class="st0" d="M583.2,201.3c0-0.3,0-0.6,0.1-0.9l2.3-0.2c0,0.2-0.1,0.3-0.1,0.5c0,1.4,1.2,2.5,3.7,2.5c2.6,0,3.7-0.8,3.7-2.2
	c0-1.4-1.9-1.9-3.9-2.2c-2.6-0.5-5.6-1.2-5.6-4.4c0-2.5,2.3-4.1,5.7-4.1c4.4,0,6,1.8,6,4c0,0.4,0,0.7-0.2,1.1l-2.3,0.2
	c0.1-0.3,0.1-0.5,0.1-0.8c0-1.5-1-2.3-3.5-2.3c-1.6,0-3.2,0.6-3.2,2.1c0,1.7,2,1.9,4.1,2.3c2.7,0.5,5.3,1.4,5.3,4.3
	c0,2.3-1.7,4.2-6.2,4.2C584.9,205.4,583.2,203.4,583.2,201.3z"/>
<path class="st0" d="M611.8,198.7h-11c0.1,2.6,2.3,4.7,5,4.6c0.1,0,0.1,0,0.2,0c3.3,0,4.6-1.6,4.6-1.6l0.9,1.9c0,0-1.7,1.9-5.9,1.9
	c-4.3,0-7.4-2.7-7.4-7.5s3.1-7.5,7.4-7.5c3.5,0,6.4,2.8,6.4,6.4c0,0.1,0,0.2,0,0.3C612,197.6,611.9,198.1,611.8,198.7z M600.7,196.8
	h8.8c0.1-2.2-1.5-4-3.7-4.2c-0.1,0-0.2,0-0.3,0C603.1,192.4,600.9,194.2,600.7,196.8C600.7,196.7,600.7,196.7,600.7,196.8z"/>
<path class="st0" d="M619,203.1l2,0.2v1.9h-6.7v-1.8l2.1-0.3v-10.3l-2.1-0.3v-1.8h4.1l0.2,2.7h0.1c0,0,0.8-3,5.1-3
	c3.8,0,5.5,2.4,5.5,5.7v7l2.1,0.3v1.8h-4.7v-8.7c0-2.3-1-3.9-3.6-3.9c-1.9-0.1-3.6,1.2-4.1,3.1L619,203.1L619,203.1z"/>
<path class="st0" d="M644.8,192.3L644.8,192.3c0.1,0,0-1,0-1.1V184l-2.2-0.3v-1.8h4.8v21.1l2.1,0.3v1.8h-4.1L645,203h-0.1
	c-1.1,1.6-3,2.5-4.9,2.4c-3.8,0-6.7-2.5-6.7-7.5c0-4.8,3.1-7.5,6.7-7.5C643.7,190.4,644.8,192.3,644.8,192.3z M644.7,201v-6.5
	c-1-1.3-2.5-2-4.1-1.9c-2.3,0-4.7,1.7-4.7,5.3c0,3.6,2.2,5.3,4.8,5.3C642.3,203.3,643.9,202.4,644.7,201L644.7,201z"/>
<path class="st0" d="M653.6,205.4c-0.9,0-1.7-0.8-1.7-1.7c0-0.9,0.8-1.7,1.7-1.7c0.9,0,1.7,0.8,1.7,1.7
	C655.3,204.6,654.6,205.4,653.6,205.4C653.7,205.4,653.7,205.4,653.6,205.4z"/>
</svg>
