<?xml version="1.0" standalone="no"?>
<!DOCTYPE svg PUBLIC "-//W3C//DTD SVG 1.1//EN" "http://www.w3.org/Graphics/SVG/1.1/DTD/svg11.dtd" >
<svg xmlns="http://www.w3.org/2000/svg">
<metadata></metadata>
<defs>
<font id="roble_alt_thinthin" horiz-adv-x="708" >
<font-face units-per-em="1000" ascent="750" descent="-250" />
<missing-glyph horiz-adv-x="256" />
<glyph unicode="&#xfb01;" horiz-adv-x="569" d="M254 0h-215v25l73 8v401h-76v33h76v140q0 72 36 110t98 38q20 0 37 -3.5t25 -7.5l7 -3v-33q-30 15 -67 15q-97 0 -97 -118v-138h146v-33h-146v-401l103 -8v-25zM463 467v-434l73 -10v-23h-185v25l73 8v401l-73 8v25h112zM481 661q0 -16 -11 -27t-28 -11q-16 0 -27 10.5 t-11 27.5t11 28t27 11t27.5 -11t11.5 -28z" />
<glyph unicode="&#xfb02;" horiz-adv-x="567" d="M254 0h-215v25l73 8v401h-76v33h76v140q0 72 36 110t98 38q20 0 37 -3.5t25 -7.5l7 -3v-33q-30 15 -67 15q-97 0 -97 -118v-138h146v-33h-146v-401l103 -8v-25zM461 746v-713l73 -8v-25h-185v25l73 8v680l-73 8v25h112z" />
<glyph horiz-adv-x="0" />
<glyph horiz-adv-x="333" />
<glyph unicode=" "  horiz-adv-x="256" />
<glyph unicode="&#x09;" horiz-adv-x="256" />
<glyph unicode="&#xa0;" horiz-adv-x="256" />
<glyph unicode="!" horiz-adv-x="241" d="M138 148h-35l-6 598h47zM152 25q0 -13 -9 -22.5t-23 -9.5t-23 9.5t-9 22.5t9 22.5t23 9.5t23 -9.5t9 -22.5z" />
<glyph unicode="&#x22;" horiz-adv-x="274" d="M102 583h-34l-2 172h38zM206 583h-34l-2 172h38z" />
<glyph unicode="#" horiz-adv-x="609" d="M497 196h-110l-49 -196h-41l49 196h-153l-49 -196h-41l49 196h-114v36h123l53 208h-102v36h111l55 218h41l-55 -218h153l55 218h41l-55 -218h113v-36h-122l-53 -208h101v-36zM255 440l-53 -208h153l53 208h-153z" />
<glyph unicode="$" horiz-adv-x="570" d="M56 163q0 10 1.5 20t2.5 15l2 5h41q-6 -16 -6 -34q0 -62 50 -100t130 -38q96 0 149 34.5t53 101.5q0 44 -23.5 75.5t-61 49.5t-83 31.5t-91 28t-83 34t-61 54.5t-23.5 83q0 67 54 115t146 55v80h41v-80q93 -4 148.5 -49.5t55.5 -120.5l-6 -35l-40 -5q5 24 5 35 q0 57 -43.5 97.5t-136.5 40.5q-81 0 -131.5 -38t-50.5 -95q0 -39 23.5 -67t61 -44t83 -29.5t91 -29t83 -36.5t61 -58t23.5 -88q0 -75 -56.5 -124.5t-169.5 -53.5v-80h-41v81q-94 5 -146 53.5t-52 115.5z" />
<glyph unicode="%" horiz-adv-x="751" d="M191 -19l-33 18l428 747l33 -18zM309 514q0 -88 -36 -132t-99 -44t-99.5 44t-36.5 132t36.5 134t99.5 46q62 0 98.5 -46t36.5 -134zM80 514q0 -137 94 -137q93 0 93 137q0 71 -25 106t-68 35q-94 0 -94 -141zM710 169q0 -88 -36 -132t-99 -44t-99.5 44t-36.5 132 t36.5 134t99.5 46q62 0 98.5 -46t36.5 -134zM481 169q0 -137 94 -137q93 0 93 137q0 71 -25 106t-68 35q-94 0 -94 -141z" />
<glyph unicode="&#x26;" horiz-adv-x="653" d="M541 306v-44q0 -87 -41 -152l101 -110h-57l-70 76q-75 -83 -192 -83q-61 0 -108 18t-72.5 46.5t-38 59t-12.5 61.5q0 45 17 81.5t45 58t50.5 33.5t45.5 19q-85 92 -85 166q0 75 50 116.5t117 41.5q26 0 52 -7.5t51.5 -23.5t41.5 -47.5t16 -72.5q0 -48 -20 -85t-51.5 -57 t-57 -30t-49.5 -14l198 -216q31 54 31 125v75h108v-25zM282 30q100 0 165 76l-213 236q-20 -6 -39 -16t-44.5 -28.5t-41.5 -49.5t-16 -69q0 -68 56 -108.5t133 -40.5zM164 539q0 -10 2 -20.5t4.5 -19.5t7.5 -19t9 -17.5t11 -17t11 -15t11.5 -14t10.5 -12t10 -11t8 -8.5 q15 2 32.5 6.5t42.5 16t43.5 28t32.5 45t14 63.5q0 45 -32.5 79.5t-89.5 34.5q-58 0 -93 -32t-35 -87z" />
<glyph unicode="'" horiz-adv-x="170" d="M102 583h-34l-2 172h38z" />
<glyph unicode="(" horiz-adv-x="329" d="M320 725q-16 -11 -38.5 -31.5t-58.5 -65.5t-64.5 -97.5t-49.5 -130.5t-21 -161q0 -103 30 -195t74 -152.5t75 -92.5t53 -47l-17 -24q-22 12 -48.5 33t-65.5 65.5t-69 98.5t-52 137t-22 176t22 176.5t52 137.5t69 98.5t65.5 65.5t48.5 33z" />
<glyph unicode=")" horiz-adv-x="329" d="M9 725l17 24q22 -12 48.5 -33t65.5 -65.5t69 -98.5t52 -137.5t22 -176.5t-22 -176t-52 -137t-69 -98.5t-65.5 -65.5t-48.5 -33l-17 24q22 15 53 47t75 92.5t74 152.5t30 195q0 83 -21 161t-49.5 130.5t-64.5 97.5t-58.5 65.5t-38.5 31.5z" />
<glyph unicode="*" horiz-adv-x="388" d="M181 718h25l3 -123l101 55l12 -21l-103 -63l77 -97l-19 -16l-83 94l-83 -94l-19 16l76 96l-103 64l12 21l101 -55z" />
<glyph unicode="+" horiz-adv-x="542" d="M296 74h-38v224h-206v36h206v229h38v-229h195v-36h-195v-224z" />
<glyph unicode="," horiz-adv-x="226" d="M92 -90l-6 19q37 17 37 60l-2 10q-5 -6 -20 -6q-11 0 -19.5 9t-8.5 24q0 14 10 23.5t24 9.5q41 0 41 -56q0 -69 -56 -93z" />
<glyph unicode="-" horiz-adv-x="463" d="M391 274h-319v36h319v-36z" />
<glyph unicode="." horiz-adv-x="212" d="M140 27q0 -14 -10 -24t-24 -10t-24 10t-10 24t10 24t24 10t24 -10t10 -24z" />
<glyph unicode="/" horiz-adv-x="366" d="M69 -95l-38 12l266 880l38 -12z" />
<glyph unicode="0" horiz-adv-x="661" d="M602 338q0 -171 -72.5 -258t-198.5 -87t-198.5 87t-72.5 258q0 176 72.5 266t198.5 90t198.5 -90t72.5 -266zM104 338q0 -307 227 -307t227 307q0 161 -60.5 239.5t-166.5 78.5t-166.5 -78.5t-60.5 -239.5z" />
<glyph unicode="1" horiz-adv-x="459" d="M438 0h-383v25l180 11v590l-165 -96l-20 28l192 130h34v-652l162 -11v-25z" />
<glyph unicode="2" horiz-adv-x="576" d="M521 0h-453v28q8 4 22.5 11t56.5 31t79.5 50t84 67t79.5 83t56 96.5t23 109.5q0 81 -49.5 130.5t-137.5 49.5q-92 0 -138.5 -47t-46.5 -117l2 -21l-43 5q-3 11 -3 26q0 75 57 133.5t172 58.5q112 0 171.5 -59t59.5 -159q0 -57 -20.5 -111.5t-53 -97t-71.5 -80.5t-78 -65 t-71.5 -47t-52.5 -29l-21 -10h376v-36z" />
<glyph unicode="3" horiz-adv-x="590" d="M396 360v-5q6 -1 15 -3t32.5 -12.5t41.5 -26.5t32.5 -47t14.5 -71q0 -94 -67.5 -148t-186.5 -54q-48 0 -89 12.5t-66.5 30.5t-43.5 35.5t-25 30.5l-8 12l27 25q3 -4 8 -11.5t24 -26t41 -33t57.5 -26t74.5 -11.5q101 0 158.5 45t57.5 120q0 64 -48 101.5t-145 37.5h-59v36 h59q24 0 50 6t54.5 20.5t47 44t18.5 70.5q0 62 -46.5 103t-139.5 41q-82 0 -121 -41t-39 -90l4 -31l-41 5q-4 11 -4 31q0 72 58 118t143 46q114 0 169.5 -52.5t55.5 -129.5q0 -34 -11.5 -62.5t-28.5 -44t-34 -26.5t-28 -15z" />
<glyph unicode="4" horiz-adv-x="555" d="M424 0h-41v203h-350v37l341 448h50v-452h94v-33h-94v-203zM383 236v405l-306 -405h306z" />
<glyph unicode="5" horiz-adv-x="582" d="M283 -7q-48 0 -90 11.5t-68.5 28.5t-46 34t-27.5 29l-8 11l27 25q3 -4 8.5 -11t25 -24.5t42 -30.5t59.5 -24t78 -11q98 0 153.5 47.5t55.5 138.5q0 79 -57.5 126.5t-147.5 47.5q-80 0 -170 -50l-26 14l30 333h382v-36h-346l-24 -268q7 5 19.5 11.5t53 18t82.5 11.5 q113 0 177.5 -57t64.5 -152q0 -107 -67.5 -165t-179.5 -58z" />
<glyph unicode="6" horiz-adv-x="609" d="M330 -7q-126 0 -198.5 87t-72.5 258q0 176 75.5 266t205.5 90q48 0 92 -15t64 -29l20 -15l-27 -30q-6 6 -18 14.5t-51 22.5t-80 14q-109 0 -172 -75.5t-65 -230.5q86 70 232 70q106 0 166.5 -56.5t60.5 -152.5q0 -97 -64.5 -157.5t-167.5 -60.5zM334 382 q-60 0 -116 -18.5t-78 -33t-37 -27.5q12 -272 227 -272q89 0 141.5 50.5t52.5 130.5q0 73 -54 121.5t-136 48.5z" />
<glyph unicode="7" horiz-adv-x="520" d="M234 -1h-41l256 632l12 21h-380l-7 -112h-36l2 148h463v-23z" />
<glyph unicode="8" horiz-adv-x="595" d="M361 363v-2q79 -23 113 -49q64 -47 64 -132q0 -86 -66 -136.5t-174 -50.5q-109 0 -175 50.5t-66 136.5q0 48 18 84t47 56t53 29.5t48 14.5q-66 24 -102.5 62t-36.5 103q0 67 53.5 115.5t160.5 49.5q107 0 160 -49t53 -116q0 -68 -52 -115.5t-98 -50.5zM500 181 q0 32 -12.5 57t-28 40.5t-47.5 30t-52 21t-61 18.5q-29 -3 -56.5 -10.5t-64.5 -24.5t-60 -51t-23 -81q0 -68 54 -109t148 -41t148.5 41t54.5 109zM123 532q0 -123 182 -157q66 12 116.5 54t50.5 103q0 51 -45 87.5t-129 36.5q-84 -1 -129.5 -37t-45.5 -87z" />
<glyph unicode="9" horiz-adv-x="609" d="M279 694q126 0 198.5 -87t72.5 -258q0 -176 -75.5 -266t-205.5 -90q-48 0 -92 14.5t-64 29.5l-20 15l27 30q6 -6 18 -14.5t51 -22.5t80 -14q108 0 171 75t66 230q-88 -69 -232 -69q-106 0 -166.5 56.5t-60.5 152.5q0 97 64.5 157.5t167.5 60.5zM275 305q60 0 116 18.5 t77.5 32.5t36.5 27q-12 273 -226 273q-89 0 -141.5 -50.5t-52.5 -130.5q0 -73 54 -121.5t136 -48.5z" />
<glyph unicode=":" horiz-adv-x="212" d="M140 27q0 -14 -10 -24t-24 -10t-24 10t-10 24t10 24t24 10t24 -10t10 -24zM140 440q0 -14 -10 -24t-24 -10t-24 10t-10 24t10 24t24 10t24 -10t10 -24z" />
<glyph unicode=";" horiz-adv-x="228" d="M97 -90l-6 19q37 17 37 60l-2 10q-5 -6 -20 -6q-11 0 -19.5 9t-8.5 24q0 14 10 23.5t24 9.5q41 0 41 -56q0 -69 -56 -93zM144 440q0 -14 -10 -24t-24 -10t-24 10t-10 24t10 24t24 10t24 -10t10 -24z" />
<glyph unicode="&#x3c;" horiz-adv-x="382" d="M311 566l-200 -194l200 -194l-28 -29l-220 207v32l220 207z" />
<glyph unicode="=" horiz-adv-x="503" d="M429 348h-355v36h355v-36zM429 113h-355v36h355v-36z" />
<glyph unicode="&#x3e;" horiz-adv-x="382" d="M271 372l-200 194l28 29l220 -207v-32l-220 -207l-28 29z" />
<glyph unicode="?" horiz-adv-x="498" d="M250 183h-35l-6 139q27 0 60.5 14.5t66.5 41t55 71t22 96.5q0 76 -44 123t-123 47q-82 0 -123.5 -47t-41.5 -117l2 -21l-43 5q-3 11 -3 26q0 34 11.5 66.5t35.5 61.5t66 46.5t96 17.5q98 0 154.5 -57t56.5 -151q0 -54 -21 -101t-53.5 -76t-65.5 -47t-62 -24zM267 27 q0 -14 -10 -24t-24 -10t-24 10t-10 24t10 24t24 10t24 -10t10 -24z" />
<glyph unicode="@" horiz-adv-x="1026" d="M661 70v8h-2l-6 -9t-18.5 -20.5t-32 -26t-48 -20.5t-64.5 -9q-91 0 -156 65.5t-65 174.5q0 111 62.5 176t158.5 65q32 0 61 -8.5t47.5 -20t32 -23.5t19.5 -20l6 -9h3l9 74h30v-394q0 -48 43 -48q90 0 139.5 69.5t49.5 201.5q0 83 -25.5 155t-75.5 128.5t-130.5 88.5 t-183.5 32q-128 0 -227 -62.5t-149 -161.5t-50 -215q0 -84 24.5 -155t58 -115t80 -79t79.5 -50.5t68 -27.5l-19 -28q-102 41 -158 82q-172 129 -172 373q0 125 55 231.5t163 173.5t247 67q111 0 198.5 -34.5t142.5 -94.5t84 -138.5t29 -169.5q0 -154 -66.5 -228.5 t-169.5 -74.5q-33 0 -52.5 21.5t-19.5 55.5zM490 26q50 0 90 19.5t54.5 36t24.5 33.5v228q-26 48 -72.5 73t-96.5 25q-74 0 -128 -54t-54 -154q0 -98 56.5 -152.5t125.5 -54.5z" />
<glyph unicode="A" horiz-adv-x="717" d="M390 688l258 -655l78 -8v-25h-206v25l85 8l-85 214h-324l-84 -214l85 -8v-25h-204v25l78 8l245 622l-78 8v25h152zM345 623l-135 -340h296l-134 340l-12 31h-3q-8 -21 -12 -31z" />
<glyph unicode="B" horiz-adv-x="662" d="M361 0h-315v25l94 8v622l-94 8v25h315q103 0 154 -48t51 -127q0 -105 -108 -149v-3q15 -3 30 -7t38.5 -16t40.5 -28.5t30 -46.5t13 -67q0 -92 -64.5 -144t-184.5 -52zM181 36h180q99 0 153.5 41t54.5 118q0 73 -52.5 109t-145.5 36h-190v-304zM181 376h193q57 1 104 35.5 t47 100.5q0 41 -15 70.5t-40.5 43.5t-52 20t-56.5 6h-180v-276z" />
<glyph unicode="C" horiz-adv-x="664" d="M608 447l-43 -9q2 20 2 36q0 90 -61 136t-147 46q-120 0 -188.5 -78.5t-68.5 -239.5q0 -307 257 -307q93 0 148 40.5t55 127.5v17l44 -11v-6q0 -105 -67.5 -155.5t-179.5 -50.5q-140 0 -220.5 87t-80.5 258q0 176 81 266t220 90q103 0 177.5 -57t74.5 -163z" />
<glyph unicode="D" horiz-adv-x="725" d="M181 36h142q303 0 303 302q0 153 -74 233.5t-242 80.5h-129v-616zM323 0h-277v25l94 8v622l-94 8v25h264q181 0 269 -86.5t88 -263.5q0 -338 -344 -338z" />
<glyph unicode="E" horiz-adv-x="618" d="M559 0h-513v25l94 8v622l-94 8v25h513l2 -147h-36l-7 111h-337v-286h294v-36h-294v-294h337l7 110h36z" />
<glyph unicode="F" horiz-adv-x="597" d="M344 0h-298v25l94 8v622l-94 8v25h513l2 -147h-36l-7 111h-337v-286h294v-36h-294v-297l163 -8v-25z" />
<glyph unicode="G" horiz-adv-x="674" d="M608 457l-43 -9q2 20 2 36q0 84 -61 128t-147 44q-120 0 -188.5 -78.5t-68.5 -239.5q0 -307 257 -307q96 0 152 47t56 151v54h-231v36h275v-90q0 -121 -68.5 -178.5t-183.5 -57.5q-140 0 -220.5 87t-80.5 258q0 176 81 266t220 90q103 0 177.5 -54t74.5 -156z" />
<glyph unicode="H" horiz-adv-x="804" d="M758 0h-230v25l94 8v284h-441v-284l95 -8v-25h-230v25l94 8v622l-94 8v25h230v-25l-95 -8v-302h441v302l-94 8v25h230v-25l-95 -8v-622l95 -8v-25z" />
<glyph unicode="I" horiz-adv-x="322" d="M276 0h-230v25l94 8v622l-94 8v25h230v-25l-95 -8v-622l95 -8v-25z" />
<glyph unicode="J" horiz-adv-x="315" d="M141 -3v658l-94 8v25h230v-25l-95 -8v-649q0 -213 -143 -243l-12 39q54 19 84 63t30 132z" />
<glyph unicode="K" horiz-adv-x="709" d="M181 655v-306h165l206 306l-90 8v25h230v-25l-90 -8l-222 -322v-6q26 -10 55.5 -45.5t55 -77.5t52.5 -83t57.5 -68.5t59.5 -27.5l24 2v-31q-9 -3 -29 -3q-42 0 -81 33t-69.5 80t-59.5 94t-62 80t-66 33h-136v-280l95 -8v-25h-230v25l94 8v622l-94 8v25h230v-25z" />
<glyph unicode="L" horiz-adv-x="573" d="M544 0h-498v25l94 8v622l-94 8v25h229v-25l-94 -8v-619h322l7 120h36z" />
<glyph unicode="M" horiz-adv-x="930" d="M445 54l-240 578h-1l-35 -599l95 -8v-25h-230v25l94 8l35 622l-94 8v25h159l189 -455l48 -127h3q34 94 48 127l189 455h156v-25l-94 -8l35 -622l94 -8v-25h-230v25l95 8l-35 599h-1l-240 -578h-40z" />
<glyph unicode="N" horiz-adv-x="811" d="M678 0h-54l-441 636h-2v-603l95 -8v-25h-230v25l94 8v622l-94 8v25h148l441 -636h2v603l-94 8v25h230v-25l-95 -8v-655z" />
<glyph unicode="O" d="M650 338q0 -171 -79.5 -258t-216.5 -87t-216.5 87t-79.5 258q0 176 79.5 266t216.5 90t216.5 -90t79.5 -266zM102 338q0 -307 252 -307t252 307q0 161 -67 239.5t-185 78.5t-185 -78.5t-67 -239.5z" />
<glyph unicode="P" horiz-adv-x="616" d="M298 0h-252v25l94 8v622l-94 8v25h292q103 0 169 -53.5t66 -154.5q0 -103 -63 -157.5t-182 -54.5h-147v-235l117 -8v-25zM181 304h152q199 0 199 175q0 89 -57 131t-142 42h-152v-348z" />
<glyph unicode="Q" d="M650 338q0 -165 -74.5 -252t-204.5 -92q9 -121 179 -148l-14 -37q-95 11 -147.5 65t-54.5 120q-129 5 -202.5 92t-73.5 252q0 176 79.5 266t216.5 90t216.5 -90t79.5 -266zM102 338q0 -307 252 -307t252 307q0 161 -67 239.5t-185 78.5t-185 -78.5t-67 -239.5z" />
<glyph unicode="R" horiz-adv-x="657" d="M588 480q0 -104 -53 -152t-168 -58v-1q25 -9 56.5 -49t57 -83t59 -77.5t61.5 -34.5l24 2v-31q-9 -3 -29 -3q-34 0 -68.5 28.5t-62.5 68.5t-55.5 80.5t-57.5 69t-58 28.5h-113v-235l117 -8v-25h-252v25l94 8v622l-94 8v25h307q103 0 169 -53.5t66 -154.5zM181 304h182 q184 0 184 175q0 89 -57 131t-142 42h-167v-348z" />
<glyph unicode="S" horiz-adv-x="577" d="M61 163q0 10 1.5 20t3.5 15l1 5h41q-6 -16 -6 -34q0 -62 50 -100t130 -38q96 0 149 34.5t53 101.5q0 44 -23.5 75.5t-61 49.5t-83 31.5t-91 28t-83 34t-61 54.5t-23.5 83q0 72 61 121.5t163 49.5q100 0 160.5 -46t60.5 -125l-6 -35l-40 -5q5 24 5 35q0 57 -43.5 97.5 t-136.5 40.5q-81 0 -131.5 -38t-50.5 -95q0 -39 23.5 -67t61 -44t83 -29.5t91 -29t83 -36.5t61 -58t23.5 -88q0 -78 -61 -128t-183 -50q-104 0 -162.5 49.5t-58.5 120.5z" />
<glyph unicode="T" horiz-adv-x="641" d="M437 0h-231v25l95 8v619h-231l-6 -111h-37l2 147h583l2 -147h-36l-7 111h-229v-619l95 -8v-25z" />
<glyph unicode="U" horiz-adv-x="755" d="M586 251v404l-94 8v25h230v-25l-95 -8v-395q0 -132 -63 -199.5t-186 -67.5t-186.5 67.5t-63.5 199.5v395l-94 8v25h230v-25l-95 -8v-398q0 -109 48.5 -167.5t160.5 -58.5q208 0 208 220z" />
<glyph unicode="V" horiz-adv-x="716" d="M385 0h-54l-259 655l-78 8v25h207v-25l-86 -8q218 -549 230 -582l13 -39h2l13 39l230 582l-86 8v25h205v-25l-78 -8z" />
<glyph unicode="W" horiz-adv-x="998" d="M340 0h-52l-214 655l-78 8v25h207v-25l-86 -8q173 -549 185 -582l13 -39h3l8 39l160 615h30q151 -581 158 -615l8 -39h3l13 39l185 582l-86 8v25h205v-25l-78 -8l-214 -655h-52l-153 593q-3 9 -3 18h-4q0 -6 -3 -18z" />
<glyph unicode="X" horiz-adv-x="725" d="M249 0h-228v25l91 8l224 307l-226 315l-89 8v25h231v-25l-94 -8l206 -287l205 287l-94 8v25h229v-25l-89 -8l-226 -315l224 -307l91 -8v-25h-230v25l91 8l-203 278l-204 -278l91 -8v-25z" />
<glyph unicode="Y" horiz-adv-x="645" d="M343 276v-243l95 -8v-25h-230v25l94 8v243l-229 379l-77 8v25h207v-25l-87 -8l205 -338h5l205 338l-87 8v25h205v-25l-77 -8z" />
<glyph unicode="Z" horiz-adv-x="622" d="M567 0h-513v25l458 627h-417l-7 -111h-36l2 147h515v-25l-458 -627h415l7 111h36z" />
<glyph unicode="[" horiz-adv-x="291" d="M273 -290h-178v1055h178v-38h-138v-979h138v-38z" />
<glyph unicode="\" horiz-adv-x="366" d="M335 -83l-38 -12l-266 880l38 12z" />
<glyph unicode="]" horiz-adv-x="290" d="M195 -290h-178v38h138v979h-138v38h178v-1055z" />
<glyph unicode="^" horiz-adv-x="406" d="M317 572l-114 149l-114 -149h-25l106 183h66l106 -183h-25z" />
<glyph unicode="_" horiz-adv-x="551" d="M479 -56h-407v36h407v-36z" />
<glyph unicode="`" horiz-adv-x="198" d="M156 536l-135 183h59l101 -183h-25z" />
<glyph unicode="a" horiz-adv-x="578" d="M437 393h3l9 74h30v-394q0 -48 33 -48l25 5v-31q-11 -6 -34 -6q-27 0 -44 18.5t-17 57.5v9h-2l-6 -9t-18.5 -20.5t-32 -26t-48 -20.5t-64.5 -9q-91 0 -156 65.5t-65 174.5q0 111 62.5 176t158.5 65q32 0 61 -8.5t47.5 -20t32 -23.5t19.5 -20zM271 26q50 0 90 19.5 t54.5 36t24.5 33.5v228q-26 48 -72.5 73t-96.5 25q-74 0 -128 -54t-54 -154q0 -98 56.5 -152.5t125.5 -54.5z" />
<glyph unicode="b" horiz-adv-x="570" d="M133 72h-3l-9 -72h-30v713l-73 8v25h112v-313l-2 -34h2q2 3 6 8t18.5 18t32 23t48 18t64.5 8q91 0 156 -65.5t65 -174.5q0 -111 -62.5 -176t-158.5 -65q-32 0 -61 8t-47.5 19.5t-32 23.5t-19.5 20zM299 441q-39 0 -71 -10.5t-52 -27t-30 -28.5t-16 -23v-229 q25 -47 72 -72t97 -25q74 0 128 54t54 154q0 98 -56.5 152.5t-125.5 54.5z" />
<glyph unicode="c" horiz-adv-x="517" d="M468 277l-37 -4q3 13 3 31q0 64 -39.5 100.5t-117.5 36.5q-86 0 -136.5 -50t-50.5 -157q0 -100 56.5 -154t135.5 -54q51 0 91 14t55 28l14 14l15 -27q-2 -3 -6 -7t-19 -14.5t-33.5 -19t-49.5 -15t-67 -6.5q-101 0 -166 65t-65 176q0 117 60.5 178.5t165.5 61.5 q99 0 147.5 -46t48.5 -121z" />
<glyph unicode="d" horiz-adv-x="580" d="M449 0l-9 72h-3q-2 -3 -6 -8.5t-19 -19t-32.5 -24t-47 -19t-61.5 -8.5q-96 0 -158.5 65t-62.5 176q0 109 65 174.5t156 65.5q55 0 97 -19t57 -37l15 -19h2q-2 27 -2 34v280l-73 8v25h112v-713l73 -8v-25h-103zM271 26q50 0 96.5 25t72.5 72v229q-6 11 -15.5 22.5 t-29.5 28.5t-52.5 27.5t-71.5 10.5q-69 0 -125.5 -54.5t-56.5 -152.5q0 -100 54 -154t128 -54z" />
<glyph unicode="e" horiz-adv-x="526" d="M479 227h-390q2 -97 58.5 -149t133.5 -52q51 0 91 14t54 28l15 14l15 -27q-2 -3 -6 -7t-19 -14.5t-33.5 -19t-49.5 -15t-67 -6.5q-101 0 -166 65t-65 176q0 110 65.5 175t165.5 65q82 0 141.5 -57t59.5 -153zM281 441q-74 0 -129.5 -48t-62.5 -133h354v4q0 89 -49 133 t-113 44z" />
<glyph unicode="f" horiz-adv-x="320" d="M254 0h-215v25l73 8v401h-76v33h76v140q0 72 36 110t98 38q20 0 37 -3.5t25 -7.5l7 -3v-33q-30 15 -67 15q-97 0 -97 -118v-138h146v-33h-146v-401l103 -8v-25z" />
<glyph unicode="g" horiz-adv-x="581" d="M441 -52v86l2 34h-2q-2 -3 -6 -8t-18.5 -18t-32 -23t-48 -18t-64.5 -8q-91 0 -156 65.5t-65 174.5q0 111 62.5 176t158.5 65q32 0 61 -8.5t47.5 -20t32 -23.5t19.5 -20l6 -9h3l9 74h103v-25l-73 -8v-486q0 -120 -62.5 -175.5t-168.5 -55.5q-39 0 -73 7t-54.5 17.5 t-35.5 21t-21 17.5l-6 7l19 26q2 -3 5.5 -7t18 -15t32.5 -19t48.5 -15t66.5 -7q82 0 137 46.5t55 151.5zM272 26q50 0 90 19.5t54.5 36t24.5 33.5v228q-26 48 -72.5 73t-96.5 25q-74 0 -128 -54t-54 -154q0 -98 56.5 -152.5t125.5 -54.5z" />
<glyph unicode="h" horiz-adv-x="581" d="M139 366q1 4 3.5 11.5t14.5 26t29 33t49.5 26t72.5 11.5q89 0 133.5 -50t44.5 -134v-257l73 -8v-25h-112v287q0 69 -33 110t-106 41q-44 0 -78 -15.5t-52 -39t-26 -39t-11 -28.5v-283l73 -8v-25h-185v25l73 8v680l-73 8v25h112v-272l-4 -108h2z" />
<glyph unicode="i" horiz-adv-x="259" d="M153 467v-434l73 -10v-23h-185v25l73 8v401l-73 8v25h112zM171 661q0 -16 -11 -27t-28 -11q-16 0 -27 10.5t-11 27.5t11 28t27 11t27.5 -11t11.5 -28z" />
<glyph unicode="j" horiz-adv-x="236" d="M106 -117v551l-73 8v25h112v-586q0 -67 -36 -104t-95 -60l-14 37q47 19 76.5 48t29.5 81zM164 661q0 -16 -11 -27t-28 -11t-27.5 10.5t-10.5 27.5t11 28t27 11q17 0 28 -11t11 -28z" />
<glyph unicode="k" horiz-adv-x="561" d="M141 746v-388q2 5 6 12.5t20 27.5t35 35.5t53 28t73 12.5q81 0 122.5 -40t41.5 -105q0 -56 -40.5 -96t-98.5 -55l119 -145l69 -8v-25h-86l-141 171h-173v-138l73 -8v-25h-185v25l73 8v680l-73 8v25h112zM141 204h156q58 0 107 34.5t49 89.5q0 51 -34 82t-91 31 q-37 0 -69.5 -14t-52.5 -32t-36 -40t-22 -34t-7 -17v-100z" />
<glyph unicode="l" horiz-adv-x="251" d="M145 746v-713l73 -8v-25h-185v25l73 8v680l-73 8v25h112z" />
<glyph unicode="m" horiz-adv-x="911" d="M147 366q1 4 3.5 11.5t14.5 26t29 33t49.5 26t72.5 11.5q119 0 160 -91q6 14 15.5 27t28 29t49.5 25.5t70 9.5q89 0 133.5 -50t44.5 -134v-257l73 -8v-25h-112v287q0 69 -33 110t-106 41q-106 0 -152 -86q7 -27 7 -62v-257l73 -8v-25h-112v287q0 69 -33 110t-106 41 q-44 0 -78 -15.5t-52 -39t-26 -39t-11 -28.5v-283l73 -8v-25h-185v25l73 8v401l-73 8v25h105l3 -101h2z" />
<glyph unicode="n" horiz-adv-x="588" d="M147 366q1 4 3.5 11.5t14.5 26t29 33t49.5 26t72.5 11.5q89 0 133.5 -50t44.5 -134v-257l73 -8v-25h-112v287q0 69 -33 110t-106 41q-44 0 -78 -15.5t-52 -39t-26 -39t-11 -28.5v-283l73 -8v-25h-185v25l73 8v401l-73 8v25h105l3 -101h2z" />
<glyph unicode="o" horiz-adv-x="552" d="M502 234q0 -111 -64 -176t-162 -65t-162 65t-64 176q0 109 66.5 174.5t159.5 65.5t159.5 -65.5t66.5 -174.5zM276 26q76 0 131.5 54t55.5 154q0 98 -58 152.5t-129 54.5t-129 -54.5t-58 -152.5q0 -100 55 -154t132 -54z" />
<glyph unicode="p" horiz-adv-x="581" d="M101 -245v679l-73 8v25h103l9 -74h3q2 3 6 8.5t19 19.5t32.5 24.5t47 19.5t61.5 9q96 0 158.5 -65t62.5 -176q0 -109 -65 -174.5t-156 -65.5q-34 0 -64.5 7.5t-48.5 18.5t-31.5 22.5t-18.5 18.5l-6 8h-2q2 -27 2 -34v-287h73v-25h-185v25zM309 441q-51 0 -97.5 -25 t-71.5 -73v-228q8 -16 22.5 -32.5t54.5 -36.5t92 -20q69 0 125.5 54.5t56.5 152.5q0 100 -54 154t-128 54z" />
<glyph unicode="q" horiz-adv-x="571" d="M438 395h3l9 72h30v-712l73 -8v-25h-184v25l72 8v279l2 34h-2q-2 -3 -6 -8t-18.5 -18t-32 -23t-48 -18t-64.5 -8q-91 0 -156 65.5t-65 174.5q0 111 62.5 176t158.5 65q51 0 92.5 -20t57.5 -40zM272 26q50 0 90 19.5t54.5 36t24.5 33.5v228q-26 48 -72.5 73t-96.5 25 q-74 0 -128 -54t-54 -154q0 -98 56.5 -152.5t125.5 -54.5z" />
<glyph unicode="r" horiz-adv-x="356" d="M342 469v-38q-21 7 -51 7q-37 0 -65 -18.5t-43.5 -48t-22.5 -49.5t-11 -38v-251l73 -8v-25h-185v25l73 8v401l-73 8v25h105l3 -126h2q1 5 3 14t12 32t24.5 40.5t42 32t62.5 14.5q24 0 51 -5z" />
<glyph unicode="s" horiz-adv-x="471" d="M234 -7q-94 0 -140.5 37.5t-46.5 92.5l3 27l38 4q-3 -8 -3 -16q0 -48 38 -80t111 -32q72 0 109.5 25.5t37.5 71.5q0 44 -38 65t-104 31q-29 5 -51.5 10t-47.5 15t-41 23t-26.5 34.5t-10.5 48.5q0 59 49.5 91.5t119.5 32.5q91 0 134.5 -34.5t43.5 -91.5l-5 -34l-38 -3 q5 14 5 30q0 100 -140 100q-52 0 -91 -24t-39 -67q0 -29 22 -49t48.5 -28t69.5 -16q30 -5 52.5 -10.5t48 -16t41.5 -23.5t26.5 -34t10.5 -47q0 -59 -46 -96t-140 -37z" />
<glyph unicode="t" horiz-adv-x="316" d="M110 588h30v-121h146v-33h-146v-301q0 -55 22 -81.5t60 -26.5q20 0 40.5 3.5t31.5 7.5l10 4v-33q-31 -14 -84 -14q-55 0 -87 35t-32 103v303h-76v33h76z" />
<glyph unicode="u" horiz-adv-x="580" d="M442 101q-1 -4 -3.5 -11.5t-14.5 -26t-29 -33t-49.5 -26t-72.5 -11.5q-89 0 -133.5 50t-44.5 134v257l-73 8v25h112v-287q0 -69 33 -110t106 -41q43 0 77 15t52 38.5t26 39t12 28.5v284l-73 8v25h112v-434l73 -8v-25h-105l-3 101h-2z" />
<glyph unicode="v" horiz-adv-x="552" d="M290 0h-28l-186 434l-69 8v25h173v-25l-63 -8l158 -372h3l158 372l-63 8v25h172v-25l-69 -8z" />
<glyph unicode="w" horiz-adv-x="747" d="M258 0h-30l-151 434l-69 8v25h173v-25l-63 -8l123 -372h3l110 405h38l113 -405h2l123 372l-63 8v25h172v-25l-69 -8l-151 -434h-30l-115 410h-3z" />
<glyph unicode="x" horiz-adv-x="539" d="M200 0h-181v25l62 8l162 201l-156 200l-68 8v25h182v-25l-68 -8l136 -175l137 175l-68 8v25h181v-25l-68 -8l-157 -199l164 -202l62 -8v-25h-182v25l75 8l-144 177l-144 -177l75 -8v-25z" />
<glyph unicode="y" horiz-adv-x="571" d="M441 -70v161h-2q-1 -4 -3.5 -10.5t-15 -23.5t-29 -30t-47.5 -23.5t-70 -10.5q-89 0 -133.5 50t-44.5 134v257l-73 8v25h112v-287q0 -69 33 -110t106 -41q43 0 77 15t52 38.5t26 39t12 28.5v284l-73 8v25h112v-537q0 -216 -221 -216q-36 0 -67 7t-50 17.5t-33 21t-19 17.5 l-6 7l19 26q2 -3 5.5 -7t16.5 -15t29.5 -19t44.5 -15t60 -7q182 0 182 183z" />
<glyph unicode="z" horiz-adv-x="514" d="M462 0h-409v43l359 391h-320l-7 -98h-32v131h409v-32l-368 -402h329l7 104h32v-137z" />
<glyph unicode="{" horiz-adv-x="268" d="M237 -250v-37h-11q-51 0 -83.5 30t-32.5 97v256q0 52 -25 88.5t-47 36.5h-8v37h8q22 0 47 36t25 89v252q0 67 33 98.5t83 31.5h11v-37h-11q-76 0 -76 -93v-251q0 -40 -17 -75t-34 -51l-17 -15v-8q8 -6 19 -17t30 -47t19 -76v-255q0 -46 18 -68t58 -22h11z" />
<glyph unicode="|" horiz-adv-x="231" d="M136 -286h-41v1046h41v-1046z" />
<glyph unicode="}" horiz-adv-x="268" d="M31 -287v37h11q40 0 58 22t18 68v255q0 40 17 75t34 50l17 15v8q-8 6 -19 17t-30 47.5t-19 76.5v251q0 93 -76 93h-11v37h11q50 0 83 -31.5t33 -98.5v-252q0 -53 25 -89t47 -36h8v-37h-8q-22 0 -47 -36.5t-25 -88.5v-256q0 -67 -32.5 -97t-83.5 -30h-11z" />
<glyph unicode="~" horiz-adv-x="501" d="M333 442q-33 0 -85 28.5t-77 28.5q-38 0 -70 -48l-19 12q11 29 33.5 48t55.5 19t85 -28.5t77 -28.5q38 0 70 48l19 -12q-11 -29 -33.5 -48t-55.5 -19z" />
<glyph unicode="&#xa1;" horiz-adv-x="221" d="M93 319h35l6 -598h-47zM142 442q0 -14 -9 -23t-23 -9t-23 9t-9 23t9 23t23 9t23 -9t9 -23z" />
<glyph unicode="&#xa2;" horiz-adv-x="535" d="M475 367l-37 -4q3 13 3 31q0 64 -39.5 100.5t-117.5 36.5q-86 0 -136.5 -50t-50.5 -157q0 -100 56.5 -154t135.5 -54q51 0 91 14t54 28l15 14l15 -27q-2 -2 -5.5 -6t-17 -14t-30 -18t-44.5 -15t-60 -9v-84h-41v85q-92 8 -150 72t-58 168q0 112 55 173t153 66v73h41v-73 q87 -5 130 -50.5t43 -115.5z" />
<glyph unicode="&#xa3;" horiz-adv-x="587" d="M426 202h-194q-7 -51 -43 -97.5t-78 -68.5h417v-36h-472v37q36 15 82.5 62t54.5 103h-130v37h129q-4 27 -22 59t-37 57t-34.5 61t-15.5 73q0 100 63 152.5t161 52.5q97 0 156 -45.5t59 -128.5l-3 -21l-39 -5q3 11 3 22q0 62 -48 102t-128 40q-78 0 -131 -41t-53 -128 q0 -43 25 -86.5t53 -85.5t32 -78h193v-37z" />
<glyph unicode="&#xa4;" horiz-adv-x="657" d="M581 75l-27 -23l-78 92q-65 -51 -149 -51t-147 48l-75 -89l-27 23l76 90q-68 71 -68 184q0 109 65 177l-73 88l27 23l73 -86q65 48 149 48q86 0 151 -51l76 89l27 -23l-77 -91q63 -69 63 -174q0 -110 -66 -181zM327 126q82 0 141.5 61t59.5 160q0 98 -60.5 158.5 t-140.5 60.5t-141 -60.5t-61 -158.5q0 -99 60 -160t142 -61z" />
<glyph unicode="&#xa5;" horiz-adv-x="711" d="M196 239h139v37l-40 65h-133v36h112l-168 278l-77 8v25h207v-25l-87 -8l205 -338h5l205 338l-87 8v25h205v-25l-77 -8l-168 -278h114v-36h-136l-39 -65v-37h139v-36h-139v-170l95 -8v-25h-230v25l94 8v170h-139v36z" />
<glyph unicode="&#xa6;" horiz-adv-x="235" d="M138 308h-41v452h41v-452zM138 -286h-41v454h41v-454z" />
<glyph unicode="&#xa7;" horiz-adv-x="549" d="M491 171q0 -88 -72 -136q72 -51 72 -143q0 -78 -56 -128t-168 -50q-95 0 -148 49.5t-53 120.5q0 10 1.5 20t2.5 15l2 5h41q-6 -16 -6 -34q0 -62 44.5 -100t115.5 -38q87 0 134.5 34.5t47.5 101.5q0 44 -21.5 75.5t-55.5 49.5t-75 31.5t-82 28t-75 34t-55.5 54.5t-21.5 83 q0 42 22 78t62 59q-84 48 -84 142q0 73 55 122t149 49q91 0 146 -46t55 -125l-6 -35l-40 -5q5 24 5 35q0 57 -39 97.5t-121 40.5q-72 0 -117 -38t-45 -95q0 -39 21.5 -67t55.5 -44t75 -29.5t82 -29t75 -36.5t55.5 -58t21.5 -88zM449 167q0 38 -14.5 66.5t-45 47.5 t-56.5 29.5t-72 25.5t-68 24q-41 -17 -64.5 -48t-23.5 -68q0 -36 17 -62t48.5 -43t63.5 -28t75.5 -26t71.5 -29q68 36 68 111z" />
<glyph unicode="&#xa8;" horiz-adv-x="283" d="M104 565q0 -14 -10 -24t-24 -10t-24 10t-10 24t10 24t24 10t24 -10t10 -24zM246 565q0 -14 -10 -24t-24 -10t-24 10t-10 24t10 24t24 10t24 -10t10 -24z" />
<glyph unicode="&#xa9;" horiz-adv-x="714" d="M654 348q0 -121 -88 -209t-209 -88t-209 88t-88 209t88 209t209 88t209 -88t88 -209zM619 348q0 109 -76.5 185.5t-185.5 76.5t-185.5 -76.5t-76.5 -185.5t76.5 -185.5t185.5 -76.5t185.5 76.5t76.5 185.5zM477 271l26 -16q-44 -80 -143 -80q-72 0 -120.5 47.5 t-48.5 128.5t48.5 128.5t120.5 47.5q99 0 143 -80l-26 -16q-40 62 -117 62q-56 0 -93.5 -36t-37.5 -105q0 -70 37.5 -106.5t93.5 -36.5q28 0 49 5.5t34.5 17.5t19 18.5t14.5 20.5z" />
<glyph unicode="&#xaa;" horiz-adv-x="402" d="M281 671h1l10 45h18v-232q0 -29 20 -29l15 3v-23q-7 -4 -21 -4q-40 0 -40 46v5h-2q-3 -6 -9.5 -14.5t-31.5 -22.5t-56 -14q-55 0 -94 39.5t-39 104.5q0 69 37.5 109t95.5 40q29 0 53 -13t34 -27zM185 455q64 0 97 53v130q-15 30 -42 46t-55 16q-43 0 -74 -32.5t-31 -92.5 q0 -57 32.5 -88.5t72.5 -31.5z" />
<glyph unicode="&#xab;" horiz-adv-x="443" d="M86 240l139 -166l-27 -23l-144 168v42l144 168l27 -23zM249 240l139 -166l-27 -23l-144 168v42l144 168l27 -23z" />
<glyph unicode="&#xac;" horiz-adv-x="609" d="M535 141h-38v200h-422v36h460v-236z" />
<glyph unicode="&#xad;" horiz-adv-x="463" d="M391 274h-319v36h319v-36z" />
<glyph unicode="&#xae;" horiz-adv-x="714" d="M654 348q0 -121 -88 -209t-209 -88t-209 88t-88 209t88 209t209 88t209 -88t88 -209zM357 86q109 0 185.5 76.5t76.5 185.5t-76.5 185.5t-185.5 76.5t-185.5 -76.5t-76.5 -185.5t76.5 -185.5t185.5 -76.5zM500 189h-54l-75 139h-79v-111l50 -6v-22h-125v22l44 6v271 l-44 6v22h141q51 0 82.5 -24t31.5 -74q0 -69 -71 -85q4 -5 22 -38l43 -77l34 -6v-23zM292 357h63q85 0 85 60q0 35 -23 53t-62 18h-63v-131z" />
<glyph unicode="&#xaf;" horiz-adv-x="380" d="M340 545h-300v36h300v-36z" />
<glyph unicode="&#xb0;" horiz-adv-x="276" d="M138 414q-32 0 -54 21.5t-22 60.5q0 34 22 57t54 23t54.5 -23t22.5 -57q0 -39 -22 -60.5t-55 -21.5zM138 442q20 0 34 14t14 40q0 23 -14 37.5t-34 14.5q-19 0 -33 -14.5t-14 -37.5q0 -25 14 -39.5t33 -14.5z" />
<glyph unicode="&#xb1;" horiz-adv-x="604" d="M522 83h-439v36h439v-36zM327 176h-38v184h-206v36h206v189h38v-189h195v-36h-195v-184z" />
<glyph unicode="&#xb2;" horiz-adv-x="379" d="M304 345h-227v34l21 10.5t45.5 27.5t58 43t46 53.5t20.5 61.5q0 36 -22 58t-62 22q-38 0 -57.5 -18t-19.5 -44l1 -10l-42 3q-1 5 -1 12q0 38 29.5 67t89.5 29q61 0 93.5 -32t32.5 -87q0 -33 -17 -64.5t-39.5 -53t-49.5 -39.5t-42 -25.5t-21 -9.5h163v-38z" />
<glyph unicode="&#xb3;" horiz-adv-x="358" d="M231 522v-3q3 0 7.5 -1t16 -6.5t20.5 -13.5t16.5 -23.5t7.5 -35.5q0 -47 -33.5 -74t-93.5 -27q-38 0 -67 14t-39 28l-11 14l27 31q2 -5 7.5 -13t28.5 -21.5t54 -13.5q39 0 62 17.5t23 45.5q0 27 -18.5 43t-54.5 16h-45v38h45q20 0 41 15.5t21 50.5q0 21 -18 36.5 t-52 15.5q-33 0 -49 -14.5t-16 -31.5l2 -15l-41 2q-2 6 -2 16q0 36 30.5 59t75.5 23q56 0 84 -26.5t28 -64.5q0 -29 -14 -49t-28 -26z" />
<glyph unicode="&#xb4;" horiz-adv-x="258" d="M214 719l-135 -183h-25l101 183h59z" />
<glyph unicode="&#xb5;" horiz-adv-x="606" d="M148 -278h-39v712l-73 8v25h112v-287q0 -69 33 -110t106 -41q43 0 77 15t52 38.5t26 39t12 28.5v284l-73 8v25h112v-434l73 -8v-25h-105l-3 101h-2q-1 -4 -3.5 -11.5t-14.5 -26t-29 -33t-49.5 -26t-72.5 -11.5q-93 0 -139 57v-328z" />
<glyph unicode="&#xb6;" horiz-adv-x="599" d="M433 -79v731h-74v-731h-41v347h-41q-119 0 -182 54.5t-63 157.5q0 101 66 154.5t169 53.5h301v-25l-94 -8v-734h-41z" />
<glyph unicode="&#xb7;" horiz-adv-x="212" d="M140 277q0 -14 -10 -24t-24 -10t-24 10t-10 24t10 24t24 10t24 -10t10 -24z" />
<glyph unicode="&#xb8;" horiz-adv-x="227" d="M108 -157q-20 0 -37.5 6.5t-24.5 12.5l-8 6l21 25q20 -21 50 -21q51 0 51 36q0 17 -12.5 27.5t-34.5 10.5q-7 0 -12.5 -1.5t-8.5 -2.5l-2 -2l-14 9l30 60h29l-19 -37q29 0 52.5 -15t23.5 -49q0 -32 -22.5 -48.5t-61.5 -16.5z" />
<glyph unicode="&#xb9;" horiz-adv-x="331" d="M282 344h-209v27l90 10v255l-83 -47l-17 29l104 69h34v-306l81 -10v-27z" />
<glyph unicode="&#xba;" horiz-adv-x="376" d="M324 576q0 -67 -38.5 -106t-97.5 -39t-97.5 39t-38.5 106t40 107.5t96 40.5t96 -40.5t40 -107.5zM188 455q44 0 76 31.5t32 89.5q0 59 -33.5 91.5t-74.5 32.5t-74.5 -32.5t-33.5 -91.5q0 -58 32 -89.5t76 -31.5z" />
<glyph unicode="&#xbb;" horiz-adv-x="443" d="M218 74l139 166l-139 166l27 23l144 -168v-42l-144 -168zM55 74l139 166l-139 166l27 23l144 -168v-42l-144 -168z" />
<glyph unicode="&#xbc;" horiz-adv-x="697" d="M184 -19l-33 18l428 747l33 -18zM266 344h-209v27l90 10v255l-83 -47l-17 29l104 69h34v-306l81 -10v-27zM610 0h-38v87h-175v29l171 227h42v-218h47v-38h-47v-87zM572 125v164l-123 -164h123z" />
<glyph unicode="&#xbd;" horiz-adv-x="744" d="M184 -19l-33 18l428 747l33 -18zM694 0h-227v34l21 10.5t45.5 27.5t58 43t46 53.5t20.5 61.5q0 36 -22 58t-62 22q-38 0 -57.5 -18t-19.5 -44l1 -10l-42 3q-1 5 -1 12q0 38 29.5 67t89.5 29q61 0 93.5 -32t32.5 -87q0 -33 -17 -64.5t-39.5 -53t-49.5 -39.5t-42 -25.5 t-21 -9.5h162zM266 344h-209v27l90 10v255l-83 -47l-17 29l104 69h34v-306l81 -10v-27z" />
<glyph unicode="&#xbe;" horiz-adv-x="705" d="M192 -19l-33 18l428 747l33 -18zM618 0h-38v87h-175v29l171 227h42v-218h47v-38h-47v-87zM580 125v164l-123 -164h123zM219 522v-3q3 0 7.5 -1t16 -6.5t20.5 -13.5t16.5 -23.5t7.5 -35.5q0 -47 -33.5 -74t-93.5 -27q-38 0 -67 14t-39 28l-11 14l27 31q2 -5 7.5 -13 t28.5 -21.5t54 -13.5q39 0 62 17.5t23 45.5q0 27 -18.5 43t-54.5 16h-45v38h45q20 0 41 15.5t21 50.5q0 21 -18 36.5t-52 15.5q-33 0 -49 -14.5t-16 -31.5l2 -15l-41 2q-2 6 -2 16q0 36 30.5 59t75.5 23q56 0 84 -26.5t28 -64.5q0 -29 -14 -49t-28 -26z" />
<glyph unicode="&#xbf;" horiz-adv-x="487" d="M243 284h35l6 -139q-27 0 -60.5 -14.5t-66.5 -41t-55 -71t-22 -96.5q0 -76 44 -123t123 -47q82 0 123.5 47t41.5 117l-2 21l43 -5q3 -11 3 -26q0 -34 -11.5 -66.5t-35.5 -61.5t-66 -46.5t-96 -17.5q-98 0 -154.5 57t-56.5 151q0 54 21 100.5t53.5 76t65.5 47t62 23.5z M226 440q0 14 10 24t24 10t24 -10t10 -24t-10 -24t-24 -10t-24 10t-10 24z" />
<glyph unicode="&#xc0;" horiz-adv-x="717" d="M390 688l258 -655l78 -8v-25h-206v25l85 8l-85 214h-324l-84 -214l85 -8v-25h-204v25l78 8l245 622l-78 8v25h152zM345 623l-135 -340h296l-134 340l-12 31h-3q-8 -21 -12 -31zM362 721l-135 183h59l101 -183h-25z" />
<glyph unicode="&#xc1;" horiz-adv-x="717" d="M390 688l258 -655l78 -8v-25h-206v25l85 8l-85 214h-324l-84 -214l85 -8v-25h-204v25l78 8l245 622l-78 8v25h152zM345 623l-135 -340h296l-134 340l-12 31h-3q-8 -21 -12 -31zM505 904l-135 -183h-25l101 183h59z" />
<glyph unicode="&#xc2;" horiz-adv-x="717" d="M390 688l258 -655l78 -8v-25h-206v25l85 8l-85 214h-324l-84 -214l85 -8v-25h-204v25l78 8l245 622l-78 8v25h152zM345 623l-135 -340h296l-134 340l-12 31h-3q-8 -21 -12 -31zM477 721l-114 149l-114 -149h-25l106 183h66l106 -183h-25z" />
<glyph unicode="&#xc3;" horiz-adv-x="717" d="M390 688l258 -655l78 -8v-25h-206v25l85 8l-85 214h-324l-84 -214l85 -8v-25h-204v25l78 8l245 622l-78 8v25h152zM345 623l-135 -340h296l-134 340l-12 31h-3q-8 -21 -12 -31zM450 718q-33 0 -85 28.5t-77 28.5q-38 0 -70 -48l-19 12q11 29 33.5 48t55.5 19t85 -28.5 t77 -28.5q38 0 70 48l19 -12q-11 -29 -33.5 -48t-55.5 -19z" />
<glyph unicode="&#xc4;" horiz-adv-x="717" d="M390 688l258 -655l78 -8v-25h-206v25l85 8l-85 214h-324l-84 -214l85 -8v-25h-204v25l78 8l245 622l-78 8v25h152zM345 623l-135 -340h296l-134 340l-12 31h-3q-8 -21 -12 -31zM326 752q0 -14 -10 -24t-24 -10t-24 10t-10 24t10 24t24 10t24 -10t10 -24zM468 752 q0 -14 -10 -24t-24 -10t-24 10t-10 24t10 24t24 10t24 -10t10 -24z" />
<glyph unicode="&#xc5;" horiz-adv-x="717" d="M390 688l258 -655l78 -8v-25h-206v25l85 8l-85 214h-324l-84 -214l85 -8v-25h-204v25l78 8l245 622l-78 8v25h152zM345 623l-135 -340h296l-134 340l-12 31h-3q-8 -21 -12 -31zM430 793q0 -31 -22 -53t-53 -22t-53 22t-22 53t22 53t53 22t53 -22t22 -53zM396 793 q0 17 -12 29t-29 12t-29 -12t-12 -29t12 -29t29 -12t29 12t12 29z" />
<glyph unicode="&#xc6;" horiz-adv-x="992" d="M933 0h-513v25l94 8v214h-296l-110 -214l85 -8v-25h-204v25l78 8l311 622l-74 8v25h629l2 -147h-36l-7 111h-337v-286h294v-36h-294v-294h337l7 110h36zM423 654l-187 -371h278v371h-91z" />
<glyph unicode="&#xc7;" horiz-adv-x="661" d="M335 -157q-20 0 -37.5 6.5t-25.5 12.5l-7 6l21 25q20 -21 50 -21q51 0 51 36q0 17 -12.5 27.5t-34.5 10.5q-7 0 -12.5 -1.5t-7.5 -2.5l-3 -2l-14 9l22 46q-126 9 -198 95t-72 248q0 176 81 266t220 90q103 0 177.5 -57t74.5 -163l-3 -27l-43 -9q2 20 2 36q0 90 -61 136 t-147 46q-120 0 -188.5 -78.5t-68.5 -239.5q0 -307 257 -307q93 0 148 40.5t55 127.5v17l44 -11v-6q0 -105 -67.5 -155.5t-179.5 -50.5h-2l-11 -21q29 0 52.5 -15t23.5 -49q0 -32 -22.5 -48.5t-61.5 -16.5z" />
<glyph unicode="&#xc8;" horiz-adv-x="618" d="M559 0h-513v25l94 8v622l-94 8v25h513l2 -147h-36l-7 111h-337v-286h294v-36h-294v-294h337l7 110h36zM354 720l-135 183h59l101 -183h-25z" />
<glyph unicode="&#xc9;" horiz-adv-x="618" d="M559 0h-513v25l94 8v622l-94 8v25h513l2 -147h-36l-7 111h-337v-286h294v-36h-294v-294h337l7 110h36zM436 904l-135 -183h-25l101 183h59z" />
<glyph unicode="&#xca;" horiz-adv-x="618" d="M559 0h-513v25l94 8v622l-94 8v25h513l2 -147h-36l-7 111h-337v-286h294v-36h-294v-294h337l7 110h36zM453 720l-114 149l-114 -149h-25l106 183h66l106 -183h-25z" />
<glyph unicode="&#xcb;" horiz-adv-x="618" d="M559 0h-513v25l94 8v622l-94 8v25h513l2 -147h-36l-7 111h-337v-286h294v-36h-294v-294h337l7 110h36zM290 752q0 -14 -10 -24t-24 -10t-24 10t-10 24t10 24t24 10t24 -10t10 -24zM432 752q0 -14 -10 -24t-24 -10t-24 10t-10 24t10 24t24 10t24 -10t10 -24z" />
<glyph unicode="&#xcc;" horiz-adv-x="322" d="M276 0h-230v25l94 8v622l-94 8v25h230v-25l-95 -8v-622l95 -8v-25zM155 721l-135 183h59l101 -183h-25z" />
<glyph unicode="&#xcd;" horiz-adv-x="322" d="M276 0h-230v25l94 8v622l-94 8v25h230v-25l-95 -8v-622l95 -8v-25zM296 904l-135 -183h-25l101 183h59z" />
<glyph unicode="&#xce;" horiz-adv-x="322" d="M276 0h-230v25l94 8v622l-94 8v25h230v-25l-95 -8v-622l95 -8v-25zM276 721l-114 149l-114 -149h-25l106 183h66l106 -183h-25z" />
<glyph unicode="&#xcf;" horiz-adv-x="322" d="M276 0h-230v25l94 8v622l-94 8v25h230v-25l-95 -8v-622l95 -8v-25zM124 752q0 -14 -10 -24t-24 -10t-24 10t-10 24t10 24t24 10t24 -10t10 -24zM266 752q0 -14 -10 -24t-24 -10t-24 10t-10 24t10 24t24 10t24 -10t10 -24z" />
<glyph unicode="&#xd0;" horiz-adv-x="726" d="M58 344v36h83v275l-94 8v25h264q181 0 269 -86.5t88 -263.5q0 -338 -344 -338h-277v25l94 8v311h-83zM182 36h142q303 0 303 302q0 153 -74 233.5t-242 80.5h-129v-272h195v-36h-195v-308z" />
<glyph unicode="&#xd1;" horiz-adv-x="811" d="M678 0h-54l-441 636h-2v-603l95 -8v-25h-230v25l94 8v622l-94 8v25h148l441 -636h2v603l-94 8v25h230v-25l-95 -8v-655zM501 725q-33 0 -85 28.5t-77 28.5q-38 0 -70 -48l-19 12q11 29 33.5 48t55.5 19t85 -28.5t77 -28.5q38 0 70 48l19 -12q-11 -29 -33.5 -48t-55.5 -19 z" />
<glyph unicode="&#xd2;" d="M650 338q0 -171 -79.5 -258t-216.5 -87t-216.5 87t-79.5 258q0 176 79.5 266t216.5 90t216.5 -90t79.5 -266zM102 338q0 -307 252 -307t252 307q0 161 -67 239.5t-185 78.5t-185 -78.5t-67 -239.5zM361 721l-135 183h59l101 -183h-25z" />
<glyph unicode="&#xd3;" d="M650 338q0 -171 -79.5 -258t-216.5 -87t-216.5 87t-79.5 258q0 176 79.5 266t216.5 90t216.5 -90t79.5 -266zM102 338q0 -307 252 -307t252 307q0 161 -67 239.5t-185 78.5t-185 -78.5t-67 -239.5zM481 904l-135 -183h-25l101 183h59z" />
<glyph unicode="&#xd4;" d="M650 338q0 -171 -79.5 -258t-216.5 -87t-216.5 87t-79.5 258q0 176 79.5 266t216.5 90t216.5 -90t79.5 -266zM102 338q0 -307 252 -307t252 307q0 161 -67 239.5t-185 78.5t-185 -78.5t-67 -239.5zM474 721l-114 149l-114 -149h-25l106 183h66l106 -183h-25z" />
<glyph unicode="&#xd5;" d="M650 338q0 -171 -79.5 -258t-216.5 -87t-216.5 87t-79.5 258q0 176 79.5 266t216.5 90t216.5 -90t79.5 -266zM102 338q0 -307 252 -307t252 307q0 161 -67 239.5t-185 78.5t-185 -78.5t-67 -239.5zM430 727q-33 0 -85 28.5t-77 28.5q-38 0 -70 -48l-19 12q11 29 33.5 48 t55.5 19t85 -28.5t77 -28.5q38 0 70 48l19 -12q-11 -29 -33.5 -48t-55.5 -19z" />
<glyph unicode="&#xd6;" d="M650 338q0 -171 -79.5 -258t-216.5 -87t-216.5 87t-79.5 258q0 176 79.5 266t216.5 90t216.5 -90t79.5 -266zM102 338q0 -307 252 -307t252 307q0 161 -67 239.5t-185 78.5t-185 -78.5t-67 -239.5zM316 752q0 -14 -10 -24t-24 -10t-24 10t-10 24t10 24t24 10t24 -10 t10 -24zM458 752q0 -14 -10 -24t-24 -10t-24 10t-10 24t10 24t24 10t24 -10t10 -24z" />
<glyph unicode="&#xd7;" horiz-adv-x="527" d="M87 39l-27 27l176 178l-176 179l27 27l176 -178l177 178l27 -27l-177 -179l177 -178l-27 -27l-177 178z" />
<glyph unicode="&#xd8;" d="M650 338q0 -171 -79.5 -258t-216.5 -87q-77 0 -133 26l-31 -65l-35 17l32 66q-129 83 -129 301q0 176 79.5 266t216.5 90q77 0 139 -31l27 55l35 -17l-28 -57q123 -88 123 -306zM102 338q0 -194 102 -266l272 556q-52 28 -122 28q-118 0 -185 -78.5t-67 -239.5zM606 338 q0 191 -97 269l-271 -554q50 -22 116 -22q252 0 252 307z" />
<glyph unicode="&#xd9;" horiz-adv-x="755" d="M586 251v404l-94 8v25h230v-25l-95 -8v-395q0 -132 -63 -199.5t-186 -67.5t-186.5 67.5t-63.5 199.5v395l-94 8v25h230v-25l-95 -8v-398q0 -109 48.5 -167.5t160.5 -58.5q208 0 208 220zM393 720l-135 183h59l101 -183h-25z" />
<glyph unicode="&#xda;" horiz-adv-x="755" d="M586 251v404l-94 8v25h230v-25l-95 -8v-395q0 -132 -63 -199.5t-186 -67.5t-186.5 67.5t-63.5 199.5v395l-94 8v25h230v-25l-95 -8v-398q0 -109 48.5 -167.5t160.5 -58.5q208 0 208 220zM486 945l-135 -183h-25l101 183h59z" />
<glyph unicode="&#xdb;" horiz-adv-x="755" d="M586 251v404l-94 8v25h230v-25l-95 -8v-395q0 -132 -63 -199.5t-186 -67.5t-186.5 67.5t-63.5 199.5v395l-94 8v25h230v-25l-95 -8v-398q0 -109 48.5 -167.5t160.5 -58.5q208 0 208 220zM488 762l-114 149l-114 -149h-25l106 183h66l106 -183h-25z" />
<glyph unicode="&#xdc;" horiz-adv-x="755" d="M586 251v404l-94 8v25h230v-25l-95 -8v-395q0 -132 -63 -199.5t-186 -67.5t-186.5 67.5t-63.5 199.5v395l-94 8v25h230v-25l-95 -8v-398q0 -109 48.5 -167.5t160.5 -58.5q208 0 208 220zM349 754q0 -14 -10 -24t-24 -10t-24 10t-10 24t10 24t24 10t24 -10t10 -24z M491 754q0 -14 -10 -24t-24 -10t-24 10t-10 24t10 24t24 10t24 -10t10 -24z" />
<glyph unicode="&#xdd;" horiz-adv-x="645" d="M343 276v-243l95 -8v-25h-230v25l94 8v243l-229 379l-77 8v25h207v-25l-87 -8l205 -338h5l205 338l-87 8v25h205v-25l-77 -8zM405 945l-135 -183h-25l101 183h59z" />
<glyph unicode="&#xde;" horiz-adv-x="614" d="M181 688v-109h157q103 0 169 -53.5t66 -154.5q0 -103 -63 -157.5t-182 -54.5h-147v-126l117 -8v-25h-252v25l94 8v622l-94 8v25h135zM333 543h-152v-348h152q199 0 199 175q0 89 -57 131t-142 42z" />
<glyph unicode="&#xdf;" horiz-adv-x="616" d="M274 33l8 35q5 -5 14 -12t40 -18.5t66 -11.5q62 0 97 29.5t35 71.5q0 40 -18.5 68.5t-45 45t-53.5 32.5t-45.5 41t-18.5 60q0 31 16 58t35 44.5t35 47.5t16 65q0 54 -35.5 93.5t-112.5 39.5q-76 0 -121.5 -49t-45.5 -150v-490l73 -8v-25h-185v25l73 8v490q0 122 58 177 t146 55q89 0 139 -45.5t50 -120.5q0 -43 -16 -75.5t-35 -49t-35 -40t-16 -50.5t18.5 -47t45 -35t53.5 -32.5t45.5 -50.5t18.5 -79q0 -64 -47 -100.5t-124 -36.5q-33 0 -65 10t-47 20z" />
<glyph unicode="&#xe0;" horiz-adv-x="578" d="M437 393h3l9 74h30v-394q0 -48 33 -48l25 5v-31q-11 -6 -34 -6q-27 0 -44 18.5t-17 57.5v9h-2l-6 -9t-18.5 -20.5t-32 -26t-48 -20.5t-64.5 -9q-91 0 -156 65.5t-65 174.5q0 111 62.5 176t158.5 65q32 0 61 -8.5t47.5 -20t32 -23.5t19.5 -20zM271 26q50 0 90 19.5 t54.5 36t24.5 33.5v228q-26 48 -72.5 73t-96.5 25q-74 0 -128 -54t-54 -154q0 -98 56.5 -152.5t125.5 -54.5zM324 536l-135 183h59l101 -183h-25z" />
<glyph unicode="&#xe1;" horiz-adv-x="578" d="M437 393h3l9 74h30v-394q0 -48 33 -48l25 5v-31q-11 -6 -34 -6q-27 0 -44 18.5t-17 57.5v9h-2l-6 -9t-18.5 -20.5t-32 -26t-48 -20.5t-64.5 -9q-91 0 -156 65.5t-65 174.5q0 111 62.5 176t158.5 65q32 0 61 -8.5t47.5 -20t32 -23.5t19.5 -20zM271 26q50 0 90 19.5 t54.5 36t24.5 33.5v228q-26 48 -72.5 73t-96.5 25q-74 0 -128 -54t-54 -154q0 -98 56.5 -152.5t125.5 -54.5zM419 719l-135 -183h-25l101 183h59z" />
<glyph unicode="&#xe2;" horiz-adv-x="578" d="M437 393h3l9 74h30v-394q0 -48 33 -48l25 5v-31q-11 -6 -34 -6q-27 0 -44 18.5t-17 57.5v9h-2l-6 -9t-18.5 -20.5t-32 -26t-48 -20.5t-64.5 -9q-91 0 -156 65.5t-65 174.5q0 111 62.5 176t158.5 65q32 0 61 -8.5t47.5 -20t32 -23.5t19.5 -20zM271 26q50 0 90 19.5 t54.5 36t24.5 33.5v228q-26 48 -72.5 73t-96.5 25q-74 0 -128 -54t-54 -154q0 -98 56.5 -152.5t125.5 -54.5zM417 536l-114 149l-114 -149h-25l106 183h66l106 -183h-25z" />
<glyph unicode="&#xe3;" horiz-adv-x="578" d="M437 393h3l9 74h30v-394q0 -48 33 -48l25 5v-31q-11 -6 -34 -6q-27 0 -44 18.5t-17 57.5v9h-2l-6 -9t-18.5 -20.5t-32 -26t-48 -20.5t-64.5 -9q-91 0 -156 65.5t-65 174.5q0 111 62.5 176t158.5 65q32 0 61 -8.5t47.5 -20t32 -23.5t19.5 -20zM271 26q50 0 90 19.5 t54.5 36t24.5 33.5v228q-26 48 -72.5 73t-96.5 25q-74 0 -128 -54t-54 -154q0 -98 56.5 -152.5t125.5 -54.5zM383 524q-33 0 -85 28.5t-77 28.5q-38 0 -70 -48l-19 12q11 29 33.5 48t55.5 19t85 -28.5t77 -28.5q38 0 70 48l19 -12q-11 -29 -33.5 -48t-55.5 -19z" />
<glyph unicode="&#xe4;" horiz-adv-x="578" d="M437 393h3l9 74h30v-394q0 -48 33 -48l25 5v-31q-11 -6 -34 -6q-27 0 -44 18.5t-17 57.5v9h-2l-6 -9t-18.5 -20.5t-32 -26t-48 -20.5t-64.5 -9q-91 0 -156 65.5t-65 174.5q0 111 62.5 176t158.5 65q32 0 61 -8.5t47.5 -20t32 -23.5t19.5 -20zM271 26q50 0 90 19.5 t54.5 36t24.5 33.5v228q-26 48 -72.5 73t-96.5 25q-74 0 -128 -54t-54 -154q0 -98 56.5 -152.5t125.5 -54.5zM258 565q0 -14 -10 -24t-24 -10t-24 10t-10 24t10 24t24 10t24 -10t10 -24zM400 565q0 -14 -10 -24t-24 -10t-24 10t-10 24t10 24t24 10t24 -10t10 -24z" />
<glyph unicode="&#xe5;" horiz-adv-x="578" d="M437 393h3l9 74h30v-394q0 -48 33 -48l25 5v-31q-11 -6 -34 -6q-27 0 -44 18.5t-17 57.5v9h-2l-6 -9t-18.5 -20.5t-32 -26t-48 -20.5t-64.5 -9q-91 0 -156 65.5t-65 174.5q0 111 62.5 176t158.5 65q32 0 61 -8.5t47.5 -20t32 -23.5t19.5 -20zM271 26q50 0 90 19.5 t54.5 36t24.5 33.5v228q-26 48 -72.5 73t-96.5 25q-74 0 -128 -54t-54 -154q0 -98 56.5 -152.5t125.5 -54.5zM371 606q0 -31 -22 -53t-53 -22t-53 22t-22 53t22 53t53 22t53 -22t22 -53zM337 606q0 17 -12 29t-29 12t-29 -12t-12 -29t12 -29t29 -12t29 12t12 29z" />
<glyph unicode="&#xe6;" horiz-adv-x="851" d="M804 227h-378q2 -97 54.5 -149t125.5 -52q51 0 91 14t55 28l14 14l15 -27q-2 -3 -6 -7t-19 -14.5t-33.5 -19t-49.5 -15t-67 -6.5q-116 0 -176 88q-55 -89 -158 -89q-91 0 -156 65.5t-65 174.5q0 111 62.5 176t158.5 65q111 0 178 -63q61 64 156 64q82 0 141.5 -57 t59.5 -153zM272 25q95 0 141 83q-26 54 -26 126q0 88 41 148q-55 58 -156 58q-74 0 -128 -54t-54 -154q0 -98 56.5 -152.5t125.5 -54.5zM606 441q-70 0 -121 -46.5t-58 -134.5h341v4q0 89 -49 133t-113 44z" />
<glyph unicode="&#xe7;" horiz-adv-x="515" d="M257 -157q-20 0 -37.5 6.5t-25.5 12.5l-7 6l21 25q20 -21 50 -21q51 0 51 36q0 17 -12.5 27.5t-34.5 10.5q-7 0 -12.5 -1.5t-7.5 -2.5l-3 -2l-14 9l23 46q-89 10 -144 73.5t-55 165.5q0 117 60.5 178.5t165.5 61.5q99 0 147.5 -46t48.5 -121l-5 -30l-37 -4q3 13 3 31 q0 64 -39.5 100.5t-117.5 36.5q-86 0 -136.5 -50t-50.5 -157q0 -100 56.5 -154t135.5 -54q51 0 91 14t55 28l14 14l15 -27q-2 -3 -6 -7t-19 -14.5t-33.5 -19t-49.5 -15t-67 -6.5h-4l-11 -21q29 0 52.5 -15t23.5 -49q0 -32 -22.5 -48.5t-61.5 -16.5z" />
<glyph unicode="&#xe8;" horiz-adv-x="526" d="M479 227h-390q2 -97 58.5 -149t133.5 -52q51 0 91 14t54 28l15 14l15 -27q-2 -3 -6 -7t-19 -14.5t-33.5 -19t-49.5 -15t-67 -6.5q-101 0 -166 65t-65 176q0 110 65.5 175t165.5 65q82 0 141.5 -57t59.5 -153zM281 441q-74 0 -129.5 -48t-62.5 -133h354v4q0 89 -49 133 t-113 44zM285 536l-135 183h59l101 -183h-25z" />
<glyph unicode="&#xe9;" horiz-adv-x="526" d="M479 227h-390q2 -97 58.5 -149t133.5 -52q51 0 91 14t54 28l15 14l15 -27q-2 -3 -6 -7t-19 -14.5t-33.5 -19t-49.5 -15t-67 -6.5q-101 0 -166 65t-65 176q0 110 65.5 175t165.5 65q82 0 141.5 -57t59.5 -153zM281 441q-74 0 -129.5 -48t-62.5 -133h354v4q0 89 -49 133 t-113 44zM378 719l-135 -183h-25l101 183h59z" />
<glyph unicode="&#xea;" horiz-adv-x="526" d="M479 227h-390q2 -97 58.5 -149t133.5 -52q51 0 91 14t54 28l15 14l15 -27q-2 -3 -6 -7t-19 -14.5t-33.5 -19t-49.5 -15t-67 -6.5q-101 0 -166 65t-65 176q0 110 65.5 175t165.5 65q82 0 141.5 -57t59.5 -153zM281 441q-74 0 -129.5 -48t-62.5 -133h354v4q0 89 -49 133 t-113 44zM379 536l-114 149l-114 -149h-25l106 183h66l106 -183h-25z" />
<glyph unicode="&#xeb;" horiz-adv-x="526" d="M479 227h-390q2 -97 58.5 -149t133.5 -52q51 0 91 14t54 28l15 14l15 -27q-2 -3 -6 -7t-19 -14.5t-33.5 -19t-49.5 -15t-67 -6.5q-101 0 -166 65t-65 176q0 110 65.5 175t165.5 65q82 0 141.5 -57t59.5 -153zM281 441q-74 0 -129.5 -48t-62.5 -133h354v4q0 89 -49 133 t-113 44zM220 565q0 -14 -10 -24t-24 -10t-24 10t-10 24t10 24t24 10t24 -10t10 -24zM362 565q0 -14 -10 -24t-24 -10t-24 10t-10 24t10 24t24 10t24 -10t10 -24z" />
<glyph unicode="&#xec;" horiz-adv-x="260" d="M89 529l-135 183h59l101 -183h-25zM154 467v-434l73 -10v-23h-185v25l73 8v401l-73 8v25h112z" />
<glyph unicode="&#xed;" horiz-adv-x="260" d="M266 719l-135 -183h-25l101 183h59zM154 467v-434l73 -10v-23h-185v25l73 8v401l-73 8v25h112z" />
<glyph unicode="&#xee;" horiz-adv-x="260" d="M251 536l-114 149l-114 -149h-25l106 183h66l106 -183h-25zM154 467v-434l73 -10v-23h-185v25l73 8v401l-73 8v25h112z" />
<glyph unicode="&#xef;" horiz-adv-x="260" d="M106 565q0 -14 -10 -24t-24 -10t-24 10t-10 24t10 24t24 10t24 -10t10 -24zM248 565q0 -14 -10 -24t-24 -10t-24 10t-10 24t10 24t24 10t24 -10t10 -24zM154 467v-434l73 -10v-23h-185v25l73 8v401l-73 8v25h112z" />
<glyph unicode="&#xf0;" horiz-adv-x="620" d="M445 681l-51 -43q74 -54 117.5 -139t43.5 -181q0 -162 -72.5 -243.5t-198.5 -81.5q-103 0 -167.5 60.5t-64.5 157.5q0 96 60.5 152.5t166.5 56.5q141 0 230 -68q-7 78 -45.5 146t-102.5 112l-80 -68l-24 28l71 60q-76 39 -162 39l23 37q92 0 173 -47l59 50zM284 31 q105 0 165 66.5t62 209.5q-9 8 -22.5 17t-43 25t-73.5 26.5t-92 10.5q-81 0 -135.5 -50t-54.5 -124q0 -80 52.5 -130.5t141.5 -50.5z" />
<glyph unicode="&#xf1;" horiz-adv-x="588" d="M147 366q1 4 3.5 11.5t14.5 26t29 33t49.5 26t72.5 11.5q89 0 133.5 -50t44.5 -134v-257l73 -8v-25h-112v287q0 69 -33 110t-106 41q-44 0 -78 -15.5t-52 -39t-26 -39t-11 -28.5v-283l73 -8v-25h-185v25l73 8v401l-73 8v25h105l3 -101h2zM397 524q-33 0 -85 28.5 t-77 28.5q-38 0 -70 -48l-19 12q11 29 33.5 48t55.5 19t85 -28.5t77 -28.5q38 0 70 48l19 -12q-11 -29 -33.5 -48t-55.5 -19z" />
<glyph unicode="&#xf2;" horiz-adv-x="552" d="M502 234q0 -111 -64 -176t-162 -65t-162 65t-64 176q0 109 66.5 174.5t159.5 65.5t159.5 -65.5t66.5 -174.5zM276 26q76 0 131.5 54t55.5 154q0 98 -58 152.5t-129 54.5t-129 -54.5t-58 -152.5q0 -100 55 -154t132 -54zM290 536l-135 183h59l101 -183h-25z" />
<glyph unicode="&#xf3;" horiz-adv-x="552" d="M502 234q0 -111 -64 -176t-162 -65t-162 65t-64 176q0 109 66.5 174.5t159.5 65.5t159.5 -65.5t66.5 -174.5zM276 26q76 0 131.5 54t55.5 154q0 98 -58 152.5t-129 54.5t-129 -54.5t-58 -152.5q0 -100 55 -154t132 -54zM382 719l-135 -183h-25l101 183h59z" />
<glyph unicode="&#xf4;" horiz-adv-x="552" d="M502 234q0 -111 -64 -176t-162 -65t-162 65t-64 176q0 109 66.5 174.5t159.5 65.5t159.5 -65.5t66.5 -174.5zM276 26q76 0 131.5 54t55.5 154q0 98 -58 152.5t-129 54.5t-129 -54.5t-58 -152.5q0 -100 55 -154t132 -54zM391 536l-114 149l-114 -149h-25l106 183h66 l106 -183h-25z" />
<glyph unicode="&#xf5;" horiz-adv-x="552" d="M502 234q0 -111 -64 -176t-162 -65t-162 65t-64 176q0 109 66.5 174.5t159.5 65.5t159.5 -65.5t66.5 -174.5zM276 26q76 0 131.5 54t55.5 154q0 98 -58 152.5t-129 54.5t-129 -54.5t-58 -152.5q0 -100 55 -154t132 -54zM356 524q-33 0 -85 28.5t-77 28.5q-38 0 -70 -48 l-19 12q11 29 33.5 48t55.5 19t85 -28.5t77 -28.5q38 0 70 48l19 -12q-11 -29 -33.5 -48t-55.5 -19z" />
<glyph unicode="&#xf6;" horiz-adv-x="552" d="M502 234q0 -111 -64 -176t-162 -65t-162 65t-64 176q0 109 66.5 174.5t159.5 65.5t159.5 -65.5t66.5 -174.5zM276 26q76 0 131.5 54t55.5 154q0 98 -58 152.5t-129 54.5t-129 -54.5t-58 -152.5q0 -100 55 -154t132 -54zM232 565q0 -14 -10 -24t-24 -10t-24 10t-10 24 t10 24t24 10t24 -10t10 -24zM374 565q0 -14 -10 -24t-24 -10t-24 10t-10 24t10 24t24 10t24 -10t10 -24z" />
<glyph unicode="&#xf7;" horiz-adv-x="571" d="M324 118q0 -14 -10 -24t-24 -10t-24 10t-10 24t10 24t24 10t24 -10t10 -24zM324 449q0 -14 -10 -24t-24 -10t-24 10t-10 24t10 24t24 10t24 -10t10 -24zM497 274h-423v36h423v-36z" />
<glyph unicode="&#xf8;" horiz-adv-x="552" d="M164 -45l-37 20l26 51q-103 64 -103 208q0 109 66.5 174.5t159.5 65.5q48 0 93 -20l20 40l37 -20l-21 -40q97 -67 97 -200q0 -111 -64 -176t-162 -65q-42 0 -85 15zM89 234q0 -120 80 -176l184 365q-39 18 -77 18q-71 0 -129 -54.5t-58 -152.5zM276 26q76 0 131.5 54 t55.5 154q0 107 -74 167l-183 -363q33 -12 70 -12z" />
<glyph unicode="&#xf9;" horiz-adv-x="580" d="M442 101q-1 -4 -3.5 -11.5t-14.5 -26t-29 -33t-49.5 -26t-72.5 -11.5q-89 0 -133.5 50t-44.5 134v257l-73 8v25h112v-287q0 -69 33 -110t106 -41q43 0 77 15t52 38.5t26 39t12 28.5v284l-73 8v25h112v-434l73 -8v-25h-105l-3 101h-2zM265 536l-135 183h59l101 -183h-25z " />
<glyph unicode="&#xfa;" horiz-adv-x="580" d="M442 101q-1 -4 -3.5 -11.5t-14.5 -26t-29 -33t-49.5 -26t-72.5 -11.5q-89 0 -133.5 50t-44.5 134v257l-73 8v25h112v-287q0 -69 33 -110t106 -41q43 0 77 15t52 38.5t26 39t12 28.5v284l-73 8v25h112v-434l73 -8v-25h-105l-3 101h-2zM351 719l-135 -183h-25l101 183h59z " />
<glyph unicode="&#xfb;" horiz-adv-x="580" d="M442 101q-1 -4 -3.5 -11.5t-14.5 -26t-29 -33t-49.5 -26t-72.5 -11.5q-89 0 -133.5 50t-44.5 134v257l-73 8v25h112v-287q0 -69 33 -110t106 -41q43 0 77 15t52 38.5t26 39t12 28.5v284l-73 8v25h112v-434l73 -8v-25h-105l-3 101h-2zM387 536l-114 149l-114 -149h-25 l106 183h66l106 -183h-25z" />
<glyph unicode="&#xfc;" horiz-adv-x="580" d="M442 101q-1 -4 -3.5 -11.5t-14.5 -26t-29 -33t-49.5 -26t-72.5 -11.5q-89 0 -133.5 50t-44.5 134v257l-73 8v25h112v-287q0 -69 33 -110t106 -41q43 0 77 15t52 38.5t26 39t12 28.5v284l-73 8v25h112v-434l73 -8v-25h-105l-3 101h-2zM228 565q0 -14 -10 -24t-24 -10 t-24 10t-10 24t10 24t24 10t24 -10t10 -24zM370 565q0 -14 -10 -24t-24 -10t-24 10t-10 24t10 24t24 10t24 -10t10 -24z" />
<glyph unicode="&#xfd;" horiz-adv-x="571" d="M441 -70v161h-2q-1 -4 -3.5 -10.5t-15 -23.5t-29 -30t-47.5 -23.5t-70 -10.5q-89 0 -133.5 50t-44.5 134v257l-73 8v25h112v-287q0 -69 33 -110t106 -41q43 0 77 15t52 38.5t26 39t12 28.5v284l-73 8v25h112v-537q0 -216 -221 -216q-36 0 -67 7t-50 17.5t-33 21t-19 17.5 l-6 7l19 26q2 -3 5.5 -7t16.5 -15t29.5 -19t44.5 -15t60 -7q182 0 182 183zM371 719l-135 -183h-25l101 183h59z" />
<glyph unicode="&#xfe;" horiz-adv-x="571" d="M91 -245v958l-73 8v25h112v-319l-1 -34h4q2 3 6 8.5t19 19.5t32.5 24.5t47 19.5t61.5 9q96 0 158.5 -65t62.5 -176q0 -109 -65 -174.5t-156 -65.5q-34 0 -64.5 7.5t-48.5 18.5t-31.5 22.5t-18.5 18.5l-6 8h-2q2 -27 2 -34v-287h73v-25h-185v25zM299 441q-51 0 -97.5 -25 t-71.5 -73v-228q8 -16 22.5 -32.5t54.5 -36.5t92 -20q69 0 125.5 54.5t56.5 152.5q0 100 -54 154t-128 54z" />
<glyph unicode="&#xff;" horiz-adv-x="571" d="M441 -70v161h-2q-1 -4 -3.5 -10.5t-15 -23.5t-29 -30t-47.5 -23.5t-70 -10.5q-89 0 -133.5 50t-44.5 134v257l-73 8v25h112v-287q0 -69 33 -110t106 -41q43 0 77 15t52 38.5t26 39t12 28.5v284l-73 8v25h112v-537q0 -216 -221 -216q-36 0 -67 7t-50 17.5t-33 21t-19 17.5 l-6 7l19 26q2 -3 5.5 -7t16.5 -15t29.5 -19t44.5 -15t60 -7q182 0 182 183zM248 565q0 -14 -10 -24t-24 -10t-24 10t-10 24t10 24t24 10t24 -10t10 -24zM390 565q0 -14 -10 -24t-24 -10t-24 10t-10 24t10 24t24 10t24 -10t10 -24z" />
<glyph unicode="&#x152;" horiz-adv-x="883" d="M824 0h-423q-137 2 -213.5 86t-76.5 252q0 174 78.5 262t213.5 88h421l2 -147h-36l-7 111h-337v-286h294v-36h-294v-294h337l7 110h36zM155 338q0 -300 250 -300v612q-117 -1 -183.5 -77t-66.5 -235z" />
<glyph unicode="&#x153;" horiz-adv-x="940" d="M893 227h-390q2 -97 58.5 -149t133.5 -52q51 0 91 14t54 28l15 14l15 -27q-2 -3 -6 -7t-19 -14.5t-33.5 -19t-49.5 -15t-67 -6.5q-73 0 -129.5 35.5t-82.5 100.5q-26 -65 -81 -100.5t-126 -35.5q-98 0 -162 65t-64 176q0 109 66.5 174.5t159.5 65.5q67 0 123 -36.5 t83 -100.5q26 65 83 101t130 36q82 0 141.5 -57t59.5 -153zM276 26q76 0 131.5 54t55.5 154q0 98 -58 152.5t-129 54.5t-129 -54.5t-58 -152.5q0 -100 55 -154t132 -54zM695 441q-74 0 -129.5 -48t-62.5 -133h354v4q0 89 -49 133t-113 44z" />
<glyph unicode="&#x178;" horiz-adv-x="645" d="M343 276v-243l95 -8v-25h-230v25l94 8v243l-229 379l-77 8v25h207v-25l-87 -8l205 -338h5l205 338l-87 8v25h205v-25l-77 -8zM288 755q0 -14 -10 -24t-24 -10t-24 10t-10 24t10 24t24 10t24 -10t10 -24zM430 755q0 -14 -10 -24t-24 -10t-24 10t-10 24t10 24t24 10t24 -10 t10 -24z" />
<glyph unicode="&#x2c6;" horiz-adv-x="393" d="M317 536l-114 149l-114 -149h-25l106 183h66l106 -183h-25z" />
<glyph unicode="&#x2dc;" horiz-adv-x="352" d="M263 524q-33 0 -85 28.5t-77 28.5q-38 0 -70 -48l-19 12q11 29 33.5 48t55.5 19t85 -28.5t77 -28.5q38 0 70 48l19 -12q-11 -29 -33.5 -48t-55.5 -19z" />
<glyph unicode="&#x2000;" horiz-adv-x="472" />
<glyph unicode="&#x2001;" horiz-adv-x="945" />
<glyph unicode="&#x2002;" horiz-adv-x="472" />
<glyph unicode="&#x2003;" horiz-adv-x="945" />
<glyph unicode="&#x2004;" horiz-adv-x="315" />
<glyph unicode="&#x2005;" horiz-adv-x="236" />
<glyph unicode="&#x2006;" horiz-adv-x="157" />
<glyph unicode="&#x2007;" horiz-adv-x="157" />
<glyph unicode="&#x2008;" horiz-adv-x="118" />
<glyph unicode="&#x2009;" horiz-adv-x="189" />
<glyph unicode="&#x200a;" horiz-adv-x="52" />
<glyph unicode="&#x2010;" horiz-adv-x="463" d="M391 274h-319v36h319v-36z" />
<glyph unicode="&#x2011;" horiz-adv-x="463" d="M391 274h-319v36h319v-36z" />
<glyph unicode="&#x2012;" horiz-adv-x="463" d="M391 274h-319v36h319v-36z" />
<glyph unicode="&#x2013;" horiz-adv-x="567" d="M495 274h-423v36h423v-36z" />
<glyph unicode="&#x2014;" horiz-adv-x="882" d="M810 274h-738v36h738v-36z" />
<glyph unicode="&#x2018;" horiz-adv-x="182" d="M110 743l6 -19q-37 -17 -37 -60l2 -10q5 6 20 6q11 0 19.5 -9t8.5 -24q0 -14 -10 -23.5t-24 -9.5q-41 0 -41 56q0 69 56 93z" />
<glyph unicode="&#x2019;" horiz-adv-x="180" d="M73 594l-6 19q37 17 37 60l-2 10q-5 -6 -20 -6q-11 0 -19.5 9t-8.5 24q0 14 10 23.5t24 9.5q41 0 41 -56q0 -69 -56 -93z" />
<glyph unicode="&#x201a;" horiz-adv-x="226" d="M92 -90l-6 19q37 17 37 60l-2 10q-5 -6 -20 -6q-11 0 -19.5 9t-8.5 24q0 14 10 23.5t24 9.5q41 0 41 -56q0 -69 -56 -93z" />
<glyph unicode="&#x201c;" horiz-adv-x="329" d="M110 743l6 -19q-37 -17 -37 -60l2 -10q5 6 20 6q11 0 19.5 -9t8.5 -24q0 -14 -10 -23.5t-24 -9.5q-41 0 -41 56q0 69 56 93zM257 743l6 -19q-37 -17 -37 -60l2 -10q5 6 20 6q11 0 19.5 -9t8.5 -24q0 -14 -10 -23.5t-24 -9.5q-41 0 -41 56q0 69 56 93z" />
<glyph unicode="&#x201d;" horiz-adv-x="310" d="M73 594l-6 19q37 17 37 60l-2 10q-5 -6 -20 -6q-11 0 -19.5 9t-8.5 24q0 14 10 23.5t24 9.5q41 0 41 -56q0 -69 -56 -93zM203 594l-6 19q37 17 37 60l-2 10q-5 -6 -20 -6q-11 0 -19.5 9t-8.5 24q0 14 10 23.5t24 9.5q41 0 41 -56q0 -69 -56 -93z" />
<glyph unicode="&#x201e;" horiz-adv-x="356" d="M92 -90l-6 19q37 17 37 60l-2 10q-5 -6 -20 -6q-11 0 -19.5 9t-8.5 24q0 14 10 23.5t24 9.5q41 0 41 -56q0 -69 -56 -93zM222 -90l-6 19q37 17 37 60l-2 10q-5 -6 -20 -6q-11 0 -19.5 9t-8.5 24q0 14 10 23.5t24 9.5q41 0 41 -56q0 -69 -56 -93z" />
<glyph unicode="&#x2022;" horiz-adv-x="366" d="M183 239q-44 0 -68.5 25.5t-24.5 70.5q0 44 24.5 70.5t68.5 26.5q42 0 68 -27t26 -70q0 -44 -25.5 -70t-68.5 -26z" />
<glyph unicode="&#x2026;" horiz-adv-x="409" d="M140 27q0 -14 -10 -24t-24 -10t-24 10t-10 24t10 24t24 10t24 -10t10 -24zM239 27q0 -14 -10 -24t-24 -10t-24 10t-10 24t10 24t24 10t24 -10t10 -24zM337 27q0 -14 -10 -24t-24 -10t-24 10t-10 24t10 24t24 10t24 -10t10 -24z" />
<glyph unicode="&#x202f;" horiz-adv-x="189" />
<glyph unicode="&#x2039;" horiz-adv-x="280" d="M86 240l139 -166l-27 -23l-144 168v42l144 168l27 -23z" />
<glyph unicode="&#x203a;" horiz-adv-x="280" d="M55 74l139 166l-139 166l27 23l144 -168v-42l-144 -168z" />
<glyph unicode="&#x205f;" horiz-adv-x="236" />
<glyph unicode="&#x20ac;" horiz-adv-x="673" d="M50 271h87q-3 31 -3 67q0 19 2 55h-86v36h90q21 131 98 198t197 67q98 0 180 -53l-25 -32q-66 47 -155 47q-102 0 -167 -56t-83 -171h296v-36h-301q-2 -18 -2 -55q0 -36 3 -67h246v-36h-240q39 -204 248 -204q89 0 155 47l25 -32q-82 -53 -180 -53q-117 0 -193 60.5 t-99 181.5h-93v36z" />
<glyph unicode="&#x2122;" horiz-adv-x="1099" d="M335 289h-151v24l58 6v369h-143l-5 -68h-27v98h385v-98h-27l-5 68h-141v-369l56 -6v-24zM1035 289h-142v24l54 6l-20 363h-1l-146 -348h-22l-143 348h-1l-20 -363l54 -6v-24h-140v24l54 6l20 369l-54 6v24h106l112 -272l24 -72h1q15 50 24 71l113 273h107v-24l-54 -6 l20 -369l54 -6v-24z" />
<glyph unicode="&#x25fc;" horiz-adv-x="465" d="M0 465h465v-465h-465v465z" />
</font>
</defs>
</svg>
