<?xml version="1.0" standalone="no"?>
<!DOCTYPE svg PUBLIC "-//W3C//DTD SVG 1.1//EN" "http://www.w3.org/Graphics/SVG/1.1/DTD/svg11.dtd" >
<svg xmlns="http://www.w3.org/2000/svg">
<metadata></metadata>
<defs>
<font id="roble_alt_mediummedium" horiz-adv-x="705" >
<font-face units-per-em="1000" ascent="750" descent="-250" />
<missing-glyph horiz-adv-x="224" />
<glyph unicode="&#xfb01;" horiz-adv-x="661" d="M569 467v-382l61 -10v-75h-231v75l66 10v297l-66 10v75h170zM588 647q0 -31 -22 -53t-53 -22t-53 22t-22 53t22 53t53 22t53 -22t22 -53zM310 0h-272v75l65 10v301h-67v81h67v105q0 90 44.5 136.5t129.5 46.5q24 0 46.5 -4.5t32.5 -8.5l11 -4v-87q-25 14 -72 14 q-88 0 -88 -94v-104h150v-81h-150v-304l103 -7v-75z" />
<glyph unicode="&#xfb02;" horiz-adv-x="660" d="M568 746v-661l62 -10v-75h-231v75l65 10v576l-65 10v75h169zM310 0h-272v75l65 10v301h-67v81h67v105q0 90 44.5 136.5t129.5 46.5q24 0 46.5 -4.5t32.5 -8.5l11 -4v-87q-25 14 -72 14q-88 0 -88 -94v-104h150v-81h-150v-304l103 -7v-75z" />
<glyph horiz-adv-x="0" />
<glyph horiz-adv-x="333" />
<glyph unicode=" "  horiz-adv-x="224" />
<glyph unicode="&#x09;" horiz-adv-x="224" />
<glyph unicode="&#xa0;" horiz-adv-x="224" />
<glyph unicode="!" horiz-adv-x="266" d="M174 186h-82l-15 560h112zM196 56q0 -26 -18.5 -44.5t-44.5 -18.5t-44.5 18.5t-18.5 44.5t18.5 45t44.5 19t44.5 -19t18.5 -45z" />
<glyph unicode="&#x22;" horiz-adv-x="334" d="M133 557h-72l-7 197h86zM278 557h-72l-7 197h86z" />
<glyph unicode="#" horiz-adv-x="641" d="M547 176h-116l-44 -176h-91l44 176h-128l-44 -176h-91l44 176h-88v81h109l39 156h-87v81h108l50 200h91l-50 -200h128l50 200h91l-50 -200h96v-81h-117l-39 -156h95v-81zM272 413l-39 -156h128l39 156h-128z" />
<glyph unicode="$" horiz-adv-x="583" d="M45 169q0 12 2.5 22.5t4.5 15.5l2 5l105 7q-5 -13 -5 -28q0 -49 37 -77t99 -28q145 0 145 90q0 29 -17 50.5t-44.5 34t-63 24.5t-72.5 21t-72.5 25.5t-63 37t-44.5 55.5t-17 80q0 73 55.5 127.5t159.5 61.5v80h57v-80q104 -7 157.5 -54.5t53.5 -121.5q0 -12 -2 -22.5 t-4 -15.5l-3 -5l-99 -10q5 16 5 31q0 47 -33.5 77t-102.5 30q-62 0 -98.5 -26t-36.5 -69q0 -37 29 -62t73 -36.5t95 -28t95 -35.5t73 -60t29 -101q0 -80 -57.5 -133t-173.5 -57v-83h-56v84q-108 7 -160 56t-52 118z" />
<glyph unicode="%" horiz-adv-x="801" d="M225 -38l-63 39l427 747l64 -38zM338 516q0 -86 -40.5 -132t-112.5 -46t-112.5 46t-40.5 132t40.5 132t112.5 46t112.5 -46t40.5 -132zM112 516q0 -106 73 -106q74 0 74 106q0 54 -20 80.5t-54 26.5q-73 0 -73 -107zM768 171q0 -86 -40.5 -132t-112.5 -46q-71 0 -112 46 t-41 132t41 132t112 46q72 0 112.5 -46t40.5 -132zM542 171q0 -106 73 -106q74 0 74 106q0 54 -20 80.5t-54 26.5q-73 0 -73 -107z" />
<glyph unicode="&#x26;" horiz-adv-x="670" d="M479 269v78h160v-76l-63 -11q-6 -79 -47 -142l105 -118h-127l-44 49q-76 -56 -181 -56q-116 0 -181 56.5t-65 139.5q0 43 16 77.5t41.5 55.5t46 32.5t41.5 18.5q-67 85 -67 156q0 75 51 120t130 45q78 0 130 -42t52 -120q0 -35 -13.5 -64.5t-32 -47.5t-43 -32.5 t-40.5 -20.5t-32 -10l147 -165q16 37 16 77zM283 82q70 0 120 36l-169 194q-92 -33 -92 -118q0 -50 40 -81t101 -31zM216 526q0 -9 1.5 -18.5t3.5 -16.5t6.5 -16.5t7 -14.5t9 -14.5t8 -12t8.5 -12.5l8 -10q14 2 28.5 7.5t34.5 17t32.5 35t12.5 54.5q0 34 -20 57.5t-55 23.5 q-39 0 -62 -22t-23 -58z" />
<glyph unicode="'" horiz-adv-x="189" d="M133 557h-72l-7 197h86z" />
<glyph unicode="(" horiz-adv-x="354" d="M350 691q-23 -18 -44 -38t-54 -62.5t-56.5 -89t-41.5 -117t-18 -146.5t18 -146.5t41.5 -117.5t56.5 -89.5t54 -62.5t44 -38l-45 -62q-27 16 -55.5 37.5t-69 66.5t-71 99t-52.5 136.5t-22 176.5t22 176.5t52.5 136.5t71 99t69 66.5t55.5 36.5z" />
<glyph unicode=")" horiz-adv-x="354" d="M12 691l45 62q27 -15 55 -36.5t69 -66.5t71.5 -99t52.5 -136.5t22 -176.5q0 -68 -11.5 -130.5t-29.5 -109.5t-43.5 -89t-50 -71t-52 -54t-46.5 -38.5t-37 -23.5l-45 62q23 19 43.5 38t54 62.5t56.5 90t41 117t18 146.5t-18 146.5t-41 117t-56.5 89.5t-54 62t-43.5 38z " />
<glyph unicode="*" horiz-adv-x="410" d="M172 736h63l5 -110l92 49l31 -53l-101 -63l71 -90l-48 -41l-80 90l-80 -90l-48 41l70 90l-101 63l31 53l92 -49z" />
<glyph unicode="+" horiz-adv-x="542" d="M322 74h-92v205h-190v81h190v203h92v-203h181v-81h-181v-205z" />
<glyph unicode="," horiz-adv-x="233" d="M88 -113l-13 34q15 5 32.5 23t17.5 45l-2 8q-5 -4 -17 -4q-23 0 -38.5 16t-15.5 41q0 24 17.5 40t42.5 16q30 0 49 -21.5t19 -58.5q0 -109 -92 -139z" />
<glyph unicode="-" horiz-adv-x="463" d="M405 243h-347v98h347v-98z" />
<glyph unicode="." horiz-adv-x="221" d="M172 54q0 -26 -18 -43.5t-44 -17.5q-25 0 -43 18t-18 43t18 43.5t43 18.5q26 0 44 -18t18 -44z" />
<glyph unicode="/" horiz-adv-x="399" d="M115 -104l-91 27l260 882l91 -27z" />
<glyph unicode="0" horiz-adv-x="662" d="M617 340q0 -174 -75 -260.5t-211 -86.5q-135 0 -210.5 87t-75.5 260q0 176 75.5 265t210.5 89t210.5 -89t75.5 -265zM154 340q0 -254 177 -254t177 254q0 136 -47.5 199t-129.5 63t-129.5 -63t-47.5 -199z" />
<glyph unicode="1" horiz-adv-x="499" d="M486 0h-434v76l172 11v473l-148 -77l-45 65l214 140h85v-601l156 -11v-76z" />
<glyph unicode="2" horiz-adv-x="597" d="M556 0h-501v78q8 4 21.5 10.5t52.5 28t75 45t79.5 59.5t74.5 71.5t52.5 80.5t21.5 89q0 64 -38.5 102t-104.5 38q-69 0 -105 -37t-36 -95l5 -31l-106 9q-7 17 -7 41q0 86 63 145.5t183 59.5q126 0 190.5 -61t64.5 -161q0 -69 -32.5 -134t-78.5 -108.5t-92 -76.5t-78 -49 l-33 -15h328z" />
<glyph unicode="3" horiz-adv-x="596" d="M428 357v-4q5 -1 13.5 -3t29.5 -13t37 -26t29.5 -45t13.5 -68q0 -92 -71.5 -148.5t-193.5 -56.5q-151 0 -250 112q-3 4 -4 5l56 71q84 -95 197 -95q77 0 117.5 31t40.5 85q0 44 -33 71.5t-97 27.5h-83v92h71q20 0 39.5 4.5t39.5 15t32.5 32.5t12.5 52q0 47 -34 76 t-104 29q-63 0 -94 -31.5t-31 -74.5l2 -23l-98 11q-6 17 -6 37q0 75 62.5 124t169.5 49q122 0 182 -55.5t60 -134.5q0 -32 -11 -59t-26.5 -42.5t-31 -26.5t-26.5 -15z" />
<glyph unicode="4" horiz-adv-x="582" d="M465 0h-106v166h-336v83l306 439h136v-433h84v-89h-84v-166zM359 253v320l-225 -320h225z" />
<glyph unicode="5" horiz-adv-x="586" d="M285 -7q-57 0 -104.5 13t-82.5 37.5t-45.5 34t-28.5 28.5l64 73q82 -93 196 -93q74 0 115.5 36t41.5 104q0 57 -41 92t-122 35q-30 0 -59 -6t-46.5 -13t-32 -13.5t-15.5 -6.5l-49 19l33 355h411v-89h-320l-17 -186q42 29 115 29q116 0 182.5 -58t66.5 -159 q0 -107 -68 -169.5t-194 -62.5z" />
<glyph unicode="6" horiz-adv-x="612" d="M327 -7q-130 0 -206 84.5t-76 263.5t80 266t220 87q50 0 96 -14t66 -26t31 -22l-52 -80q-8 8 -22 17.5t-48.5 21t-71.5 11.5q-179 0 -190 -231q73 57 190 57q115 0 175 -58t60 -155q0 -96 -67 -159t-185 -63zM325 340q-99 0 -169 -59q10 -98 54.5 -146.5t116.5 -48.5 q70 0 108 36.5t38 94.5q0 52 -39 87.5t-109 35.5z" />
<glyph unicode="7" horiz-adv-x="538" d="M278 -1h-113l231 567q4 11 9.5 19t8.5 11l3 3h-292l-13 -114h-83l4 203h495v-67z" />
<glyph unicode="8" horiz-adv-x="604" d="M404 360v-2q26 -10 36 -14t38.5 -20.5t42.5 -32t27 -44t13 -61.5q0 -86 -71 -139.5t-188 -53.5q-114 0 -186.5 52t-72.5 141q0 41 14.5 73.5t38.5 52.5t45 31t44 18q-56 26 -87.5 62.5t-31.5 95.5q0 73 60.5 123.5t178.5 51.5q114 0 172.5 -50.5t58.5 -121.5 q0 -65 -39 -106.5t-93 -55.5zM453 197q0 21 -9.5 39t-21.5 29.5t-36 23t-40.5 17t-47.5 15.5q-147 -28 -147 -124q0 -50 40.5 -80.5t109.5 -30.5q70 0 111 30t41 81zM172 512q0 -89 135 -117q53 13 87.5 41.5t34.5 73.5q0 40 -33 67t-96 27q-63 -1 -95.5 -26.5t-32.5 -65.5z " />
<glyph unicode="9" horiz-adv-x="613" d="M286 694q130 0 206 -84.5t76 -262.5q0 -179 -80 -266.5t-220 -87.5q-50 0 -96 14t-66 26t-31 22l52 80q55 -49 142 -49q175 0 189 223q-71 -56 -189 -56q-115 0 -175 60t-60 159q0 96 67 159t185 63zM288 341q103 0 169 59q-9 102 -53.5 152t-117.5 50q-70 0 -108 -36.5 t-38 -94.5q0 -55 39 -92.5t109 -37.5z" />
<glyph unicode=":" horiz-adv-x="231" d="M177 54q0 -25 -18 -43t-44 -18q-25 0 -43 18t-18 43t18 43.5t43 18.5t43.5 -18t18.5 -44zM177 412q0 -25 -18 -43t-44 -18q-25 0 -43 18t-18 43t18 43.5t43 18.5t43.5 -18t18.5 -44z" />
<glyph unicode=";" horiz-adv-x="243" d="M94 -113l-13 34q15 5 32.5 23t17.5 45l-2 8q-5 -4 -17 -4q-24 0 -39 16t-15 41q0 24 17 40t43 16q30 0 48.5 -21.5t18.5 -58.5q0 -109 -91 -139zM181 412q0 -25 -18 -43t-44 -18q-25 0 -43 18t-18 43t18 43.5t43 18.5t43.5 -18t18.5 -44z" />
<glyph unicode="&#x3c;" horiz-adv-x="374" d="M329 539l-169 -167l169 -168l-59 -61l-222 204v50l222 204z" />
<glyph unicode="=" horiz-adv-x="520" d="M449 314h-378v98h378v-98zM449 80h-378v98h378v-98z" />
<glyph unicode="&#x3e;" horiz-adv-x="375" d="M215 372l-169 167l59 62l221 -204v-50l-221 -204l-59 61z" />
<glyph unicode="?" horiz-adv-x="523" d="M293 204h-93l-8 153q69 0 128 48t59 134q0 56 -32 89t-88 33q-60 0 -90.5 -35t-30.5 -91l4 -25l-105 10q-6 15 -6 38q0 81 58 138t168 57q113 0 172 -60t59 -157q0 -55 -24 -101.5t-58 -74t-61.5 -43t-44.5 -19.5zM310 56q0 -27 -18.5 -45t-45.5 -18q-26 0 -44 18t-18 45 t18 45.5t44 18.5q27 0 45.5 -18.5t18.5 -45.5z" />
<glyph unicode="@" horiz-adv-x="1064" d="M639 64v6h-4l-1 -1q-30 -56 -107 -72q-22 -4 -47 -4q-91 0 -151 63.5t-60 176.5q0 116 60 178.5t154 62.5q30 0 57 -7.5t43.5 -18t28.5 -21.5t17 -19l5 -7h3l15 66h77v-348q0 -44 35 -44q142 0 142 214q0 160 -97 266t-283 106q-180 0 -287 -115.5t-107 -289.5 q0 -58 12.5 -109t30 -87t48 -68t53 -50.5t59 -37.5t53.5 -26t47 -19l-53 -76q-32 13 -49 20.5t-58.5 31t-68 45.5t-62 61t-56.5 82t-36.5 103.5t-15.5 129.5q0 97 32 184.5t91.5 156.5t154.5 110t212 41q121 0 215.5 -40t149.5 -105.5t83 -143t28 -159.5q0 -151 -76 -229 t-187 -78q-39 0 -63.5 14.5t-30.5 29t-6 27.5zM508 79q78 0 117 50v198q-14 27 -45.5 44t-69.5 17q-62 0 -100.5 -40t-38.5 -115t39.5 -114.5t97.5 -39.5z" />
<glyph unicode="A" horiz-adv-x="740" d="M431 688l238 -602l75 -11v-75h-263v75l80 11q-24 61 -54 137h-272l-53 -137l80 -11v-75h-259v75l74 11l203 517l-85 9v76h236zM352 524l-83 -214h204l-82 214l-17 46h-8q-11 -37 -14 -46z" />
<glyph unicode="B" horiz-adv-x="675" d="M374 0h-333v75l87 10v518l-87 10v75h301q250 0 250 -180q0 -38 -11 -67t-31.5 -45t-32.5 -22.5t-30 -13.5v-5q22 -3 43 -10.5t48 -24t43.5 -50t16.5 -78.5q0 -192 -264 -192zM234 89h145q150 0 150 111q0 51 -39 79.5t-107 28.5h-149v-219zM234 392h139q44 0 77 27.5 t33 74.5q0 57 -35.5 81t-86.5 24h-127v-207z" />
<glyph unicode="C" horiz-adv-x="659" d="M614 431l-103 -15q3 18 3 39q0 66 -45 106.5t-116 40.5q-93 0 -146.5 -63t-53.5 -199q0 -254 200 -254q158 0 158 135v18l105 -22v-12q0 -94 -68 -153t-202 -59q-142 0 -222 87t-80 261q0 176 81 264.5t223 88.5q129 0 199.5 -63.5t70.5 -160.5z" />
<glyph unicode="D" horiz-adv-x="732" d="M234 89h101q126 0 185.5 62.5t59.5 192.5q0 127 -62.5 191t-195.5 64h-88v-510zM356 0h-315v75l87 10v518l-87 10v75h300q162 0 255 -84.5t93 -259.5q0 -178 -89.5 -261t-243.5 -83z" />
<glyph unicode="E" horiz-adv-x="631" d="M578 0h-537v75l86 10v518l-86 10v75h540l3 -194h-82l-11 105h-258v-208h222v-88h-222v-214h257l11 104h82z" />
<glyph unicode="F" horiz-adv-x="609" d="M390 0h-349v75l86 10v518l-86 10v75h540l3 -194h-82l-11 105h-258v-208h222v-88h-222v-218l157 -10v-75z" />
<glyph unicode="G" horiz-adv-x="667" d="M614 445l-103 -12q3 18 3 36q0 60 -44.5 96.5t-116.5 36.5q-93 0 -146.5 -63t-53.5 -199q0 -254 203 -254q158 0 158 147v18l-165 2v83h269v-101q0 -108 -67.5 -175t-202.5 -67q-143 0 -223.5 87t-80.5 261q0 176 81 264.5t223 88.5q129 0 199.5 -59t70.5 -150z" />
<glyph unicode="H" horiz-adv-x="812" d="M771 0h-280v75l87 10v209h-344v-209l87 -10v-75h-280v75l87 10v517l-87 11v75h280v-75l-87 -11v-222h344v222l-87 11v75h280v-75l-87 -11v-517l87 -10v-75z" />
<glyph unicode="I" horiz-adv-x="362" d="M321 0h-280v75l87 10v517l-87 11v75h280v-75l-87 -11v-517l87 -10v-75z" />
<glyph unicode="J" horiz-adv-x="353" d="M128 37v565l-89 11v75h282v-75l-86 -11v-581q0 -111 -59 -177.5t-149 -80.5l-31 95q71 23 101.5 64t30.5 115z" />
<glyph unicode="K" horiz-adv-x="736" d="M234 600v-233h119l166 233l-81 13v75h281v-75l-83 -13l-197 -275v-8q27 -12 58.5 -52.5t55.5 -80.5t60.5 -72.5t74.5 -32.5l24 3v-84q-16 -5 -51 -5q-49 0 -92.5 30t-74.5 72.5t-59 84.5t-56.5 72t-55.5 30h-89v-195l99 -12v-75h-292v75l87 12v513l-87 13v75h268v-75z " />
<glyph unicode="L" horiz-adv-x="586" d="M563 0h-522v75l87 10v517l-87 11v75h279v-75l-86 -11v-513h241l11 117h82z" />
<glyph unicode="M" horiz-adv-x="952" d="M434 54l-179 461h-4l-29 -430l72 -10v-75h-263v75l85 10l32 517l-88 11v75h223l146 -361l43 -125h11q31 95 43 125l146 361h221v-75l-88 -11l30 -517l86 -10v-75h-264v75l72 10l-28 430h-4l-179 -461h-84z" />
<glyph unicode="N" horiz-adv-x="823" d="M704 0h-118l-348 504h-4v-419l87 -10v-75h-280v75l87 10v517l-87 10v76h191l361 -526h5v440l-86 11v75h279v-75l-87 -11v-602z" />
<glyph unicode="O" d="M661 340q0 -173 -81.5 -260t-226.5 -87q-146 0 -227.5 87t-81.5 260q0 176 81.5 265t227.5 89q145 0 226.5 -89t81.5 -265zM153 340q0 -254 200 -254q199 0 199 254q0 136 -53 199t-146 63q-200 0 -200 -262z" />
<glyph unicode="P" horiz-adv-x="628" d="M341 0h-300v75l87 10v517l-87 11v75h323q105 0 170.5 -57.5t65.5 -159.5q0 -107 -65.5 -164t-182.5 -57h-118v-165l107 -10v-75zM234 340h107q150 0 150 131q0 65 -41.5 96.5t-107.5 31.5h-108v-259z" />
<glyph unicode="Q" d="M661 340q0 -157 -67.5 -243t-189.5 -101q9 -44 48 -70.5t115 -41.5l-33 -93q-99 13 -161 71.5t-64 133.5q-126 12 -195.5 98t-69.5 246q0 176 81.5 265t227.5 89q145 0 226.5 -89t81.5 -265zM153 340q0 -254 200 -254q199 0 199 254q0 136 -53 199t-146 63 q-200 0 -200 -262z" />
<glyph unicode="R" horiz-adv-x="676" d="M617 465q0 -183 -185 -208v-1q20 -8 44.5 -38t44 -60.5t48 -55t56.5 -24.5l27 2v-82q-17 -5 -53 -5q-40 0 -77 25t-64.5 61t-52.5 72t-51.5 61t-50.5 25h-69v-152l104 -10v-75h-297v75l87 10v517l-87 11v75h340q105 0 170.5 -58.5t65.5 -164.5zM234 324h131 q143 0 143 136q0 70 -42 104.5t-109 34.5h-123v-275z" />
<glyph unicode="S" horiz-adv-x="587" d="M49 169q0 12 2.5 22.5t4.5 15.5l2 5l105 7q-5 -13 -5 -28q0 -49 37 -77t99 -28q145 0 145 90q0 29 -17 50.5t-44.5 34t-63 24.5t-72.5 21t-72.5 25.5t-63 37t-44.5 55.5t-17 80q0 78 63 134t180 56q119 0 179.5 -49t60.5 -128q0 -12 -2 -22.5t-4 -15.5l-3 -5l-99 -10 q5 16 5 31q0 47 -33.5 77t-102.5 30q-62 0 -98.5 -26t-36.5 -69q0 -37 29 -62t73 -36.5t95 -28t95 -35.5t73 -60t29 -101q0 -84 -62.5 -137.5t-188.5 -53.5q-125 0 -186.5 50.5t-61.5 125.5z" />
<glyph unicode="T" horiz-adv-x="661" d="M471 0h-280v75l86 10v514h-166l-10 -105h-83l4 194h617l3 -194h-82l-11 105h-165v-514l87 -10v-75z" />
<glyph unicode="U" horiz-adv-x="760" d="M547 255v347l-86 11v75h276v-75l-88 -11v-345q0 -131 -68.5 -197.5t-199.5 -66.5q-132 0 -201.5 66.5t-69.5 197.5v345l-86 11v75h280v-75l-88 -11v-342q0 -174 165 -174q84 0 125 45.5t41 123.5z" />
<glyph unicode="V" horiz-adv-x="749" d="M431 0h-113l-243 602l-75 11v75h273v-75l-80 -11l166 -432l12 -42h11q9 35 12 43l166 431l-80 11v75h269v-75l-74 -11z" />
<glyph unicode="W" horiz-adv-x="1030" d="M392 0h-126l-188 602l-76 11v75h274v-75l-80 -11l118 -432l10 -42h10q6 35 8 42l130 518h92l126 -518l7 -42h11q7 35 9 42l120 432l-79 11v75h270v-75l-76 -11l-190 -602h-128l-110 481q-5 25 -5 31h-8q0 -11 -4 -31z" />
<glyph unicode="X" horiz-adv-x="750" d="M300 0h-282v75l84 10l205 255l-205 262l-84 11v75h282v-75l-80 -11l156 -203l153 203l-79 11v75h282v-75l-84 -11l-206 -262l205 -255l85 -10v-75h-282v75l80 10l-156 194l-154 -194l80 -10v-75z" />
<glyph unicode="Y" horiz-adv-x="700" d="M403 258v-173l89 -10v-75h-284v75l88 10v173l-217 344l-77 11v75h277v-75l-78 -11l145 -251h10l150 251l-79 11v75h272v-75l-78 -11z" />
<glyph unicode="Z" horiz-adv-x="637" d="M587 0h-542v83l409 516h-315l-11 -105h-81l2 194h542v-82l-408 -517h316l11 105h81z" />
<glyph unicode="[" horiz-adv-x="350" d="M332 -290h-252v1055h252v-90h-147v-874h147v-91z" />
<glyph unicode="\" horiz-adv-x="399" d="M375 -77l-91 -27l-260 882l91 27z" />
<glyph unicode="]" horiz-adv-x="349" d="M276 -290h-251v91h147v874h-147v90h251v-1055z" />
<glyph unicode="^" horiz-adv-x="413" d="M282 565l-76 115l-74 -115h-86l101 190h119l101 -190h-85z" />
<glyph unicode="_" horiz-adv-x="537" d="M480 -108h-423v88h423v-88z" />
<glyph unicode="`" horiz-adv-x="276" d="M168 536l-137 183h131l90 -183h-84z" />
<glyph unicode="a" horiz-adv-x="585" d="M256 474q29 0 55 -7t42 -17t28 -20.5t17 -17.5l5 -7h3l15 62h77v-354q0 -38 30 -38l24 4v-76q-14 -10 -62 -10q-39 0 -60.5 21t-21.5 53v3h-3l-3 -4q-3 -5 -8 -11.5t-13 -15t-21 -16.5t-28 -15t-37 -11t-46 -4q-91 0 -151 63.5t-60 176.5q0 112 62 176.5t156 64.5z M277 79q78 0 117 50v198q-14 27 -45.5 44t-69.5 17q-62 0 -100.5 -40t-38.5 -115t40 -114.5t97 -39.5z" />
<glyph unicode="b" horiz-adv-x="570" d="M167 71h-3l-15 -71h-77v661l-66 10v75h170v-292l-5 -40h3l1 1q50 57 146 59q91 0 151 -63.5t60 -176.5q0 -118 -58 -179.5t-152 -61.5q-31 0 -58.5 8t-44.5 19.5t-29.5 23t-17.5 19.5zM293 389q-79 0 -117 -51v-198q14 -28 45.5 -45t69.5 -17q62 0 100.5 40.5t38.5 115.5 t-40 115t-97 40z" />
<glyph unicode="c" horiz-adv-x="511" d="M469 267l-90 -6q5 10 5 31q0 96 -110 96q-66 0 -100 -35.5t-34 -118.5q0 -75 42 -115t108 -40q46 0 82.5 12.5t49.5 24.5l14 12l36 -76q-2 -2 -6.5 -6t-21.5 -14.5t-37 -18t-54 -14t-72 -6.5q-112 0 -177.5 62.5t-65.5 178.5q0 120 62 180t176 60q104 0 152 -48.5 t48 -118.5q0 -10 -2 -20t-4 -15z" />
<glyph unicode="d" horiz-adv-x="589" d="M250 474q31 0 58 -6t42 -14t26.5 -18t15 -15t4.5 -7h3q-5 37 -5 40v207l-70 10v75h174v-661l66 -10v-75h-143l-14 71h-4q-2 -3 -5.5 -8.5t-16.5 -19t-29 -23.5t-44 -18.5t-59 -8.5q-94 0 -152.5 61.5t-58.5 179.5q0 114 60 177t152 63zM280 79q37 0 68.5 16.5t45.5 42.5 v200q-37 50 -116 50q-58 0 -97.5 -40t-39.5 -114q0 -75 38.5 -115t100.5 -40z" />
<glyph unicode="e" horiz-adv-x="519" d="M477 208h-337q7 -64 48.5 -96.5t103.5 -32.5q45 0 81 12.5t49 24.5l13 12l37 -76q-7 -7 -20 -16.5t-63.5 -26t-110.5 -16.5q-109 0 -175 63t-66 178t65 177.5t173 62.5q96 0 152 -63.5t56 -148.5q0 -15 -1.5 -28.5t-3.5 -19.5zM276 392q-55 0 -92.5 -31.5t-43.5 -85.5 h248q-1 58 -34 87.5t-78 29.5z" />
<glyph unicode="f" horiz-adv-x="374" d="M310 0h-272v75l65 10v301h-67v81h67v105q0 90 44.5 136.5t129.5 46.5q24 0 46.5 -4.5t32.5 -8.5l11 -4v-87q-25 14 -72 14q-88 0 -88 -94v-104h150v-81h-150v-304l103 -7v-75z" />
<glyph unicode="g" horiz-adv-x="590" d="M398 -37v50l2 40h-3l-1 -1q-50 -57 -146 -59q-91 0 -151 63.5t-60 176.5q0 118 58 179.5t152 61.5q50 0 88.5 -20t52.5 -40l14 -19h3l15 72h143v-75l-66 -10v-419q0 -123 -70.5 -184.5t-182.5 -61.5q-39 0 -74.5 8t-58 19t-39 22t-24.5 19l-7 8l44 72q2 -2 5.5 -6.5 t16.5 -15t29.5 -18.5t44.5 -14.5t60 -6.5q72 0 113.5 38.5t41.5 120.5zM278 79q78 0 117 50v198q-14 27 -45.5 44t-69.5 17q-62 0 -100.5 -40t-38.5 -115t39.5 -114.5t97.5 -39.5z" />
<glyph unicode="h" horiz-adv-x="603" d="M196 474l-6 -76h3q1 3 3.5 8t13.5 18.5t26 23.5t43.5 18t64.5 8q87 0 131 -49.5t44 -131.5v-208l67 -10v-75h-170v275q0 110 -105 110q-31 0 -55 -11t-36 -27.5t-17 -26t-7 -16.5v-219l62 -10v-75h-231v75l66 10v576l-67 10v75h170v-272z" />
<glyph unicode="i" horiz-adv-x="300" d="M209 467v-382l61 -10v-75h-231v75l66 10v297l-66 10v75h170zM228 647q0 -31 -22 -53t-53 -22t-53 22t-22 53t22 53t53 22t53 -22t22 -53z" />
<glyph unicode="j" horiz-adv-x="272" d="M199 467v-546q0 -78 -50.5 -131t-125.5 -71l-33 94q54 20 80 50t26 79v440l-66 10v75h169zM220 647q0 -31 -22 -53t-54 -22q-31 0 -53 22t-22 53t22 53t53 22q32 0 54 -22t22 -53z" />
<glyph unicode="k" horiz-adv-x="589" d="M197 746l-1 -347q2 3 5.5 8t17.5 18t31 23t46 18t61 8q86 0 129 -40.5t43 -102.5q0 -56 -34.5 -94t-85.5 -56l85 -96l78 -10v-75h-118l-150 171h-107v-86l61 -10v-75h-232v75l67 10v576l-67 10v75h171zM197 236h100q55 0 92.5 20.5t37.5 56.5q0 37 -25.5 56.5t-67.5 19.5 t-76 -19t-47.5 -36t-13.5 -21v-77z" />
<glyph unicode="l" horiz-adv-x="290" d="M198 746v-661l62 -10v-75h-231v75l65 10v576l-65 10v75h169z" />
<glyph unicode="m" horiz-adv-x="925" d="M180 467l11 -85h3q1 4 3.5 10t14.5 22t28 28t46.5 22t67.5 10q115 0 156 -87q3 10 11 21.5t25 28t49 27t73 10.5q87 0 131 -49.5t44 -131.5v-208l66 -10v-75h-170v275q0 113 -105 113q-77 0 -107 -63q2 -20 2 -32v-208l66 -10v-75h-169v275q0 113 -105 113 q-31 0 -55 -11.5t-36.5 -28.5t-17 -27t-6.5 -17v-219l62 -10v-75h-231v75l66 10v297l-66 10v75h143z" />
<glyph unicode="n" horiz-adv-x="612" d="M180 467l11 -85h3q1 4 3.5 10t14.5 22t28 28t46.5 22t67.5 10q87 0 131 -49.5t44 -131.5v-208l66 -10v-75h-169v275q0 113 -105 113q-31 0 -55 -11.5t-36.5 -28.5t-17 -27t-6.5 -17v-219l62 -9v-76h-231v75l66 10v297l-66 10v75h143z" />
<glyph unicode="o" horiz-adv-x="551" d="M514 234q0 -116 -64 -178.5t-174 -62.5t-174.5 62.5t-64.5 178.5q0 115 65.5 177.5t173.5 62.5q107 0 172.5 -62.5t65.5 -177.5zM276 79q59 0 97 40t38 115q0 74 -39.5 114t-95.5 40q-57 0 -97 -40t-40 -114q0 -75 38.5 -115t98.5 -40z" />
<glyph unicode="p" horiz-adv-x="590" d="M92 -193v575l-67 10v75h143l15 -72h3q2 3 5.5 8.5t17 19t29.5 24t44 19t59 8.5q94 0 152.5 -61.5t58.5 -179.5q0 -113 -60.5 -176.5t-151.5 -63.5q-48 0 -85 16t-48 27t-14 17h-2q4 -37 4 -40v-216h87v-75h-257v75zM310 388q-37 0 -68 -16t-46 -42v-203q35 -48 116 -48 q58 0 97.5 39.5t39.5 114.5t-38.5 115t-100.5 40z" />
<glyph unicode="q" horiz-adv-x="571" d="M404 396h3l15 71h77v-660l66 -10v-75h-259v75l89 10v206l5 40h-3l-1 -1q-50 -57 -146 -59q-91 0 -151 63.5t-60 176.5q0 118 58 179.5t152 61.5q31 0 58.5 -8t44.5 -19.5t29.5 -23t17.5 -19.5zM278 79q78 0 117 50v198q-14 27 -45.5 44t-69.5 17q-62 0 -100.5 -40 t-38.5 -115t39.5 -114.5t97.5 -39.5z" />
<glyph unicode="r" horiz-adv-x="412" d="M399 469v-97q-25 7 -53 7q-32 0 -58 -12t-40.5 -29.5t-24.5 -35t-13 -29.5l-4 -12v-175l79 -8v-78h-248v75l66 10v297l-66 10v75h143l11 -118h3q1 5 3.5 13.5t14 30t27 38t45 30t65.5 13.5q30 0 50 -5z" />
<glyph unicode="s" horiz-adv-x="481" d="M241 -7q-106 0 -155 37t-49 93l5 30l93 7q-3 -8 -3 -16q0 -33 27 -52.5t80 -19.5q103 0 103 61q0 26 -30 39t-88 23q-40 7 -64 14t-54 22.5t-45 42t-15 64.5q0 59 50.5 97.5t138.5 38.5q103 0 150.5 -36t47.5 -94q0 -10 -1.5 -18.5t-3.5 -11.5l-1 -4l-93 -6q3 9 3 24 q0 68 -97 68q-39 0 -65.5 -15.5t-26.5 -45.5q0 -8 2 -14.5t7 -12t9.5 -9.5t14 -8t15.5 -6t19 -5l19.5 -4.5t22 -4.5t21.5 -4q38 -7 64 -16t51.5 -24t38.5 -39.5t13 -58.5q0 -61 -49.5 -98.5t-154.5 -37.5z" />
<glyph unicode="t" horiz-adv-x="368" d="M101 596h87v-129h150v-81h-150v-213q0 -90 76 -90q24 0 45 3.5t30 7.5l9 3v-87q-42 -17 -105 -17q-158 0 -158 173v220h-68v81h68z" />
<glyph unicode="u" horiz-adv-x="602" d="M421 89h-3q-1 -4 -3.5 -10.5t-14.5 -23t-28 -29t-46 -23t-68 -10.5q-87 0 -131 49.5t-44 131.5v208l-66 10v75h170v-275q0 -113 105 -113q29 0 52 9.5t35.5 25t18 25.5t8.5 20v223l-61 10v75h165v-382l66 -10v-75h-144z" />
<glyph unicode="v" horiz-adv-x="584" d="M358 0h-131l-153 382l-67 10v75h226v-75l-51 -10l108 -282h7l109 282l-54 10v75h225v-75l-67 -10z" />
<glyph unicode="w" horiz-adv-x="819" d="M323 0h-127l-121 382l-67 10v75h225v-75l-51 -10l78 -282h8l95 367h96l96 -367h7l78 282l-53 10v75h225v-75l-68 -10l-120 -382h-128l-84 324h-6z" />
<glyph unicode="x" horiz-adv-x="567" d="M237 0h-212v75l56 10l134 149l-129 148l-61 10v75h226v-75l-44 -10l85 -99l88 99l-48 10v75h211v-75l-60 -10l-130 -146l134 -151l56 -10v-75h-227v75l48 10l-89 102l-90 -102l52 -10v-75z" />
<glyph unicode="y" horiz-adv-x="584" d="M413 -47v111h-3q-40 -71 -149 -71q-88 0 -131.5 49.5t-43.5 131.5v208l-67 10v75h170v-275q0 -113 104 -113q26 0 47 8.5t32.5 18.5t20.5 24t12 20.5t4 11.5v220l-63 10v75h166v-514q0 -120 -67.5 -179.5t-179.5 -59.5q-38 0 -72 8t-55.5 19t-38 22t-23.5 19l-7 8l44 72 q2 -2 5 -6.5t15.5 -15t28 -18.5t42 -14.5t57.5 -6.5q152 0 152 152z" />
<glyph unicode="z" horiz-adv-x="533" d="M489 0h-443v85l313 301h-229l-7 -79h-77v160h443v-75l-317 -311h235l6 78h76v-159z" />
<glyph unicode="{" horiz-adv-x="333" d="M311 -197v-90h-15q-193 0 -193 170v207q0 51 -24.5 81.5t-46.5 30.5h-13v68h13q23 0 47 30t24 81v213q0 171 193 171h15v-90h-15q-47 0 -67.5 -18.5t-20.5 -64.5v-210q0 -40 -16 -71t-32 -43l-16 -11v-43q3 -1 7 -4t15 -14t19.5 -24.5t15.5 -35.5t7 -47v-204 q0 -46 20.5 -64t67.5 -18h15z" />
<glyph unicode="|" horiz-adv-x="248" d="M169 -286h-92v1046h92v-1046z" />
<glyph unicode="}" horiz-adv-x="333" d="M28 -287v90h14q47 0 68 18t21 64v204q0 25 6.5 47t15.5 35.5t18.5 24t16.5 14.5l6 4v43q-7 4 -17.5 12.5t-28 40.5t-17.5 72v210q0 46 -21 64.5t-68 18.5h-14v90h14q194 0 194 -171v-213q0 -51 23.5 -81t46.5 -30h13v-68h-13q-23 0 -46.5 -30.5t-23.5 -81.5v-207 q0 -170 -194 -170h-14z" />
<glyph unicode="~" horiz-adv-x="498" d="M388 554l53 -34q-28 -85 -108 -85q-35 0 -87 22t-74 22q-30 0 -62 -37l-54 33q30 85 108 85q35 0 85.5 -22t75.5 -22q31 0 63 38z" />
<glyph unicode="&#xa1;" horiz-adv-x="246" d="M81 276h84l9 -571h-102zM186 411q0 -27 -18.5 -44.5t-45.5 -17.5t-45.5 17.5t-18.5 44.5q0 26 18.5 44.5t45.5 18.5t45.5 -18.5t18.5 -44.5z" />
<glyph unicode="&#xa2;" horiz-adv-x="539" d="M487 357l-90 -6q4 10 4 30q0 100 -115 100q-139 0 -139 -157q0 -76 44 -117t111 -41q48 0 86 13t52 26l13 13l37 -76q-6 -6 -18 -14.5t-55.5 -24.5t-95.5 -19v-85h-67v86q-97 10 -153 71.5t-56 167.5q0 110 54.5 170t154.5 68v74h67v-74q89 -8 131 -55t42 -110 q0 -10 -2 -20t-4 -15z" />
<glyph unicode="&#xa3;" horiz-adv-x="622" d="M470 200h-187q-7 -36 -31 -69t-55 -50h379v-81h-531v73q112 50 129 127h-122v68h116q-9 21 -35.5 56t-45.5 72t-19 80q0 97 69 157.5t189 60.5q112 0 179 -56.5t67 -145.5l-4 -33l-108 -9q4 10 4 26q0 57 -39 91.5t-105 34.5q-62 0 -102.5 -34t-40.5 -102 q0 -44 46.5 -109t54.5 -89h192v-68z" />
<glyph unicode="&#xa4;" horiz-adv-x="647" d="M583 82l-35 -30l-75 84q-61 -43 -149 -43q-89 0 -153 44l-75 -85l-35 30l75 85q-65 70 -65 181t67 178l-77 87l35 30l78 -87q65 43 150 43q83 0 148 -42l76 86l35 -30l-75 -86q69 -69 69 -179q0 -112 -68 -183zM324 180q64 0 106 46t42 121t-43 119.5t-105 44.5 t-105.5 -44.5t-43.5 -119.5t42.5 -121t106.5 -46z" />
<glyph unicode="&#xa5;" horiz-adv-x="751" d="M174 252h148v6l-44 69h-134v68h91l-130 207l-77 11v75h277v-75l-78 -11l145 -251h10l150 251l-79 11v75h272v-75l-78 -11l-132 -207h86v-68h-129l-43 -69v-6h141v-68h-141v-99l89 -10v-75h-284v75l88 10v99h-148v68z" />
<glyph unicode="&#xa6;" horiz-adv-x="251" d="M171 308h-92v452h92v-452zM111 58h28v-234h-28v234z" />
<glyph unicode="&#xa7;" horiz-adv-x="571" d="M526 184q0 -90 -63 -140q63 -51 63 -139q0 -84 -58.5 -137.5t-176.5 -53.5q-121 0 -179.5 50.5t-58.5 125.5q0 11 2 22t4 16l2 5l105 7q-5 -13 -5 -28q0 -49 34 -77.5t93 -28.5q131 0 131 91q0 33 -20.5 56t-53 36t-72 24.5t-79.5 27t-72.5 36.5t-53 58.5t-20.5 89.5 q0 84 66 137q-66 50 -66 142q0 78 60.5 134t173.5 56q111 0 168 -49t57 -128q0 -12 -2.5 -22.5t-4.5 -15.5l-2 -5l-100 -10q5 0 5 31q0 47 -29.5 77t-91.5 30q-57 0 -91 -26t-34 -69q0 -44 38 -70t92.5 -41t108.5 -34t92 -63.5t38 -114.5zM419 176q0 21 -9 38t-19.5 27.5 t-35 22t-38 16.5t-48 15.5t-46.5 14.5q-66 -24 -66 -82q0 -21 9 -37.5t21 -27.5t35.5 -21.5t40.5 -16t48.5 -15t48.5 -15.5q59 20 59 81z" />
<glyph unicode="&#xa8;" horiz-adv-x="327" d="M128 589q0 -25 -17 -41.5t-41 -16.5q-23 0 -39.5 16.5t-16.5 41.5q0 24 16.5 40.5t39.5 16.5q24 0 41 -16.5t17 -40.5zM314 589q0 -24 -17.5 -41t-41.5 -17q-23 0 -39.5 16.5t-16.5 41.5q0 24 16.5 40.5t39.5 16.5q24 0 41.5 -16.5t17.5 -40.5z" />
<glyph unicode="&#xa9;" horiz-adv-x="685" d="M639 348q0 -121 -88 -209t-209 -88t-209 88t-88 209t88 209t209 88t209 -88t88 -209zM604 348q0 109 -76.5 185.5t-185.5 76.5t-185.5 -76.5t-76.5 -185.5t76.5 -185.5t185.5 -76.5t185.5 76.5t76.5 185.5zM437 290l48 -32q-44 -83 -142 -83q-71 0 -120 48t-49 128 t49 128t120 48q43 0 76.5 -18t46 -34t19.5 -31l-49 -35q-29 52 -93 52q-41 0 -70 -28.5t-29 -80.5q0 -53 29 -82t73 -29q29 0 49.5 10t27 18t14.5 21z" />
<glyph unicode="&#xaa;" horiz-adv-x="393" d="M170 724q28 0 49.5 -11.5t29.5 -22.5l8 -12h2l11 38h46v-208q0 -24 18 -24l14 3v-50q-8 -6 -37 -6q-25 0 -38 13.5t-13 32.5v5h-2l-1 -2q-1 -2 -3 -5t-4.5 -7t-6.5 -8t-9.5 -8t-12 -8t-14.5 -7t-18.5 -4.5t-21.5 -1.5q-55 0 -91 38t-36 106t37.5 108.5t92.5 40.5z M184 488q45 0 67 30v112q-18 36 -66 36q-32 0 -53 -24t-21 -67q0 -42 21.5 -64.5t51.5 -22.5z" />
<glyph unicode="&#xab;" horiz-adv-x="497" d="M132 240l118 -138l-68 -55l-139 163v60l139 162l68 -55zM344 240l118 -138l-68 -55l-140 163v60l140 162l68 -55z" />
<glyph unicode="&#xac;" horiz-adv-x="619" d="M557 141h-92v175h-411v81h503v-256z" />
<glyph unicode="&#xad;" horiz-adv-x="463" d="M405 243h-347v98h347v-98z" />
<glyph unicode="&#xae;" horiz-adv-x="685" d="M639 348q0 -121 -88 -209t-209 -88t-209 88t-88 209t88 209t209 88t209 -88t88 -209zM342 86q109 0 185.5 76.5t76.5 185.5t-76.5 185.5t-185.5 76.5t-185.5 -76.5t-76.5 -185.5t76.5 -185.5t185.5 -76.5zM484 189h-70l-68 130h-50v-80l40 -9v-41h-128v41l34 9v227l-34 9 v41h134q56 0 90 -26t34 -75q0 -72 -66 -90q3 -4 15 -26l32 -60l37 -8v-42zM296 359h47q63 0 63 51q0 25 -16.5 39.5t-46.5 14.5h-47v-105z" />
<glyph unicode="&#xaf;" horiz-adv-x="398" d="M365 540h-329v81h329v-81z" />
<glyph unicode="&#xb0;" horiz-adv-x="248" d="M125 414q-32 0 -54 21.5t-22 60.5q0 34 22 57t54 23t54.5 -23t22.5 -57q0 -39 -22 -60.5t-55 -21.5zM125 455q15 0 25.5 11t10.5 30q0 18 -10.5 28.5t-25.5 10.5t-25 -10.5t-10 -28.5q0 -19 10.5 -30t24.5 -11z" />
<glyph unicode="&#xb1;" horiz-adv-x="587" d="M524 52h-462v81h462v-81zM343 176h-92v166h-189v81h189v169h92v-169h181v-81h-181v-166z" />
<glyph unicode="&#xb2;" horiz-adv-x="386" d="M330 345h-267v55q7 3 19.5 9t44.5 24t56 36.5t44 45t20 51.5q0 27 -16 42t-45 15q-30 0 -45.5 -13.5t-15.5 -32.5l3 -16l-72 7q-4 9 -4 23q0 43 34.5 73t99.5 30q69 0 105 -32t36 -83q0 -32 -13.5 -60.5t-33.5 -47t-39.5 -33t-32.5 -20.5l-14 -6h136v-67z" />
<glyph unicode="&#xb3;" horiz-adv-x="367" d="M262 519v-3q3 0 7 -1.5t14.5 -6.5t19 -12t15 -21t6.5 -32q0 -47 -39 -76t-105 -29q-86 0 -138 62l39 50q43 -43 99 -43q31 0 48 12t17 31q0 39 -50 39h-47v54h40q47 0 47 42q0 15 -14 27.5t-40 12.5q-29 0 -43.5 -11t-14.5 -27l2 -13l-67 7q-4 11 -4 22q0 40 35 65.5 t95 25.5q66 0 98.5 -29.5t32.5 -70.5q0 -26 -13.5 -45t-26.5 -25z" />
<glyph unicode="&#xb4;" horiz-adv-x="306" d="M269 719l-136 -183h-85l91 183h130z" />
<glyph unicode="&#xb5;" horiz-adv-x="628" d="M201 -251h-104v633l-66 10v75h170v-275q0 -113 105 -113q29 0 52 9.5t35.5 25t18 25.5t8.5 20v223l-61 10v75h165v-382l66 -10v-75h-144l-11 89h-3q-1 -4 -3.5 -10.5t-14.5 -23t-28 -29t-46 -23t-68 -10.5q-40 0 -71 11v-255z" />
<glyph unicode="&#xb6;" horiz-adv-x="653" d="M461 -79v678h-62v-678h-69v329h-55q-117 0 -182 57t-65 164q0 102 65 159.5t170 57.5h358v-76l-87 -10v-681h-73z" />
<glyph unicode="&#xb7;" horiz-adv-x="224" d="M171 298q0 -25 -17 -42t-42 -17t-42 17t-17 42t17 42t42 17t42 -17t17 -42z" />
<glyph unicode="&#xb8;" horiz-adv-x="240" d="M115 -184q-27 0 -51 9t-35 18l-11 9l33 45l3 -3q4 -3 9 -6.5t12 -7t16.5 -6t19.5 -2.5q43 0 43 32q0 13 -10 22t-27 9l-25 -5l-20 16l28 63h61l-17 -40q14 0 28.5 -4t30 -22t15.5 -48q0 -36 -28 -57.5t-75 -21.5z" />
<glyph unicode="&#xb9;" horiz-adv-x="343" d="M306 344h-242v58l90 10v187l-77 -40l-30 52l121 76h59v-275l79 -10v-58z" />
<glyph unicode="&#xba;" horiz-adv-x="366" d="M328 576q0 -69 -38.5 -107t-104.5 -38t-105 38t-39 107q0 71 39.5 109.5t104.5 38.5q64 0 103.5 -38.5t39.5 -109.5zM185 490q32 0 53 22t21 64q0 43 -21.5 65.5t-52.5 22.5t-53 -22t-22 -66q0 -42 21 -64t54 -22z" />
<glyph unicode="&#xbb;" horiz-adv-x="497" d="M249 102l119 138l-119 137l68 55l140 -162v-60l-140 -163zM38 102l118 138l-118 137l68 55l139 -162v-60l-139 -163z" />
<glyph unicode="&#xbc;" horiz-adv-x="751" d="M216 -38l-62 39l427 747l63 -38zM295 344h-242v58l88 10v184l-75 -41l-31 56l122 76h61v-275l77 -10v-58zM676 0h-76v81h-169v53l153 209h92v-197h41v-65h-41v-81zM600 143v120l-88 -120h88z" />
<glyph unicode="&#xbd;" horiz-adv-x="791" d="M216 -38l-62 39l427 747l63 -38zM295 344h-242v58l88 10v184l-75 -41l-31 56l122 76h61v-275l77 -10v-58zM752 0h-267v55q7 3 19.5 9t44.5 24t56 36.5t44 45t20 51.5q0 27 -16 42t-45 15q-30 0 -45.5 -13.5t-15.5 -32.5l3 -16l-72 7q-4 9 -4 23q0 43 34.5 73t99.5 30 q69 0 105 -32t36 -83q0 -32 -13.5 -60.5t-33.5 -47t-39.5 -33t-32.5 -20.5l-14 -6h136v-67z" />
<glyph unicode="&#xbe;" horiz-adv-x="750" d="M217 -38l-63 39l427 747l64 -38zM674 0h-76v81h-169v53l153 209h92v-197h41v-65h-41v-81zM598 143v120l-88 -120h88zM254 519v-3q3 0 7 -1.5t14.5 -6.5t19 -12t15 -21t6.5 -32q0 -47 -39 -76t-105 -29q-90 0 -138 62l39 50q43 -43 99 -43q31 0 48 12t17 31q0 39 -50 39 h-47v54h40q47 0 47 42q0 15 -14 27.5t-40 12.5q-29 0 -43.5 -11t-14.5 -27l2 -13l-67 7q-4 11 -4 22q0 40 35 65.5t95 25.5q66 0 98.5 -29.5t32.5 -70.5q0 -26 -13.5 -45t-26.5 -25z" />
<glyph unicode="&#xbf;" horiz-adv-x="514" d="M225 263h93l8 -153q-69 0 -128 -48t-59 -134q0 -56 32 -89t88 -33q60 0 90.5 35t30.5 91l-4 25l105 -10q6 -15 6 -38q0 -81 -58 -138t-168 -57q-113 0 -172 60t-59 157q0 55 24 101.5t58 74t61.5 43t44.5 19.5zM208 411q0 27 18.5 45t45.5 18q26 0 44 -18t18 -45 t-18 -45.5t-44 -18.5q-27 0 -45.5 18.5t-18.5 45.5z" />
<glyph unicode="&#xc0;" horiz-adv-x="740" d="M431 688l238 -602l75 -11v-75h-263v75l80 11q-24 61 -54 137h-272l-53 -137l80 -11v-75h-259v75l74 11l203 517l-85 9v76h236zM352 524l-83 -214h204l-82 214l-17 46h-8q-11 -37 -14 -46zM346 742l-137 183h131l90 -183h-84z" />
<glyph unicode="&#xc1;" horiz-adv-x="740" d="M431 688l238 -602l75 -11v-75h-263v75l80 11q-24 61 -54 137h-272l-53 -137l80 -11v-75h-259v75l74 11l203 517l-85 9v76h236zM352 524l-83 -214h204l-82 214l-17 46h-8q-11 -37 -14 -46zM519 922l-136 -183h-85l91 183h130z" />
<glyph unicode="&#xc2;" horiz-adv-x="740" d="M431 688l238 -602l75 -11v-75h-263v75l80 11q-24 61 -54 137h-272l-53 -137l80 -11v-75h-259v75l74 11l203 517l-85 9v76h236zM352 524l-83 -214h204l-82 214l-17 46h-8q-11 -37 -14 -46zM435 742l-75 112l-75 -112h-85l100 183h120l100 -183h-85z" />
<glyph unicode="&#xc3;" horiz-adv-x="740" d="M431 688l238 -602l75 -11v-75h-263v75l80 11q-24 61 -54 137h-272l-53 -137l80 -11v-75h-259v75l74 11l203 517l-85 9v76h236zM352 524l-83 -214h204l-82 214l-17 46h-8q-11 -37 -14 -46zM510 854l54 -34q-30 -85 -109 -85q-35 0 -86 22t-74 22q-30 0 -63 -37l-53 33 q28 85 107 85q35 0 86 -22t76 -22q30 0 62 38z" />
<glyph unicode="&#xc4;" horiz-adv-x="740" d="M431 688l238 -602l75 -11v-75h-263v75l80 11q-24 61 -54 137h-272l-53 -137l80 -11v-75h-259v75l74 11l203 517l-85 9v76h236zM352 524l-83 -214h204l-82 214l-17 46h-8q-11 -37 -14 -46zM335 795q0 -25 -17 -41.5t-41 -16.5q-23 0 -39.5 16.5t-16.5 41.5q0 24 16.5 40.5 t39.5 16.5q24 0 41 -16.5t17 -40.5zM521 795q0 -24 -17.5 -41t-41.5 -17q-23 0 -39.5 16.5t-16.5 41.5q0 24 16.5 40.5t39.5 16.5q24 0 41.5 -16.5t17.5 -40.5z" />
<glyph unicode="&#xc5;" horiz-adv-x="740" d="M431 688l238 -602l75 -11v-75h-263v75l80 11q-24 61 -54 137h-272l-53 -137l80 -11v-75h-259v75l74 11l203 517l-85 9v76h236zM352 524l-83 -214h204l-82 214l-17 46h-8q-11 -37 -14 -46zM466 828q0 -40 -28 -68.5t-69 -28.5t-69.5 28t-28.5 69t28.5 69t69.5 28t69 -28.5 t28 -68.5zM408 828q0 17 -11.5 28.5t-27.5 11.5q-17 0 -28.5 -11.5t-11.5 -28.5t11.5 -28t28.5 -11t28 11t11 28z" />
<glyph unicode="&#xc6;" horiz-adv-x="992" d="M938 0h-537v75l86 10v140h-242l-67 -139l80 -11v-75h-260v75l74 11l239 517l-78 10v75h708l3 -194h-82l-11 105h-258v-208h222v-88h-222v-214h257l11 104h82zM401 552q-3 -9 -114 -241h200v290h-73q-10 -41 -13 -49z" />
<glyph unicode="&#xc7;" horiz-adv-x="655" d="M337 -184q-27 0 -51 9t-35 18l-11 9l33 45l3 -3q4 -3 9 -6.5t12 -7t16.5 -6t19.5 -2.5q43 0 43 32q0 13 -10 22t-27 9l-25 -5l-20 16l21 48q-129 8 -201.5 95t-72.5 252q0 176 81 264.5t223 88.5q129 0 199.5 -63.5t70.5 -160.5l-4 -39l-103 -15q3 18 3 39 q0 66 -45 106.5t-116 40.5q-93 0 -146.5 -63t-53.5 -199q0 -254 200 -254q158 0 158 135v18l105 -22v-12q0 -88 -59.5 -146t-177.5 -65l-10 -25q14 0 28.5 -4t30 -22t15.5 -48q0 -36 -28 -57.5t-75 -21.5z" />
<glyph unicode="&#xc8;" horiz-adv-x="631" d="M578 0h-537v75l86 10v518l-86 10v75h540l3 -194h-82l-11 105h-258v-208h222v-88h-222v-214h257l11 104h82zM329 741l-137 183h131l90 -183h-84z" />
<glyph unicode="&#xc9;" horiz-adv-x="631" d="M472 922l-136 -183h-85l91 183h130zM578 0h-537v75l86 10v518l-86 10v75h540l3 -194h-82l-11 105h-258v-208h222v-88h-222v-214h257l11 104h82z" />
<glyph unicode="&#xca;" horiz-adv-x="631" d="M398 741l-75 112l-75 -112h-85l100 183h120l100 -183h-85zM578 0h-537v75l86 10v518l-86 10v75h540l3 -194h-82l-11 105h-258v-208h222v-88h-222v-214h257l11 104h82z" />
<glyph unicode="&#xcb;" horiz-adv-x="631" d="M314 795q0 -25 -17 -41.5t-41 -16.5q-23 0 -39.5 16.5t-16.5 41.5q0 24 16.5 40.5t39.5 16.5q24 0 41 -16.5t17 -40.5zM500 795q0 -24 -17.5 -41t-41.5 -17q-23 0 -39.5 16.5t-16.5 41.5q0 24 16.5 40.5t39.5 16.5q24 0 41.5 -16.5t17.5 -40.5zM578 0h-537v75l86 10v518 l-86 10v75h540l3 -194h-82l-11 105h-258v-208h222v-88h-222v-214h257l11 104h82z" />
<glyph unicode="&#xcc;" horiz-adv-x="362" d="M321 0h-280v75l87 10v517l-87 11v75h280v-75l-87 -11v-517l87 -10v-75zM149 742l-137 183h131l90 -183h-84z" />
<glyph unicode="&#xcd;" horiz-adv-x="362" d="M321 0h-280v75l87 10v517l-87 11v75h280v-75l-87 -11v-517l87 -10v-75zM319 922l-136 -183h-85l91 183h130z" />
<glyph unicode="&#xce;" horiz-adv-x="362" d="M321 0h-280v75l87 10v517l-87 11v75h280v-75l-87 -11v-517l87 -10v-75zM251 742l-75 112l-75 -112h-85l100 183h120l100 -183h-85z" />
<glyph unicode="&#xcf;" horiz-adv-x="362" d="M321 0h-280v75l87 10v517l-87 11v75h280v-75l-87 -11v-517l87 -10v-75zM151 795q0 -25 -17 -41.5t-41 -16.5q-23 0 -39.5 16.5t-16.5 41.5q0 24 16.5 40.5t39.5 16.5q24 0 41 -16.5t17 -40.5zM337 795q0 -24 -17.5 -41t-41.5 -17q-23 0 -39.5 16.5t-16.5 41.5 q0 24 16.5 40.5t39.5 16.5q24 0 41.5 -16.5t17.5 -40.5z" />
<glyph unicode="&#xd0;" horiz-adv-x="732" d="M46 309v68h83v226l-87 10v75h300q162 0 255 -84.5t93 -259.5q0 -178 -89.5 -261t-243.5 -83h-315v75l87 10v224h-83zM235 89h101q126 0 185.5 62.5t59.5 192.5q0 127 -62.5 191t-195.5 64h-88v-222h148v-68h-148v-220z" />
<glyph unicode="&#xd1;" horiz-adv-x="823" d="M704 0h-118l-348 504h-4v-419l87 -10v-75h-280v75l87 10v517l-87 10v76h191l361 -526h5v440l-86 11v75h279v-75l-87 -11v-602zM552 857l54 -34q-30 -85 -109 -85q-35 0 -86 22t-74 22q-30 0 -63 -37l-53 33q28 85 107 85q35 0 86 -22t76 -22q30 0 62 38z" />
<glyph unicode="&#xd2;" d="M661 340q0 -173 -81.5 -260t-226.5 -87q-146 0 -227.5 87t-81.5 260q0 176 81.5 265t227.5 89q145 0 226.5 -89t81.5 -265zM153 340q0 -254 200 -254q199 0 199 254q0 136 -53 199t-146 63q-200 0 -200 -262zM351 739l-137 183h131l90 -183h-84z" />
<glyph unicode="&#xd3;" d="M484 922l-136 -183h-85l91 183h130zM661 340q0 -173 -81.5 -260t-226.5 -87q-146 0 -227.5 87t-81.5 260q0 176 81.5 265t227.5 89q145 0 226.5 -89t81.5 -265zM153 340q0 -254 200 -254q199 0 199 254q0 136 -53 199t-146 63q-200 0 -200 -262z" />
<glyph unicode="&#xd4;" d="M429 739l-75 112l-75 -112h-85l100 183h120l100 -183h-85zM661 340q0 -173 -81.5 -260t-226.5 -87q-146 0 -227.5 87t-81.5 260q0 176 81.5 265t227.5 89q145 0 226.5 -89t81.5 -265zM153 340q0 -254 200 -254q199 0 199 254q0 136 -53 199t-146 63q-200 0 -200 -262z " />
<glyph unicode="&#xd5;" d="M661 340q0 -173 -81.5 -260t-226.5 -87q-146 0 -227.5 87t-81.5 260q0 176 81.5 265t227.5 89q145 0 226.5 -89t81.5 -265zM153 340q0 -254 200 -254q199 0 199 254q0 136 -53 199t-146 63q-200 0 -200 -262zM488 856l54 -34q-30 -85 -109 -85q-35 0 -86.5 22t-73.5 22 q-30 0 -63 -37l-53 33q28 85 107 85q35 0 86 -22t76 -22q30 0 62 38z" />
<glyph unicode="&#xd6;" d="M314 793q0 -25 -17 -41.5t-41 -16.5q-23 0 -39.5 16.5t-16.5 41.5q0 24 16.5 40.5t39.5 16.5q24 0 41 -16.5t17 -40.5zM500 793q0 -24 -17.5 -41t-41.5 -17q-23 0 -39.5 16.5t-16.5 41.5q0 24 16.5 40.5t39.5 16.5q24 0 41.5 -16.5t17.5 -40.5zM661 340 q0 -173 -81.5 -260t-226.5 -87q-146 0 -227.5 87t-81.5 260q0 176 81.5 265t227.5 89q145 0 226.5 -89t81.5 -265zM153 340q0 -254 200 -254q199 0 199 254q0 136 -53 199t-146 63q-200 0 -200 -262z" />
<glyph unicode="&#xd7;" horiz-adv-x="524" d="M99 24l-55 56l163 164l-163 164l55 55l163 -164l163 164l55 -55l-163 -164l163 -164l-55 -56l-163 164z" />
<glyph unicode="&#xd8;" d="M661 340q0 -173 -81.5 -260t-226.5 -87q-66 0 -120 18l-30 -61l-72 35l30 62q-117 86 -117 293q0 176 81.5 265t227.5 89q63 0 116 -18l27 56l72 -35l-28 -57q121 -88 121 -300zM552 340q0 137 -58 205l-219 -447q36 -12 78 -12q199 0 199 254zM153 340q0 -135 55 -198 l218 448q-33 12 -73 12q-200 0 -200 -262z" />
<glyph unicode="&#xd9;" horiz-adv-x="760" d="M547 255v347l-86 11v75h276v-75l-88 -11v-345q0 -131 -68.5 -197.5t-199.5 -66.5q-132 0 -201.5 66.5t-69.5 197.5v345l-86 11v75h280v-75l-88 -11v-342q0 -174 165 -174q84 0 125 45.5t41 123.5zM390 741l-137 183h131l90 -183h-84z" />
<glyph unicode="&#xda;" horiz-adv-x="760" d="M502 942l-136 -183h-85l91 183h130zM547 255v347l-86 11v75h276v-75l-88 -11v-345q0 -131 -68.5 -197.5t-199.5 -66.5q-132 0 -201.5 66.5t-69.5 197.5v345l-86 11v75h280v-75l-88 -11v-342q0 -174 165 -174q84 0 125 45.5t41 123.5z" />
<glyph unicode="&#xdb;" horiz-adv-x="760" d="M443 762l-75 112l-75 -112h-85l100 183h120l100 -183h-85zM547 255v347l-86 11v75h276v-75l-88 -11v-345q0 -131 -68.5 -197.5t-199.5 -66.5q-132 0 -201.5 66.5t-69.5 197.5v345l-86 11v75h280v-75l-88 -11v-342q0 -174 165 -174q84 0 125 45.5t41 123.5z" />
<glyph unicode="&#xdc;" horiz-adv-x="760" d="M345 797q0 -25 -17 -41.5t-41 -16.5q-23 0 -39.5 16.5t-16.5 41.5q0 24 16.5 40.5t39.5 16.5q24 0 41 -16.5t17 -40.5zM531 797q0 -24 -17.5 -41t-41.5 -17q-23 0 -39.5 16.5t-16.5 41.5q0 24 16.5 40.5t39.5 16.5q24 0 41.5 -16.5t17.5 -40.5zM547 255v347l-86 11v75 h276v-75l-88 -11v-345q0 -131 -68.5 -197.5t-199.5 -66.5q-132 0 -201.5 66.5t-69.5 197.5v345l-86 11v75h280v-75l-88 -11v-342q0 -174 165 -174q84 0 125 45.5t41 123.5z" />
<glyph unicode="&#xdd;" horiz-adv-x="700" d="M403 258v-173l89 -10v-75h-284v75l88 10v173l-217 344l-77 11v75h277v-75l-78 -11l145 -251h10l150 251l-79 11v75h272v-75l-78 -11zM488 945l-136 -183h-85l91 183h130z" />
<glyph unicode="&#xde;" horiz-adv-x="627" d="M234 688v-84h130q105 0 170.5 -57.5t65.5 -159.5q0 -108 -65.5 -164.5t-182.5 -56.5h-118v-81l107 -9v-76h-300v76l87 9v517l-87 10v76h193zM342 514h-108v-259h107q151 0 151 131q0 66 -42 97t-108 31z" />
<glyph unicode="&#xdf;" horiz-adv-x="631" d="M303 24l14 80q31 -25 87 -25q44 0 69 21t25 54q0 32 -16.5 54.5t-39.5 36.5l-46 28t-39.5 37t-16.5 56q0 28 14.5 51.5t31.5 38t31.5 40.5t14.5 59q0 48 -28 79.5t-85 31.5q-58 0 -91 -38.5t-33 -108.5v-434l55 -9v-76h-225v76l67 9v441q0 106 59.5 167.5t167.5 61.5 q96 0 155.5 -51.5t59.5 -131.5q0 -41 -14.5 -72.5t-31.5 -47.5t-31.5 -37t-14.5 -43q0 -21 16.5 -37.5t40 -31t46.5 -33t39.5 -53t16.5 -81.5q0 -68 -50.5 -105.5t-129.5 -37.5q-31 0 -60.5 7.5t-43.5 15.5z" />
<glyph unicode="&#xe0;" horiz-adv-x="585" d="M256 474q29 0 55 -7t42 -17t28 -20.5t17 -17.5l5 -7h3l15 62h77v-354q0 -38 30 -38l24 4v-76q-14 -10 -62 -10q-39 0 -60.5 21t-21.5 53v3h-3l-3 -4q-3 -5 -8 -11.5t-13 -15t-21 -16.5t-28 -15t-37 -11t-46 -4q-91 0 -151 63.5t-60 176.5q0 112 62 176.5t156 64.5z M277 79q78 0 117 50v198q-14 27 -45.5 44t-69.5 17q-62 0 -100.5 -40t-38.5 -115t40 -114.5t97 -39.5zM295 536l-137 183h131l90 -183h-84z" />
<glyph unicode="&#xe1;" horiz-adv-x="585" d="M256 474q29 0 55 -7t42 -17t28 -20.5t17 -17.5l5 -7h3l15 62h77v-354q0 -38 30 -38l24 4v-76q-14 -10 -62 -10q-39 0 -60.5 21t-21.5 53v3h-3l-3 -4q-3 -5 -8 -11.5t-13 -15t-21 -16.5t-28 -15t-37 -11t-46 -4q-91 0 -151 63.5t-60 176.5q0 112 62 176.5t156 64.5z M277 79q78 0 117 50v198q-14 27 -45.5 44t-69.5 17q-62 0 -100.5 -40t-38.5 -115t40 -114.5t97 -39.5zM461 719l-136 -183h-85l91 183h130z" />
<glyph unicode="&#xe2;" horiz-adv-x="585" d="M256 474q29 0 55 -7t42 -17t28 -20.5t17 -17.5l5 -7h3l15 62h77v-354q0 -38 30 -38l24 4v-76q-14 -10 -62 -10q-39 0 -60.5 21t-21.5 53v3h-3l-3 -4q-3 -5 -8 -11.5t-13 -15t-21 -16.5t-28 -15t-37 -11t-46 -4q-91 0 -151 63.5t-60 176.5q0 112 62 176.5t156 64.5z M277 79q78 0 117 50v198q-14 27 -45.5 44t-69.5 17q-62 0 -100.5 -40t-38.5 -115t40 -114.5t97 -39.5zM380 536l-75 112l-75 -112h-85l100 183h120l100 -183h-85z" />
<glyph unicode="&#xe3;" horiz-adv-x="585" d="M256 474q29 0 55 -7t42 -17t28 -20.5t17 -17.5l5 -7h3l15 62h77v-354q0 -38 30 -38l24 4v-76q-14 -10 -62 -10q-39 0 -60.5 21t-21.5 53v3h-3l-3 -4q-3 -5 -8 -11.5t-13 -15t-21 -16.5t-28 -15t-37 -11t-46 -4q-91 0 -151 63.5t-60 176.5q0 112 62 176.5t156 64.5z M277 79q78 0 117 50v198q-14 27 -45.5 44t-69.5 17q-62 0 -100.5 -40t-38.5 -115t40 -114.5t97 -39.5zM444 644l54 -34q-30 -85 -109 -85q-35 0 -86 22t-74 22q-30 0 -63 -37l-53 33q28 85 107 85q35 0 86 -22t76 -22q30 0 62 38z" />
<glyph unicode="&#xe4;" horiz-adv-x="585" d="M256 474q29 0 55 -7t42 -17t28 -20.5t17 -17.5l5 -7h3l15 62h77v-354q0 -38 30 -38l24 4v-76q-14 -10 -62 -10q-39 0 -60.5 21t-21.5 53v3h-3l-3 -4q-3 -5 -8 -11.5t-13 -15t-21 -16.5t-28 -15t-37 -11t-46 -4q-91 0 -151 63.5t-60 176.5q0 112 62 176.5t156 64.5z M277 79q78 0 117 50v198q-14 27 -45.5 44t-69.5 17q-62 0 -100.5 -40t-38.5 -115t40 -114.5t97 -39.5zM270 589q0 -25 -17 -41.5t-41 -16.5q-23 0 -39.5 16.5t-16.5 41.5q0 24 16.5 40.5t39.5 16.5q24 0 41 -16.5t17 -40.5zM456 589q0 -24 -17.5 -41t-41.5 -17 q-23 0 -39.5 16.5t-16.5 41.5q0 24 16.5 40.5t39.5 16.5q24 0 41.5 -16.5t17.5 -40.5z" />
<glyph unicode="&#xe5;" horiz-adv-x="585" d="M256 474q29 0 55 -7t42 -17t28 -20.5t17 -17.5l5 -7h3l15 62h77v-354q0 -38 30 -38l24 4v-76q-14 -10 -62 -10q-39 0 -60.5 21t-21.5 53v3h-3l-3 -4q-3 -5 -8 -11.5t-13 -15t-21 -16.5t-28 -15t-37 -11t-46 -4q-91 0 -151 63.5t-60 176.5q0 112 62 176.5t156 64.5z M277 79q78 0 117 50v198q-14 27 -45.5 44t-69.5 17q-62 0 -100.5 -40t-38.5 -115t40 -114.5t97 -39.5zM400 622q0 -40 -28 -68.5t-69 -28.5t-69.5 28t-28.5 69t28.5 69t69.5 28t69 -28.5t28 -68.5zM342 622q0 17 -11.5 28.5t-27.5 11.5q-17 0 -28.5 -11.5t-11.5 -28.5 t11.5 -28t28.5 -11t28 11t11 28z" />
<glyph unicode="&#xe6;" horiz-adv-x="835" d="M794 215h-332q5 -68 45 -103.5t102 -35.5q45 0 81 13t49 26l13 13l36 -76q-6 -7 -19.5 -16.5t-63.5 -26t-111 -16.5q-129 0 -192 87q-50 -88 -152 -88q-92 0 -152 63.5t-60 177.5q0 112 62 176t156 64q117 0 170 -58q62 59 165 59q96 0 152.5 -61.5t56.5 -144.5 q0 -15 -1.5 -28.5t-2.5 -19.5zM278 76q63 0 97 56q-16 48 -16 102q0 73 26 125q-40 31 -106 31q-62 0 -100.5 -41t-38.5 -117q0 -75 40 -115.5t98 -40.5zM593 398q-53 0 -88 -33t-42 -90h242v1q0 60 -33 91t-79 31z" />
<glyph unicode="&#xe7;" horiz-adv-x="511" d="M264 -184q-27 0 -51 9t-35 18l-11 9l33 45l4 -3q3 -3 8 -6.5t12 -7t16.5 -6t19.5 -2.5q43 0 43 32q0 13 -10 22t-27 9l-25 -5l-20 16l22 49q-96 10 -151 71.5t-55 167.5q0 120 62 180t176 60q104 0 152 -48.5t48 -118.5q0 -10 -1.5 -20t-3.5 -15l-2 -5l-90 -6q5 10 5 31 q0 96 -110 96q-66 0 -100 -35.5t-34 -118.5q0 -75 42 -115t108 -40q46 0 82.5 12.5t50.5 24.5l13 12l36 -76q-2 -2 -6 -5.5t-19 -13t-33 -17t-47.5 -14t-62.5 -8.5l-10 -25q14 0 28.5 -4t30 -22t15.5 -48q0 -36 -28 -57.5t-75 -21.5z" />
<glyph unicode="&#xe8;" horiz-adv-x="519" d="M477 208h-337q7 -64 48.5 -96.5t103.5 -32.5q45 0 81 12.5t49 24.5l13 12l37 -76q-7 -7 -20 -16.5t-63.5 -26t-110.5 -16.5q-109 0 -175 63t-66 178t65 177.5t173 62.5q96 0 152 -63.5t56 -148.5q0 -15 -1.5 -28.5t-3.5 -19.5zM276 392q-55 0 -92.5 -31.5t-43.5 -85.5 h248q-1 58 -34 87.5t-78 29.5zM257 536l-137 183h131l90 -183h-84z" />
<glyph unicode="&#xe9;" horiz-adv-x="519" d="M408 719l-136 -183h-85l91 183h130zM477 208h-337q7 -64 48.5 -96.5t103.5 -32.5q45 0 81 12.5t49 24.5l13 12l37 -76q-7 -7 -20 -16.5t-63.5 -26t-110.5 -16.5q-109 0 -175 63t-66 178t65 177.5t173 62.5q96 0 152 -63.5t56 -148.5q0 -15 -1.5 -28.5t-3.5 -19.5z M276 392q-55 0 -92.5 -31.5t-43.5 -85.5h248q-1 58 -34 87.5t-78 29.5z" />
<glyph unicode="&#xea;" horiz-adv-x="519" d="M343 536l-75 112l-75 -112h-85l100 183h120l100 -183h-85zM477 208h-337q7 -64 48.5 -96.5t103.5 -32.5q45 0 81 12.5t49 24.5l13 12l37 -76q-7 -7 -20 -16.5t-63.5 -26t-110.5 -16.5q-109 0 -175 63t-66 178t65 177.5t173 62.5q96 0 152 -63.5t56 -148.5 q0 -15 -1.5 -28.5t-3.5 -19.5zM276 392q-55 0 -92.5 -31.5t-43.5 -85.5h248q-1 58 -34 87.5t-78 29.5z" />
<glyph unicode="&#xeb;" horiz-adv-x="519" d="M240 589q0 -25 -17 -41.5t-41 -16.5q-23 0 -39.5 16.5t-16.5 41.5q0 24 16.5 40.5t39.5 16.5q24 0 41 -16.5t17 -40.5zM426 589q0 -24 -17.5 -41t-41.5 -17q-23 0 -39.5 16.5t-16.5 41.5q0 24 16.5 40.5t39.5 16.5q24 0 41.5 -16.5t17.5 -40.5zM477 208h-337 q7 -64 48.5 -96.5t103.5 -32.5q45 0 81 12.5t49 24.5l13 12l37 -76q-7 -7 -20 -16.5t-63.5 -26t-110.5 -16.5q-109 0 -175 63t-66 178t65 177.5t173 62.5q96 0 152 -63.5t56 -148.5q0 -15 -1.5 -28.5t-3.5 -19.5zM276 392q-55 0 -92.5 -31.5t-43.5 -85.5h248q-1 58 -34 87.5 t-78 29.5z" />
<glyph unicode="&#xec;" horiz-adv-x="301" d="M209 467v-381l61 -11v-75h-231v75l66 11v295l-66 11v75h170zM89 532l-137 183h131l90 -183h-84z" />
<glyph unicode="&#xed;" horiz-adv-x="301" d="M326 719l-136 -183h-85l91 183h130zM209 467v-381l61 -11v-75h-231v75l66 11v295l-66 11v75h170z" />
<glyph unicode="&#xee;" horiz-adv-x="301" d="M224 536l-75 112l-75 -112h-85l100 183h120l100 -183h-85zM209 467v-381l61 -11v-75h-231v75l66 11v295l-66 11v75h170z" />
<glyph unicode="&#xef;" horiz-adv-x="301" d="M117 589q0 -25 -17 -41.5t-41 -16.5q-23 0 -39.5 16.5t-16.5 41.5q0 24 16.5 40.5t39.5 16.5q24 0 41 -16.5t17 -40.5zM303 589q0 -24 -17.5 -41t-41.5 -17q-23 0 -39.5 16.5t-16.5 41.5q0 24 16.5 40.5t39.5 16.5q24 0 41.5 -16.5t17.5 -40.5zM209 467v-381l61 -11v-75 h-231v75l66 11v295l-66 11v75h170z" />
<glyph unicode="&#xf0;" horiz-adv-x="621" d="M462 666l-45 -38q72 -53 114 -133t42 -178q0 -166 -76 -245t-206 -79q-118 0 -185 63t-67 159t60 154.5t175 58.5q113 0 187 -57q-18 127 -122 191l-76 -64l-40 47l55 46q-70 24 -153 24l57 92q94 0 181 -45l59 50zM291 86q157 0 172 191q-67 63 -170 63 q-71 0 -110.5 -35.5t-39.5 -88.5q0 -58 38.5 -94t109.5 -36z" />
<glyph unicode="&#xf1;" horiz-adv-x="612" d="M180 467l11 -85h3q1 4 3.5 10t14.5 22t28 28t46.5 22t67.5 10q87 0 131 -49.5t44 -131.5v-208l66 -10v-75h-169v275q0 113 -105 113q-31 0 -55 -11.5t-36.5 -28.5t-17 -27t-6.5 -17v-219l62 -9v-76h-231v75l66 10v297l-66 10v75h143zM448 644l54 -34q-30 -85 -109 -85 q-35 0 -86 22t-74 22q-30 0 -63 -37l-53 33q28 85 107 85q35 0 86 -22t76 -22q30 0 62 38z" />
<glyph unicode="&#xf2;" horiz-adv-x="551" d="M514 234q0 -116 -64 -178.5t-174 -62.5t-174.5 62.5t-64.5 178.5q0 115 65.5 177.5t173.5 62.5q107 0 172.5 -62.5t65.5 -177.5zM276 79q59 0 97 40t38 115q0 74 -39.5 114t-95.5 40q-57 0 -97 -40t-40 -114q0 -75 38.5 -115t98.5 -40zM264 536l-137 183h131l90 -183h-84 z" />
<glyph unicode="&#xf3;" horiz-adv-x="551" d="M419 719l-136 -183h-85l91 183h130zM514 234q0 -116 -64 -178.5t-174 -62.5t-174.5 62.5t-64.5 178.5q0 115 65.5 177.5t173.5 62.5q107 0 172.5 -62.5t65.5 -177.5zM276 79q59 0 97 40t38 115q0 74 -39.5 114t-95.5 40q-57 0 -97 -40t-40 -114q0 -75 38.5 -115t98.5 -40 z" />
<glyph unicode="&#xf4;" horiz-adv-x="551" d="M346 536l-75 112l-75 -112h-85l100 183h120l100 -183h-85zM514 234q0 -116 -64 -178.5t-174 -62.5t-174.5 62.5t-64.5 178.5q0 115 65.5 177.5t173.5 62.5q107 0 172.5 -62.5t65.5 -177.5zM276 79q59 0 97 40t38 115q0 74 -39.5 114t-95.5 40q-57 0 -97 -40t-40 -114 q0 -75 38.5 -115t98.5 -40z" />
<glyph unicode="&#xf5;" horiz-adv-x="551" d="M514 234q0 -116 -64 -178.5t-174 -62.5t-174.5 62.5t-64.5 178.5q0 115 65.5 177.5t173.5 62.5q107 0 172.5 -62.5t65.5 -177.5zM276 79q59 0 97 40t38 115q0 74 -39.5 114t-95.5 40q-57 0 -97 -40t-40 -114q0 -75 38.5 -115t98.5 -40zM411 644l54 -34q-30 -85 -109 -85 q-34 0 -86 22t-74 22q-30 0 -63 -37l-53 33q28 85 107 85q35 0 86 -22t76 -22q30 0 62 38z" />
<glyph unicode="&#xf6;" horiz-adv-x="551" d="M232 589q0 -25 -17 -41.5t-41 -16.5q-23 0 -39.5 16.5t-16.5 41.5q0 24 16.5 40.5t39.5 16.5q24 0 41 -16.5t17 -40.5zM418 589q0 -24 -17.5 -41t-41.5 -17q-23 0 -39.5 16.5t-16.5 41.5q0 24 16.5 40.5t39.5 16.5q24 0 41.5 -16.5t17.5 -40.5zM514 234 q0 -116 -64 -178.5t-174 -62.5t-174.5 62.5t-64.5 178.5q0 115 65.5 177.5t173.5 62.5q107 0 172.5 -62.5t65.5 -177.5zM276 79q59 0 97 40t38 115q0 74 -39.5 114t-95.5 40q-57 0 -97 -40t-40 -114q0 -75 38.5 -115t98.5 -40z" />
<glyph unicode="&#xf7;" horiz-adv-x="558" d="M340 97q0 -24 -17.5 -41.5t-41.5 -17.5q-25 0 -42 17.5t-17 41.5q0 26 17 43t42 17q24 0 41.5 -17.5t17.5 -42.5zM340 452q0 -25 -17.5 -42t-41.5 -17q-25 0 -42 16.5t-17 42.5q0 24 17 41.5t42 17.5q24 0 41.5 -17.5t17.5 -41.5zM506 241h-455v81h455v-81z" />
<glyph unicode="&#xf8;" horiz-adv-x="551" d="M168 -47l-58 32l23 45q-96 61 -96 204q0 115 65.5 177.5t173.5 62.5q40 0 74 -9l24 46l58 -32l-20 -40q102 -62 102 -205q0 -116 -64 -178.5t-174 -62.5q-41 0 -83 10zM276 79q59 0 97 40t38 115q0 76 -43 117l-134 -267q16 -5 42 -5zM139 234q0 -75 38 -115l133 265 q-15 4 -34 4q-57 0 -97 -40t-40 -114z" />
<glyph unicode="&#xf9;" horiz-adv-x="602" d="M421 89h-3q-1 -4 -3.5 -10.5t-14.5 -23t-28 -29t-46 -23t-68 -10.5q-87 0 -131 49.5t-44 131.5v208l-66 10v75h170v-275q0 -113 105 -113q29 0 52 9.5t35.5 25t18 25.5t8.5 20v223l-61 10v75h165v-382l66 -10v-75h-144zM246 536l-137 183h131l90 -183h-84z" />
<glyph unicode="&#xfa;" horiz-adv-x="602" d="M400 719l-136 -183h-85l91 183h130zM421 89h-3q-1 -4 -3.5 -10.5t-14.5 -23t-28 -29t-46 -23t-68 -10.5q-87 0 -131 49.5t-44 131.5v208l-66 10v75h170v-275q0 -113 105 -113q29 0 52 9.5t35.5 25t18 25.5t8.5 20v223l-61 10v75h165v-382l66 -10v-75h-144z" />
<glyph unicode="&#xfb;" horiz-adv-x="602" d="M340 536l-75 112l-75 -112h-85l100 183h120l100 -183h-85zM421 89h-3q-1 -4 -3.5 -10.5t-14.5 -23t-28 -29t-46 -23t-68 -10.5q-87 0 -131 49.5t-44 131.5v208l-66 10v75h170v-275q0 -113 105 -113q29 0 52 9.5t35.5 25t18 25.5t8.5 20v223l-61 10v75h165v-382l66 -10 v-75h-144z" />
<glyph unicode="&#xfc;" horiz-adv-x="602" d="M237 589q0 -25 -17 -41.5t-41 -16.5q-23 0 -39.5 16.5t-16.5 41.5q0 24 16.5 40.5t39.5 16.5q24 0 41 -16.5t17 -40.5zM423 589q0 -24 -17.5 -41t-41.5 -17q-23 0 -39.5 16.5t-16.5 41.5q0 24 16.5 40.5t39.5 16.5q24 0 41.5 -16.5t17.5 -40.5zM421 89h-3 q-1 -4 -3.5 -10.5t-14.5 -23t-28 -29t-46 -23t-68 -10.5q-87 0 -131 49.5t-44 131.5v208l-66 10v75h170v-275q0 -113 105 -113q29 0 52 9.5t35.5 25t18 25.5t8.5 20v223l-61 10v75h165v-382l66 -10v-75h-144z" />
<glyph unicode="&#xfd;" horiz-adv-x="584" d="M413 -47v111h-3q-40 -71 -149 -71q-88 0 -131.5 49.5t-43.5 131.5v208l-67 10v75h170v-275q0 -113 104 -113q26 0 47 8.5t32.5 18.5t20.5 24t12 20.5t4 11.5v220l-63 10v75h166v-514q0 -120 -67.5 -179.5t-179.5 -59.5q-38 0 -72 8t-55.5 19t-38 22t-23.5 19l-7 8l44 72 q2 -2 5 -6.5t15.5 -15t28 -18.5t42 -14.5t57.5 -6.5q152 0 152 152zM408 719l-136 -183h-85l91 183h130z" />
<glyph unicode="&#xfe;" horiz-adv-x="571" d="M72 -193v854l-66 10v75h170v-309l-4 -30h3q51 67 147 67q94 0 152 -61.5t58 -179.5q0 -113 -60 -176.5t-151 -63.5q-100 0 -146 59l-1 1h-3q5 -37 5 -40v-210l87 -6v-75h-257v75zM291 387q-38 0 -69.5 -16.5t-45.5 -43.5v-198q38 -49 117 -49q57 0 97 40t40 113 t-38.5 113.5t-100.5 40.5z" />
<glyph unicode="&#xff;" horiz-adv-x="584" d="M413 -47v111h-3q-40 -71 -149 -71q-88 0 -131.5 49.5t-43.5 131.5v208l-67 10v75h170v-275q0 -113 104 -113q26 0 47 8.5t32.5 18.5t20.5 24t12 20.5t4 11.5v220l-63 10v75h166v-514q0 -120 -67.5 -179.5t-179.5 -59.5q-38 0 -72 8t-55.5 19t-38 22t-23.5 19l-7 8l44 72 q2 -2 5 -6.5t15.5 -15t28 -18.5t42 -14.5t57.5 -6.5q152 0 152 152zM244 589q0 -25 -17 -41.5t-41 -16.5q-23 0 -39.5 16.5t-16.5 41.5q0 24 16.5 40.5t39.5 16.5q24 0 41 -16.5t17 -40.5zM430 589q0 -24 -17.5 -41t-41.5 -17q-23 0 -39.5 16.5t-16.5 41.5q0 24 16.5 40.5 t39.5 16.5q24 0 41.5 -16.5t17.5 -40.5z" />
<glyph unicode="&#x152;" horiz-adv-x="883" d="M830 0h-463q-141 3 -218.5 87t-77.5 253q0 175 81 261.5t227 86.5h453l3 -194h-82l-11 105h-258v-209h222v-87h-222v-214h257l11 104h82zM180 340q0 -250 198 -250v508q-198 -2 -198 -258z" />
<glyph unicode="&#x153;" horiz-adv-x="895" d="M854 208h-337q7 -64 48.5 -96.5t103.5 -32.5q45 0 81 12.5t49 24.5l13 12l37 -76q-7 -7 -20 -16.5t-63.5 -26t-110.5 -16.5q-125 0 -190 79q-64 -79 -189 -79q-110 0 -174.5 62.5t-64.5 178.5q0 115 65.5 177.5t173.5 62.5q123 0 188 -79q64 79 188 79q96 0 152 -63.5 t56 -148.5q0 -15 -1.5 -28.5t-2.5 -19.5zM276 79q59 0 97 40t38 115q0 74 -39.5 114t-95.5 40q-57 0 -97 -40t-40 -114q0 -75 38.5 -115t98.5 -40zM653 392q-55 0 -92.5 -31.5t-43.5 -85.5h248q-1 58 -34 87.5t-78 29.5z" />
<glyph unicode="&#x178;" horiz-adv-x="700" d="M403 258v-173l89 -10v-75h-284v75l88 10v173l-217 344l-77 11v75h277v-75l-78 -11l145 -251h10l150 251l-79 11v75h272v-75l-78 -11zM316 797q0 -25 -17 -41.5t-41 -16.5q-23 0 -39.5 16.5t-16.5 41.5q0 24 16.5 40.5t39.5 16.5q24 0 41 -16.5t17 -40.5zM502 797 q0 -24 -17.5 -41t-41.5 -17q-23 0 -39.5 16.5t-16.5 41.5q0 24 16.5 40.5t39.5 16.5q24 0 41.5 -16.5t17.5 -40.5z" />
<glyph unicode="&#x2c6;" horiz-adv-x="418" d="M278 536l-75 112l-75 -112h-85l100 183h120l100 -183h-85z" />
<glyph unicode="&#x2dc;" horiz-adv-x="399" d="M343 644l54 -34q-30 -85 -109 -85q-34 0 -86 22t-74 22q-30 0 -63 -37l-53 33q28 85 107 85q35 0 86 -22t76 -22q30 0 62 38z" />
<glyph unicode="&#x2000;" horiz-adv-x="472" />
<glyph unicode="&#x2001;" horiz-adv-x="945" />
<glyph unicode="&#x2002;" horiz-adv-x="472" />
<glyph unicode="&#x2003;" horiz-adv-x="945" />
<glyph unicode="&#x2004;" horiz-adv-x="315" />
<glyph unicode="&#x2005;" horiz-adv-x="236" />
<glyph unicode="&#x2006;" horiz-adv-x="157" />
<glyph unicode="&#x2007;" horiz-adv-x="157" />
<glyph unicode="&#x2008;" horiz-adv-x="118" />
<glyph unicode="&#x2009;" horiz-adv-x="189" />
<glyph unicode="&#x200a;" horiz-adv-x="52" />
<glyph unicode="&#x2010;" horiz-adv-x="463" d="M405 243h-347v98h347v-98z" />
<glyph unicode="&#x2011;" horiz-adv-x="463" d="M405 243h-347v98h347v-98z" />
<glyph unicode="&#x2012;" horiz-adv-x="463" d="M405 243h-347v98h347v-98z" />
<glyph unicode="&#x2013;" horiz-adv-x="564" d="M505 243h-447v98h447v-98z" />
<glyph unicode="&#x2014;" horiz-adv-x="854" d="M808 243h-756v98h756v-98z" />
<glyph unicode="&#x2018;" horiz-adv-x="201" d="M128 812l13 -34q-15 -5 -32.5 -23t-17.5 -45l2 -8q5 4 17 4q23 0 38.5 -16t15.5 -41q0 -24 -17.5 -40t-42.5 -16q-30 0 -49 21.5t-19 58.5q0 109 92 139z" />
<glyph unicode="&#x2019;" horiz-adv-x="202" d="M75 528l-13 34q15 5 32.5 23t17.5 45l-2 8q-5 -4 -17 -4q-23 0 -38.5 16t-15.5 41q0 24 17.5 40t42.5 16q30 0 49 -21.5t19 -58.5q0 -109 -92 -139z" />
<glyph unicode="&#x201a;" horiz-adv-x="233" d="M88 -113l-13 34q15 5 32.5 23t17.5 45l-2 8q-5 -4 -17 -4q-23 0 -38.5 16t-15.5 41q0 24 17.5 40t42.5 16q30 0 49 -21.5t19 -58.5q0 -109 -92 -139z" />
<glyph unicode="&#x201c;" horiz-adv-x="373" d="M128 812l13 -34q-15 -5 -32.5 -23t-17.5 -45l2 -8q5 4 17 4q23 0 38.5 -16t15.5 -41q0 -24 -17.5 -40t-42.5 -16q-30 0 -49 21.5t-19 58.5q0 109 92 139zM301 812l13 -34q-15 -5 -32.5 -23t-17.5 -45l2 -8q5 4 17 4q23 0 38.5 -16t15.5 -41q0 -24 -17.5 -40t-42.5 -16 q-30 0 -49 21.5t-19 58.5q0 109 92 139z" />
<glyph unicode="&#x201d;" horiz-adv-x="367" d="M75 528l-13 34q15 5 32.5 23t17.5 45l-2 8q-5 -4 -17 -4q-23 0 -38.5 16t-15.5 41q0 24 17.5 40t42.5 16q30 0 49 -21.5t19 -58.5q0 -109 -92 -139zM240 528l-13 34q15 5 32.5 23t17.5 45l-2 8q-5 -4 -17 -4q-23 0 -38.5 16t-15.5 41q0 24 17.5 40t42.5 16q30 0 49 -21.5 t19 -58.5q0 -109 -92 -139z" />
<glyph unicode="&#x201e;" horiz-adv-x="398" d="M88 -113l-13 34q15 5 32.5 23t17.5 45l-2 8q-5 -4 -17 -4q-23 0 -38.5 16t-15.5 41q0 24 17.5 40t42.5 16q30 0 49 -21.5t19 -58.5q0 -109 -92 -139zM253 -113l-13 34q15 5 32.5 23t17.5 45l-2 8q-5 -4 -17 -4q-23 0 -38.5 16t-15.5 41q0 24 17.5 40t42.5 16 q30 0 49 -21.5t19 -58.5q0 -109 -92 -139z" />
<glyph unicode="&#x2022;" horiz-adv-x="350" d="M174 230q-49 0 -75.5 28t-26.5 77q0 48 26.5 77t75.5 29q47 0 75.5 -29.5t28.5 -76.5q0 -49 -28 -77t-76 -28z" />
<glyph unicode="&#x2026;" horiz-adv-x="534" d="M170 52q0 -25 -17.5 -42t-42.5 -17q-24 0 -41.5 17t-17.5 42t17.5 42t41.5 17q25 0 42.5 -17t17.5 -42zM327 52q0 -25 -17.5 -42t-42.5 -17q-24 0 -41.5 17t-17.5 42t17.5 42t41.5 17q25 0 42.5 -17t17.5 -42zM483 52q0 -25 -17.5 -42t-41.5 -17q-25 0 -42 17t-17 42 t17 42t42 17q24 0 41.5 -17t17.5 -42z" />
<glyph unicode="&#x202f;" horiz-adv-x="189" />
<glyph unicode="&#x2039;" horiz-adv-x="286" d="M132 240l118 -138l-68 -55l-139 163v60l139 162l68 -55z" />
<glyph unicode="&#x203a;" horiz-adv-x="286" d="M39 102l118 138l-118 137l68 55l139 -162v-60l-139 -163z" />
<glyph unicode="&#x205f;" horiz-adv-x="236" />
<glyph unicode="&#x20ac;" horiz-adv-x="688" d="M28 302h87q-1 12 -1 39v20h-86v68h92q21 132 102.5 198.5t210.5 66.5q19 0 36.5 -1.5t32.5 -3.5t29.5 -6t25 -7t22.5 -8t19 -8.5t16 -8.5t12.5 -7.5t10 -7t7.5 -4.5l-51 -78q-65 48 -155 48q-174 0 -207 -173h270v-68h-278v-21q0 -26 1 -38h236v-68h-225 q39 -148 206 -148q94 0 155 45l50 -79q-86 -59 -213 -59q-124 0 -204.5 60.5t-104.5 180.5h-96v68z" />
<glyph unicode="&#x2122;" horiz-adv-x="1091" d="M348 289h-181v56l53 8v300h-96l-8 -70h-58v135h397v-135h-58l-8 70h-93v-300l52 -8v-56zM1036 289h-167v57l42 7l-15 251h-1l-109 -276h-44l-108 276h-1l-16 -251l42 -7v-57h-167v57l51 7l15 300l-50 8v57h143l87 -216l26 -72h1q14 41 27 72l88 216h141v-57l-50 -8 l15 -300l50 -7v-57z" />
<glyph unicode="&#x25fc;" horiz-adv-x="465" d="M0 465h465v-465h-465v465z" />
</font>
</defs>
</svg>
